<svg xmlns="http://www.w3.org/2000/svg"   viewBox="0 0 1024 1024">
    <g fill="none" fill-rule="evenodd">
        <g fill="#000" fill-rule="nonzero">
            <path d="M896 864c17.673 0 32 14.327 32 32 0 17.496-14.042 31.713-31.47 31.996L896 928H128c-17.673 0-32-14.327-32-32 0-17.496 14.042-31.713 31.47-31.996L128 864h768zM832 96c70.692 0 128 57.308 128 128v448c0 70.692-57.308 128-128 128H192c-70.692 0-128-57.308-128-128V224c0-70.692 57.308-128 128-128zm0 64H192c-35.346 0-64 28.654-64 64v448c0 35.346 28.654 64 64 64h640c35.346 0 64-28.654 64-64V224c0-35.346-28.654-64-64-64zm-340 99c86.709 0 157 70.291 157 157 0 31.505-9.28 60.842-25.255 85.428l83.475 80.544c12.718 12.271 13.08 32.53.808 45.248-12.149 12.59-32.125 13.071-44.864 1.172l-.384-.364-84.073-81.122C553.862 563.395 524.053 573 492 573c-86.709 0-157-70.291-157-157s70.291-157 157-157zm0 64c-51.362 0-93 41.638-93 93s41.638 93 93 93 93-41.638 93-93-41.638-93-93-93z"/>
        </g>
    </g>
</svg>
