<svg xmlns="http://www.w3.org/2000/svg"   viewBox="0 0 1024 1024">
    <g fill="none" fill-rule="evenodd">
        <g fill="#000" fill-rule="nonzero">
            <path d="M684.4 63.825c47.486 0 84.09 39.27 84.09 85.555v37.486l-.009.984c-.274 18.342-6.336 36.22-17.456 50.91-2.169 2.865-4.575 5.543-7.193 8.004L547.428 431.393l-.294.547c-2.094 3.974-3.412 8.536-3.788 13.325l-.009.119.021.503c.012.351.02.703.026 1.055l.008 1.058v447.825c0 50.205-55.168 80.861-97.8 54.347l-116.387-72.387-.851-.498c-25.804-15.342-41.346-43.269-41.58-73.102l-.002-.942V448.07c-.005-6.026-1.504-11.81-4.18-16.67l-.105-.188L88.805 246.413c-2.22-2.118-4.285-4.393-6.178-6.806l-.624-.81c-11.274-14.856-17.364-32.987-17.512-51.565V149.38c0-46.284 36.604-85.555 84.091-85.555zm0 64H148.245c-10.94.195-19.755 9.77-19.755 21.555v37.348l.009.487c.136 4.705 1.71 9.237 4.485 12.894L331.691 389.7l.472.64c12.037 16.447 18.594 36.756 18.608 57.684v355.409l.003.414c.12 8.004 4.382 15.288 11.077 18.874l117.541 73.104V448h-.157l.004-.814c.191-20.896 6.903-41.13 19.076-57.462l201.68-189.59.285-.384c2.7-3.739 4.183-8.332 4.21-13.07v-37.66c-.181-11.738-9.107-21.195-20.09-21.195zM928 704c17.673 0 32 14.327 32 32 0 17.673-14.327 32-32 32H672c-17.673 0-32-14.327-32-32 0-17.673 14.327-32 32-32h256zm0-128c17.673 0 32 14.327 32 32 0 17.673-14.327 32-32 32H672c-17.673 0-32-14.327-32-32 0-17.673 14.327-32 32-32h256zm0-128c17.673 0 32 14.327 32 32 0 17.673-14.327 32-32 32H672c-17.673 0-32-14.327-32-32 0-17.673 14.327-32 32-32h256z"/>
        </g>
    </g>
</svg>
