<svg xmlns="http://www.w3.org/2000/svg"   viewBox="0 0 1024 1024">
    <g fill="none" fill-rule="evenodd">
        <g fill="#000" fill-rule="nonzero">
            <path d="M214.25 169.001l.377.372L512 466.745l297.373-297.372c12.496-12.497 32.758-12.497 45.254 0 12.372 12.371 12.496 32.353.372 44.877l-.372.377L557.255 512l297.372 297.373c12.497 12.496 12.497 32.758 0 45.254-12.371 12.372-32.353 12.496-44.877.372l-.377-.372L512 557.255 214.627 854.627c-12.496 12.497-32.758 12.497-45.254 0C157 842.256 156.877 822.274 169 809.75l.372-.377L466.745 512 169.373 214.627c-12.497-12.496-12.497-32.758 0-45.254C181.744 157 201.726 156.877 214.25 169z"/>
        </g>
    </g>
</svg>
