<svg xmlns="http://www.w3.org/2000/svg"   viewBox="0 0 1024 1024">
    <g fill="none" fill-rule="evenodd">
        <g fill="#000" fill-rule="nonzero">
            <path d="M511.889 32C775.973 32 991.759 229.75 992 474.573c0 244.763-215.86 442.698-479.889 442.698-46.305 0-92.289-6.247-137.01-18.631l-.994-.278-131.654 86.008-.932.524c-8.267 4.645-17.438 7.106-26.814 7.106-14.705 0-28.779-5.901-39.27-16.542l.223.224-.295-.292c-15.488-15.499-21.093-38.63-15.303-59.827l.179-.642.052-.181 24.736-116.2-3.035-2.614C87.148 713.514 33.156 600.099 32.018 478.617L32 474.698C32 229.935 247.86 32 511.889 32zm0 64C282.026 96 96 266.58 96 474.698c0 110.746 51.907 213.993 144.124 286.245l15.721 12.318-31.135 146.252 139.384-91.055 14.39 4.477c43.447 13.517 88.354 20.336 133.627 20.336C741.974 853.27 928 682.69 928 474.604 927.795 266.427 741.825 96 511.889 96zM352 384c35.346 0 64 28.654 64 64 0 35.346-28.654 64-64 64-35.346 0-64-28.654-64-64 0-35.346 28.654-64 64-64zm320 0c35.346 0 64 28.654 64 64 0 35.346-28.654 64-64 64-35.346 0-64-28.654-64-64 0-35.346 28.654-64 64-64z"/>
        </g>
    </g>
</svg>
