<svg xmlns="http://www.w3.org/2000/svg"   viewBox="0 0 1024 1024">
    <g fill="none" fill-rule="evenodd">
        <g fill="#000">
            <path d="M254.464 135.731c40.512-35.072 100.928-33.984 140.096 2.496l39.64 36.907c20.486 2.955 40.25 11.983 56.418 27.042l66.048 61.504c12.809-42.843 41.35-69.504 93.164-69.504 31.296 0 63.104 25.344 92.16 64.512l-.386-.518c1.398-.039 2.813-.058 4.246-.058 115.392 0 238.72 336.832 194.048 485.568-49.664 165.12-227.072 255.168-408.192 199.808-42.803-13.087-93.044-44.182-142.495-83.653C258.622 792.16 92.53 611.008 67.648 523.251c-9.6-33.92.384-68.736 23.168-92.416-29.888-38.208-28.48-93.504 5.568-130.24l1.472-1.536c6.656-6.848 14.016-12.608 21.952-17.216-4.8-30.528 4.032-62.848 26.88-87.04 2.24-2.368 2.24-2.368 4.608-4.608 22.976-21.504 52.928-31.04 82.112-28.736 4.096-7.232 9.216-14.08 15.296-20.288l.815-.815c2.035-2.03 2.316-2.282 4.945-4.625zM446.97 249.024c-15.296-14.272-38.848-14.656-54.592-1.024-.704.64-1.344 1.28-1.984 1.92-13.12 13.312-12.928 34.752.448 47.872L549.114 453.12c6.4 6.272 6.848 16.384 1.088 23.232-.256.32-.576.576-.832.896-5.632 5.696-14.976 5.76-20.736.064L351.61 301.696c-16.704-16.512-43.456-16.896-60.608-.896-.576.576-1.152 1.152-1.728 1.792-14.912 15.872-14.208 40.832 1.664 55.808l198.144 186.56c5.568 5.248 5.888 14.016.704 19.712-5.12 5.632-13.888 6.08-19.584.96L293.242 405.76c-15.36-13.888-38.976-13.12-53.44 1.792l-.576.576c-13.632 14.72-12.8 37.696 1.92 51.392L416.25 622.208c5.888 5.504 6.336 14.656 1.024 20.672s-14.4 6.528-20.352 1.28L276.538 537.472c-8.064-7.104-19.2-9.6-29.568-6.72-16.768 4.736-26.496 22.272-21.76 38.976 16.192 57.28 193.024 272.128 325.248 312.576 153.536 46.976 290.56-32.128 328.128-157.056C916.154 600.32 799.29 322.112 745.85 322.112c-33.088 0-44.48 37.504-34.24 112.576 1.408 10.688-5.056 20.864-15.424 24-11.2 3.456-23.424.576-32.064-7.424zM172.4 469.43c-6.724-3.175-14.074-4.654-21.424-2.563-16.768 4.736-26.496 22.208-21.76 38.976 3.456 12.288 14.656 32 30.848 55.488l-.059-.083c-.04-25.04 9.83-48.839 26.805-66.528-5.978-7.629-10.704-15.946-14.167-24.665zm24.848-127.555c-15.36-13.888-38.976-13.12-53.44 1.728l-.576.576c-13.632 14.72-12.8 37.76 1.92 51.392l21.833 20.319c3.174-18.59 11.608-36.5 25.393-51.346.768-.768.768-.768 1.472-1.6 4.277-4.4 8.872-8.326 13.699-11.792zm452.582-83.699c-23.424 0-35.52 19.904-37.12 57.728v-.034l34.196 31.842c4.729-29.464 15.445-52.924 33.456-68.435-11.203-13.089-21.768-21.101-30.532-21.101zm-394.214-20.429c-16.704-16.512-43.456-16.896-60.608-.832l-1.728 1.728c-14.976 15.872-14.208 40.896 1.664 55.872l20.775 19.529c3.049-20.067 12.018-39.446 26.963-55.356 2.24-2.304 2.24-2.304 4.608-4.544 4.353-4.087 8.957-7.741 13.758-10.965zm95.36-52.672c-15.296-14.208-38.848-14.656-54.592-.96-.704.576-1.344 1.216-1.984 1.856-11.714 11.905-12.215 29.949-2.864 43.1 12.343-3.492 25.177-4.729 37.866-3.727 4.096-7.232 9.216-14.016 15.296-20.288 2.816-2.752 2.816-2.752 5.76-5.376 2.848-2.466 5.795-4.753 8.825-6.862zm472.717-70.253l29.888 109.184-129.28-15.808 99.392-93.376zM626.637.006l144 51.264-137.28 117.952L626.637.006zm-86.464 15.36L541.9 142.47 437.58 66.63l102.592-51.264z"/>
        </g>
    </g>
</svg>
