<svg xmlns="http://www.w3.org/2000/svg"   viewBox="0 0 1024 1024">
    <g fill="none" fill-rule="evenodd">
        <g fill="#000" fill-rule="nonzero">
            <path d="M136.166 97.06l.51.139 781 220c17.012 4.792 26.917 22.466 22.125 39.477-4.744 16.841-22.114 26.718-38.967 22.265l-.51-.14L800 350.541V436h32c17.673 0 32 14.327 32 32 0 17.496-14.042 31.713-31.47 31.996L832 500H704c-17.673 0-32-14.327-32-32 0-17.496 14.042-31.713 31.47-31.996L704 436h32V332.513l-192-54.085V832.5h192c17.673 0 32 14.327 32 32 0 17.496-14.042 31.713-31.47 31.996l-.53.004H288c-17.673 0-32-14.327-32-32 0-17.496 14.042-31.713 31.47-31.996l.53-.004h192V260.4l-192-54.084V288h32c17.673 0 32 14.327 32 32 0 17.496-14.042 31.713-31.47 31.996L320 352H192c-17.673 0-32-14.327-32-32 0-17.496 14.042-31.713 31.47-31.996L192 288h32v-99.713L119.324 158.8c-17.012-4.792-26.917-22.466-22.125-39.477 4.744-16.841 22.114-26.718 38.967-22.265z"/>
        </g>
    </g>
</svg>
