<svg xmlns="http://www.w3.org/2000/svg"   viewBox="0 0 1024 1024">
    <g fill="none" fill-rule="evenodd">
        <g fill="#000" fill-rule="nonzero">
            <path d="M926 128c17.673 0 32 14.327 32 32 0 17.496-14.042 31.713-31.47 31.996L926 192h-30v572.78c0 72.172-57.922 130.816-129.817 131.982l-2.183.018H260c-72.902 0-132-59.099-132-132V192H96c-17.673 0-32-14.327-32-32 0-17.496 14.042-31.713 31.47-31.996L96 128h830zm-94 64H192v572.78c0 36.808 29.245 66.785 65.767 67.964l1.108.026 1.125.01h504c37.555 0 68-30.445 68-68V192zm-84.383 169.752c12.377 12.366 12.51 32.347.392 44.877l-.37.377-171.2 171.363c-12.375 12.386-32.373 12.51-44.9.371l-.377-.371-63.484-63.544-148.04 148.181c-12.366 12.378-32.348 12.511-44.877.393l-.378-.371c-12.377-12.366-12.51-32.348-.392-44.878l.37-.377 170.68-170.84c12.374-12.386 32.372-12.51 44.899-.372l.377.371 63.482 63.543 148.563-148.702c12.49-12.503 32.752-12.512 45.255-.021z"/>
        </g>
    </g>
</svg>
