<svg xmlns="http://www.w3.org/2000/svg"   viewBox="0 0 1024 1024">
    <g fill="none" fill-rule="evenodd">
        <g fill="#000" fill-rule="nonzero">
            <path d="M736 64c88.366 0 160 71.634 160 160v576c0 88.366-71.634 160-160 160H288c-88.366 0-160-71.634-160-160V224c0-88.366 71.634-160 160-160zm-96 128H384c-35.346 0-64-28.654-64-64h-32c-53.02 0-96 42.98-96 96v576c0 53.02 42.98 96 96 96h448c53.02 0 96-42.98 96-96V224c0-53.02-42.98-96-96-96h-32c0 35.346-28.654 64-64 64zm32 576c17.673 0 32 14.327 32 32 0 17.673-14.327 32-32 32H352c-17.673 0-32-14.327-32-32 0-17.673 14.327-32 32-32h320z"/>
        </g>
    </g>
</svg>
