<svg xmlns="http://www.w3.org/2000/svg"   viewBox="0 0 1024 1024">
    <g fill="none" fill-rule="evenodd">
        <g fill="#000" fill-rule="nonzero">
            <path d="M480 544v192c0 106.039-85.961 192-192 192S96 842.039 96 736s85.961-192 192-192h192zm256 0c106.039 0 192 85.961 192 192s-85.961 192-192 192-192-85.961-192-192V544zm-320 64H288c-70.692 0-128 57.308-128 128 0 70.692 57.308 128 128 128 70.692 0 128-57.308 128-128V608zm320 0H608v128c0 70.692 57.308 128 128 128 70.692 0 128-57.308 128-128 0-70.692-57.308-128-128-128zM288 96c106.039 0 192 85.961 192 192v192H288c-106.039 0-192-85.961-192-192S181.961 96 288 96zm448 0c106.039 0 192 85.961 192 192s-85.961 192-192 192H544V288c0-106.039 85.961-192 192-192zm-448 64c-70.692 0-128 57.308-128 128 0 70.692 57.308 128 128 128h128V288c0-69.986-56.167-126.853-125.883-127.983zm448 0c-70.692 0-128 57.308-128 128v128h128c69.986 0 126.853-56.167 127.983-125.883L864 288c0-70.692-57.308-128-128-128z"/>
        </g>
    </g>
</svg>
