<svg xmlns="http://www.w3.org/2000/svg"   viewBox="0 0 1024 1024">
    <g fill="none" fill-rule="evenodd">
        <g fill="#000" fill-rule="nonzero">
            <path d="M832 128c70.692 0 128 57.308 128 128v460.8c0 70.692-57.308 128-128 128H624.025l-90.389 83.062c-12.236 11.244-31.043 11.251-43.287.016l-90.54-83.078H192c-70.692 0-128-57.308-128-128V256c0-70.692 57.308-128 128-128h640zm0 64H192c-35.346 0-64 28.654-64 64v460.8c0 35.346 28.654 64 64 64h207.81c16.022 0 31.463 6.01 43.269 16.844l68.889 63.211 68.752-63.18c11.81-10.852 27.265-16.875 43.305-16.875H832c35.346 0 64-28.654 64-64V256c0-35.346-28.654-64-64-64zM336 441.6c26.51 0 48 21.49 48 48s-21.49 48-48 48-48-21.49-48-48 21.49-48 48-48zm179.2 0c26.51 0 48 21.49 48 48s-21.49 48-48 48-48-21.49-48-48 21.49-48 48-48zm179.2 0c26.51 0 48 21.49 48 48s-21.49 48-48 48-48-21.49-48-48 21.49-48 48-48z"/>
        </g>
    </g>
</svg>
