<svg xmlns="http://www.w3.org/2000/svg"   viewBox="0 0 1024 1024">
    <g fill="none" fill-rule="evenodd">
        <g fill="#000" fill-rule="nonzero">
            <path d="M723.394 64C783.375 64 832 112.625 832 172.606v678.788C832 911.375 783.375 960 723.394 960H300.606C240.625 960 192 911.375 192 851.394V172.606C192 112.625 240.625 64 300.606 64h422.788zM512 797.09c-22.091 0-40 18.235-40 40.728 0 22.493 17.909 40.727 40 40.727s40-18.234 40-40.727c0-22.493-17.909-40.727-40-40.727zm253.09-570.18H258.91c-6.666 0-12.208 4.802-13.358 11.135l-.219 2.44v488.727c0 6.665 4.803 12.208 11.136 13.357l2.44.219h506.182c6.665 0 12.207-4.803 13.357-11.136l.219-2.44V240.485c0-7.498-6.078-13.576-13.576-13.576zM618.183 118.302H405.818c-14.995 0-27.151 12.156-27.151 27.152 0 13.841 10.358 25.264 23.745 26.94l3.406.211h212.364c14.995 0 27.151-12.156 27.151-27.151 0-13.842-10.358-25.265-23.745-26.94l-3.406-.212z"/>
        </g>
    </g>
</svg>
