<svg xmlns="http://www.w3.org/2000/svg"   viewBox="0 0 1024 1024">
    <g fill="none" fill-rule="evenodd">
        <g fill="#000" fill-rule="nonzero">
            <path d="M447.927 63.999c212.078 0 384 171.923 384 384 0 94.5-34.135 181.026-90.748 247.923l210.448 210.45c12.497 12.497 12.497 32.759 0 45.255-12.371 12.372-32.353 12.496-44.877.372l-.377-.372-210.444-210.443c-66.907 56.653-153.465 90.815-248.002 90.815-212.077 0-384-171.923-384-384s171.923-384 384-384zm0 64c-176.73 0-320 143.269-320 320s143.27 320 320 320c176.731 0 320-143.269 320-320s-143.269-320-320-320z"/>
        </g>
    </g>
</svg>
