<svg xmlns="http://www.w3.org/2000/svg"   viewBox="0 0 1024 1024">
    <g fill="none" fill-rule="evenodd">
        <g fill="#000" fill-rule="nonzero">
            <path d="M512 0c282.77 0 512 229.23 512 512s-229.23 512-512 512S0 794.77 0 512 229.23 0 512 0zm0 68.267C266.933 68.267 68.267 266.933 68.267 512S266.933 955.733 512 955.733 955.733 757.067 955.733 512 757.067 68.267 512 68.267zm-48.858 210.847l4.727 3.95 204.8 204.8c11.849 11.849 13.166 30.242 3.95 43.545l-3.95 4.727-204.8 204.8c-13.33 13.33-34.942 13.33-48.272 0-11.848-11.849-13.165-30.242-3.95-43.545l3.95-4.727L600.27 512 419.597 331.336c-11.848-11.849-13.165-30.242-3.95-43.545l3.95-4.727c11.85-11.849 30.242-13.165 43.545-3.95z"/>
        </g>
    </g>
</svg>
