<svg xmlns="http://www.w3.org/2000/svg"   viewBox="0 0 1024 1024">
    <g fill="none" fill-rule="evenodd">
        <g fill="#000" fill-rule="nonzero">
            <path d="M756.7 540.083c-1.12-113.483 92.592-167.887 96.767-170.603-52.67-77.028-134.7-87.556-163.92-88.788-69.815-7.056-136.212 41.076-171.652 41.076-35.328 0-90.014-40.04-147.923-38.976-76.09 1.12-146.27 44.212-185.436 112.336-79.06 137.115-20.255 340.227 56.816 451.443 37.653 54.432 82.562 115.556 141.507 113.372 56.76-2.268 78.248-36.708 146.859-36.708 68.61 0 87.913 36.708 148.006 35.588 61.075-1.148 99.792-55.468 137.193-110.068 43.228-63.14 61.046-124.292 62.083-127.428-1.345-.616-119.123-45.696-120.3-181.244zM643.826 207.08C675.12 169.14 696.243 116.5 690.472 64c-45.078 1.848-99.708 30.016-132.038 67.844-29.025 33.572-54.407 87.164-47.599 138.628 50.316 3.92 101.669-25.564 132.99-63.392z"/>
        </g>
    </g>
</svg>
