<svg xmlns="http://www.w3.org/2000/svg"   viewBox="0 0 1024 1024">
    <g fill="none" fill-rule="evenodd">
        <g fill="#000" fill-rule="nonzero">
            <path d="M838.695 374.154C783.226 242.854 654.535 157.526 512 157.538c-195.764 0-354.462 158.698-354.462 354.462 0 195.764 158.698 354.462 354.462 354.462 145.906.011 276.923-89.355 330.161-225.202 5.1-13.151 16.844-22.572 30.788-24.697 13.945-2.124 27.962 3.37 36.747 14.407 8.785 11.036 10.997 25.928 5.8 39.041C850.437 836.035 690.315 945.253 512 945.231 272.738 945.23 78.77 751.26 78.77 512 78.77 272.738 272.737 78.77 512 78.77c144.423 0 275.14 71.285 354.462 183.965V177.23c0-21.752 17.633-39.385 39.384-39.385 21.752 0 39.385 17.633 39.385 39.385v236.307c.031 10.456-4.108 20.491-11.5 27.884-7.394 7.393-17.43 11.533-27.885 11.501H708.923c-21.751 0-39.385-17.633-39.385-39.385 0-21.751 17.634-39.384 39.385-39.384h129.772z"/>
        </g>
    </g>
</svg>
