<?xml version="1.0" encoding="UTF-8"?>
<svg   viewBox="0 0 1024 1024" version="1.1" xmlns="http://www.w3.org/2000/svg" xmlns:xlink="http://www.w3.org/1999/xlink">
    <title>icon/thumbdown</title>
    <g id="页面-1" stroke="none" stroke-fill="none" fill-rule="evenodd">
        <g id="icon/thumbdown" fill="#000000" fill-rule="nonzero">
            <path d="M820.774421,73.2474111 C873.219303,73.2474111 916.451592,114.62123 919.775616,166.731171 L919.775616,166.731171 L937.678747,499.988704 L937.753655,501.458127 C940.138391,556.491355 896.605359,601.60677 840.894251,601.60677 L840.894251,601.60677 L785.005834,601.60677 C744.202641,601.60677 711.834182,616.052665 689.194434,641.893993 C667.903431,666.195845 656.047192,699.984575 656.047192,736.075219 L656.047192,736.075219 L656.047192,828.07094 L656.043066,829.783005 L656.034775,830.831708 L656.020981,831.820154 L656.000766,832.760241 L655.973212,833.66387 C655.967958,833.812098 655.962359,833.959302 655.956397,834.105731 L655.956397,834.105731 L655.916114,834.976983 L655.866197,835.841523 C655.857024,835.985715 655.847411,836.130123 655.837339,836.274995 L655.837339,836.274995 L655.771252,837.151779 L655.693236,838.051599 L655.602374,838.986355 C655.113719,843.774192 654.215171,848.281791 652.606062,852.691922 L652.606062,852.691922 L652.545,852.854 L652.48157,853.158027 C638.675746,916.037631 577.338027,957.897647 513.116258,947.527337 L513.116258,947.527337 L511.584,947.266 L498.267,945.093 L497.021721,944.903971 C443.086721,936.424693 396.803833,902.048031 374.269445,853.725473 L374.269445,853.725473 L373.777,852.655 L373.260105,851.569024 C353.024939,808.794635 345.759893,761.519775 353.069596,716.746213 L353.069596,716.746213 L353.189,716.025 L359.026,671.698 L145.417234,671.698748 L142.985519,671.32255 C83.4353546,662.109846 42.8023176,609.335577 48.9771514,548.834675 L48.9771514,548.834675 L49.1410022,547.229268 L127.469,165.692 L127.489871,165.533913 C134.623241,113.083006 180.941124,74.0427545 235.622835,73.2594142 L235.622835,73.2594142 L237.299345,73.2474111 Z M698.34697,137.246411 L237.299345,137.247411 C213.048534,137.247411 193.339083,153.855112 190.827346,174.773567 L190.827346,174.773567 L190.668969,176.09258 L112.52,556.757 L112.506695,556.927124 C110.66663,582.078855 126.428634,602.849061 150.468321,607.666635 L150.468321,607.666635 L150.634,607.698 L382.60923,607.698748 C406.602075,607.698748 425.407534,625.88922 425.781244,649.920621 L425.781244,649.920621 L425.786913,650.65062 L425.786913,654.93902 L416.492381,725.516436 L416.391616,726.108815 C410.901791,758.38233 416.273504,793.310795 431.574521,825.168594 L431.574521,825.168594 L431.726273,825.484552 L432.278875,826.690147 C445.888466,855.859338 474.506362,876.915847 507.981257,881.835642 L507.981257,881.835642 L508.233685,881.872741 L522.126492,884.141432 L523.303008,884.343068 C554.617339,889.397251 584.632482,868.369604 590.348784,837.565091 L590.348784,837.565091 L591.196519,832.996739 L592.005,831.412 L592.025395,830.76824 L592.044044,829.319815 L592.047192,736.075219 C592.047193,684.942823 609.187834,636.094236 641.055925,599.719547 C665.969115,571.28328 698.570405,551.783636 736.702582,542.959756 L698.34697,137.246411 Z M821.325561,137.247411 L762.63097,137.246411 L800.48197,537.606411 L840.894251,537.60677 C860.283762,537.60677 874.623755,522.756429 873.811589,504.186722 L873.78233,503.622877 L855.898,170.706 L855.865374,170.245902 C854.417109,152.008237 839.30068,137.542243 821.325561,137.247411 L821.325561,137.247411 Z" id="形状结合"></path>
        </g>
    </g>
</svg>