<svg xmlns="http://www.w3.org/2000/svg"   viewBox="0 0 1024 1024">
    <g fill="none" fill-rule="evenodd">
        <g fill="#000" fill-rule="nonzero">
            <path d="M861.125 344.264c-31.665 0-57.896 25.088-57.896 55.552v216.038c0 30.464 25.336 55.572 57.896 55.572 31.644 0 57.875-25.108 57.875-55.592V399.836c-.895-30.464-26.231-55.552-57.875-55.552v-.02zm-698.25 0c-31.623 0-57.875 25.088-57.875 55.532v216.058c0 30.464 25.315 55.572 57.875 55.572s57.896-25.108 57.896-55.592V399.836c0-30.464-25.336-55.552-57.896-55.552v-.02zm93.163 1.792v395.259c0 23.296 19.902 43.008 45.217 43.008h51.567v120.105c0 30.484 25.316 55.572 57.876 55.572 31.664 0 57.895-25.088 57.895-55.572V784.323h90.436v120.105c0 30.484 25.336 55.572 57.896 55.572 31.624 0 57.875-25.088 57.875-55.572V784.323h51.547c25.335 0 45.238-18.816 45.238-43.008v-395.28H256.038v.02zM634.1 141.686l47.945-64.532c1.79-4.48 1.79-9.856-2.727-11.648-3.623-2.688-9.036-.896-11.763 2.688l-48.84 67.22c-34.232-12.342-70.329-18.707-106.715-18.816-37.993 0-74.155 6.272-106.715 18.816l-48.84-67.2c-2.727-4.48-8.14-5.396-11.763-2.708-3.663 2.744-4.476 7.91-1.831 11.648l47.944 64.552c-75.05 33.152-128.408 95.893-134.757 169.385h514.651c-8.14-73.512-60.622-136.233-136.589-169.405zM403.473 243.871c-16.28 0-28.042-11.648-28.042-26.88 0-15.252 12.658-26.88 28.042-26.88 16.28 0 28.022 11.628 28.022 26.88 0 15.232-12.657 26.88-28.022 26.88zm220.676 0c-16.28 0-28.042-11.648-28.042-26.88 0-15.252 12.678-26.88 28.042-26.88 16.28 0 28.042 11.628 28.042 26.88 0 15.232-12.658 26.88-28.042 26.88z"/>
        </g>
    </g>
</svg>
