<svg xmlns="http://www.w3.org/2000/svg"   viewBox="0 0 1024 1024">
    <g fill="none" fill-rule="evenodd">
        <g fill="#000" fill-rule="nonzero">
            <path d="M512 64c247.424 0 448 200.576 448 448S759.424 960 512 960 64 759.424 64 512 264.576 64 512 64zm0 64c-212.077 0-384 171.923-384 384s171.923 384 384 384 384-171.923 384-384-171.923-384-384-384zm96 192c17.496 0 31.713 14.042 31.996 31.47l.004.53v241.849l39.4-40.042c12.27-12.472 32.25-12.758 44.872-.735l.38.368c12.472 12.27 12.758 32.251.736 44.873l-.369.38-94.209 95.75c-19.882 20.207-54.117 6.472-54.8-21.588L576 672V352c0-17.673 14.327-32 32-32zm-159.801 31.21l.01.854v320c0 17.673-14.327 32-32 32-17.496 0-31.713-14.042-31.995-31.47l-.005-.53V430.215l-39.399 40.042c-12.27 12.472-32.251 12.758-44.873.736l-.38-.369c-12.472-12.27-12.758-32.25-.735-44.873l.368-.38 94.21-95.75c19.88-20.207 54.116-6.472 54.799 21.589z"/>
        </g>
    </g>
</svg>
