<?xml version="1.0" encoding="UTF-8"?>
<svg   viewBox="0 0 1024 1024" version="1.1" xmlns="http://www.w3.org/2000/svg" xmlns:xlink="http://www.w3.org/1999/xlink">
    <title>icon/thumbup</title>
    <g id="页面-1" stroke="none" stroke-fill="none" fill-rule="evenodd">
        <g id="icon/thumbup" fill="#000000" fill-rule="nonzero">
            <path d="M333.722566,169.190989 C347.52839,106.311384 408.866109,64.4513686 473.087878,74.8216784 L473.087878,74.8216784 L474.619,75.082 L487.936,77.255 L489.182415,77.4450448 C543.117415,85.9243229 589.400303,120.300984 611.93469,168.623543 L611.93469,168.623543 L612.442,169.726 L612.944031,170.779992 C633.179196,213.55438 640.444243,260.829241 633.13454,305.602803 L633.13454,305.602803 L633.014,306.323 L627.177,350.65 L840.786902,350.650267 L843.218617,351.026466 C902.768781,360.23917 943.401818,413.013439 937.226984,473.514341 L937.226984,473.514341 L937.063134,475.119748 L858.735,856.651 L858.714264,856.815103 C851.580895,909.266009 805.263012,948.306261 750.581301,949.089602 L750.581301,949.089602 L748.904791,949.101605 L165.429715,949.101605 C112.984833,949.101605 69.7525437,907.727786 66.4285202,855.617845 L66.4285202,855.617845 L66.4096825,855.29721 L48.5368351,522.561562 C45.1875323,466.773686 89.0360383,420.742246 145.309885,420.742246 L145.309885,420.742246 L201.198302,420.742246 C242.001495,420.742246 274.369954,406.296351 297.009702,380.455022 C318.300705,356.153171 330.156943,322.364441 330.156944,286.273797 L330.156944,286.273797 L330.156944,194.278075 L330.158701,193.116677 L330.169361,191.517308 L330.183155,190.528862 L330.20337,189.588774 L330.230923,188.685145 L330.266734,187.806076 L330.311719,186.939668 C330.328345,186.651653 330.346653,186.363765 330.366796,186.074021 L330.366796,186.074021 L330.432884,185.197237 L330.5109,184.297417 L330.601761,183.362661 C331.090417,178.574823 331.988965,174.067225 333.598073,169.657094 L333.598073,169.657094 L333.657,169.499 Z M188.802993,484.741431 L145.309885,484.742246 C125.72452,484.742246 111.291199,499.894108 112.421806,518.726139 L112.421806,518.726139 L130.305,851.642 L130.338762,852.103114 C131.787027,870.340779 146.903456,884.806773 164.878575,885.101605 L164.878575,885.101605 L225.326993,885.101431 L188.802993,484.741431 Z M462.901128,138.005948 C431.586797,132.951765 401.571653,153.979412 395.855352,184.783925 L395.855352,184.783925 L395.007616,189.352277 L394.198,190.936 L394.18369,191.384304 L394.170488,192.009301 L394.158668,193.322378 L394.156944,286.273797 C394.156943,337.406193 377.016301,386.25478 345.148211,422.629469 C320.894096,450.313458 289.353277,469.527404 252.516248,478.666573 L289.592993,885.101431 L748.904791,885.101605 C772.913094,885.101605 792.47041,868.824397 795.296291,848.201697 L795.37679,847.575449 L795.535167,846.256436 L873.683,465.598 L873.697441,465.421892 C875.537506,440.270161 859.775501,419.499954 835.735815,414.682381 L835.735815,414.682381 L835.569,414.65 L603.594906,414.650267 C579.602061,414.650267 560.796602,396.459795 560.422892,372.428395 L560.422892,372.428395 L560.417223,371.698395 L560.417223,367.409996 L569.711754,296.83258 L569.81252,296.2402 C575.302345,263.966685 569.930632,229.038221 554.629615,197.180421 L554.629615,197.180421 L554.477863,196.864464 L554.333069,196.545258 C540.893314,166.916708 512.035904,145.482864 478.222879,140.513374 L478.222879,140.513374 L477.970451,140.476275 L464.077644,138.207584 Z" id="形状结合"></path>
        </g>
    </g>
</svg>