<?xml version="1.0" standalone="no"?><!DOCTYPE svg PUBLIC "-//W3C//DTD SVG 1.1//EN" "http://www.w3.org/Graphics/SVG/1.1/DTD/svg11.dtd"><svg t="1585212732132" class="icon" viewBox="0 0 1024 1024" version="1.1" xmlns="http://www.w3.org/2000/svg" p-id="3930" xmlns:xlink="http://www.w3.org/1999/xlink"  ><defs><style type="text/css"></style></defs><path d="M486.4 473.9c4.6 3.8 10.3 5.7 15.9 5.7s11.3-1.9 15.9-5.7c5-4.1 122.3-101.3 154.8-162.3 20.3-38.1 23.5-82.3 8.5-118.4-13.1-31.4-38.7-54.3-72.2-64.5-32.8-9.9-65.3-5.9-93.9 11.6-4.9 3-9.3 6.2-13.1 9.3-3.9-3.1-8.2-6.3-13.1-9.3-28.6-17.5-61-21.6-93.9-11.6-33.5 10.1-59.1 33-72.2 64.5-15 36.1-11.8 80.3 8.5 118.4 32.5 60.9 149.9 158.2 154.8 162.3z m466.9-159.8c-1-22.6-14.4-47.7-41.4-49.3-33.3-1.9-54.4 36.5-56.6 40.9-0.8 1.6-1.5 3.3-1.8 5.1l-41.1 195.9-43.7 29.8 15.3-30.3c10-19.8 6-43.5-10-59-9-8.7-20.8-13.2-33.3-12.8-12.5 0.4-24 5.7-32.3 15L525.2 651.8c-5.7 6.3-10.5 13.4-14.3 21-3.8-7.6-8.6-14.7-14.3-21L313.4 449.6c-8.4-9.3-19.9-14.6-32.3-15-12.5-0.4-24.3 4.1-33.3 12.8-16 15.4-20 39.1-10 59l15.3 30.3-43.7-29.8L168.3 311c-0.4-1.8-1-3.5-1.8-5.1-2.3-4.4-23.3-42.9-56.6-40.9-27.1 1.6-40.5 26.7-41.4 49.3-0.1 1.4 0 2.9 0.3 4.3l43.7 249.2c2.6 15.1 10.5 28.9 22.2 38.8L335.2 777c3.1 2.6 4.9 6.5 4.9 10.5v46.9c0 26.5 21.5 48 48 48h93.5c10.8 0 21.3-3.9 29.4-10.9 8.1 7 18.6 10.9 29.4 10.9h93.5c26.5 0 48-21.5 48-48v-46.9c0-4.1 1.8-7.9 4.9-10.5l200.5-170.4c11.7-9.9 19.6-23.7 22.2-38.8l43.7-249.2c0.1-1.6 0.2-3 0.1-4.5z" p-id="3931"></path></svg>