<?xml version="1.0" standalone="no"?><!DOCTYPE svg PUBLIC "-//W3C//DTD SVG 1.1//EN" "http://www.w3.org/Graphics/SVG/1.1/DTD/svg11.dtd"><svg t="1585212749283" class="icon" viewBox="0 0 1024 1024" version="1.1" xmlns="http://www.w3.org/2000/svg" p-id="4674" xmlns:xlink="http://www.w3.org/1999/xlink"  ><defs><style type="text/css"></style></defs><path d="M383.004 431.702v325.94H281.953v-325.94h101.05z m253.503-7.53c69.08 0 116.083 44.25 116.083 138.324-0.088 0-1.537 195.146-1.537 195.146h-101.07V577.645c0-41.477-14.459-69.274-51.149-69.274-23.467 0.284-44.198 15.352-51.712 37.585a66.715 66.715 0 0 0 0 25.686l-0.107 185.581H443.269V431.731h87.848l4.864 44.922a116.852 116.852 0 0 1 100.526-52.481z m-249.59-108.895c6.816 35.423-16.073 69.757-51.393 77.089-1.333 0-2.56-0.107-3.892-0.224l0.107 0.895c-35.687 5.263-68.989-19.103-74.771-54.71-5.782-35.607 18.097-69.26 53.616-75.56 35.519-6.3 69.516 17.086 76.332 52.51z" p-id="4675"></path></svg>