<?xml version="1.0" standalone="no"?><!DOCTYPE svg PUBLIC "-//W3C//DTD SVG 1.1//EN" "http://www.w3.org/Graphics/SVG/1.1/DTD/svg11.dtd"><svg t="1585212700654" class="icon" viewBox="0 0 1024 1024" version="1.1" xmlns="http://www.w3.org/2000/svg" p-id="2577" xmlns:xlink="http://www.w3.org/1999/xlink"  ><defs><style type="text/css"></style></defs><path d="M642.5 158.3c37.8-43.1 103.3-47.4 146.4-9.6 43.1 37.8 47.4 103.3 9.6 146.4-3.7 4.3-7.8 8.2-12.2 11.8l-71 71-146.7-146.8 73.4-73.4 0.5 0.6z m-294 586.3v0.1H201.8V597.9h0.1L532 267.8l146.7 146.8-330.2 330z m-198.6 52.7h726.2c28.6 0 51.9 23.2 51.9 51.9 0 28.6-23.2 51.9-51.9 51.9H149.9c-28.6 0-51.9-23.2-51.9-51.9s23.2-51.9 51.9-51.9z" p-id="2578"></path></svg>