<?xml version="1.0" standalone="no"?><!DOCTYPE svg PUBLIC "-//W3C//DTD SVG 1.1//EN" "http://www.w3.org/Graphics/SVG/1.1/DTD/svg11.dtd"><svg t="1585212706888" class="icon" viewBox="0 0 1024 1024" version="1.1" xmlns="http://www.w3.org/2000/svg" p-id="2817" xmlns:xlink="http://www.w3.org/1999/xlink"  ><defs><style type="text/css"></style></defs><path d="M715.431 415.342c0-4.798-0.092-9.542-0.304-14.254 20.51-15.283 38.306-34.413 52.38-56.305a201.427 201.427 0 0 1-60.283 16.493c21.68-13.342 38.306-34.678 46.163-60.284-20.3 12.311-42.753 21.112-66.627 25.699-19.129-21.767-46.427-35.63-76.605-36.146-57.957-0.958-104.94 48.02-104.94 109.38 0 8.722 0.913 17.18 2.723 25.348-87.276-5.616-164.614-51.045-216.347-119.53-9.027 16.408-14.205 35.584-14.205 56.134 0 38.868 18.527 73.414 46.677 93.799-17.233-0.78-33.377-6-47.536-14.557v1.428c0 54.323 36.184 99.838 84.197 110.457a99.14 99.14 0 0 1-27.634 3.76 95.678 95.678 0 0 1-19.73-2.162c13.34 44.517 52.115 77.04 98.02 78.124-35.928 29.79-81.184 47.583-130.32 47.459-8.472 0-16.843-0.569-25.051-1.6 46.46 31.87 101.61 50.432 160.895 50.432 192.987 0.046 298.527-167.932 298.527-313.675z" p-id="2818"></path></svg>