<?xml version="1.0" standalone="no"?><!DOCTYPE svg PUBLIC "-//W3C//DTD SVG 1.1//EN" "http://www.w3.org/Graphics/SVG/1.1/DTD/svg11.dtd"><svg t="1608888857337" class="icon" viewBox="0 0 1024 1024" version="1.1" xmlns="http://www.w3.org/2000/svg" p-id="1802" xmlns:xlink="http://www.w3.org/1999/xlink"  ><defs><style type="text/css"></style></defs><path d="M324.928687 208.498388c-16.18919 32.43033-49.281873 52.932308-85.498506 52.970272H125.417522c-26.424195 0-47.843278 21.44206-47.843278 47.893229v478.932292c0 26.451169 21.419083 47.893229 47.843278 47.89323h765.51143c26.424195 0 47.844277-21.44206 47.844277-47.89323v-478.932292c0-26.451169-21.420082-47.893229-47.844277-47.893229H776.962248c-36.251598-0.000999-69.389237-20.509971-85.593413-52.970272l-10.66958-21.409092a38.702205 38.702205 0 0 0-34.639173-21.407095H370.284394a38.702205 38.702205 0 0 0-34.639173 21.408094l-10.66958 21.409092h-0.046954z m-42.773229-21.409092l10.717533-21.407095c14.639703-29.359329 44.638408-47.893229 77.411403-47.893229h275.775688c32.772995 0 62.7717 18.5339 77.412402 47.893229l10.717534 21.408094c8.098092 16.223157 24.655922 26.475145 42.77223 26.484136h113.965705a95.639602 95.639602 0 0 1 67.661924 28.055602 95.83641 95.83641 0 0 1 28.02663 67.731856v478.932292c0 52.902338-42.841163 95.786459-95.688554 95.786459H125.416523c-52.847391 0-95.688554-42.884121-95.688554-95.786459v-478.932292c0-52.901339 42.841163-95.786459 95.688554-95.786459h113.965705c18.117307-0.00999 34.675138-10.261979 42.77323-26.485135z" p-id="1803"></path><path d="M512 333.308503c104.637815 0 189.463977 84.912078 189.463977 189.657788 0 104.74471-84.826162 189.656788-189.463977 189.656788s-189.463977-84.912078-189.463977-189.656788c0-104.745709 84.826162-189.657787 189.463977-189.657788z m0 43.103907c-80.857038 0-146.404027 65.613924-146.404027 146.553881 0 80.938958 65.546989 146.552882 146.404027 146.552882 80.857038 0 146.404027-65.613924 146.404027-146.552882 0-80.939957-65.546989-146.553881-146.404027-146.553881z" p-id="1804"></path></svg>