<?xml version="1.0" standalone="no"?><!DOCTYPE svg PUBLIC "-//W3C//DTD SVG 1.1//EN" "http://www.w3.org/Graphics/SVG/1.1/DTD/svg11.dtd"><svg t="1585212723415" class="icon" viewBox="0 0 1024 1024" version="1.1" xmlns="http://www.w3.org/2000/svg" p-id="3556" xmlns:xlink="http://www.w3.org/1999/xlink"  ><defs><style type="text/css"></style></defs><path d="M512 93.09c230.4 0 418.91 188.51 418.91 418.91 0 230.4-188.51 418.91-418.91 418.91C281.6 930.91 93.09 742.4 93.09 512 93.09 281.6 281.6 93.09 512 93.09z m0 139.637c-25.6 0-46.545 20.946-46.545 46.546V512c0 11.636 4.654 23.273 11.636 30.255L640 728.436c9.31 11.637 20.945 16.291 34.91 16.291 11.635 0 20.945-4.654 30.254-13.963 18.618-16.291 20.945-46.546 4.654-65.164L558.545 493.382v-214.11c0-25.6-20.945-46.545-46.545-46.545z" p-id="3557"></path></svg>