<?xml version="1.0" standalone="no"?><!DOCTYPE svg PUBLIC "-//W3C//DTD SVG 1.1//EN" "http://www.w3.org/Graphics/SVG/1.1/DTD/svg11.dtd"><svg t="1585212726421" class="icon" viewBox="0 0 1024 1024" version="1.1" xmlns="http://www.w3.org/2000/svg" p-id="3680" xmlns:xlink="http://www.w3.org/1999/xlink"  ><defs><style type="text/css"></style></defs><path d="M802.967 751.684l-118.231-118.92c73.335-99.011 69.038-235.436-10.383-329.637-79.42-94.2-213.156-121.495-323.14-65.95C241.232 292.72 183.818 416.55 212.489 536.381c28.67 119.83 135.914 204.265 259.126 204.015a264.01 264.01 0 0 0 159.325-53.568l118.23 118.805a38.262 38.262 0 1 0 53.798-54.026v0.076zM281.335 472.751c0.57-104.951 86.012-189.623 190.964-189.245 104.953 0.38 189.78 85.668 189.591 190.621-0.189 104.953-85.322 189.936-190.276 189.936-105.316-0.421-190.427-85.995-190.279-191.312z" p-id="3681"></path></svg>