<?xml version="1.0" standalone="no"?><!DOCTYPE svg PUBLIC "-//W3C//DTD SVG 1.1//EN" "http://www.w3.org/Graphics/SVG/1.1/DTD/svg11.dtd"><svg t="1608888866826" class="icon" viewBox="0 0 1024 1024" version="1.1" xmlns="http://www.w3.org/2000/svg" p-id="2068" xmlns:xlink="http://www.w3.org/1999/xlink"  ><defs><style type="text/css"></style></defs><path d="M194 106.667h369.272c80.612 0 144.194 19.301 189.61 57.904 42.009 36.333 63.581 85.154 63.581 146.465 0 45.416-11.354 84.02-32.926 115.81-21.572 29.52-52.228 51.092-93.102 66.988 53.363 10.218 93.102 31.79 120.351 64.717 26.114 31.79 39.739 76.07 39.739 130.57 0 81.747-28.385 141.923-84.019 180.526-47.686 31.79-115.81 47.686-202.099 47.686H194a2 2 0 0 1-2-2V108.667a2 2 0 0 1 2-2z m130.84 108.997v231.619h203.235c56.77 0 96.508-10.219 120.35-28.385 22.709-19.301 35.198-49.957 35.198-91.966 0-38.603-12.49-66.988-35.197-84.019-24.979-18.166-63.582-27.25-118.08-27.25H324.84z m0 340.616v252.056h220.266c49.957 0 89.695-7.948 118.08-23.843 36.332-20.437 54.498-52.228 54.498-97.643 0-46.551-13.624-79.477-39.738-99.914-27.25-20.437-70.394-30.656-129.434-30.656H324.84z" p-id="2069"></path></svg>