<?xml version="1.0" standalone="no"?><!DOCTYPE svg PUBLIC "-//W3C//DTD SVG 1.1//EN" "http://www.w3.org/Graphics/SVG/1.1/DTD/svg11.dtd"><svg t="1608888881640" class="icon" viewBox="0 0 1024 1024" version="1.1" xmlns="http://www.w3.org/2000/svg" p-id="2458" xmlns:xlink="http://www.w3.org/1999/xlink"  ><defs><style type="text/css"></style></defs><path d="M684.691 434.776L513.024 604.484 341.356 434.776c-11.851-11.714-31.066-11.714-42.917 0a29.76 29.76 0 0 0 0 42.427l193.127 190.919c11.85 11.714 31.062 11.714 42.916 0l193.125-190.919a29.76 29.76 0 0 0 0-42.427c-11.85-11.714-31.066-11.714-42.916 0z m-171.193-371.7c-246.687 0-446.665 199.98-446.665 446.665 0 246.684 199.978 446.665 446.665 446.665 246.684 0 446.665-199.981 446.665-446.665 0-246.685-199.98-446.665-446.665-446.665z m0 837.497c-215.851 0-390.832-174.981-390.832-390.832 0-215.852 174.981-390.833 390.832-390.833S904.33 293.89 904.33 509.741c0 215.85-174.98 390.832-390.832 390.832z" p-id="2459"></path></svg>