<?xml version="1.0" standalone="no"?><!DOCTYPE svg PUBLIC "-//W3C//DTD SVG 1.1//EN" "http://www.w3.org/Graphics/SVG/1.1/DTD/svg11.dtd"><svg t="1585212688311" class="icon" viewBox="0 0 1024 1024" version="1.1" xmlns="http://www.w3.org/2000/svg" p-id="2095" xmlns:xlink="http://www.w3.org/1999/xlink"  ><defs><style type="text/css"></style></defs><path d="M424.01 202.65c6.16 0 11.9 1.96 16.59 5.32l26.67 15.4c13.72 7.91 18.41 25.41 10.5 39.13-7.91 13.72-25.41 18.41-39.13 10.5l-22.61-13.02H230.04V756h196.07c0.28 0.07 0.56 0.07 0.84 0.07h0.42c0.35 0.07 0.77 0.07 1.12 0.14h0.07c4.41 0.56 8.47 2.1 11.97 4.34l75.53 43.61 75.53-43.61c3.57-2.31 7.63-3.78 11.97-4.34h0.07c0.35-0.07 0.77-0.14 1.12-0.14h0.42c0.28-0.07 0.56-0.07 0.84-0.07h182.14V259.98H569.4v409.64c0 15.89-12.81 28.7-28.7 28.7-15.89 0-28.7-12.88-28.7-28.7V248.71c0.84-25.06 20.93-45.22 45.99-46.06H759.8v0.07h37.87v0.07h0.35c24.71 0 45.08 18.83 47.53 42.98V770c-2.03 22.89-20.23 41.16-43.12 43.26H614.9l-78.82 45.5c-12.81 5.88-27.72 5.81-40.46-0.28l-78.26-45.22H215.69c-23.31-2.17-41.65-21.21-42.98-44.73V250.25c0-25.76 20.44-46.69 45.99-47.6z m-2.59 411.53c15.89 0 28.7 12.88 28.7 28.7 0 15.82-12.88 28.7-28.7 28.7h-54.67c-15.89 0-28.7-12.88-28.7-28.7 0-15.89 12.88-28.7 28.7-28.7z m0-128.1c15.89 0 28.7 12.88 28.7 28.7 0 15.82-12.88 28.63-28.7 28.7h-75.67c-15.89 0-28.7-12.88-28.7-28.7 0-15.89 12.88-28.7 28.7-28.7z m0-128.1c15.89 0 28.7 12.88 28.7 28.7 0 15.82-12.88 28.63-28.7 28.7h-61.67c-15.89 0-28.7-12.88-28.7-28.7 0-15.89 12.88-28.7 28.7-28.7z" p-id="2096"></path></svg>