<?xml version="1.0" standalone="no"?><!DOCTYPE svg PUBLIC "-//W3C//DTD SVG 1.1//EN" "http://www.w3.org/Graphics/SVG/1.1/DTD/svg11.dtd"><svg t="1608888895867" class="icon" viewBox="0 0 1024 1024" version="1.1" xmlns="http://www.w3.org/2000/svg" p-id="2590" xmlns:xlink="http://www.w3.org/1999/xlink"  ><defs><style type="text/css"></style></defs><path d="M509.193 853.333c53.742 0 98.95-34.133 98.95-68.266H409.6c0 34.133 45.89 68.266 99.593 68.266zM742.4 662.49V469.6c0-107.975-62.578-198.353-172.79-222.246v-23.97c0-29.202-25.752-52.716-57.61-52.716s-57.61 23.552-57.61 52.717v23.931C344.558 271.246 281.6 361.282 281.6 469.561v192.93l-76.8 53.285v35.157h614.4v-35.157l-76.8-53.286z m-69.139 20.177H350.132V468.12C350.094 379.449 417.185 307.2 512 307.2s161.261 72.249 161.261 160.92v214.547z" p-id="2591"></path></svg>