<?xml version="1.0" standalone="no"?><!DOCTYPE svg PUBLIC "-//W3C//DTD SVG 1.1//EN" "http://www.w3.org/Graphics/SVG/1.1/DTD/svg11.dtd"><svg t="1585212743592" class="icon" viewBox="0 0 1024 1024" version="1.1" xmlns="http://www.w3.org/2000/svg" p-id="4424" xmlns:xlink="http://www.w3.org/1999/xlink"  ><defs><style type="text/css"></style></defs><path d="M303.7 126.7c-150.1 0-283.2 146.6-239.8 363.8 47.6 238.3 448.3 406.8 448.3 406.8l10.949-4.819C587.685 863.396 917.093 705.306 960 490.5c43.4-217.2-89.7-361.1-239.8-361.1-71.2 0-146.3 32.5-208.1 104.9-61.8-74.5-137-107.6-208.4-107.6z m167.128 679.893c-50.587-26.156-101.151-56.204-148.026-89.49-109.675-77.879-180.408-160.372-196.142-239.14C93.644 312.732 182.8 190.7 303.7 190.7c56.073 0 112.162 27.827 159.142 84.461l48.558 58.537 49.378-57.847C607.835 220.722 664.15 193.4 720.2 193.4c121.496 0 209.961 119.804 177.04 284.56-15.736 78.784-86.386 161.272-195.92 239.146-46.82 33.288-97.325 63.339-147.854 89.496a1289.61 1289.61 0 0 1-31.558 15.806l-9.725 4.645c-12.701-5.984-26.574-12.818-41.355-20.46z" p-id="4425"></path></svg>