<?xml version="1.0" standalone="no"?><!DOCTYPE svg PUBLIC "-//W3C//DTD SVG 1.1//EN" "http://www.w3.org/Graphics/SVG/1.1/DTD/svg11.dtd"><svg t="1608888844712" class="icon" viewBox="0 0 1024 1024" version="1.1" xmlns="http://www.w3.org/2000/svg" p-id="1538" xmlns:xlink="http://www.w3.org/1999/xlink"  ><defs><style type="text/css"></style></defs><path d="M876.565 534.599c-23.178 0-41.967 18.586-41.967 41.513v364.212H87.58V91.234h442.055c23.178 0 41.967-18.586 41.967-41.513s-18.79-41.513-41.967-41.513H45.614c-23.178 0-41.967 18.586-41.967 41.513v932.117c0 22.927 18.79 41.513 41.967 41.513h830.951c23.178 0 41.967-18.586 41.967-41.513V576.112c0-22.927-18.79-41.513-41.967-41.513z" p-id="1539"></path><path d="M991.275 145.479L873.208 28.688c-38.402-37.713-100.37-37.713-138.772 0l-368.752 362.55c-8.01 7.914-12.45 18.693-12.313 29.89v202.033c0.309 22.71 19.009 40.96 41.97 40.96h5.036l198.085-4.428c9.755-0.96 18.861-5.27 25.74-12.177l369.312-364.212c18.044-17.7 28.128-41.839 27.98-66.975-0.021-26.678-10.915-52.22-30.219-70.85z m-55.956 78.599L578.878 576.666l-138.772 2.768V437.18L792.071 85.699c5.735-5.074 14.41-5.074 20.144 0l119.747 119.006A16.529 16.529 0 0 1 937 216.882c0.05 2.834-0.944 5.59-2.801 7.75l1.12-0.554z m-690.5 627.684h442.054c23.178 0 41.967-18.586 41.967-41.513 0-22.928-18.789-41.514-41.967-41.514H244.82c-23.178 0-41.968 18.586-41.968 41.514 0 22.927 18.79 41.513 41.968 41.513z" p-id="1540"></path></svg>