<?xml version="1.0" standalone="no"?><!DOCTYPE svg PUBLIC "-//W3C//DTD SVG 1.1//EN" "http://www.w3.org/Graphics/SVG/1.1/DTD/svg11.dtd"><svg t="1585212751887" class="icon" viewBox="0 0 1024 1024" version="1.1" xmlns="http://www.w3.org/2000/svg" p-id="4796" xmlns:xlink="http://www.w3.org/1999/xlink"  ><defs><style type="text/css"></style></defs><path d="M512 135.643c-134.46 0-258.705 71.734-325.934 188.179-67.23 116.445-67.23 259.911 0 376.356S377.54 888.357 512 888.357c207.869 0 376.357-168.488 376.357-376.357 0-207.869-168.488-376.357-376.357-376.357zM52 512C52 257.978 257.978 52 512 52s460 205.978 460 460-205.978 460-460 460S52 766.022 52 512z m507.278-124.864c10.094 9.097 15.154 22.693 13.493 36.314l-33.529 272.882 23.87-6.082a40.378 40.378 0 0 1 39.534 11.296c10.222 10.733 14.055 26.194 9.966 40.556a41.221 41.221 0 0 1-29.644 28.93l-81.778 20.827a40.352 40.352 0 0 1-37.004-9.2 42.064 42.064 0 0 1-13.468-36.366l33.478-272.856-23.87 6.082a40.838 40.838 0 0 1-49.322-30.36c-5.443-22.182 7.693-44.722 29.44-50.447l81.778-20.802a40.352 40.352 0 0 1 37.056 9.226zM450.41 272.544c0-23 18.298-41.655 40.889-41.655h40.863c22.591 0 40.89 18.655 40.89 41.655s-18.299 41.656-40.89 41.656h-40.889c-10.835 0-21.236-4.396-28.903-12.216-7.667-7.82-11.985-18.4-11.985-29.44h0.025z" p-id="4797"></path></svg>