<?xml version="1.0" standalone="no"?><!DOCTYPE svg PUBLIC "-//W3C//DTD SVG 1.1//EN" "http://www.w3.org/Graphics/SVG/1.1/DTD/svg11.dtd"><svg t="1609740406812" class="icon" viewBox="0 0 1024 1024" version="1.1" xmlns="http://www.w3.org/2000/svg" p-id="1153" xmlns:xlink="http://www.w3.org/1999/xlink"  ><defs><style type="text/css"></style></defs><path d="M376.477 78.322C599.006 9.753 837.287 120.966 927.65 335.57a450.427 450.427 0 0 1 35.52 175.89c0 232.853-176.452 427.818-408.15 450.978-231.699 23.16-443.249-133.02-489.342-361.266-46.093-228.246 88.27-454.282 310.8-522.85zM511.33 129.62c-210.54 0-381.83 171.3-381.83 381.84 0 210.54 171.29 381.83 381.83 381.83 210.55 0 381.84-171.28 381.84-381.83 0-210.55-171.3-381.84-381.84-381.84zM513 236c19.33 0 35 15.67 35 35v226l191.5 191.5A35.002 35.002 0 0 1 690 738L488.25 536.21A35.003 35.003 0 0 1 478 511.46V271c0-19.33 15.67-35 35-35z" p-id="1154"></path></svg>