<?xml version="1.0" standalone="no"?><!DOCTYPE svg PUBLIC "-//W3C//DTD SVG 1.1//EN" "http://www.w3.org/Graphics/SVG/1.1/DTD/svg11.dtd"><svg t="1608888861165" class="icon" viewBox="0 0 1024 1024" version="1.1" xmlns="http://www.w3.org/2000/svg" p-id="1935" xmlns:xlink="http://www.w3.org/1999/xlink"  ><defs><style type="text/css"></style></defs><path d="M208 256v544h384V256H208z m-64 544V256c0-35.3 28.7-64 64-64h384c35.3 0 64 28.7 64 64v224h160c35.3 0 64 28.7 64 64v256h16c17.7 0 32 14.3 32 32s-14.3 32-32 32H128c-17.7 0-32-14.3-32-32s14.3-32 32-32h16z m672 0V544H656v256h160z" p-id="1936"></path><path d="M304 480h96c17.7 0 32 14.3 32 32v48c0 17.7-14.3 32-32 32h-96c-17.7 0-32-14.3-32-32v-48c0-17.7 14.3-32 32-32zM304 640h96c17.7 0 32 14.3 32 32v48c0 17.7-14.3 32-32 32h-96c-17.7 0-32-14.3-32-32v-48c0-17.7 14.3-32 32-32zM304 320h96c17.7 0 32 14.3 32 32v48c0 17.7-14.3 32-32 32h-96c-17.7 0-32-14.3-32-32v-48c0-17.7 14.3-32 32-32z" p-id="1937"></path></svg>