<?xml version="1.0" standalone="no"?><!DOCTYPE svg PUBLIC "-//W3C//DTD SVG 1.1//EN" "http://www.w3.org/Graphics/SVG/1.1/DTD/svg11.dtd"><svg t="1585212720794" class="icon" viewBox="0 0 1024 1024" version="1.1" xmlns="http://www.w3.org/2000/svg" p-id="3430" xmlns:xlink="http://www.w3.org/1999/xlink"  ><defs><style type="text/css"></style></defs><path d="M370.45 128c21.207 0 38.4 17.192 38.4 38.4s-17.193 38.4-38.4 38.4H220.443c-22.272 0-41.244 20.088-41.244 45.93v548.14c0 25.842 18.972 45.93 41.244 45.93h557.512c22.272 0 41.244-20.088 41.244-45.93V602.579c0-21.208 17.192-38.4 38.4-38.4s38.4 17.192 38.4 38.4v196.293c0 67.306-52.344 122.729-118.044 122.729H220.444c-65.7 0-118.044-55.423-118.044-122.73V250.73c0-67.307 52.344-122.73 118.044-122.73H370.45z m406.083-54.589l147.802 85.334c18.366 10.603 24.66 34.089 14.055 52.455l-96 166.277c-10.603 18.366-34.089 24.66-52.455 14.055-18.366-10.604-24.66-34.089-14.055-52.455l49.681-86.065c-231.947 16.82-420.917 197.618-446.05 430.353-2.277 21.085-21.215 36.332-42.3 34.056-21.086-2.277-36.333-21.216-34.056-42.301C331.7 410.78 542.473 204.349 803.793 177.82l-65.66-37.898c-18.366-10.604-24.659-34.089-14.055-52.455 10.604-18.367 34.089-24.66 52.455-14.056z" p-id="3431"></path></svg>