<?xml version="1.0" standalone="no"?><!DOCTYPE svg PUBLIC "-//W3C//DTD SVG 1.1//EN" "http://www.w3.org/Graphics/SVG/1.1/DTD/svg11.dtd"><svg t="1585212712762" class="icon" viewBox="0 0 1024 1024" version="1.1" xmlns="http://www.w3.org/2000/svg" p-id="3064" xmlns:xlink="http://www.w3.org/1999/xlink"  ><defs><style type="text/css"></style></defs><path d="M823 91c80.791 0 146.286 65.494 146.286 146.286v548.571c0 80.792-65.495 146.286-146.286 146.286H201.286C120.494 932.143 55 866.649 55 785.857V237.286C55 156.494 120.494 91 201.286 91H823z m0 91.429H201.286c-30.297 0-54.857 24.56-54.857 54.857l0.01 365.532c237.585-9.099 315.159-146.104 489.836-146.104 85.262 0 165.79 18.96 241.583 56.88V237.286c0-30.297-24.561-54.857-54.858-54.857zM311 255.57c50.495 0 91.429 40.934 91.429 91.429 0 50.495-40.934 91.429-91.429 91.429-50.495 0-91.429-40.934-91.429-91.429 0-50.495 40.934-91.429 91.429-91.429z" p-id="3065"></path></svg>