<?xml version="1.0" standalone="no"?><!DOCTYPE svg PUBLIC "-//W3C//DTD SVG 1.1//EN" "http://www.w3.org/Graphics/SVG/1.1/DTD/svg11.dtd"><svg t="1585212715450" class="icon" viewBox="0 0 1024 1024" version="1.1" xmlns="http://www.w3.org/2000/svg" p-id="3184" xmlns:xlink="http://www.w3.org/1999/xlink"  ><defs><style type="text/css"></style></defs><path d="M896.027 137.542c29.424 0 54.431 25.949 54.431 59.26v434.42c0 35.753-28.723 67.362-57.346 67.362H663.677l-79.722 77.59-73.035 71.595-53.574-50.364-46.319-44.278-22.643-22.286a569.509 569.509 0 0 1-6.264-6.4l-24.28-25.857H130.885c-28.62 0-57.343-31.61-57.343-67.363V196.803c0-33.318 25.007-59.261 54.474-59.261h768.011zM256.262 364.764c-35.326 0-64.009 29.712-64.009 66.4 0 36.663 28.683 66.376 64.01 66.376 35.377 0 64.009-29.713 64.009-66.376 0-36.688-28.632-66.4-64.01-66.4z m256.038 0c-35.373 0-64.01 29.712-64.01 66.4 0 36.663 28.637 66.376 64.01 66.376 35.326 0 63.961-29.713 63.961-66.376 0-36.688-28.635-66.4-63.961-66.4z m255.991 0c-35.326 0-64.012 29.712-64.012 66.4 0 36.663 28.686 66.376 64.012 66.376 35.32 0 64.007-29.713 64.007-66.376 0-36.688-28.686-66.4-64.007-66.4z" p-id="3185"></path></svg>