<?xml version="1.0" standalone="no"?><!DOCTYPE svg PUBLIC "-//W3C//DTD SVG 1.1//EN" "http://www.w3.org/Graphics/SVG/1.1/DTD/svg11.dtd"><svg t="1585212694626" class="icon" viewBox="0 0 1024 1024" version="1.1" xmlns="http://www.w3.org/2000/svg" p-id="2335" xmlns:xlink="http://www.w3.org/1999/xlink"  ><defs><style type="text/css"></style></defs><path d="M643.852 566.374c0-10.858-2.106-20.788-6.324-29.776-4.218-9.018-9.48-16.43-15.797-22.297-6.301-5.853-14.222-11.182-23.755-15.945-9.533-4.778-18.484-8.473-26.869-11.094a374.468 374.468 0 0 0-28.487-7.5l-33.877-7.796c-6.5-1.524-11.278-2.658-14.325-3.416-3.062-0.751-6.846-2.002-11.373-3.747-4.535-1.752-7.789-3.497-9.754-5.211-1.966-1.715-3.761-3.998-5.374-6.832a19.81 19.81 0 0 1-2.458-9.754c0-16.717 15.627-25.08 46.869-25.08 9.34 0 17.69 1.304 25.087 3.917 7.383 2.605 13.25 5.705 17.579 9.29 4.24 3.506 8.37 7.144 12.381 10.91a63.013 63.013 0 0 0 13 9.458 31.984 31.984 0 0 0 15.62 3.91c10.204 0 18.39-3.468 24.58-10.41 6.206-6.941 9.297-15.311 9.297-25.087 0-11.94-6.072-22.732-18.248-32.36-12.16-9.643-27.568-16.96-46.2-21.952-18.63-5.005-38.396-7.508-59.243-7.508-14.745 0-29.07 1.686-42.953 5.05a149.817 149.817 0 0 0-38.911 15.297 78.45 78.45 0 0 0-28.96 28.326c-7.243 12.058-10.887 25.992-10.91 41.827 0 13.258 2.055 24.807 6.162 34.664a61.835 61.835 0 0 0 18.249 24.586 110.942 110.942 0 0 0 26.037 15.79c9.304 3.998 20.486 7.517 33.538 10.586l47.531 11.704c19.522 4.77 31.683 8.694 36.453 11.72 6.942 4.328 10.416 10.843 10.416 19.521 0 8.473-4.328 15.489-12.992 21.01-8.687 5.52-20.067 8.288-34.179 8.288-11.049 0-20.987-1.73-29.79-5.21-8.805-3.476-15.857-7.65-21.164-12.53-5.3-4.888-10.233-9.783-14.79-14.67-4.556-4.888-9.54-9.063-14.957-12.545a32.014 32.014 0 0 0-17.587-5.204c-10.864 0-19.05 3.246-24.571 9.746-5.529 6.508-8.289 14.642-8.289 24.41 0 19.971 13.236 37.05 39.707 51.25 26.471 14.192 58.036 21.303 94.695 21.317 15.82 0 31.02-2.002 45.566-6.028 14.561-4.027 27.84-9.835 39.876-17.41 12.029-7.589 21.628-17.726 28.783-30.424 7.177-12.698 10.755-26.95 10.755-42.791h-0.044zM762 636.998c0 34.51-12.198 63.955-36.622 88.365-24.41 24.41-53.863 36.637-88.365 36.637-28.223 0-53.605-8.686-76.16-26.044-16.717 3.474-33 5.212-48.834 5.212-31.021 0-60.701-6.022-89.035-18.087-28.334-12.058-52.743-28.326-73.245-48.828-20.501-20.501-36.777-44.918-48.827-73.237a225.079 225.079 0 0 1-18.086-89.035c0-15.833 1.737-32.11 5.211-48.834C270.68 440.577 262 415.173 262 386.987c0-34.495 12.205-63.955 36.63-88.365C323.04 274.212 352.492 262 386.995 262c28.215 0 53.597 8.679 76.16 26.037a239.175 239.175 0 0 1 48.827-5.22c31.027 0 60.693 6.037 89.034 18.087 28.34 12.065 52.743 28.334 73.237 48.835 20.502 20.494 36.77 44.911 48.828 73.245a224.917 224.917 0 0 1 18.079 89.035c0 15.819-1.723 32.094-5.205 48.827C753.328 583.43 762 608.805 762 636.998z" p-id="2336"></path></svg>