<?xml version="1.0" standalone="no"?><!DOCTYPE svg PUBLIC "-//W3C//DTD SVG 1.1//EN" "http://www.w3.org/Graphics/SVG/1.1/DTD/svg11.dtd"><svg t="1608542759296" class="icon" viewBox="0 0 1024 1024" version="1.1" xmlns="http://www.w3.org/2000/svg" p-id="1041" xmlns:xlink="http://www.w3.org/1999/xlink"  ><defs><style type="text/css"></style></defs><path d="M288.933 346.815l148.461-111.879c40.742-30.076 94.602-37.862 141.529-19.837l236.13 89.482c15.678 6.079 32.103 8.639 47.781 8.639h39.035c11.306 0 20.798 8.639 20.798 19.837v287.538c0 11.198-9.6 20.69-20.798 20.69h-51.193c-6.933 0-14.718 2.56-19.945 6.933l-11.305 9.492c-2.56 2.56-6.932 1.706-9.599-0.853L534.662 324.525c-6.933-8.639-19.091-10.345-28.69-5.12l-125.85 69.752c-25.171 13.758-55.567 15.465-82.444 4.266-13.865-6.08-20.797-22.397-14.718-37.009-0.107-3.52 2.453-6.932 5.973-9.599zM94.503 640.432h44.262l31.25-37.862c27.729-33.596 78.07-37.862 111.985-10.345 12.159 10.345 21.65 24.103 26.023 39.568 26.877 6.933 47.781 27.517 55.567 54.287 19.09 5.972 36.475 18.13 45.967 36.155 16.532 2.56 32.103 10.346 44.262 22.397 25.17 26.664 30.396 66.339 11.305 98.121l-4.373 7.786v0.853c20.797 13.759 48.634 9.493 63.352-11.198 6.933-10.346 9.599-22.397 6.933-34.45v-0.852h0.853l3.52 3.412c15.677 15.465 40.848 18.132 58.979 5.973 14.718-10.345 21.65-28.37 18.237-45.648v-0.853h0.854l3.52 3.413c15.57 15.465 39.888 18.025 58.979 5.973 14.718-10.346 22.61-28.37 19.09-45.648v-0.747h0.854l3.52 3.413c14.717 14.612 38.181 17.172 55.566 6.933 21.65-12.905 28.69-40.422 15.678-61.966-1.707-2.56-3.52-5.12-5.226-6.932l-27.73-33.596-224.825-271.113c-2.56-2.56-6.08-3.413-9.6-1.706l-107.612 59.406c-34.77 18.984-75.511 22.397-112.84 8.639-20.797-6.933-36.475-23.25-44.26-43.088-6.08-20.691-3.52-43.088 7.785-61.113 2.56-5.12 0.853-11.198-4.373-13.758-1.706-0.853-3.52-0.853-5.226-0.853H90.131c-11.306 0-20.798 8.639-20.798 19.837v286.684c4.373 10.24 13.865 18.878 25.17 18.878z m156.248-20.69c-17.385-9.493-38.182-5.12-50.34 10.345l-30.397 37.008c-13.012 16.318-11.305 40.422 5.226 53.327h0.853l4.373 3.413c12.159 9.492 29.543 10.345 42.555 3.413 0.853-0.853 1.706 0 2.56 0.853v1.707c-2.56 13.758 2.56 28.37 13.864 37.008l3.52 2.56c12.158 9.492 27.73 10.345 41.701 4.266 0.854-0.853 2.56 0 2.56 0.853v0.854c-1.706 12.905 4.373 25.81 14.718 34.449l2.56 1.706c12.158 9.492 27.73 11.199 41.701 3.413 0.854-0.853 2.56 0 2.56 0.853v0.853c1.707 9.493 6.933 18.131 14.718 24.104l1.707 0.853c17.384 12.905 41.701 10.346 54.713-6.932 0.853-1.707 2.56-3.413 3.52-4.266l5.225-9.492c9.6-16.318 6.933-36.156-6.932-49.061-11.305-10.345-27.73-12.905-42.555-6.932-0.853 0-0.853 0-1.706-0.854v-0.853c0.853-20.69-15.678-38.715-36.476-40.422-5.226 0-10.452 0.854-15.678 2.56-6.079 0.853-4.372-4.266-4.372-4.266 7.785-19.837-0.854-41.275-20.798-49.914-10.452-4.266-23.464-3.413-32.956 1.707-4.373 0.853-3.52-3.413-3.52-3.413 11.413-16.105 5.333-39.355-12.904-49.7z" p-id="1042"></path></svg>