<?xml version="1.0" standalone="no"?><!DOCTYPE svg PUBLIC "-//W3C//DTD SVG 1.1//EN" "http://www.w3.org/Graphics/SVG/1.1/DTD/svg11.dtd"><svg t="1587640102242" class="icon" viewBox="0 0 1024 1024" version="1.1" xmlns="http://www.w3.org/2000/svg" p-id="837" xmlns:xlink="http://www.w3.org/1999/xlink"  ><defs><style type="text/css"></style></defs><path d="M780.962 333.45h-59.77v-29.858c0-115.249-93.837-209-209.192-209s-209.192 93.751-209.192 209v29.857h-59.77c-65.746 0-119.538 53.743-119.538 119.429v358.285c0 65.686 53.792 119.429 119.538 119.429h537.924c65.746 0 119.538-53.743 119.538-119.429V452.878c0-65.686-53.792-119.429-119.538-119.429z m-448.27 179.142c-16.735 0-29.884-13.137-29.884-29.857s13.149-29.857 29.884-29.857c16.736 0 29.885 13.137 29.885 29.857s-13.15 29.857-29.885 29.857z m29.885-209c0-82.406 66.941-149.286 149.423-149.286s149.423 66.88 149.423 149.286v29.857H362.577v-29.857z m328.73 209c-16.735 0-29.884-13.137-29.884-29.857s13.15-29.857 29.885-29.857 29.884 13.137 29.884 29.857-13.149 29.857-29.884 29.857z" p-id="838"></path></svg>