<?xml version="1.0" standalone="no"?><!DOCTYPE svg PUBLIC "-//W3C//DTD SVG 1.1//EN" "http://www.w3.org/Graphics/SVG/1.1/DTD/svg11.dtd"><svg t="1585710013269" class="icon" viewBox="0 0 1024 1024" version="1.1" xmlns="http://www.w3.org/2000/svg" p-id="1258" xmlns:xlink="http://www.w3.org/1999/xlink"  ><defs><style type="text/css"></style></defs><path d="M458.053 95.76c33.734-18.347 74.159-18.347 107.894 0L881.41 266.996c37.366 20.257 60.684 59.817 60.589 102.913v455.418C942 889.73 890.68 942 827.416 942H196.584C133.319 942 82 889.731 82 825.327V369.909c0-43.096 23.318-82.656 60.684-102.913z m211.679 583.558H354.363c-23.7 0-43.004 19.684-43.004 43.764 0 24.08 19.304 43.765 43.004 43.765h315.369c23.7 0 43.004-19.685 43.004-43.765 0-24.08-19.304-43.764-43.004-43.764z" p-id="1259"></path></svg>