<?xml version="1.0" standalone="no"?><!DOCTYPE svg PUBLIC "-//W3C//DTD SVG 1.1//EN" "http://www.w3.org/Graphics/SVG/1.1/DTD/svg11.dtd"><svg t="1585212741016" class="icon" viewBox="0 0 1024 1024" version="1.1" xmlns="http://www.w3.org/2000/svg" p-id="4300" xmlns:xlink="http://www.w3.org/1999/xlink"  ><defs><style type="text/css"></style></defs><path d="M179.2 427.886c42.415 0 76.8 34.384 76.8 76.8 0 42.415-34.385 76.8-76.8 76.8s-76.8-34.385-76.8-76.8c0-42.416 34.385-76.8 76.8-76.8z m332.8 0c42.415 0 76.8 34.384 76.8 76.8 0 42.415-34.385 76.8-76.8 76.8s-76.8-34.385-76.8-76.8c0-42.416 34.385-76.8 76.8-76.8z m332.8 0c42.415 0 76.8 34.384 76.8 76.8 0 42.415-34.385 76.8-76.8 76.8S768 547.1 768 504.686c0-42.416 34.385-76.8 76.8-76.8z" p-id="4301"></path></svg>