<?xml version="1.0" standalone="no"?><!DOCTYPE svg PUBLIC "-//W3C//DTD SVG 1.1//EN" "http://www.w3.org/Graphics/SVG/1.1/DTD/svg11.dtd"><svg t="1608888838982" class="icon" viewBox="0 0 1024 1024" version="1.1" xmlns="http://www.w3.org/2000/svg" p-id="1405" xmlns:xlink="http://www.w3.org/1999/xlink"  ><defs><style type="text/css"></style></defs><path d="M890.927953 125.514427a95.639602 95.639602 0 0 1 67.661924 28.055602 95.83641 95.83641 0 0 1 28.02663 67.730857v577.579957c0 52.901339-42.841163 95.786459-95.688554 95.786458H125.416523c-52.847391 0-95.688554-42.88512-95.688554-95.786458V221.300886c0-52.901339 42.841163-95.786459 95.688554-95.786459h765.51143z m0 47.89323H125.416523c-26.424195 0-47.843278 21.44306-47.843278 47.893229v577.579957c0 26.451169 21.419083 47.893229 47.843278 47.893229h765.51143c26.424195 0 47.844277-21.44206 47.844277-47.893229V221.300886c0-26.45017-21.420082-47.893229-47.844277-47.893229z" p-id="1406"></path><path d="M433.884285 303.223883l267.484784 142.397939c32.059692 17.068332 44.213822 56.894439 27.14649 88.95513a65.764777 65.764777 0 0 1-27.14649 27.14649L433.884285 704.12238c-32.059692 17.068332-71.886798 4.914201-88.954131-27.146489a65.764777 65.764777 0 0 1-7.713467-30.903821V361.274193c0-36.320531 29.443247-65.763778 65.763777-65.763777 9.700527 0 19.266185 2.145904 28.018638 6.26688l2.885183 1.446587z m-22.545983 37.7851a21.921592 21.921592 0 0 0-8.357838-1.655383c-12.106178 0-21.921592 9.814416-21.921592 21.920593v284.796878c0 3.592492 0.883138 7.130037 2.571489 10.300941 5.689444 10.686564 18.96448 14.738607 29.651044 9.049163l267.484784-142.39794a21.921592 21.921592 0 0 0 9.048164-9.049163c5.689444-10.686564 1.6384-23.962599-9.048164-29.651044L413.282404 341.923091l-1.944102-0.915107z" p-id="1407"></path></svg>