<?xml version="1.0" standalone="no"?><!DOCTYPE svg PUBLIC "-//W3C//DTD SVG 1.1//EN" "http://www.w3.org/Graphics/SVG/1.1/DTD/svg11.dtd"><svg t="1585212729241" class="icon" viewBox="0 0 1024 1024" version="1.1" xmlns="http://www.w3.org/2000/svg" p-id="3804" xmlns:xlink="http://www.w3.org/1999/xlink"  ><defs><style type="text/css"></style></defs><path d="M323.3 413.1c12.2-0.9 24.2 3.3 33.2 11.5 9.3 8.6 14.2 21 13.2 33.6-1 12.7-7.6 24.2-18.1 31.3-41.6 42.1-84.2 83.3-125.8 125.8-24.3 21.3-38.7 51.6-39.9 83.9-1.2 32.3 11 63.6 33.7 86.6 46.4 45.6 120.7 45.6 167 0 43-41.7 82.8-84.6 127.6-126.7 9.8-12.3 25.7-17.9 40.7-14.2 15.3 3.6 27.2 15.6 30.6 30.9 2.1 14.1-1.8 28.3-10.7 39.4-46.6 48.8-93.1 98-143.7 142.8-57 53-141 65.2-210.8 30.4-60.4-27.6-103.5-83.1-115.4-148.5-11.8-65.4 9-132.5 55.9-179.6 41.7-44.4 86.4-86.4 131.2-131.2 7.8-9.4 19.1-15.2 31.3-16z m272-60.7c11.9-14.3 31.9-18.9 48.8-11.2 17.4 7.8 28 25.8 26.4 44.8-3.1 8.4-7.5 16.3-13 23.3-85.4 86.5-171.2 172.8-257.4 258.7-8 8.6-19.2 13.5-30.9 13.5s-22.9-4.9-30.9-13.5c-8.4-8-13-19.3-12.6-30.9 0.4-11.6 5.8-22.5 14.8-29.9z m-26.9-193.8c37.3-29.4 84.3-43.5 131.6-39.4 76.7 1.9 145 49.5 173.2 120.9 35.6 75.1 19.8 164.5-39.4 222.9-44.8 47.5-89.5 89.5-134.3 134.3-18.6 18.3-48.5 18.3-67.1 0-15.6-18.9-13.2-46.8 5.4-62.7l131.1-131.2c30.4-29.5 42.3-73.2 31.1-114.1-11.2-40.8-43.6-72.4-84.8-82.4-35.6-11-74.4-2.1-101.6 23.3-44.8 41.2-89.5 85.9-134.3 130.7-10.2 9.9-23.8 15.6-38 16.1-15.4-0.8-29-10.4-34.8-24.7a39.953 39.953 0 0 1 7.5-42c50.1-51.9 100.7-103.4 154.4-151.7z" p-id="3805"></path></svg>