<?xml version="1.0" standalone="no"?><!DOCTYPE svg PUBLIC "-//W3C//DTD SVG 1.1//EN" "http://www.w3.org/Graphics/SVG/1.1/DTD/svg11.dtd"><svg t="1608888870680" class="icon" viewBox="0 0 1024 1024" version="1.1" xmlns="http://www.w3.org/2000/svg" p-id="2200" xmlns:xlink="http://www.w3.org/1999/xlink"  ><defs><style type="text/css"></style></defs><path d="M844.8 742.4c28.277 0 51.2 22.923 51.2 51.2 0 28.277-22.923 51.2-51.2 51.2H358.4c-28.277 0-51.2-22.923-51.2-51.2 0-28.277 22.923-51.2 51.2-51.2h486.4z m-665.6 0c28.277 0 51.2 22.923 51.2 51.2 0 28.277-22.923 51.2-51.2 51.2-28.277 0-51.2-22.923-51.2-51.2 0-28.277 22.923-51.2 51.2-51.2z m665.6-281.6c28.277 0 51.2 22.923 51.2 51.2 0 28.277-22.923 51.2-51.2 51.2H358.4c-28.277 0-51.2-22.923-51.2-51.2 0-28.277 22.923-51.2 51.2-51.2h486.4z m-665.6 0c28.277 0 51.2 22.923 51.2 51.2 0 28.277-22.923 51.2-51.2 51.2-28.277 0-51.2-22.923-51.2-51.2 0-28.277 22.923-51.2 51.2-51.2z m665.6-281.6c28.277 0 51.2 22.923 51.2 51.2 0 28.277-22.923 51.2-51.2 51.2H358.4c-28.277 0-51.2-22.923-51.2-51.2 0-28.277 22.923-51.2 51.2-51.2h486.4z m-665.6 0c28.277 0 51.2 22.923 51.2 51.2 0 28.277-22.923 51.2-51.2 51.2-28.277 0-51.2-22.923-51.2-51.2 0-28.277 22.923-51.2 51.2-51.2z" p-id="2201"></path></svg>