<?xml version="1.0" standalone="no"?><!DOCTYPE svg PUBLIC "-//W3C//DTD SVG 1.1//EN" "http://www.w3.org/Graphics/SVG/1.1/DTD/svg11.dtd"><svg t="1585212738085" class="icon" viewBox="0 0 1024 1024" version="1.1" xmlns="http://www.w3.org/2000/svg" p-id="4174" xmlns:xlink="http://www.w3.org/1999/xlink"  ><defs><style type="text/css"></style></defs><path d="M512 52c23 0 41.818 18.818 41.818 41.818 0 23-18.818 41.818-41.818 41.818C305 135.636 135.636 305 135.636 512 135.636 719 305 888.364 512 888.364 719 888.364 888.364 719 888.364 512c0-23 18.818-41.818 41.818-41.818C953.182 470.182 972 489 972 512c0 253-207 460-460 460S52 765 52 512 259 52 512 52z m146.364 77.364c2.09-23 23-37.637 46-35.546l135.909 16.727c37.636 4.182 69 35.546 73.182 73.182l16.727 135.91c4.182 23-12.546 43.908-35.546 46h-6.272c-20.91 0-39.728-16.728-41.819-37.637l-10.454-81.545-294.818 294.818c-8.364 8.363-18.818 12.545-29.273 12.545-10.455 0-20.91-4.182-29.273-12.545-16.727-16.728-16.727-41.818 0-58.546L777.545 187.91 696 177.455c-23-4.182-39.727-25.091-37.636-48.091z" p-id="4175"></path></svg>