<?xml version="1.0" standalone="no"?><!DOCTYPE svg PUBLIC "-//W3C//DTD SVG 1.1//EN" "http://www.w3.org/Graphics/SVG/1.1/DTD/svg11.dtd"><svg t="1585212676174" class="icon" viewBox="0 0 1024 1024" version="1.1" xmlns="http://www.w3.org/2000/svg" p-id="1975" xmlns:xlink="http://www.w3.org/1999/xlink"  ><defs><style type="text/css"></style></defs><path d="M843.774 128l6.108 0.171c58.648 3.292 105.261 53.705 105.261 115.401v378.056c0 63.804-50.972 122.623-113.907 122.623H667.508C609.088 800.91 519.4 889.253 519.4 889.253l-2.18 1.86c-5.396 3.72-12.729 3.1-17.484-1.86 0 0-109.254-101.217-146.297-139.022l-5.75-5.98H177.903C114.972 744.25 64 685.43 64 621.628V243.572C64 179.748 113.878 128 175.407 128h668.367z m0 64H175.407C149.763 192 128 214.577 128 243.572v378.056c0 31.115 24.997 58.623 49.904 58.623h197.509l21.13 22.503a495.618 495.618 0 0 0 5.45 5.569l19.706 19.395 40.31 38.533 46.622 43.83 63.56-62.307 69.379-67.523h199.666c24.91 0 49.907-27.508 49.907-58.623V243.572c0-28.99-21.763-51.572-47.37-51.572z m-556.76 197.742c30.788 0 55.704 25.857 55.704 57.785 0 31.907-24.916 57.764-55.704 57.764-30.743 0-55.704-25.857-55.704-57.764 0-31.928 24.96-57.785 55.704-57.785z m222.818 0c30.743 0 55.663 25.857 55.663 57.785 0 31.907-24.92 57.764-55.663 57.764-30.783 0-55.704-25.857-55.704-57.764 0-31.928 24.921-57.785 55.704-57.785z m222.779 0c30.738 0 55.702 25.857 55.702 57.785 0 31.907-24.964 57.764-55.702 57.764-30.743 0-55.708-25.857-55.708-57.764 0-31.928 24.965-57.785 55.708-57.785z" p-id="1976"></path></svg>