<?xml version="1.0" standalone="no"?><!DOCTYPE svg PUBLIC "-//W3C//DTD SVG 1.1//EN" "http://www.w3.org/Graphics/SVG/1.1/DTD/svg11.dtd"><svg t="1585710001190" class="icon" viewBox="0 0 1024 1024" version="1.1" xmlns="http://www.w3.org/2000/svg" p-id="1132" xmlns:xlink="http://www.w3.org/1999/xlink"  ><defs><style type="text/css"></style></defs><path d="M738 89.5c83.119 0 150.5 67.381 150.5 150.5v544c0 83.119-67.381 150.5-150.5 150.5H286c-83.119 0-150.5-67.381-150.5-150.5V240c0-83.119 67.381-150.5 150.5-150.5zM512 669H363c-20.435 0-37 16.565-37 37s16.565 37 37 37h149c20.435 0 37-16.565 37-37s-16.565-37-37-37z m146-194H361c-20.435 0-37 16.565-37 37s16.565 37 37 37h297c20.435 0 37-16.565 37-37s-16.565-37-37-37z m2-194H363c-20.435 0-37 16.565-37 37s16.565 37 37 37h297c20.435 0 37-16.565 37-37s-16.565-37-37-37z" p-id="1133"></path></svg>