<?xml version="1.0" standalone="no"?><!DOCTYPE svg PUBLIC "-//W3C//DTD SVG 1.1//EN" "http://www.w3.org/Graphics/SVG/1.1/DTD/svg11.dtd"><svg t="1608888852685" class="icon" viewBox="0 0 1024 1024" version="1.1" xmlns="http://www.w3.org/2000/svg" p-id="1669" xmlns:xlink="http://www.w3.org/1999/xlink"  ><defs><style type="text/css"></style></defs><path d="M321.341 194.41c-16.5 32.894-50.226 53.69-87.138 53.728h-116.2c-26.93 0-48.761 21.75-48.761 48.58V782.51c0 26.83 21.831 48.58 48.762 48.58h780.19c26.93 0 48.762-21.75 48.762-48.58V296.717c0-26.83-21.831-48.58-48.762-48.58h-116.15c-36.947 0-70.72-20.802-87.236-53.728l-10.874-21.715c-6.688-13.317-20.356-21.724-35.303-21.715H367.567c-14.947-0.01-28.615 8.398-35.303 21.715L321.39 194.41h-0.049z m-43.593-21.716l10.922-21.715c14.922-29.779 45.495-48.579 78.897-48.579h281.064c33.402 0 63.975 18.8 78.897 48.58l10.922 21.714c8.254 16.455 25.129 26.855 43.593 26.865h116.151c25.865 0 50.67 10.236 68.96 28.457 18.29 18.22 28.564 42.933 28.564 68.701V782.51c0 53.659-43.663 97.158-97.524 97.158h-780.19c-53.861 0-97.524-43.499-97.524-97.158V296.717c0-53.66 43.663-97.158 97.524-97.158h116.15c18.465-0.01 35.34-10.41 43.594-26.865z" p-id="1670"></path><path d="M508.099 321.007c107.722 0 195.048 86.998 195.048 194.317 0 107.318-87.326 194.317-195.048 194.317-107.722 0-195.048-86.999-195.048-194.317 0-107.319 87.326-194.317 195.048-194.317z m22.381 85.013h-44.762a2 2 0 0 0-2 2v83.013l-83.333 0.001a2 2 0 0 0-2 2v44.58a2 2 0 0 0 2 2h83.333v83.013a2 2 0 0 0 2 2h44.762a2 2 0 0 0 2-2v-83.014h83.333a2 2 0 0 0 2-2v-44.579a2 2 0 0 0-2-2H532.48V408.02a2 2 0 0 0-2-2z" p-id="1671"></path></svg>