<svg xmlns="http://www.w3.org/2000/svg"   viewBox="0 0 24 26">
    <path fill="#FFF" fill-rule="evenodd" d="M4.374 7.855h15.268v10.339c0 1.13-.686 1.729-1.976 1.729h-.94c0 1.198.014 2.361-.006 3.525-.012.722-.721 1.32-1.533 1.347-.873.028-1.67-.504-1.7-1.241-.05-1.192-.013-2.386-.013-3.606h-2.928c0 .474.002.947 0 1.422-.001.698.016 1.397-.014 2.094-.027.682-.637 1.24-1.389 1.324-.798.088-1.545-.318-1.782-.983a1.433 1.433 0 0 1-.084-.46c-.007-.992-.005-1.983-.002-2.976 0-.136.027-.272.045-.446-.38 0-.752.002-1.124 0-1.102-.008-1.82-.637-1.82-1.61-.003-3.398-.002-6.797-.002-10.196v-.262zM3.27 12.361c0 1.046.011 2.092-.005 3.138-.01.641-.522 1.182-1.22 1.339-.683.153-1.432-.096-1.781-.642-.143-.223-.246-.5-.248-.752-.02-2.056-.017-4.11-.008-6.167.004-.81.73-1.431 1.634-1.431.907 0 1.617.611 1.627 1.431.013 1.028.003 2.056.003 3.084h-.002zm16.38-5.497H4.359c.143-2.327 1.644-3.773 3.876-4.8-.228-.302-.449-.598-.67-.893C7.404.957 7.24.744 7.08.53 6.967.378 6.786.207 7.037.056c.271-.163.382.065.502.22.287.374.57.748.853 1.122.35.461.349.46.949.307 1.91-.49 3.806-.462 5.69.108.067.02.137.037.225.06L16.421.338c.046-.061.091-.122.14-.183.108-.137.246-.21.421-.098.158.103.131.234.031.365-.337.441-.67.885-1.005 1.329-.075.098-.148.198-.234.313 2.22 1.017 3.735 2.467 3.875 4.8zM9.54 4.23c-.005-.397-.374-.715-.82-.708-.445.008-.814.342-.807.729.008.395.376.706.83.701.456-.004.803-.318.797-.722zm6.554.017c.005-.39-.365-.72-.81-.725-.448-.004-.814.314-.818.712-.003.402.347.715.804.718.455.002.82-.31.824-.705zM24 12.361c0 1 .003 2-.001 3-.003.88-.691 1.517-1.63 1.516-.94 0-1.633-.64-1.634-1.515-.002-2.028-.004-4.056.002-6.084.003-.747.624-1.347 1.444-1.421.854-.079 1.602.387 1.783 1.12.034.142.034.292.034.438.003.982.002 1.964.002 2.946z"/>
</svg>
