<?xml version="1.0" encoding="UTF-8" standalone="no"?>
<!DOCTYPE svg PUBLIC "-//W3C//DTD SVG 1.1//EN" "http://www.w3.org/Graphics/SVG/1.1/DTD/svg11.dtd">
<svg class="icon"   viewBox="0 0 21 17" version="1.1" xmlns="http://www.w3.org/2000/svg" >
  <path  fill="#C4C4C4" d="M3.14082094,0.0200406567 L2.01769759,0.0198496659 L2.01769759,16.4870628 L19.9819416,16.4870628 L19.9823024,15.3644912 L3.14082094,15.3644912 L3.14082094,0.0200406567 Z M11.3744275,0.955679682 C11.3744275,0.576679127 11.0070983,0.206994442 10.6255301,0.206994442 L9.11406908,0.206994442 C8.73250083,0.206994442 8.42312518,0.514184371 8.42312518,0.892993915 L8.42312518,14.6158059 L11.3744275,14.6159969 L11.3744063,0.955679682 L11.3744275,0.955679682 Z M7.07050067,5.07248297 C7.07050067,4.69348241 6.86162595,4.32379773 6.47986673,4.32379773 L5.01209903,4.32396749 C4.63053078,4.32396749 4.26358355,4.69348241 4.26358355,5.07248297 L4.26358355,14.6159969 L7.07050067,14.6159969 L7.07050067,5.07248297 Z M15.6783543,8.8150179 C15.6783543,8.43601734 15.4694796,8.06633266 15.0877416,8.06633266 L13.6199527,8.06652365 C13.2384057,8.06652365 12.8714585,8.43601736 12.8714585,8.8150179 L12.8714585,14.6159757 L15.6783543,14.6159757 L15.6783543,8.8150179 Z M19.3916685,11.9959911 L17.9238795,11.9961821 C17.5423325,11.9961821 17.1753853,12.3656971 17.1753853,12.7446764 L17.1753853,14.6159757 L19.9822812,14.6159757 L19.9822812,12.7446764 C19.9822812,12.3656971 19.7734065,11.9959911 19.3916685,11.9959911 Z" />
</svg>