<?xml version="1.0" encoding="UTF-8" standalone="no"?>
<svg   viewBox="0 0 26 19" version="1.1" xmlns="http://www.w3.org/2000/svg" xmlns:xlink="http://www.w3.org/1999/xlink">
    <!-- Generator: sketchtool 49.1 (51147) - http://www.bohemiancoding.com/sketch -->
    <title>E16843D9-4552-43C8-BDF5-615B363E775D</title>
    <desc>Created with sketchtool.</desc>
    <defs></defs>
    <g id="主界面" stroke="none" stroke- fill="none" fill-rule="evenodd">
        <g id="我的评测" transform="translate(-950.000000, -685.000000)" fill="#BCB097" fill-rule="nonzero" stroke="#BCB097" stroke->
            <g id="笔记本电脑" transform="translate(950.000000, 685.000000)">
                <path d="M24.8719278,17.654158 L22.7638284,14.4365327 C22.7638284,14.3255801 22.7638284,14.2146275 22.7638284,14.1036749 L22.7638284,2.12079458 C22.7638284,1.5660316 22.3200181,1.01126862 21.6543025,1.01126862 L4.34569752,1.01126862 C3.79093454,1.01126862 3.23617156,1.45507901 3.23617156,2.12079458 L3.23617156,14.1036749 C3.23617156,14.2146275 3.23617156,14.3255801 3.23617156,14.4365327 L1.12807223,17.654158 C1.01711964,17.7651106 1.01711964,17.8760632 1.01711964,17.9870158 C1.01711964,18.3198736 1.23902483,18.5417788 1.57188262,18.5417788 L24.4281174,18.5417788 C24.7609752,18.5417788 24.9828804,18.3198736 24.9828804,17.9870158 C24.9828804,17.8760632 24.8719278,17.7651106 24.8719278,17.654158 Z M4.34569752,2.12079458 L21.7652551,2.12079458 L21.7652551,14.1036749 L4.34569752,14.1036749 L4.34569752,2.12079458 Z M2.57045598,17.4322528 L4.01283973,15.2132009 C4.12379233,15.2132009 4.12379233,15.2132009 4.23474492,15.2132009 L21.6543025,15.2132009 C21.7652551,15.2132009 21.7652551,15.2132009 21.8762077,15.2132009 L23.3185914,17.4322528 L2.57045598,17.4322528 Z" id="Shape"></path>
            </g>
        </g>
    </g>
</svg>