<?xml version="1.0" encoding="UTF-8" standalone="no"?>
<svg   viewBox="0 0 27 19" version="1.1" xmlns="http://www.w3.org/2000/svg" xmlns:xlink="http://www.w3.org/1999/xlink">
    <!-- Generator: sketchtool 49.1 (51147) - http://www.bohemiancoding.com/sketch -->
    <title>D7A8FB35-BC03-48DD-99E9-89771ADB2D14</title>
    <desc>Created with sketchtool.</desc>
    <defs></defs>
    <g id="主界面" stroke="none" stroke- fill="none" fill-rule="evenodd">
        <g id="我的评测" transform="translate(-1108.000000, -500.000000)" fill="#BCB097" fill-rule="nonzero">
            <g id="Group-8" transform="translate(949.500000, 488.000000)">
                <g id="Group-3" transform="translate(1.000000, 0.000000)">
                    <g id="Group-6" transform="translate(158.000000, 12.000000)">
                        <path d="M9.29965125,13.9851798 L22.7225012,0.562329895 C23.4722744,-0.187443298 24.6878969,-0.187443298 25.4376701,0.562329895 C26.1874433,1.31210309 26.1874433,2.52772562 25.4376701,3.27749881 L11.4440098,17.2711591 C11.3284223,17.3867466 11.2017633,17.4845147 11.0674464,17.5644635 C10.9759725,17.7556832 10.8510278,17.9348946 10.6926124,18.0933099 C9.94283923,18.8430831 8.7272167,18.8430831 7.97744351,18.0933099 L0.562329895,10.6781963 C-0.187443298,9.92842312 -0.187443298,8.71280059 0.562329895,7.9630274 C1.31210309,7.2132542 2.52772562,7.2132542 3.27749881,7.9630274 L9.29965125,13.9851798 Z" id="Combined-Shape"></path>
                    </g>
                </g>
            </g>
        </g>
    </g>
</svg>