<?xml version="1.0" encoding="UTF-8" standalone="no"?>
<svg   viewBox="0 0 14 14" version="1.1" xmlns="http://www.w3.org/2000/svg" xmlns:xlink="http://www.w3.org/1999/xlink">
    <!-- Generator: sketchtool 49.1 (51147) - http://www.bohemiancoding.com/sketch -->
    <title>1541C29D-E0E0-45F4-9C3C-3993E9EC9467</title>
    <desc>Created with sketchtool.</desc>
    <defs></defs>
    <g id="主界面" stroke="none" stroke- fill="none" fill-rule="evenodd">
        <g id="外汇云评测栏目" transform="translate(-1192.000000, -2760.000000)" fill="#C4C4C4" fill-rule="nonzero">
            <g id="底部固定栏" transform="translate(0.000000, 2708.000000)">
                <g id="关闭" transform="translate(1192.000000, 52.000000)">
                    <path d="M0.273367004,1.59329966 C-0.0911223347,1.22881032 -0.0911223347,0.637856343 0.273367004,0.273367004 C0.637856343,-0.0911223347 1.22881032,-0.0911223347 1.59329966,0.273367004 L13.3436661,12.0237334 C13.7081554,12.3882228 13.7081554,12.9791767 13.3436661,13.3436661 C12.9791767,13.7081554 12.3882228,13.7081554 12.0237334,13.3436661 L0.273367004,1.59329966 Z" id="Line-8"></path>
                    <path d="M12.0237334,0.273367004 C12.3882228,-0.0911223347 12.9791767,-0.0911223347 13.3436661,0.273367004 C13.7081554,0.637856343 13.7081554,1.22881032 13.3436661,1.59329966 L1.59329966,13.3436661 C1.22881032,13.7081554 0.637856343,13.7081554 0.273367004,13.3436661 C-0.0911223347,12.9791767 -0.0911223347,12.3882228 0.273367004,12.0237334 L12.0237334,0.273367004 Z" id="Line-8"></path>
                </g>
            </g>
        </g>
    </g>
</svg>