<?xml version="1.0" standalone="no"?><!DOCTYPE svg PUBLIC "-//W3C//DTD SVG 1.1//EN" "http://www.w3.org/Graphics/SVG/1.1/DTD/svg11.dtd">
<svg t="1525267090152" class="icon" style="" viewBox="0 0 588 588" version="1.1" xmlns="http://www.w3.org/2000/svg" p-id="588" xmlns:xlink="http://www.w3.org/1999/xlink"  >
  <defs><style type="text/css"></style></defs>
  <path d="M202.971429 511.561143L546.377143 202.386286a34.304 34.304 0 0 0-45.860572-50.980572L130.194286 484.790857a34.230857 34.230857 0 0 0-11.337143 26.770286 34.230857 34.230857 0 0 0 11.337143 26.770286l370.322285 333.458285a34.304 34.304 0 0 0 45.860572-50.980571L202.971429 511.561143z" p-id="589"></path>
  <path d="M495.542857 511.561143l343.405714-309.174857a34.304 34.304 0 0 0-45.860571-50.980572L422.765714 484.790857a34.230857 34.230857 0 0 0-11.337143 26.770286 34.230857 34.230857 0 0 0 11.337143 26.770286l370.322286 333.458285a34.304 34.304 0 0 0 45.860571-50.980571L495.542857 511.561143z" p-id="590"></path>
</svg>