<?xml version="1.0" standalone="no"?><!DOCTYPE svg PUBLIC "-//W3C//DTD SVG 1.1//EN" "http://www.w3.org/Graphics/SVG/1.1/DTD/svg11.dtd">
<svg t="1525266036779" class="icon" style="" viewBox="0 0 575 575" version="1.1" xmlns="http://www.w3.org/2000/svg" p-id="575" xmlns:xlink="http://www.w3.org/1999/xlink"  >
  <defs><style type="text/css"></style></defs>
  <path d="M529.261714 515.291429L185.782857 824.466286a34.304 34.304 0 0 0 45.860572 50.980571L601.965714 542.061714a34.230857 34.230857 0 0 0 11.337143-26.770285 34.230857 34.230857 0 0 0-11.337143-26.770286L231.716571 155.062857a34.304 34.304 0 0 0-45.860571 50.980572l343.405714 309.248z" p-id="576"></path>
  <path d="M821.833143 515.291429L478.354286 824.466286a34.304 34.304 0 0 0 45.860571 50.980571l370.249143-333.385143a34.230857 34.230857 0 0 0 11.337143-26.770285 34.230857 34.230857 0 0 0-11.337143-26.770286L524.288 155.062857a34.304 34.304 0 0 0-45.860571 50.980572l343.405714 309.248z" p-id="577"></path>
</svg>