<?xml version="1.0" encoding="UTF-8" standalone="no"?>
<!DOCTYPE svg PUBLIC "-//W3C//DTD SVG 1.1//EN" "http://www.w3.org/Graphics/SVG/1.1/DTD/svg11.dtd">
<svg class="icon"   viewBox="0 0 13 23" version="1.1" xmlns="http://www.w3.org/2000/svg" >
  <path fill="#EB562A" fill-rule="nonzero" d="M12.7324415,16.7911353 L7.23188406,22.6262855 C7.13377926,22.7587413 7.00668896,22.8628137 6.85507246,22.9219457 C6.84392419,22.924311 6.83723523,22.9266763 6.83054627,22.9266763 C6.74136009,22.9692513 6.6432553,22.983443 6.5451505,22.9881736 C6.53177258,22.9881736 6.51616499,23 6.50278707,23 C6.47603122,23 6.45373467,22.9810777 6.42697882,22.9810777 C6.3690078,22.9763472 6.31103679,22.9621555 6.25306577,22.940868 C6.18394649,22.9219457 6.12151616,22.891197 6.05908584,22.8580831 C6.02118172,22.8367956 5.98550725,22.8084122 5.94983278,22.7800288 C5.91861761,22.7540107 5.87848384,22.7421843 5.84949833,22.7067051 L0.27090301,16.7911353 C-0.0903010033,16.410325 -0.0903010033,15.7906211 0.27090301,15.4145413 C0.627647715,15.033731 1.21181717,15.033731 1.57302118,15.4145413 L5.58639911,19.6696833 L5.58639911,10.1801728 C5.58639911,9.63615796 6.00334448,9.1891197 6.51616499,9.1891197 C7.02898551,9.1891197 7.44593088,9.63379268 7.44593088,10.1801728 L7.44593088,19.6389346 L11.432553,15.4145413 C11.787068,15.033731 12.3734671,15.033731 12.7324415,15.4145413 C13.0891862,15.7906211 13.0891862,16.410325 12.7324415,16.7911353 Z M6.50947603,6.56838749 C5.99665552,6.56838749 5.57971014,6.1260798 5.57971014,5.58206499 C5.57971014,5.04041547 5.99442586,4.59810777 6.50947603,4.59810777 C7.0245262,4.59810777 7.43924192,5.04041547 7.43924192,5.58206499 C7.44147157,6.12844508 7.0245262,6.56838749 6.50947603,6.56838749 Z M6.50947603,1.97027972 C5.99665552,1.97027972 5.57971014,1.53033731 5.57971014,0.983957219 C5.57971014,0.442307692 5.99442586,0 6.50947603,0 C7.0245262,0 7.43924192,0.442307692 7.43924192,0.983957219 C7.44147157,1.53033731 7.0245262,1.97027972 6.50947603,1.97027972 Z" id="Shape"></path>
</svg>