<?xml version="1.0" standalone="no"?><!DOCTYPE svg PUBLIC "-//W3C//DTD SVG 1.1//EN" "http://www.w3.org/Graphics/SVG/1.1/DTD/svg11.dtd"><svg t="1567157585646" class="icon" viewBox="0 0 1024 1024" version="1.1" xmlns="http://www.w3.org/2000/svg" p-id="1226" xmlns:xlink="http://www.w3.org/1999/xlink"  ><defs><style type="text/css"></style></defs><path d="M718 0c77.32 0 140 62.68 140 140v744c0 77.32-62.68 140-140 140H306c-77.32 0-140-62.68-140-140V140C166 62.68 228.68 0 306 0h412zM511.5 885c-24.024 0-43.5 19.476-43.5 43.5s19.476 43.5 43.5 43.5 43.5-19.476 43.5-43.5-19.476-43.5-43.5-43.5zM797 128H227v718h570V128zM296 639v9.169c0 0.96-0.71 1.749-1.611 1.825l-0.144 0.006h-3.49c-0.92 0-1.676-0.74-1.75-1.681l-0.005-0.15V639h7z m449.592-280.615l0.007 0.163 0.284 10.405c0.32 11.69-8.503 21.59-20.112 22.657l-0.36 0.03-12.403 0.94c-15.646 1.11-29.67 2.016-45.145 2.725l-2.919 0.13v111.279h69.901c12.114 0 21.956 9.717 22.152 21.78l0.003 0.365v10.365a2.584 2.584 0 0 1-2.42 2.578l-0.164 0.005h-89.472v78.665c0 16.145-12.963 29.263-29.052 29.524l-0.488 0.004h-57.08a2.584 2.584 0 0 1-2.579-2.42l-0.005-0.163v-1.85c0-16.144 12.963-29.987 29.052-30.262l0.488-0.004h8.084a3.692 3.692 0 0 0 3.687-3.495l0.006-0.196v-69.803h-89.472a2.584 2.584 0 0 1-2.58-2.42l-0.005-0.163v-10.365c0-12.108 9.722-21.947 21.79-22.142l0.366-0.003h69.9V396.908c-17.813 0.316-30.79 0.378-48.298 0.179l-1.766-0.02-1.832-0.023c-16.141 0.564-29.71-13.375-30.532-29.468l-0.02-0.488-0.067-1.873a1.846 1.846 0 0 1 1.63-1.897l0.151-0.011 40.394-0.022c41.116-0.02 78.741-1.067 119.56-3.81l3.72-0.254 42.849-3.215a2.585 2.585 0 0 1 2.747 2.38zM502.416 362a2.581 2.581 0 0 1 2.579 2.414l0.005 0.163V375c0 12.08-9.717 21.896-21.776 22.09l-0.367 0.004h-96.082a3.687 3.687 0 0 0-3.685 3.487l-0.005 0.195v210.501a3.686 3.686 0 0 0 3.494 3.677l0.196 0.005h96.073c12.107 0 21.933 9.675 22.128 21.708l0.003 0.365v10.347c0 1.37-1.063 2.53-2.414 2.617l-0.164 0.005H364.75c-16.141 0-29.258-12.927-29.519-28.971l-0.004-0.487V376.729c0-8.03 6.439-14.557 14.445-14.726l0.317-0.003h152.428z m-207.88 66.514c0.968 0 1.762 0.745 1.84 1.694l0.005 0.151v9.207h13.973a2.584 2.584 0 0 1 2.579 2.42l0.005 0.164v194.18a2.584 2.584 0 0 1-2.42 2.578l-0.164 0.005H274.99a2.584 2.584 0 0 1-2.578-2.42l-0.005-0.164V442.15a2.583 2.583 0 0 1 2.42-2.579l0.163-0.005h13.947v-9.207c0-0.968 0.745-1.762 1.694-1.839l0.151-0.006h3.755zM578.026 420c0.944 0 1.787 0.57 2.146 1.43l0.061 0.164 23.672 69.988a1.839 1.839 0 0 1-1.6 2.413l-0.144 0.005h-25.215c-13.069 0-23.795-10.039-24.907-22.834-0.16-1.831-0.314-3.663-0.513-5.49l-0.16-1.37-5.348-41.692a2.325 2.325 0 0 1 2.152-2.609l0.154-0.005h29.703z m131.92 0h25.216a1.839 1.839 0 0 1 1.783 2.28l-0.04 0.138-23.672 69.988a2.326 2.326 0 0 1-2.031 1.587l-0.176 0.007h-29.701a2.326 2.326 0 0 1-2.321-2.46l0.014-0.154 5.348-41.692c0.283-2.28 0.475-4.57 0.673-6.86 1.101-12.668 11.624-22.633 24.515-22.831l0.391-0.003h25.217z m-393.873-43.977a2.58 2.58 0 0 1 2.571 2.42l0.005 0.164v32.5a2.58 2.58 0 0 1-2.413 2.58l-0.163 0.004h-46.497a2.58 2.58 0 0 1-2.57-2.42l-0.006-0.163v-32.501a2.58 2.58 0 0 1 2.413-2.58l0.163-0.004h46.497z" p-id="1227"></path></svg>