<?xml version="1.0" standalone="no"?><!DOCTYPE svg PUBLIC "-//W3C//DTD SVG 1.1//EN" "http://www.w3.org/Graphics/SVG/1.1/DTD/svg11.dtd"><svg t="1545809425325" class="icon" style="" viewBox="0 0 1024 1024" version="1.1" xmlns="http://www.w3.org/2000/svg" p-id="1501" xmlns:xlink="http://www.w3.org/1999/xlink"  ><defs><style type="text/css"></style></defs><path d="M213.333333 853.333333h597.333334V128H213.333333v725.333333z m298.666667 128c-25.6 0-42.666667-17.066667-42.666667-42.666666s17.066667-42.666667 42.666667-42.666667 42.666667 17.066667 42.666667 42.666667-17.066667 42.666667-42.666667 42.666666z m213.333333-981.333333c72.533333 0 128 55.466667 128 128v768c0 72.533333-55.466667 128-128 128H298.666667c-72.533333 0-128-55.466667-128-128V128c0-72.533333 55.466667-128 128-128h426.666666zM512 216.362667c-141.397333 0-256 95.530667-256 213.333333 0 117.845333 114.602667 213.333333 256 213.333333 19.370667 0 38.229333-1.792 56.362667-5.205333l12.885333-2.688H581.12a12.330667 12.330667 0 0 1 9.984 2.133333l10.794667 7.808 47.36 34.432 0.128 0.042667a6.101333 6.101333 0 0 0 9.514666-4.266667l0.042667-0.384 5.973333-56.234666 1.365334-13.44a12.074667 12.074667 0 0 1 5.418666-8.832c3.2-2.133333 6.357333-4.352 9.429334-6.613334C734.378667 550.698667 768 493.482667 768 429.653333c0-117.802667-114.602667-213.333333-256-213.333333z m65.877333 307.2l39.338667-68.352c0.64-1.024 1.28-2.048 1.792-3.072a48.896 48.896 0 0 0-1.066667-46.677334l-40.106666-69.546666a12.16 12.16 0 0 1 19.157333-14.72l86.997333 86.954666a30.464 30.464 0 0 1 0 43.093334l-86.997333 87.04v-0.042667a12.202667 12.202667 0 0 1-19.114667-14.72z m-109.738666 0l39.381333-68.352 1.792-3.072a48.896 48.896 0 0 0-1.066667-46.677334l-40.106666-69.546666a12.16 12.16 0 0 1 19.114666-14.72l87.04 86.954666a30.464 30.464 0 0 1 0 43.093334l-87.04 86.997333a12.202667 12.202667 0 0 1-19.114666-14.72z m-3.584-72.32l-86.997334 86.997333a12.202667 12.202667 0 0 1-19.114666-14.72l39.338666-68.266667c0.64-1.066667 1.28-2.090667 1.792-3.114666a48.896 48.896 0 0 0-1.066666-46.677334l-40.106667-69.546666a12.16 12.16 0 0 1 19.157333-14.72l86.997334 86.954666a30.464 30.464 0 0 1 0 43.093334z" fill="#7A7A7A" p-id="1502"></path></svg>