<svg xmlns="http://www.w3.org/2000/svg"   viewBox="0 0 24 28">
    <path fill="#909090" fill-rule="evenodd" d="M16.333 4.38c1.028-1.16 1.724-2.774 1.534-4.38-1.482.055-3.277.917-4.341 2.077-.953 1.03-1.788 2.668-1.565 4.245 1.654.12 3.342-.783 4.372-1.942m3.712 10.197c-.038-3.475 3.044-5.141 3.182-5.225-1.732-2.357-4.43-2.68-5.39-2.717-2.295-.217-4.478 1.258-5.643 1.258-1.162 0-2.96-1.227-4.863-1.195a7.303 7.303 0 0 0-6.097 3.44c-2.6 4.198-.665 10.418 1.868 13.824 1.238 1.665 2.715 3.539 4.652 3.47 1.867-.069 2.572-1.124 4.828-1.124 2.258 0 2.892 1.124 4.866 1.09 2.008-.035 3.281-1.698 4.51-3.37 1.422-1.934 2.007-3.807 2.042-3.901-.045-.02-3.916-1.4-3.955-5.55"/>
</svg>
