<?xml version="1.0" encoding="utf-8"?>
<!-- Generator: Adobe Illustrator 23.0.0, SVG Export Plug-In . SVG Version: 6.00 Build 0)  -->
<svg version="1.1" id="图层_1" xmlns="http://www.w3.org/2000/svg" xmlns:xlink="http://www.w3.org/1999/xlink" x="0px" y="0px"
	 viewBox="0 0 16 24" style="enable-background:new 0 0 16 24;" xml:space="preserve">
<style type="text/css">
	.st0{fill:#7A7A7A;}
	.st1{opacity:1.000000e-02;fill:#7A7A7A;}
	.st2{opacity:0.33;fill:#7A7A7A;}
	.st3{opacity:0.66;fill:#7A7A7A;}
</style>
<g>
	<path class="st0" d="M13,0H3C1.3,0,0,1.3,0,3v18c0,1.7,1.3,3,3,3h10c1.7,0,3-1.3,3-3V3C16,1.3,14.7,0,13,0z M8,23c-0.6,0-1-0.4-1-1
		c0-0.6,0.4-1,1-1c0.6,0,1,0.4,1,1C9,22.6,8.6,23,8,23z M15,20H1V3h14V20z"/>
	<path class="st0" d="M8,4.6c-3.3,0-6,2.2-6,5c0,2.8,2.7,5,6,5c0.5,0,0.9,0,1.3-0.1l0.3-0.1l0,0c0.1,0,0.2,0,0.2,0l0.3,0.2l1.1,0.8
		c0,0,0,0,0,0c0.1,0,0.1,0,0.2,0c0,0,0-0.1,0-0.1c0,0,0,0,0,0l0.1-1.3l0-0.3c0-0.1,0-0.1,0.1-0.2c0,0,0,0,0,0l0,0
		c0.1-0.1,0.1-0.1,0.2-0.2c1.2-0.9,2-2.3,2-3.8C14,6.8,11.3,4.6,8,4.6z M4.8,12.1L4.8,12.1L4.8,12.1C4.8,12.1,4.8,12.1,4.8,12.1
		c-0.1,0.1-0.3,0.1-0.4,0c-0.1-0.1-0.1-0.2,0-0.3l0.9-1.6c0,0,0,0,0-0.1c0.2-0.3,0.2-0.8,0-1.1L4.4,7.4c-0.1-0.1,0-0.3,0-0.3
		c0.1-0.1,0.3-0.1,0.4,0l0,0l2,2c0.3,0.3,0.3,0.7,0,1L4.8,12.1z M7.4,12.1L7.4,12.1L7.4,12.1C7.4,12.1,7.4,12.1,7.4,12.1
		C7.4,12.1,7.4,12.1,7.4,12.1c-0.1,0.1-0.3,0.1-0.4,0c-0.1-0.1-0.1-0.2,0-0.3l0.9-1.6c0,0,0,0,0-0.1c0.2-0.3,0.2-0.8,0-1.1L7,7.4
		C6.9,7.3,6.9,7.1,7,7c0.1-0.1,0.3-0.1,0.4,0l0,0l2,2c0.3,0.3,0.3,0.7,0,1L7.4,12.1z M12,10.1l-2,2l0,0l0,0c0,0,0,0,0,0
		c-0.1,0.1-0.3,0.1-0.4,0c-0.1-0.1-0.1-0.2,0-0.3l0.9-1.6c0,0,0,0,0-0.1c0.2-0.3,0.2-0.8,0-1.1L9.5,7.4c-0.1-0.1,0-0.3,0-0.3
		C9.7,6.9,9.9,6.9,10,7v0l2,2C12.3,9.3,12.3,9.8,12,10.1z"/>
	<path class="st1" d="M10,7L10,7C9.9,6.9,9.7,6.9,9.6,7c-0.1,0.1-0.1,0.2,0,0.3L10.5,9c0.2,0.3,0.2,0.8,0,1.1c0,0,0,0,0,0.1
		l-0.9,1.6c-0.1,0.1,0,0.3,0,0.3c0.1,0.1,0.3,0.1,0.4,0c0,0,0,0,0,0l0,0c0,0,0,0,0,0s0,0,0,0l0,0l0,0l2-2c0.3-0.3,0.3-0.7,0-1L10,7z
		"/>
	<path class="st2" d="M9.5,9.1l-2-2l0,0C7.3,6.9,7.1,6.9,7,7C6.9,7.1,6.9,7.3,7,7.4L7.9,9c0.2,0.3,0.2,0.8,0,1.1c0,0,0,0,0,0.1
		L7,11.8c-0.1,0.1,0,0.3,0,0.3c0.1,0.1,0.3,0.1,0.4,0c0,0,0,0,0,0c0,0,0,0,0,0l0,0l0,0l2-2C9.7,9.8,9.7,9.3,9.5,9.1z"/>
	<path class="st3" d="M6.9,9.1l-2-2l0,0C4.7,6.9,4.6,6.9,4.4,7c-0.1,0.1-0.1,0.2,0,0.3L5.3,9c0.2,0.3,0.2,0.8,0,1.1c0,0,0,0,0,0.1
		l-0.9,1.6c-0.1,0.1,0,0.3,0,0.3c0.1,0.1,0.3,0.1,0.4,0c0,0,0,0,0,0l0,0c0,0,0,0,0,0c0,0,0,0,0,0l0,0l0,0l2-2
		C7.2,9.8,7.2,9.3,6.9,9.1z"/>
</g>
</svg>
