<?xml version="1.0" encoding="UTF-8" standalone="no"?>
<svg   viewBox="0 0 12 12" version="1.1" xmlns="http://www.w3.org/2000/svg" xmlns:xlink="http://www.w3.org/1999/xlink">
    <!-- Generator: sketchtool 49.1 (51147) - http://www.bohemiancoding.com/sketch -->
    <title>EE2A1D85-6CDC-4E78-944D-5430099A165B</title>
    <desc>Created with sketchtool.</desc>
    <defs></defs>
    <g id="主界面" stroke="none" stroke- fill="none" fill-rule="evenodd">
        <g id="外汇云评测栏目" transform="translate(-1558.000000, -1247.000000)" fill="#BCB097" fill-rule="nonzero">
            <g id="Group-14" transform="translate(1247.000000, 1155.000000)">
                <g id="Group-23" transform="translate(22.000000, 60.000000)">
                    <g id="icon_赞" transform="translate(288.000000, 32.000000)">
                        <path d="M7.66285714,0.00455976555 C7.33714286,0.0388454798 7.02857143,0.261702623 6.85714286,0.587416908 C6.63428571,1.03313119 4.98857143,4.34170262 4.66285714,4.66741691 C4.33714286,4.99313119 3.90857143,5.14741691 3.42857143,5.14741691 L3.42857143,12.0045598 L9.42857143,12.0045598 C9.78857143,12.0045598 10.0971429,11.7817026 10.2342857,11.4731312 C10.2342857,11.4731312 12,6.48455977 12,6.00455977 C12,5.52455977 11.6228571,5.14741691 11.1428571,5.14741691 L8.57142857,5.14741691 C8.09142857,5.14741691 7.71428571,4.71884548 7.71428571,4.29027405 C7.71428571,3.86170262 8.38285714,1.58170262 8.52,1.13598834 C8.65714286,0.690274051 8.43428571,0.210274051 7.98857143,0.055988337 C7.86857143,0.0217026227 7.78285714,-0.0125830916 7.66285714,0.00455976555 Z M0,5.14741691 L0,12.0045598 L2.4,12.0045598 L2.4,5.14741691 L0,5.14741691 Z" id="Shape"></path>
                    </g>
                </g>
            </g>
        </g>
    </g>
</svg>