<?xml version="1.0" standalone="no"?>
<!DOCTYPE svg PUBLIC "-//W3C//DTD SVG 1.1//EN" "http://www.w3.org/Graphics/SVG/1.1/DTD/svg11.dtd">
<svg class="icon"   viewBox="0 0 21 17" version="1.1" xmlns="http://www.w3.org/2000/svg" >
  <path  fill="#C4C4C4" d="M5.58453442,8.42059693 L9.66209206,4.02037128 C9.67938299,3.99445952 9.69050623,3.96377268 9.71125535,3.94059955 L9.71193272,3.93993245 L9.71193272,3.93926534 C9.84195338,3.79302887 10.031904,3.70114391 10.2436021,3.70114391 C10.4553001,3.70114391 10.6452507,3.79302887 10.774594,3.93845779 C10.7849686,3.94948258 10.7884624,3.96310557 10.7981239,3.97402503 L14.3758489,7.83772257 L17.910614,4.02044151 C17.9279049,3.99452974 17.9383508,3.9638429 17.9597773,3.94066977 L17.9611321,3.93933556 C18.0912597,3.79306398 18.2812816,3.70117902 18.4931579,3.70117902 C18.7050342,3.70117902 18.8950918,3.79306398 19.0244707,3.93856313 C19.3187017,4.25638607 19.3187017,4.77111037 19.0251481,5.08745866 L19.0237933,5.08812576 C18.9407612,5.17878184 18.8358748,5.24847678 18.71712,5.2892053 L14.8728651,9.54358069 C14.7458748,9.68641142 14.5604519,9.77615462 14.3536738,9.77615462 C14.1468957,9.77615462 13.9614014,9.68641142 13.8351598,9.54431802 C13.7978328,9.50467793 13.7804706,9.45559303 13.7534824,9.41331963 L10.248415,5.62939382 L6.62291712,9.54351047 C6.49574857,9.68637631 6.31000477,9.77615462 6.10304839,9.77615462 C5.89609201,9.77615462 5.71034822,9.68637631 5.58385705,9.5442478 C5.45048516,9.39446513 5.36952083,9.19795 5.36952083,8.98282614 C5.36952083,8.76696495 5.45101993,8.56985293 5.5853544,8.41968405 L5.58453442,8.42059693 Z M19.3561357,16 L2.64311562,16 C2.28727899,16 2,15.6952032 2,15.3181834 L2,1.68181659 C2,1.30613105 2.28731464,1 2.64311562,1 C2.99827487,1 3.28623123,1.30613105 3.28623123,1.68181659 L3.28623123,14.6364019 L19.3575618,14.6364019 C19.6234143,14.6364019 19.8518684,14.8082342 19.9487689,15.0522893 C19.981996,15.1341326 20,15.2234545 20,15.3181834 C20,15.6952032 19.712008,16 19.3561714,16 L19.3561357,16 Z" />
</svg>