<?xml version="1.0" encoding="UTF-8" standalone="no"?>
<svg   viewBox="0 0 8 12" version="1.1" xmlns="http://www.w3.org/2000/svg" xmlns:xlink="http://www.w3.org/1999/xlink">
    <!-- Generator: sketchtool 47.1 (45422) - http://www.bohemiancoding.com/sketch -->
    <title>C28F4EB3-382E-4295-951C-4ECF723D6764</title>
    <desc>Created with sketchtool.</desc>
    <defs></defs>
    <g id="主界面" stroke="none" stroke- fill="none" fill-rule="evenodd">
        <g id="我的评测-历史评测" transform="translate(-864.000000, -241.000000)" fill="#FFFFFF">
            <g id="icon_location" transform="translate(864.000000, 241.000000)">
                <g id="Group-7">
                    <path d="M4.0003,5.5002 C3.1713,5.5002 2.5003,4.8282 2.5003,4.0002 C2.5003,3.1712 3.1713,2.5002 4.0003,2.5002 C4.8283,2.5002 5.5003,3.1712 5.5003,4.0002 C5.5003,4.8282 4.8283,5.5002 4.0003,5.5002 M4.0003,0.0002 C1.7903,0.0002 0.0003,1.7902 0.0003,4.0002 C0.0003,5.1002 0.4493,6.1002 1.1703,6.8302 C1.2203,6.8702 1.2703,6.9202 1.3193,6.9702 C2.5103,8.1602 3.3103,9.7392 3.5003,11.5002 C3.5003,11.5402 3.5003,11.5802 3.5103,11.6092 C3.5603,11.8402 3.7603,12.0002 4.0003,12.0002 C4.2393,12.0002 4.4393,11.8402 4.4893,11.6092 C4.5003,11.5802 4.5003,11.5402 4.5003,11.5002 C4.6893,9.7392 5.4893,8.1602 6.6803,6.9702 C6.7293,6.9202 6.7793,6.8702 6.8303,6.8302 C7.5503,6.1002 8.0003,5.1002 8.0003,4.0002 C8.0003,1.7902 6.2103,0.0002 4.0003,0.0002" id="Fill-1"></path>
                </g>
            </g>
        </g>
    </g>
</svg>