<?xml version="1.0" standalone="no"?>
<!DOCTYPE svg PUBLIC "-//W3C//DTD SVG 1.1//EN" "http://www.w3.org/Graphics/SVG/1.1/DTD/svg11.dtd">
<svg t="1525952630246" class="icon" style="" viewBox="0 0 1024 1024" version="1.1" xmlns="http://www.w3.org/2000/svg" p-id="1260" xmlns:xlink="http://www.w3.org/1999/xlink"  ><defs><style type="text/css"></style></defs>
<path d="M530.526447 678.942173l0 49.558719c0 10.302647-8.30413 18.649755-18.504446 18.649755-10.242272 0-18.547425-8.346085-18.547425-18.649755l0-49.558719c-26.441209-8.042163-45.76737-32.800034-45.76737-62.113663 0-35.767622 28.79993-64.830541 64.314795-64.830541 35.471886 0 64.270792 29.061896 64.270792 64.830541C576.29177 646.143163 556.968679 670.90001 530.526447 678.942173L530.526447 678.942173z" p-id="1261"></path>
  <path d="M788.627806 954.292382 235.413126 954.292382c-40.786938 0-73.890894-35.461653-73.890894-79.17627L161.522232 466.675722l700.954513 0 0 408.439366C862.476745 918.829705 829.426001 954.292382 788.627806 954.292382L788.627806 954.292382zM832.320934 499.011174 191.679066 499.011174l0 353.714997c0 41.659819 26.504654 70.102614 65.344241 70.102614l509.963621 0c38.841633 0 65.334008-28.442796 65.334008-70.102614L832.320934 499.011174 832.320934 499.011174zM755.981269 334.049099c0-140.668787-102.18531-241.117546-243.980757-241.117546-141.858892 0-244.045225 100.44876-244.045225 241.117546l0 126.068254-32.946366 0L235.00892 330.564741c0-149.595087 123.966383-270.843568 276.992615-270.843568 152.971997 0 276.990568 121.249505 276.990568 270.843568l0 129.552611-33.009811 0L755.982292 334.049099 755.981269 334.049099z" p-id="1262"></path>
</svg>