<?xml version="1.0" encoding="UTF-8"?>
<svg   viewBox="0 0 23 20" version="1.1" xmlns="http://www.w3.org/2000/svg" xmlns:xlink="http://www.w3.org/1999/xlink">
    <!-- Generator: sketchtool 50 (54983) - http://www.bohemiancoding.com/sketch -->
    <title>DE99119C-795E-4616-B9C4-53240176CD8F</title>
    <desc>Created with sketchtool.</desc>
    <defs></defs>
    <g id="主界面" stroke="none" stroke- fill="none" fill-rule="evenodd">
        <g id="当用户处于登录状态查看报告的机会时" transform="translate(-1260.000000, -432.000000)" fill="#00B5E9" fill-rule="nonzero">
            <g id="PDF下载" transform="translate(1260.000000, 432.000000)">
                <g id="Group-3">
                    <g id="Group">
                        <path d="M4.15570175,7.45951036 L4.15570175,2.46704331 C4.15570175,1.74952919 4.73168859,1.16760829 5.44188596,1.16760829 L13.2624451,1.16760829 C13.5867872,1.16760829 13.8980811,1.29096045 14.1357456,1.51318267 L18.4314144,5.52448211 C18.6942434,5.77118644 18.8442982,6.11770245 18.8442982,6.47928437 L18.8442982,10 C18.8442982,10.3224261 19.1030108,10.5838041 19.4221491,10.5838041 C19.7412873,10.5838041 19.9999999,10.3224261 19.9999999,10 L19.9999999,6.47928437 C20.0001497,5.79139887 19.7160218,5.13468779 19.2161732,4.66760829 L14.9205043,0.656308851 C14.4692936,0.234477032 13.8771993,0.000108597131 13.2624451,0 L5.44188596,0 C4.79425753,0 4.17315429,0.259919889 3.71521184,0.722580257 C3.25726939,1.18524063 3,1.81274275 3,2.46704331 L3,7.46704331 M3,15.2589454 L3,17.5329567 C3,18.8954671 4.09326958,20 5.44188596,20 L14.1683662,20 C14.4875044,20 14.7462171,19.738622 14.7462171,19.4161959 C14.7462171,19.0937697 14.4875044,18.8323917 14.1683662,18.8323917 L5.44188596,18.8323917 C5.1007687,18.8323917 4.77362271,18.6954873 4.53241638,18.451796 C4.29121005,18.2081047 4.15570175,17.8775883 4.15570175,17.5329567 L4.15570175,15.2071563" id="Shape"></path>
                        <path d="M14,1 L14,4.8 C14,6.17463674 15.1341295,7.289 16.5331492,7.289 L20.4005525,7.289 L20.4005525,6.111 L16.5331492,6.111 C15.796261,6.111 15.198895,5.52404531 15.198895,4.8 L15.198895,1 L14,1 Z M19.801105,13.35 L19.801105,20 L21,20 L21,13.35 C20.9149171,13.0137 20.7157459,12.84745 20.4005525,12.85125 C20.0853591,12.8541 19.8861878,13.02035 19.801105,13.35 Z" id="Shape"></path>
                        <path d="M17.0490798,16.1295364 C16.6977765,15.9455399 16.4079256,15.9614178 16.178503,16.176236 C15.9501046,16.3910542 15.9408867,16.648836 16.1508493,16.9486475 L19.4969372,20 L22.8430251,16.9486475 C23.0683508,16.652572 23.0509393,16.3947902 22.7918147,16.176236 C22.5316658,15.9576818 22.2489844,15.9427379 21.9447946,16.1295364 L19.4969372,18.3617777 L17.0490798,16.1295364 Z" id="Shape"></path>
                        <path d="M0,7 L15,7 L15,14 L0,14 L0,7 Z M2.2030681,11.2435556 L2.95237775,11.2435556 C3.55657761,11.2614444 4.05979463,11.109 4.4628774,10.787 C4.86596017,10.4642222 5.06707726,10.0434444 5.06707726,9.52388889 C5.06707726,9.01055556 4.89481241,8.617 4.55028271,8.34166667 C4.20575302,8.06555556 3.7220537,7.92788889 3.09833615,7.92788889 L1.45630423,7.92788889 L1.45630423,13.2222222 L2.2022195,13.2222222 L2.2022195,11.2435556 L2.2030681,11.2435556 Z M2.2030681,8.52911111 L2.96340949,8.52911111 C3.84340282,8.52911111 4.28382379,8.86977778 4.28382379,9.55111111 C4.28382379,9.90188889 4.16502045,10.1717778 3.92911095,10.36 C3.69320146,10.5474444 3.34782317,10.6415556 2.89297608,10.6415556 L2.2030681,10.6415556 L2.2030681,8.52911111 Z M5.64327347,13.2222222 L7.23184388,13.2222222 C8.14662962,13.2222222 8.89424209,12.9748889 9.47468128,12.4802222 C10.0551205,11.9863333 10.3453401,11.3291111 10.3453401,10.5085556 C10.3453401,9.72222222 10.0551205,9.09533333 9.47468128,8.62866667 C8.89424209,8.162 8.16614732,7.92788889 7.29124555,7.92788889 L5.64327347,7.92788889 L5.64327347,13.2222222 Z M6.38834015,8.53611111 L7.26154472,8.53611111 C7.94975551,8.53611111 8.50558544,8.70255556 8.9281859,9.03544444 C9.35078636,9.36755556 9.56208659,9.86455556 9.56208659,10.5256667 C9.56208659,11.1867778 9.35672653,11.7001111 8.94515781,12.0672222 C8.53358908,12.4335556 7.96078725,12.6171111 7.22760091,12.6171111 L6.38834015,12.6171111 L6.38834015,8.53611111 Z M13.9493243,8.53611111 L13.9493243,7.92788889 L10.9733006,7.92788889 L10.9733006,13.2222222 L11.7200645,13.2222222 L11.7200645,10.9083333 L13.7855454,10.9083333 L13.7855454,10.3063333 L11.7192159,10.3063333 L11.7192159,8.53611111 L13.9493243,8.53611111 Z" id="Shape"></path>
                    </g>
                </g>
            </g>
        </g>
    </g>
</svg>