<?xml version="1.0" standalone="no"?>
<!DOCTYPE svg PUBLIC "-//W3C//DTD SVG 1.1//EN" "http://www.w3.org/Graphics/SVG/1.1/DTD/svg11.dtd">
<svg t="1525952707733" class="icon" style="" viewBox="0 0 1024 1024" version="1.1" xmlns="http://www.w3.org/2000/svg" p-id="1370" xmlns:xlink="http://www.w3.org/1999/xlink"  ><defs><style type="text/css"></style></defs>
<path d="M706.183608 521.80225c35.764552-48.25912 57.250912-110.068861 57.250912-177.462784 0-154.293085-112.571868-279.373849-251.435543-279.373849-138.865721 0-251.436566 125.080763-251.436566 279.373849 0 67.3929 21.487384 129.203664 57.250912 177.462784-65.665559 22.705118-113.125477 84.399225-113.125477 157.784606l0 111.747083c0 92.579535 75.048253 167.626765 167.623695 167.626765l279.372825 0c92.576465 0 167.624718-75.04723 167.624718-167.626765L819.309084 679.585833C819.311131 606.200452 771.849166 544.507368 706.183608 521.80225zM316.439022 344.339466c0-123.43631 87.554078-223.49826 195.560978-223.49826s195.560978 100.06195 195.560978 223.49826-87.554078 223.49826-195.560978 223.49826S316.439022 467.775776 316.439022 344.339466zM763.434519 777.364787c0 69.434395-61.401442 125.719306-137.145543 125.719306L397.710001 903.084093c-75.743078 0-137.146567-56.284911-137.146567-125.719306l0-83.808778c0-59.393715 45.074591-108.871593 105.483426-122.021078 41.177841 32.719192 91.469248 52.17736 145.95314 52.17736 54.482869 0 104.775298-19.458167 145.952116-52.17736 60.408835 13.148461 105.483426 62.627363 105.483426 122.021078L763.435543 777.364787z" p-id="1371"></path>
</svg>