<?xml version="1.0" standalone="no"?><!DOCTYPE svg PUBLIC "-//W3C//DTD SVG 1.1//EN" "http://www.w3.org/Graphics/SVG/1.1/DTD/svg11.dtd">
<svg t="1525311822587" class="icon" style="" viewBox="0 0 1024 1024" version="1.1" xmlns="http://www.w3.org/2000/svg" p-id="1103" xmlns:xlink="http://www.w3.org/1999/xlink"  >
  <defs><style type="text/css"></style></defs>
  <path d="M499.673012 463.770863C627.748864 463.770863 731.572376 359.947378 731.572376 231.871526 731.572376 103.795674 627.748864 0 499.673012 0 371.59716 0 267.773687 103.795674 267.773687 231.871526 267.773687 359.947378 371.59716 463.770863 499.673012 463.770863ZM499.684162 1012.822725C737.118132 1012.266477 897.484117 1012.294288 904.186918 869.950703 910.889681 727.607118 816.744903 605.816859 744.293717 546.46531 671.842569 487.113766 618.832251 489.811562 618.832251 489.811562L499.684162 489.394377 499.656325 489.394377 380.508236 489.811562C380.508236 489.811562 327.497918 487.113766 255.04677 546.46531 182.595584 605.816859 88.450807 727.607118 95.153569 869.950703 101.884169 1012.294288 262.222355 1012.266477 499.656325 1012.822725L499.684162 1012.822725Z" p-id="1104"></path>
</svg>