<?xml version="1.0" encoding="utf-8"?>
<!-- Generator: Adobe Illustrator 16.0.0, SVG Export Plug-In . SVG Version: 6.00 Build 0)  -->
<!DOCTYPE svg PUBLIC "-//W3C//DTD SVG 1.1//EN" "http://www.w3.org/Graphics/SVG/1.1/DTD/svg11.dtd">
<svg version="1.1" id="图层_1" xmlns="http://www.w3.org/2000/svg" xmlns:xlink="http://www.w3.org/1999/xlink" x="0px" y="0px"
	   viewBox="0 0 66 60" enable-background="new 0 0 66 60" xml:space="preserve">
<g>
	<path fill="#FFFFFF" d="M52.889,60L52.889,60c-0.488,0-0.97-0.111-1.393-0.322L40.94,54.502c-2.58,0.535-5.247,0.805-7.938,0.805
		C14.804,55.307,0,42.902,0,27.655C0,12.406,14.804,0,33.002,0C51.196,0,66,12.406,66,27.655c0,7.218-3.26,13.994-9.2,19.166
		l-1.056,10.752C55.603,58.982,54.402,60,52.889,60z M41.462,50.172l10.353,5.078l1.032-10.498l0.654-0.539
		c5.393-4.443,8.361-10.324,8.361-16.558c0-12.981-12.946-23.542-28.86-23.542c-15.916,0-28.863,10.562-28.863,23.542
		c0,12.98,12.947,23.541,28.863,23.541c2.635,0,5.24-0.289,7.741-0.859L41.462,50.172z"/>
	<path fill="#FFFFFF" d="M48.537,27.322l0.038,0.057l-0.038,0.056C48.537,27.397,48.537,27.361,48.537,27.322z M45.557,28.61
		c-0.683-0.68-0.681-1.784,0-2.462c0.508-0.506,1.253-0.634,1.883-0.388l-0.004-0.005L27.032,13.955l-0.023,0.009
		c0.678,0.681,0.677,1.776-0.006,2.455c-0.686,0.679-1.794,0.679-2.479,0c-0.342-0.34-0.514-0.786-0.514-1.231l0.027,24.29
		c0.073-0.9,0.807-1.609,1.727-1.609c0.969,0,1.751,0.779,1.751,1.744c0,0.547-0.272,1.016-0.673,1.336l0.037,0.018l20.557-11.956
		l0.01-0.016C46.816,29.246,46.064,29.118,45.557,28.61z M27.003,16.418c0.683-0.678,0.684-1.773,0.006-2.455
		c-0.002-0.002-0.003-0.005-0.004-0.009c-0.688-0.681-1.796-0.681-2.481,0c-0.342,0.341-0.514,0.786-0.514,1.232
		c0,0.446,0.172,0.892,0.514,1.231C25.209,17.097,26.317,17.097,27.003,16.418z M27.515,39.611c0-0.965-0.782-1.744-1.751-1.744
		c-0.92,0-1.653,0.709-1.727,1.609c-0.003,0.045-0.027,0.084-0.027,0.135c0,0.957,0.786,1.74,1.754,1.74
		c0.414,0,0.778-0.166,1.078-0.404C27.242,40.627,27.515,40.158,27.515,39.611z M48.537,27.434c0-0.037,0-0.073,0-0.112
		c-0.013-0.425-0.175-0.85-0.502-1.175c-0.175-0.174-0.379-0.3-0.596-0.387c-0.63-0.246-1.375-0.118-1.883,0.388
		c-0.681,0.678-0.683,1.782,0,2.462c0.508,0.508,1.26,0.636,1.889,0.384c0.215-0.084,0.416-0.211,0.59-0.384
		C48.362,28.286,48.524,27.862,48.537,27.434z"/>
</g>
</svg>
