<?xml version="1.0" encoding="UTF-8" standalone="no"?>
<!DOCTYPE svg PUBLIC "-//W3C//DTD SVG 1.1//EN" "http://www.w3.org/Graphics/SVG/1.1/DTD/svg11.dtd">
<svg class="icon"   viewBox="0 0 26 26" version="1.1" xmlns="http://www.w3.org/2000/svg" >
  <path fill="#00B5E9" fill-rule="nonzero" d="M13,0 C5.82137031,0 0,5.82018349 0,12.9973496 C0,20.1745158 5.82137031,26 13,26 C20.1786297,26 26,20.1798165 26,13.0026504 C26,5.8254842 20.1786297,0 13,0 Z M18.4608483,15.8173293 C17.9571778,15.8650357 17.8723491,15.1388379 17.5330343,14.9215087 C17.3898858,15.6265036 17.050571,16.1300714 16.5681077,16.5011213 C17.0187602,16.8456677 17.8458401,16.9569827 17.8034258,17.7043833 C17.7557096,18.6108053 16.1068515,18.8546381 14.9139478,18.7698267 C14.0391517,18.7062181 13.5195759,18.3881753 13.0212072,18.0489297 C12.7455139,18.1496432 12.459217,18.4093782 12.1623165,18.5312946 C10.9429038,19.0348624 8.28140294,18.8334353 8.17536705,17.7414883 C8.10114192,16.9675841 8.97593801,16.8297655 9.44779772,16.506422 C8.96003263,16.1565749 8.59420881,15.6901121 8.48287113,14.9586137 C8.1276509,15.0540265 8.04812398,15.8332314 7.5550571,15.8173293 C7.03017945,15.8014271 6.95065253,14.7147808 7.00367047,14.0309888 C7.08319739,12.9814475 7.84665579,12.1651376 8.23898858,11.6244648 C8.2177814,11.0307849 8.26019576,10.4954128 8.51468189,10.1826707 C8.52528548,8.65076453 9.05546493,7.74964322 9.81892333,6.98634047 C10.5929853,6.21243629 11.7699837,5.62405708 12.9469821,5.61345566 C14.3519576,5.59755352 15.4547308,6.28134557 16.1439641,6.95453619 C16.7589723,7.55881753 17.1619086,8.20020387 17.3474715,9.15433231 C17.4057912,9.44057085 17.3686786,9.79041794 17.4482055,10.1508665 C17.4800163,10.2992864 17.6390701,10.4583078 17.6867863,10.6650357 C17.7504078,10.9300714 17.6549755,11.2587156 17.7185971,11.5608563 C17.7663132,11.788787 17.978385,11.9584098 18.0950245,12.1121305 C18.4343393,12.546789 18.8849918,13.2623853 18.9539152,13.9355759 C19.0546493,14.6776758 18.9433116,15.7749235 18.4608483,15.8173293 Z" id="Shape"></path>
</svg>