<?xml version="1.0" standalone="no"?><!DOCTYPE svg PUBLIC "-//W3C//DTD SVG 1.1//EN" "http://www.w3.org/Graphics/SVG/1.1/DTD/svg11.dtd">
<svg t="1525260738798" class="icon" style="" viewBox="0 0 725 725" version="1.1" xmlns="http://www.w3.org/2000/svg" p-id="725" xmlns:xlink="http://www.w3.org/1999/xlink"  >
  <defs><style type="text/css"></style></defs>
  <path d="M234.540522 276.435478l244.869565-259.784348a38.288696 38.288696 0 0 1 16.784696-13.178434c0.489739-0.089043 0.801391-0.222609 1.068521-0.222609a32.857043 32.857043 0 0 1 12.733218-2.715826c0.578783 0 1.29113-0.534261 1.869913-0.534261 1.202087 0 2.226087 0.845913 3.383652 0.845913a29.42887 29.42887 0 0 1 7.746783 1.78087c3.116522 0.890435 5.832348 2.226087 8.637217 3.695304 1.691826 0.934957 3.250087 2.226087 4.897391 3.472696 1.335652 1.157565 3.116522 1.691826 4.452174 3.250087l248.342261 263.390608c16.072348 16.918261 16.072348 44.521739 0 61.261913a39.401739 39.401739 0 0 1-57.967304 0L552.69287 148.257391v422.511305c0 24.219826-18.565565 44.076522-41.405218 44.076521-22.839652 0-41.405217-19.767652-41.405217-44.076521V149.593043L292.374261 337.697391a39.268174 39.268174 0 0 1-57.878261 0 45.412174 45.412174 0 0 1 0-61.261913zM511.554783 731.581217c22.79513 0 41.405217 19.678609 41.405217 43.898435 0 24.130783-18.476522 43.809391-41.405217 43.809391-22.973217 0-41.405217-19.678609-41.405218-43.809391-0.089043-24.30887 18.432-43.898435 41.405218-43.898435z m0 204.710957c22.79513 0 41.405217 19.589565 41.405217 43.898435 0 24.130783-18.476522 43.809391-41.405217 43.809391-22.973217 0-41.405217-19.678609-41.405218-43.809391-0.089043-24.30887 18.432-43.898435 41.405218-43.898435z" p-id="726"></path>
</svg>