<?xml version="1.0" encoding="utf-8"?>
<!-- Generator: Adobe Illustrator 16.0.0, SVG Export Plug-In . SVG Version: 6.00 Build 0)  -->
<!DOCTYPE svg PUBLIC "-//W3C//DTD SVG 1.1//EN" "http://www.w3.org/Graphics/SVG/1.1/DTD/svg11.dtd">
<svg version="1.1" id="图层_1" xmlns="http://www.w3.org/2000/svg" xmlns:xlink="http://www.w3.org/1999/xlink" x="0px" y="0px"
	   viewBox="0 0 18 18" enable-background="new 0 0 18 18" xml:space="preserve">
<g>
	<g>
		<rect x="6" y="2" fill="#FFFFFF"  />
		<rect x="2" y="6" fill="#FFFFFF"  />
		<polygon fill="#FFFFFF" points="6.585,8 8,8 8,6.585 2.414,1 1,1 1,2.415 		"/>
	</g>
	<g>
		<rect x="10" y="10" fill="#FFFFFF"  />
		<rect x="10" y="10" fill="#FFFFFF"  />
		<polygon fill="#FFFFFF" points="15.586,17 17,17 17,15.585 11.414,10 10.002,10 10.002,11.415 		"/>
	</g>
	<g>
		<rect x="6" y="10" fill="#FFFFFF"  />
		<rect x="2" y="10" fill="#FFFFFF"  />
		<polygon fill="#FFFFFF" points="6.584,10 7.999,10 7.999,11.415 2.413,17 1,17 1,15.585 		"/>
	</g>
	<g>
		<rect x="10" y="2" fill="#FFFFFF"  />
		<rect x="10" y="6" fill="#FFFFFF"  />
		<polygon fill="#FFFFFF" points="15.586,1 17,1 17,2.415 11.414,8 10,8 10,6.585 		"/>
	</g>
</g>
</svg>
