<?xml version="1.0" encoding="UTF-8" standalone="no"?>
<svg   viewBox="0 0 16 15" version="1.1" xmlns="http://www.w3.org/2000/svg" xmlns:xlink="http://www.w3.org/1999/xlink">
    <!-- Generator: sketchtool 49.1 (51147) - http://www.bohemiancoding.com/sketch -->
    <title>F77651D8-BEF5-4FF1-B70E-E89C28BAD9BC</title>
    <desc>Created with sketchtool.</desc>
    <defs></defs>
    <g id="主界面" stroke="none" stroke- fill="none" fill-rule="evenodd">
        <g id="云评测规范" transform="translate(-150.000000, -1937.000000)" fill="#FFFFFF" fill-rule="nonzero">
            <g id="Group-32" transform="translate(150.000000, 1937.000000)">
                <path d="M12.6392575,4.87729303 C12.6392575,4.87729303 12.2046457,4.70338371 12.0386976,4.87729303 L11.5717822,5.37090012 C11.4060698,5.54503618 11.4060698,5.82720338 11.5717822,6.00105087 L13.0638413,7.56660578 L6.02441683,7.66693808 C5.78989343,7.66693808 5.6,7.86646898 5.6,8.1124609 L5.6,8.58923772 C5.6,8.83533271 5.78989343,9.03476055 6.02441683,9.03476055 L13.0638413,9.03476055 L11.5261258,10.7937811 C11.3603349,10.9676904 11.3603349,11.1577549 11.5261258,11.3316436 L12.0386976,11.8695062 C12.2044296,12.0434979 12.3854589,12.0434979 12.5512695,11.8695062 C14.8504232,9.553309 16,8.39521041 16,8.39521041 C16,8.39521041 12.6392575,4.87729303 12.6392575,4.87729303 Z M1.33722294,0 C0.598741457,0 0,0.565336046 0,1.2625767 L0,13.9373844 C0,14.6346834 0.598741457,15.2 1.33722294,15.2 L9.86277706,15.2 C10.6012585,15.2 11.2,14.6346834 11.2,13.9373844 L11.2,12.669039 C11.2,12.4366385 11.0004951,12.2481671 10.754259,12.2481671 L10.3261454,12.2481671 C10.080033,12.2481671 9.88042501,12.4366579 9.88042501,12.669039 L9.88042501,13.3447824 C9.87553741,13.6894206 9.57823927,13.9674835 9.21191666,13.9674835 L1.96954345,13.9674835 C1.60025116,13.9674835 1.30093198,13.6847668 1.30093198,13.3360588 L1.30093198,1.84920071 C1.30093198,1.50051223 1.60025116,1.21789289 1.96954345,1.21789289 L9.21191666,1.21789289 C9.57823927,1.21789289 9.87553741,1.49585838 9.88042501,1.840594 L9.88042501,2.53614057 C9.88042501,2.76861903 10.0800536,2.95712929 10.3261454,2.95712929 L10.754259,2.95712929 C11.0004951,2.95712929 11.2,2.76861903 11.2,2.53614057 L11.2,1.26255722 C11.2,0.565336046 10.6012379,0 9.86277706,0 L1.33722294,0 Z" id="Shape"></path>
            </g>
        </g>
    </g>
</svg>