<?xml version="1.0" encoding="UTF-8" standalone="no"?>
<svg   viewBox="0 0 14 14" version="1.1" xmlns="http://www.w3.org/2000/svg" xmlns:xlink="http://www.w3.org/1999/xlink">
    <!-- Generator: sketchtool 49.1 (51147) - http://www.bohemiancoding.com/sketch -->
    <title>BBD2D3E2-0E2B-4D41-A8B9-A2DE85D5B167</title>
    <desc>Created with sketchtool.</desc>
    <defs></defs>
    <g id="主界面" stroke="none" stroke- fill="none" fill-rule="evenodd">
        <g id="云评测规范" transform="translate(-314.000000, -2261.000000)" fill="#00B5E9" fill-rule="nonzero">
            <g id="Group-26" transform="translate(147.000000, 2255.000000)">
                <g id="表格" transform="translate(167.000000, 6.000000)">
                    <path d="M0,1 L0,14 L14,14 L14,1 L0,1 Z M9.52075195,3.15966797 L13.0292969,3.15966797 L13.0292969,5.68614676 L9.52075195,5.68614676 L9.52075195,3.15966797 Z M4.50854492,12.9848633 L1,12.9848633 L1,10.4022405 L4.50854492,10.4022405 L4.50854492,12.9848633 Z M4.50854492,9.27936105 L1,9.27936105 L1,6.80902623 L4.50854492,6.80902623 L4.50854492,9.27936105 Z M4.50854492,5.68614676 L1,5.68614676 L1,3.15966797 L4.50854492,3.15966797 L4.50854492,5.68614676 Z M8.51831055,12.9848633 L5.51098633,12.9848633 L5.51098633,10.4022405 L8.51831055,10.4022405 L8.51831055,12.9848633 Z M8.51831055,9.27936105 L5.51098633,9.27936105 L5.51098633,6.80902623 L8.51831055,6.80902623 L8.51831055,9.27936105 Z M8.51831055,5.68614676 L5.51098633,5.68614676 L5.51098633,3.15966797 L8.51831055,3.15966797 L8.51831055,5.68614676 Z M13.0292969,12.9848633 L9.52075195,12.9848633 L9.52075195,10.4022405 L13.0292969,10.4022405 L13.0292969,12.9848633 Z M13.0292969,9.27936105 L9.52075195,9.27936105 L9.52075195,6.80902623 L13.0292969,6.80902623 L13.0292969,9.27936105 Z" id="Shape"></path>
                </g>
            </g>
        </g>
    </g>
</svg>