<?xml version="1.0" encoding="UTF-8" standalone="no"?>
<!DOCTYPE svg PUBLIC "-//W3C//DTD SVG 1.1//EN" "http://www.w3.org/Graphics/SVG/1.1/DTD/svg11.dtd">
<svg class="icon"   viewBox="0 0 21 17" version="1.1" xmlns="http://www.w3.org/2000/svg" >
  <path fill="#C4C4C4" d="M12.9115,1.00531818 C13.5818409,1.00531818 14.1246818,1.53618182 14.1246818,2.19106818 L14.1246818,13.6146818 L11.7288409,16.0534091 L2.40086364,16.0534091 C1.73206818,16.0534091 1.18845455,15.5198409 1.18845455,14.8653409 L1.18845455,1.00531818 L12.9115,1.00531818 Z M0.380181818,0.213272727 L0.380181818,0.609295455 L0.380181818,14.8649545 C0.380181818,15.9568182 1.28543182,16.8450682 2.40086364,16.8450682 L11.9007727,16.8450682 L12.0727045,16.8450682 L12.1920909,16.72375 L14.81975,14.0493409 L14.9329545,13.9342045 L14.9329545,13.7746364 L14.9329545,2.19106818 C14.9329545,1.09843182 14.0277045,0.213272727 12.9115,0.213272727 L0.784318182,0.213272727 L0.380181818,0.213272727 Z" id="Shape"></path>
  <path fill="#C4C4C4" d="M11.2961136,11.6971591 C10.625,11.6971591 10.0817727,12.2260909 10.0817727,12.8840682 L10.0817727,15.2605909 C10.0817727,15.4792727 10.2629773,15.6566136 10.4859091,15.6566136 C10.7092273,15.6566136 10.8904318,15.4792727 10.8904318,15.2605909 L10.8904318,12.8840682 C10.8904318,12.6646136 11.0704773,12.4892045 11.2961136,12.4892045 L13.1139545,12.4892045 C13.3368864,12.4892045 13.5180909,12.3118636 13.5180909,12.0935682 C13.5180909,11.8748864 13.3368864,11.6975455 13.1139545,11.6975455 L11.2961136,11.6975455 L11.2961136,11.6971591 Z" id="Shape"></path>
  <path fill="#C4C4C4" d="M11.9309091,3.77747727 C12.1542273,3.77747727 12.3354318,3.60013636 12.3354318,3.38145455 C12.3354318,3.16277273 12.1542273,2.98543182 11.9309091,2.98543182 L3.61404545,2.98543182 C3.39072727,2.98543182 3.20952273,3.16277273 3.20952273,3.38145455 C3.20952273,3.60013636 3.39072727,3.77747727 3.61404545,3.77747727 L11.9309091,3.77747727 Z" id="Shape"></path>
  <path fill="#C4C4C4" d="M11.9309091,6.15322727 C12.1542273,6.15322727 12.3354318,5.97627273 12.3354318,5.75759091 C12.3354318,5.53890909 12.1542273,5.36156818 11.9309091,5.36156818 L3.61404545,5.36156818 C3.39072727,5.36156818 3.20952273,5.53852273 3.20952273,5.75759091 C3.20952273,5.97665909 3.39072727,6.15322727 3.61404545,6.15322727 L11.9309091,6.15322727 Z" id="Shape"></path>
  <path fill="#C4C4C4" d="M11.9309091,8.92538636 C12.1542273,8.92538636 12.3354318,8.74804545 12.3354318,8.52936364 C12.3354318,8.31106818 12.1542273,8.13372727 11.9309091,8.13372727 L3.61404545,8.13372727 C3.39072727,8.13372727 3.20952273,8.31106818 3.20952273,8.52936364 C3.20952273,8.74804545 3.39072727,8.92538636 3.61404545,8.92538636 L11.9309091,8.92538636 Z" id="Shape"></path>
</svg>