<?xml version="1.0" encoding="UTF-8" standalone="no"?>
<svg   viewBox="0 0 16 15" version="1.1" xmlns="http://www.w3.org/2000/svg" xmlns:xlink="http://www.w3.org/1999/xlink">
    <!-- Generator: sketchtool 49.1 (51147) - http://www.bohemiancoding.com/sketch -->
    <title>F21467AF-B3F5-45EC-8551-8A8B0B43B592</title>
    <desc>Created with sketchtool.</desc>
    <defs></defs>
    <g id="主界面" stroke="none" stroke- fill="none" fill-rule="evenodd">
        <g id="交易商入口页" transform="translate(-513.000000, -1192.000000)" fill="#B1A07C">
            <g id="通知" transform="translate(513.000000, 1192.000000)">
                <g id="通知-1">
                    <path d="M7.71154394,0.166840855 L3.6224228,3.28671417 L0.740522565,3.55705463 C0.552969121,3.55705463 0.372256532,3.6311639 0.239429929,3.7639905 C0.105463183,3.8968171 0.0296437055,4.07752969 0.0296437055,4.26679335 L0.0148218527,9.9543943 C0.0148218527,10.143658 0.0889311164,10.3249406 0.222327791,10.4583373 C0.355154394,10.5928741 0.536437055,10.6675534 0.725700713,10.6675534 L3.64351544,11.1410293 L7.71211401,14.0583373 C7.84209026,14.1666508 8.00456057,14.2225178 8.16703088,14.2225178 C8.26964371,14.2225178 8.37225653,14.200285 8.46859857,14.1552494 C8.71828979,14.0383848 8.87790974,13.7875534 8.87790974,13.511639 L8.87790974,0.712969121 C8.87790974,0.437624703 8.71828979,0.186793349 8.4680285,0.0693586698 C8.21833729,-0.0480760095 7.92361045,-0.0093111639 7.71154394,0.166840855 Z M11.2248931,3.62432304 C10.8742993,3.4584323 10.4575772,3.60950119 10.2871259,3.9583848 C10.1172447,4.30840855 10.264323,4.7319715 10.6120665,4.90698337 C10.6571021,4.93035629 11.7219952,5.48389549 11.7219952,7.06014252 C11.7219952,8.74413302 10.7260808,9.30223278 10.6930166,9.32047506 C10.3418527,9.49605701 10.1993349,9.92361045 10.3749169,10.2747743 C10.5003325,10.5244656 10.7505938,10.6681235 11.0122565,10.6681235 C11.1188599,10.6681235 11.2277435,10.6441805 11.3292162,10.5934442 C11.4033254,10.5558195 13.143753,9.65510689 13.143753,7.06014252 C13.143753,4.55638955 11.3029929,3.66137767 11.2248931,3.62432304 Z" id="Shape" fill-rule="nonzero"></path>
                    <path d="M13.4384798,1.53615202 C13.1106888,1.32579572 12.6757245,1.4215677 12.4613777,1.7487886 C12.248171,2.0760095 12.3416627,2.51610451 12.6677435,2.73159145 C12.7447031,2.78232779 14.5660808,4.02337292 14.5660808,7.11258907 C14.5660808,10.2086461 12.8188124,11.4508314 12.7492637,11.4981473 C12.4220428,11.7164846 12.3342518,12.1571496 12.552019,12.4843705 C12.6888361,12.6895962 12.9145843,12.8007601 13.144323,12.8007601 C13.2794299,12.8007601 13.4168171,12.7614252 13.5382423,12.6810451 C13.6380048,12.6149169 15.9878385,11.0038955 15.9878385,7.112019 C15.9878385,3.21273159 13.5428029,1.60285036 13.4384798,1.53615202 Z" id="Path" opacity="0.5"></path>
                </g>
            </g>
        </g>
    </g>
</svg>