<?xml version="1.0" encoding="UTF-8" standalone="no"?>
<!DOCTYPE svg PUBLIC "-//W3C//DTD SVG 1.1//EN" "http://www.w3.org/Graphics/SVG/1.1/DTD/svg11.dtd">
<svg class="icon"   viewBox="0 0 14 14" version="1.1" xmlns="http://www.w3.org/2000/svg" >
  <path fill="#c4c4c4" d="M5.80371094,0.138085937 C5.8953125,0.046484375 6.01699219,0 6.13867188,0 C6.26035156,0 6.38066406,0.046484375 6.47363281,0.138085937 L8.60371094,2.26953125 C8.78828125,2.45410156 8.78828125,2.75351562 8.60371094,2.93808594 C8.51484375,3.02695312 8.39589844,3.07617188 8.27011719,3.07617188 C8.14433594,3.07617188 8.02539062,3.02695312 7.93652344,2.93808594 L6.61171875,1.61328125 L6.61171875,9.51289062 C6.61171875,9.77402344 6.39980469,9.9859375 6.13867188,9.9859375 C5.87753906,9.9859375 5.665625,9.77402344 5.665625,9.51289062 L5.665625,1.61328125 L4.34082031,2.93808594 C4.15625,3.12265625 3.85683594,3.12265625 3.67363281,2.93808594 C3.4890625,2.75351562 3.4890625,2.45410156 3.67226562,2.26953125 L5.80371094,0.138085937 Z M11.7769531,7.88046875 C11.5158203,7.88046875 11.3039062,8.09238281 11.3039062,8.35351563 L11.3039062,11.025 C11.3039062,11.1794922 11.178125,11.3066406 11.0222656,11.3066406 L1.22636719,11.3066406 C1.071875,11.3066406 0.944726562,11.1808594 0.944726562,11.025 L0.944726562,8.35214844 C0.944726562,8.09101563 0.7328125,7.87910156 0.471679687,7.87910156 C0.210546875,7.87910156 0,8.09238281 0,8.35214844 L0,11.3996094 C0,11.8685547 0.381445313,12.2486328 0.849023437,12.2486328 L11.4009766,12.2486328 C11.8699219,12.2486328 12.25,11.8671875 12.25,11.3996094 L12.25,8.35214844 C12.25,8.09238281 12.0380859,7.88046875 11.7769531,7.88046875 Z" id="Shape"></path>
</svg>