<?xml version="1.0" encoding="UTF-8" standalone="no"?>
<svg   viewBox="0 0 16 15" version="1.1" xmlns="http://www.w3.org/2000/svg" xmlns:xlink="http://www.w3.org/1999/xlink">
    <!-- Generator: sketchtool 49.1 (51147) - http://www.bohemiancoding.com/sketch -->
    <title>BC33DCE0-6DD5-4BF3-BFDE-9BD5DA336C31</title>
    <desc>Created with sketchtool.</desc>
    <defs></defs>
    <g id="主界面" stroke="none" stroke- fill="none" fill-rule="evenodd">
        <g id="云评测规范" transform="translate(-400.000000, -1885.000000)" fill="#FFFFFF" fill-rule="nonzero">
            <g id="Group-16" transform="translate(392.000000, 1876.000000)">
                <g id="vip会员皇冠" transform="translate(8.000000, 9.000000)">
                    <path d="M1.70939921,10.1010155 L1.69283688,10.1037405 L1.25235575,7.60564784 C1.23804121,7.5734296 1.22731994,7.53922094 1.22072867,7.50337732 L0.622705399,4.2146089 C0.586413749,4.01784498 0.68739921,3.81960163 0.873591153,3.72195938 C1.0597831,3.62431713 1.29173408,3.64650855 1.45267965,3.77817764 L4.49171086,6.26361666 L7.23251938,1.99842577 C7.32403745,1.85640069 7.48813883,1.76911443 7.66486338,1.76911443 C7.84158794,1.77059386 8.00568931,1.85788011 8.09720739,1.9999052 L10.8238148,6.26509609 L13.8880924,3.77521879 C14.0490845,3.64340827 14.2813672,3.62145156 14.4671809,3.72047995 C14.6533728,3.81960163 14.7527804,4.01784498 14.713333,4.2146089 L13.2017068,12.2567794 C13.1591036,12.4816525 12.9492432,12.6473484 12.704669,12.6473484 L2.60454506,12.645869 C2.3599709,12.645869 2.15011049,12.4801731 2.10750725,12.2538206 L1.70939921,10.1010155 Z M2.56869396,9.29549015 C2.58674934,9.33217955 2.60003731,9.37164411 2.60770086,9.41331885 L3.03057748,11.7005145 L12.2817924,11.701994 L13.4731053,5.36412445 L11.0289415,7.34951681 C10.9169108,7.44124134 10.7654326,7.4811859 10.6186881,7.45899448 C10.4719436,7.43680306 10.342556,7.35395509 10.265239,7.23412143 L7.66328549,3.16125617 L5.045553,7.23560085 C4.9698139,7.35543452 4.83884838,7.43680306 4.69210388,7.45899448 C4.54535939,7.4811859 4.3938812,7.43976192 4.28185045,7.34803738 L1.8566215,5.36560388 L2.16461501,7.0602452 L2.1787785,7.05751693 L2.56869396,9.29549015 Z M12.6888901,13.5986206 L2.62505774,13.5986206 C2.34576982,13.5986206 2.12013043,13.8101788 2.12013043,14.0720376 C2.12013043,14.3338963 2.34576982,14.5454545 2.62505774,14.5454545 L12.6888901,14.5454545 C12.968178,14.5454545 13.1938174,14.3338963 13.1938174,14.0720376 C13.1938174,13.8101788 12.968178,13.5986206 12.6888901,13.5986206 Z" id="Shape"></path>
                    <path d="M6.64299803,0.727272727 C6.64299803,1.12893436 6.96860912,1.45454545 7.37027075,1.45454545 C7.77193239,1.45454545 8.09754348,1.12893436 8.09754348,0.727272727 C8.09754348,0.325611091 7.77193239,2.45946819e-17 7.37027075,0 C6.96860912,-2.45946819e-17 6.64299803,0.325611091 6.64299803,0.727272727 Z" id="Shape"></path>
                    <path d="M0,2.62006385 C4.91893637e-17,3.02172549 0.325611091,3.34733658 0.727272727,3.34733658 C1.12893436,3.34733658 1.45454545,3.02172549 1.45454545,2.62006385 C1.45454545,2.21840222 1.12893436,1.89279113 0.727272727,1.89279113 C0.325611091,1.89279113 4.91893637e-17,2.21840222 0,2.62006385 Z" id="Shape"></path>
                    <path d="M14.1380671,2.62006385 C14.1380671,3.02172549 14.4636782,3.34733658 14.8653398,3.34733658 C15.2670014,3.34733658 15.5926125,3.02172549 15.5926125,2.62006385 C15.5926125,2.21840222 15.2670014,1.89279113 14.8653398,1.89279113 C14.4636782,1.89279113 14.1380671,2.21840222 14.1380671,2.62006385 Z" id="Shape"></path>
                </g>
            </g>
        </g>
    </g>
</svg>