<?xml version="1.0" encoding="UTF-8" standalone="no"?>
<!DOCTYPE svg PUBLIC "-//W3C//DTD SVG 1.1//EN" "http://www.w3.org/Graphics/SVG/1.1/DTD/svg11.dtd">
<svg class="icon"   viewBox="0 0 26 26" version="1.1" xmlns="http://www.w3.org/2000/svg" >
  <path fill="#E36251" fill-rule="nonzero" d="M11.9164156,14.625 C11.6174292,14.625 11.375,14.8676142 11.375,15.1666927 C11.375,15.4658492 11.6174557,15.7083333 11.9164156,15.7083333 C12.2157984,15.7083333 12.4583333,15.4658492 12.4583333,15.1666927 C12.4583069,14.8675882 12.2157455,14.625 11.9164156,14.625 Z" id="Shape"></path>
  <path fill="#E36251" fill-rule="nonzero" d="M11.170403,11.9945683 C8.3408009,12.3993635 6.25985396,14.2689814 6.52233893,16.1705142 C6.78484915,18.0719957 9.29160841,19.2852507 12.1210339,18.8804555 C14.9509389,18.4756089 17.0319616,16.605991 16.7692999,14.7045609 C16.5067392,12.8030024 14.0002829,11.589696 11.1703778,11.9945683 L11.170403,11.9945683 Z M11.5985126,18.3625448 C9.91571074,18.6954415 8.32691681,17.7899778 8.04996714,16.3401104 C7.77306796,14.8901402 8.91297674,13.4448211 10.5959805,13.1118473 C12.2790852,12.7787964 13.867753,13.6842087 14.1446521,15.1341018 C14.421627,16.5840976 13.2815416,18.0294168 11.5985126,18.3625448 Z" id="Shape"></path>
  <path fill="#E36251" fill-rule="nonzero" d="M13,2.1498857e-15 C5.82028751,2.1498857e-15 0,5.82036375 0,13 C0,20.1797125 5.82028751,26 13,26 C20.1796617,26 26,20.1797125 26,13 C26,5.82031293 20.1796362,0 13,2.1498857e-15 Z M12.0453225,20.4170413 C7.5867471,20.4170413 3.97222787,18.0485558 3.97222787,15.1271161 C3.97222787,12.2056256 9.38545536,7.59271908 11.4563078,7.59271908 C12.3249126,7.59271908 14.0286283,8.25022089 12.8363933,10.3329157 C12.7532939,10.4786064 15.5253071,9.12207852 17.0406642,10.0142409 C18.5560212,10.9065049 17.0406642,12.3403889 17.0406642,12.4997009 C17.0406642,12.6590383 20.0839576,12.6590383 20.0839576,15.1271161 C20.0839322,18.0485558 16.5039996,20.4170413 12.0453225,20.4170413 Z M18.3896954,9.60011612 C17.8875666,8.99473567 16.8553296,9.13521687 16.8553296,9.13521687 C16.6396015,9.14154462 16.4724879,8.98482473 16.4724879,8.77593264 L16.4724879,8.62831049 C16.4724879,8.42038408 16.6399065,8.22478282 16.8461557,8.19327112 C16.8461557,8.19327112 18.0760015,7.87942474 19.0171086,8.73974501 C19.9580887,9.60014153 19.5548151,11.1696784 19.5548151,11.1696784 C19.5210163,11.3800444 19.318579,11.5437274 19.1096869,11.5437274 L18.76748,11.5437274 C18.5613579,11.5437274 18.4383098,11.3830177 18.498614,11.1846973 C18.4985886,11.1847227 18.8916209,10.2056236 18.3896191,9.60011612 L18.3896954,9.60011612 Z M21.9418265,11.6510959 C21.9079768,11.9630617 21.6171035,12.212919 21.3025964,12.212919 L21.0611253,12.212919 C20.7446614,12.212919 20.5301531,11.9622993 20.577624,11.6531289 C20.577624,11.6531289 21.0249122,9.7594281 19.9896766,8.25022089 C18.9543647,6.7410391 16.5237706,6.99902845 16.5237706,6.99902845 C16.2032407,7.004543 15.9518078,6.76533361 15.9518078,6.45217337 L15.9518078,6.17225289 C15.9518078,5.85810156 16.2042826,5.60021386 16.5157402,5.59393693 C16.5157402,5.59393693 19.0485695,5.36230051 20.7739114,7.01920611 C22.4992533,8.67608629 21.9417757,11.6511213 21.9417757,11.6511213 L21.9418265,11.6510959 Z" id="Shape"></path>
  <path fill="#E36251" fill-rule="nonzero" d="M9.92913693,15.2863463 C9.3655266,15.5206186 9.07090648,16.020651 9.27108334,16.4034003 C9.47120525,16.7860761 10.0904706,16.9061994 10.6541359,16.672074 C11.217966,16.4378017 11.5122565,15.9377693 11.3123543,15.55502 C11.1120401,15.1723442 10.4928297,15.052025 9.9291644,15.2863463 L9.92913693,15.2863463 Z" id="Shape"></path>
</svg>