<?xml version="1.0" encoding="UTF-8" standalone="no"?>
<!DOCTYPE svg PUBLIC "-//W3C//DTD SVG 1.1//EN" "http://www.w3.org/Graphics/SVG/1.1/DTD/svg11.dtd">
<svg class="icon"   viewBox="0 0 26 26" version="1.1" xmlns="http://www.w3.org/2000/svg" >
  <path fill="#4CAB81" fill-rule="nonzero" d="M13.0721421,10.7058824 C13.4761376,10.7058824 13.7647059,10.3872549 13.7647059,9.94117647 C13.7647059,9.49509804 13.5049945,9.17647059 13.0721421,9.17647059 C12.6681465,9.17647059 12.2352941,9.46323529 12.2352941,9.94117647 C12.2352941,10.3872549 12.6392897,10.7058824 13.0721421,10.7058824 Z" id="Shape"></path>
  <path fill="#4CAB81" fill-rule="nonzero" d="M14.4404925,12.2352941 C14.120383,12.2352941 13.7647059,12.6377709 13.7647059,13 C13.7647059,13.4024768 14.120383,13.7647059 14.4404925,13.7647059 C14.9740082,13.7647059 15.2941176,13.4024768 15.2941176,13 C15.2941176,12.6377709 14.9384405,12.2352941 14.4404925,12.2352941 Z" id="Shape"></path>
  <path fill="#4CAB81" fill-rule="nonzero" d="M13,0 C5.8175,0 0,5.8175 0,13 C0,20.1825 5.8175,26 13,26 C20.1825,26 26,20.1825 26,13 C26,5.8175 20.1825,0 13,0 Z M10.4325,16.7375 C9.6525,16.7375 9.035,16.575 8.255,16.4125 L6.0775,17.485 L6.695,15.6325 C5.135,14.56 4.225,13.13 4.225,11.44 C4.225,8.515 7.02,6.175 10.4325,6.175 C13.4875,6.175 16.1525,8.0275 16.705,10.53 C16.51,10.4975 16.315,10.4975 16.12,10.4975 C13.1625,10.4975 10.855,12.7075 10.855,15.405 C10.855,15.86 10.92,16.2825 11.05,16.705 C10.8225,16.7375 10.6275,16.7375 10.4325,16.7375 Z M19.5975,18.915 L20.0525,20.475 L18.3625,19.5325 C17.745,19.695 17.1275,19.8575 16.51,19.8575 C13.5525,19.8575 11.2125,17.8425 11.2125,15.34 C11.2125,12.87 13.5525,10.8225 16.51,10.8225 C19.305,10.8225 21.775,12.8375 21.775,15.34 C21.775,16.7375 20.8325,17.9725 19.5975,18.915 Z" id="Shape"></path>
  <path fill="#4CAB81" fill-rule="nonzero" d="M17.499316,12.2352941 C17.1792066,12.2352941 16.8235294,12.6377709 16.8235294,13 C16.8235294,13.4024768 17.1792066,13.7647059 17.499316,13.7647059 C17.997264,13.7647059 18.3529412,13.4024768 18.3529412,13 C18.3529412,12.6377709 17.997264,12.2352941 17.499316,12.2352941 Z" id="Shape"></path>
  <path fill="#4CAB81" fill-rule="nonzero" d="M8.48390677,9.17647059 C8.07991121,9.17647059 7.64705882,9.46323529 7.64705882,9.94117647 C7.64705882,10.3872549 8.05105438,10.7058824 8.48390677,10.7058824 C8.88790233,10.7058824 9.17647059,10.3872549 9.17647059,9.94117647 C9.17647059,9.49509804 8.88790233,9.17647059 8.48390677,9.17647059 Z" id="Shape"></path>
</svg>