<?xml version="1.0" standalone="no"?><!DOCTYPE svg PUBLIC "-//W3C//DTD SVG 1.1//EN" "http://www.w3.org/Graphics/SVG/1.1/DTD/svg11.dtd"><svg t="1572311963867" class="icon" viewBox="0 0 1024 1024" version="1.1" xmlns="http://www.w3.org/2000/svg" p-id="2139" xmlns:xlink="http://www.w3.org/1999/xlink"  ><defs><style type="text/css"></style></defs><path d="M720 32c26.51 0 48 21.49 48 48v48h128c35.346 0 64 29.8 64 66.56v698.88c0 36.76-28.654 66.56-64 66.56H128c-35.346 0-64-29.8-64-66.56V194.56C64 157.8 92.654 128 128 128h128V80c0-26.51 21.49-48 48-48s48 21.49 48 48v48h320V80c0-26.51 21.49-48 48-48z m144 448H160v384h704V480zM592 608c26.51 0 48 21.49 48 48s-21.49 48-48 48H432c-26.51 0-48-21.49-48-48s21.49-48 48-48h160z m272-384h-96v48c0 26.51-21.49 48-48 48s-48-21.49-48-48v-48H352v48c0 26.51-21.49 48-48 48s-48-21.49-48-48v-48h-96v160h704V224z" p-id="2140"></path></svg>