<?xml version="1.0" standalone="no"?><!DOCTYPE svg PUBLIC "-//W3C//DTD SVG 1.1//EN" "http://www.w3.org/Graphics/SVG/1.1/DTD/svg11.dtd"><svg t="1572311943414" class="icon" viewBox="0 0 1024 1024" version="1.1" xmlns="http://www.w3.org/2000/svg" p-id="1461" xmlns:xlink="http://www.w3.org/1999/xlink"  ><defs><style type="text/css"></style></defs><path d="M112 64c26.51 0 48 21.49 48 48v752h752c26.51 0 48 21.49 48 48s-21.49 48-48 48H112c-26.51 0-48-21.49-48-48V112c0-26.51 21.49-48 48-48z m160 336c26.51 0 48 21.49 48 48v288c0 26.51-21.49 48-48 48s-48-21.49-48-48V448c0-26.51 21.49-48 48-48z m512-64c26.51 0 48 21.49 48 48v352c0 26.51-21.49 48-48 48s-48-21.49-48-48V384c0-26.51 21.49-48 48-48zM528 176c26.51 0 48 21.49 48 48v480c0 26.51-21.49 48-48 48s-48-21.49-48-48V224c0-26.51 21.49-48 48-48z" p-id="1462"></path></svg>