<?xml version="1.0" standalone="no"?><!DOCTYPE svg PUBLIC "-//W3C//DTD SVG 1.1//EN" "http://www.w3.org/Graphics/SVG/1.1/DTD/svg11.dtd"><svg t="1585215039818" class="icon" viewBox="0 0 1024 1024" version="1.1" xmlns="http://www.w3.org/2000/svg" p-id="739" xmlns:xlink="http://www.w3.org/1999/xlink"  ><defs><style type="text/css"></style></defs><path d="M798.059 513.941c18.745 18.745 49.137 18.745 67.882 0 18.745-18.745 18.745-49.137 0-67.882l-320-320c-18.745-18.745-49.137-18.745-67.882 0l-320 320c-18.745 18.745-18.745 49.137 0 67.882 18.745 18.745 49.137 18.745 67.882 0L512 227.882z m0 384c18.745 18.745 49.137 18.745 67.882 0 18.745-18.745 18.745-49.137 0-67.882l-320-320c-18.745-18.745-49.137-18.745-67.882 0l-320 320c-18.745 18.745-18.745 49.137 0 67.882 18.745 18.745 49.137 18.745 67.882 0L512 611.882z" p-id="740"></path></svg>