<?xml version="1.0" standalone="no"?><!DOCTYPE svg PUBLIC "-//W3C//DTD SVG 1.1//EN" "http://www.w3.org/Graphics/SVG/1.1/DTD/svg11.dtd"><svg t="1572311970319" class="icon" viewBox="0 0 1024 1024" version="1.1" xmlns="http://www.w3.org/2000/svg" p-id="2365" xmlns:xlink="http://www.w3.org/1999/xlink"  ><defs><style type="text/css"></style></defs><path d="M864 32c35.346 0 64 28.654 64 64v832c0 35.346-28.654 64-64 64H160c-35.346 0-64-28.654-64-64V96c0-35.346 28.654-64 64-64h704z m-32 96H192v768h640V128zM624 640c26.51 0 48 21.49 48 48s-21.49 48-48 48H304c-26.51 0-48-21.49-48-48s21.49-48 48-48h320zM496 448c26.51 0 48 21.49 48 48s-21.49 48-48 48H304c-26.51 0-48-21.49-48-48s21.49-48 48-48h192z m224-192c26.51 0 48 21.49 48 48s-21.49 48-48 48H304c-26.51 0-48-21.49-48-48s21.49-48 48-48h416z" p-id="2366"></path></svg>