<?xml version="1.0" standalone="no"?><!DOCTYPE svg PUBLIC "-//W3C//DTD SVG 1.1//EN" "http://www.w3.org/Graphics/SVG/1.1/DTD/svg11.dtd"><svg t="1572311960816" class="icon" viewBox="0 0 1024 1024" version="1.1" xmlns="http://www.w3.org/2000/svg" p-id="2026" xmlns:xlink="http://www.w3.org/1999/xlink"  ><defs><style type="text/css"></style></defs><path d="M73.143 0h877.714C991.253 0 1024 32.747 1024 73.143v877.714c0 40.396-32.747 73.143-73.143 73.143H73.143C32.747 1024 0 991.253 0 950.857V73.143C0 32.747 32.747 0 73.143 0z m0 36.571c-20.198 0-36.572 16.374-36.572 36.572v877.714c0 20.198 16.374 36.572 36.572 36.572h877.714c20.198 0 36.572-16.374 36.572-36.572V73.143c0-20.198-16.374-36.572-36.572-36.572H73.143z" p-id="2027"></path></svg>