<?xml version="1.0" standalone="no"?><!DOCTYPE svg PUBLIC "-//W3C//DTD SVG 1.1//EN" "http://www.w3.org/Graphics/SVG/1.1/DTD/svg11.dtd"><svg t="1572311957132" class="icon" viewBox="0 0 1024 1024" version="1.1" xmlns="http://www.w3.org/2000/svg" p-id="1913" xmlns:xlink="http://www.w3.org/1999/xlink"  ><defs><style type="text/css"></style></defs><path d="M112 80c26.51 0 48 21.49 48 48v752h752c26.51 0 48 21.49 48 48s-21.49 48-48 48H112c-26.51 0-48-21.49-48-48V128c0-26.51 21.49-48 48-48z m704.392 219.876c19.95-17.456 50.275-15.435 67.732 4.516 17.456 19.95 15.435 50.275-4.516 67.732l-256 224c-19.018 16.64-47.68 15.686-65.55-2.183L464 499.882l-158.059 158.06c-18.745 18.744-49.137 18.744-67.882 0-18.745-18.746-18.745-49.138 0-67.883l192-192c18.745-18.745 49.137-18.745 67.882 0l96.246 96.246z" p-id="1914"></path></svg>