<?xml version="1.0" standalone="no"?><!DOCTYPE svg PUBLIC "-//W3C//DTD SVG 1.1//EN" "http://www.w3.org/Graphics/SVG/1.1/DTD/svg11.dtd"><svg t="1585116072436" class="icon" viewBox="0 0 1024 1024" version="1.1" xmlns="http://www.w3.org/2000/svg" p-id="928" xmlns:xlink="http://www.w3.org/1999/xlink"  ><defs><style type="text/css"></style></defs><path d="M512 32c265.097 0 480 214.903 480 480S777.097 992 512 992 32 777.097 32 512 246.903 32 512 32z m0 96c-212.077 0-384 171.923-384 384s171.923 384 384 384 384-171.923 384-384-171.923-384-384-384z m0 576c35.346 0 64 28.654 64 64 0 35.346-28.654 64-64 64-35.346 0-64-28.654-64-64 0-35.346 28.654-64 64-64z m0-512c33.511 0 60.678 27.166 60.678 60.678 0 1.077-0.03 2.155-0.086 3.231l-20.147 377.745C551.298 655.154 533.531 672 512 672c-21.53 0-39.298-16.845-40.445-38.346L451.408 255.91c-1.784-33.464 23.897-62.038 57.36-63.823A60.678 60.678 0 0 1 512 192z" p-id="929"></path></svg>