<?xml version="1.0" standalone="no"?><!DOCTYPE svg PUBLIC "-//W3C//DTD SVG 1.1//EN" "http://www.w3.org/Graphics/SVG/1.1/DTD/svg11.dtd"><svg t="1572311967336" class="icon" viewBox="0 0 1024 1024" version="1.1" xmlns="http://www.w3.org/2000/svg" p-id="2252" xmlns:xlink="http://www.w3.org/1999/xlink"  ><defs><style type="text/css"></style></defs><path d="M1022 0a2 2 0 0 1 2 2v1020a2 2 0 0 1-2 2H2a2 2 0 0 1-2-2V2a2 2 0 0 1 2-2h1020zM852.144 266.425L428.957 680.276l-257.101-251.43c-14.44-14.121-37.595-13.863-51.717 0.578-14.122 14.44-13.864 37.594 0.577 51.716l282.671 276.435c14.213 13.9 36.927 13.9 51.14 0l448.757-438.857c14.44-14.122 14.699-37.276 0.577-51.716-14.122-14.44-37.276-14.7-51.717-0.577z" p-id="2253"></path></svg>