<?xml version="1.0" standalone="no"?><!DOCTYPE svg PUBLIC "-//W3C//DTD SVG 1.1//EN" "http://www.w3.org/Graphics/SVG/1.1/DTD/svg11.dtd"><svg t="1570529115905" class="icon" viewBox="0 0 1024 1024" version="1.1" xmlns="http://www.w3.org/2000/svg" p-id="1618" xmlns:xlink="http://www.w3.org/1999/xlink"  ><defs><style type="text/css"></style></defs><path d="M693.074 832.002C666.716 906.573 595.597 960 512 960c-49.328 0-94.311-18.602-128.318-49.174l78.825-78.825h230.567zM576 0l0.004 70.402C647.7 84.956 710.69 123.48 756.247 177.245l94.498-94.5 90.51 90.51-768 768-90.51-90.51L165.49 768H64V640h128V384c0-154.812 109.935-283.948 255.997-313.598L448 0h128z m256 462.508V640h128v128H526.508l128-128H704l-0.001-49.491L832 462.508zM512 192c-106.039 0-192 85.961-192 192l-0.001 229.491 345.219-345.217C630.165 221.939 574.578 192 512 192z" p-id="1619"></path></svg>