<svg xmlns="http://www.w3.org/2000/svg"   viewBox="0 0 1024 1024">
    <g fill="none" fill-rule="evenodd">
        <path fill="#000" fill-rule="nonzero" d="M512 0C229.2 0 0 229.2 0 512s229.2 512 512 512 512-229.2 512-512S794.8 0 512 0zm241 703.3c12.6 12.4 12.8 32.6.5 45.3-12.4 12.6-32.6 12.8-45.3.5L512 556.8 315.8 749c-12.6 12.4-32.9 12.2-45.3-.5-12.4-12.6-12.2-32.9.5-45.3L466.3 512 271 320.7c-12.6-12.4-12.8-32.6-.5-45.3 12.4-12.6 32.6-12.8 45.3-.5L512 467.2 708.2 275c12.6-12.4 32.9-12.2 45.3.5 12.4 12.6 12.2 32.9-.5 45.3L557.7 512 753 703.3z"/>
    </g>
</svg>
