<?xml version="1.0" standalone="no"?><!DOCTYPE svg PUBLIC "-//W3C//DTD SVG 1.1//EN" "http://www.w3.org/Graphics/SVG/1.1/DTD/svg11.dtd"><svg t="1573701653417" class="icon" viewBox="0 0 1024 1024" version="1.1" xmlns="http://www.w3.org/2000/svg" p-id="1914" xmlns:xlink="http://www.w3.org/1999/xlink"  ><defs><style type="text/css"></style></defs><path d="M925.338 194.37c-91.737-88.1-226.404-75.782-226.404-75.782-16.558 0.335-29.984 14.045-29.984 30.75v14.885c0 16.649 13.364 29.368 30.41 29.077 0 0 129.234-13.717 184.282 66.524 55.04 80.242 31.26 180.93 31.26 180.93-2.527 16.435 8.88 29.762 25.703 29.762h12.84c16.722 0 32.184-13.284 33.986-29.873 0.002 0 29.643-158.178-62.093-246.274zM818.654 434.933h18.195c11.106 0 21.871-8.704 23.665-19.888 0 0 21.445-83.455-28.588-129.196-50.038-45.744-115.426-29.058-115.426-29.058-10.967 1.674-19.868 12.074-19.868 23.13v7.85c0 11.106 8.885 19.435 20.356 19.102 0 0 54.884-7.467 81.578 24.718 26.69 32.193 5.794 84.252 5.794 84.252-3.208 10.546 3.335 19.09 14.294 19.09z m-427.449 82.303c-90.082 17.51-151.092 93.507-136.275 169.75 14.824 76.238 99.86 123.85 189.937 106.34 90.08-17.513 151.104-93.513 136.28-169.756-14.818-76.236-99.854-123.848-189.942-106.334z m-7.388 200.507c-27.724 12.925-58.181 6.292-68.027-14.823-9.847-21.124 4.644-48.72 32.367-61.645 27.725-12.932 58.184-6.292 68.034 14.823 9.834 21.123-4.643 48.72-32.374 61.645z m63.574-64.158c-15.285 0-27.683-12.593-27.683-28.125s12.395-28.129 27.683-28.129c15.306 0 27.705 12.598 27.705 28.129-0.001 15.534-12.401 28.125-27.705 28.125z m279.449-167.82c0-8.47 80.567-84.706 0-132.147-80.57-47.436-227.955 24.686-223.538 16.94 63.39-110.734-27.194-145.694-73.377-145.694C319.816 224.864 32 470.127 32 625.461c0 155.334 192.18 281.263 429.238 281.263 237.065 0 427.408-125.93 427.408-281.263 0-131.226-161.806-131.226-161.806-139.696zM472.833 820.562c-151.444 21.285-285.619-42.514-299.671-142.494-14.053-99.988 97.333-198.297 248.785-219.583 151.47-21.285 285.626 42.511 299.684 142.5 14.057 99.981-97.329 198.289-248.798 219.577z" p-id="1915"></path></svg>