<?xml version="1.0" standalone="no"?><!DOCTYPE svg PUBLIC "-//W3C//DTD SVG 1.1//EN" "http://www.w3.org/Graphics/SVG/1.1/DTD/svg11.dtd"><svg t="1573701647063" class="icon" viewBox="0 0 1024 1024" version="1.1" xmlns="http://www.w3.org/2000/svg" p-id="1688" xmlns:xlink="http://www.w3.org/1999/xlink"  ><defs><style type="text/css"></style></defs><path d="M513.5 0C795.441 0 1024 228.559 1024 510.5c0 281.941-228.559 510.5-510.5 510.5C231.559 1021 3 792.441 3 510.5 3 228.559 231.559 0 513.5 0zM512 223c-179.493 0-325 121.261-325 270.833 0 149.573 145.507 270.834 325 270.834 24.597 0 48.544-2.301 71.583-6.634l16.332-3.436-0.155 0.041 0.392-0.083c4.183-0.83 8.696 0.093 12.278 2.735l13.712 9.956 60.14 43.694 0.016 0.009c0.027 0.015 0.085 0.048 0.108 0.064 3.023 2.115 7.202 1.847 9.905-0.846 1.28-1.29 1.991-2.92 2.177-4.602 0.052-0.258 0.083-0.444 0.083-0.444l7.521-71.407 1.785-17.034 0.05-0.386c0.452-3.216 1.844-6.315 4.304-8.776 0.784-0.784 1.61-1.485 2.497-2.053l-0.01-0.052 1.743-1.17c3.48-2.346 6.916-4.731 10.276-7.207C794.317 647.419 837 574.805 837 493.833 837 344.261 691.493 223 512 223z m85.992 133.047c6.046-6.046 15.837-6.046 21.883 0l0.01 0.01 110.439 110.418c15.104 15.104 15.104 39.608 0 54.713L619.906 631.605l-0.01 0.01-0.01-0.01-0.002 0.006-0.009 0.005c-6.046 6.046-15.837 6.046-21.883 0-5.066-5.066-5.83-12.763-2.383-18.685l-0.062-0.052 50.029-86.666c0.794-1.29 1.579-2.59 2.27-3.921 9.585-18.582 9.141-41.012-1.341-59.233l-50.886-88.296c-3.456-5.933-2.703-13.64 2.373-18.716z m-139.286 0c6.046-6.046 15.837-6.046 21.884 0l0.01 0.01 110.438 110.418c15.105 15.104 15.105 39.608 0 54.713L480.61 631.616l-0.01-0.01-0.001 0.005-0.01 0.005c-6.046 6.046-15.837 6.046-21.883 0-5.066-5.066-5.83-12.763-2.383-18.685l-0.062-0.052 50.03-86.666c0.794-1.29 1.578-2.59 2.27-3.921 9.584-18.582 9.14-41.012-1.342-59.233l-50.886-88.296c-3.456-5.933-2.703-13.64 2.373-18.716z m-139.286 0c6.047-6.046 15.838-6.046 21.884 0l0.01 0.01 110.438 110.418c15.105 15.104 15.105 39.608 0 54.713L341.335 631.605l-0.01 0.01-0.01-0.01-0.002 0.006-0.01 0.005c-6.045 6.046-15.836 6.046-21.883 0-5.065-5.066-5.829-12.763-2.383-18.685l-0.062-0.052 50.03-86.666c0.794-1.29 1.578-2.59 2.27-3.921 9.584-18.582 9.14-41.012-1.342-59.233l-50.886-88.296c-3.456-5.933-2.703-13.64 2.373-18.716z" p-id="1689"></path></svg>