<svg xmlns="http://www.w3.org/2000/svg"   viewBox="0 0 1024 1024">
    <g fill="none" fill-rule="evenodd">
        <path fill="#000" fill-rule="nonzero" d="M896.38 0C966.863 0 1024 57.249 1024 127.62v768.76c0 70.483-57.249 127.62-127.62 127.62H127.62C57.137 1024 0 966.751 0 896.38V127.62C0 57.137 57.249 0 127.62 0h768.76zM782.395 298.949c-12.313-11.087-31.282-10.092-42.369 2.22l-336.19 373.306-119.418-132.61-4.499-4.085c-11.226-8.288-27.096-7.836-37.87 1.865-12.312 11.086-13.306 30.055-2.22 42.368L381.155 738.97l4.145 3.82c7.36 5.603 16.797 7.38 25.485 5.159a17.11 17.11 0 0 0 1.853-.487c.431-.139.86-.287 1.317-.37a29.863 29.863 0 0 0 12.873-8.413l357.787-397.363c11.087-12.313 10.093-31.282-2.22-42.368z"/>
    </g>
</svg>
