<?xml version="1.0" standalone="no"?><!DOCTYPE svg PUBLIC "-//W3C//DTD SVG 1.1//EN" "http://www.w3.org/Graphics/SVG/1.1/DTD/svg11.dtd"><svg t="1570529141722" class="icon" viewBox="0 0 1024 1024" version="1.1" xmlns="http://www.w3.org/2000/svg" p-id="1731" xmlns:xlink="http://www.w3.org/1999/xlink"  ><defs><style type="text/css"></style></defs><path d="M832 64c70.692 0 128 57.308 128 128 0 43.06-21.262 81.153-53.86 104.354l-0.982 0.691 1.011 1.855c33.233 61.34 52.565 131.313 53.771 205.692L960 512H832c0-176.731-143.269-320-320-320S192 335.269 192 512c0 174.964 140.418 317.131 314.708 319.957L512 832v128C264.576 960 64 759.424 64 512c0-77.115 19.484-149.68 53.798-213.04l1.043-1.915-0.981-0.69C85.262 273.152 64 235.058 64 192c0-70.692 57.308-128 128-128 43.06 0 81.153 21.262 104.354 53.86l0.691 0.981 1.916-1.043C362.32 83.484 434.885 64 512 64c77.115 0 149.68 19.484 213.04 53.798l1.914 1.043 0.692-0.981C750.847 85.262 788.94 64 832 64z m0 512v128h128v128H832v128H704V832H576V704h128V576h128zM576 256v320H256V448h192V256h128z m-457.158 41.043l-0.001 0.002 0.01 0.008-0.009-0.01z m786.316 0l-0.01 0.01 0.01-0.008v-0.002zM297.045 118.841l-0.002 0.001 0.01 0.01-0.008-0.011z m429.909 0l-0.007 0.01 0.01-0.009-0.003-0.001z" p-id="1732"></path></svg>