<?xml version="1.0" standalone="no"?><!DOCTYPE svg PUBLIC "-//W3C//DTD SVG 1.1//EN" "http://www.w3.org/Graphics/SVG/1.1/DTD/svg11.dtd"><svg t="1573701665956" class="icon" viewBox="0 0 1024 1024" version="1.1" xmlns="http://www.w3.org/2000/svg" p-id="2366" xmlns:xlink="http://www.w3.org/1999/xlink"  ><defs><style type="text/css"></style></defs><path d="M1012 629.195c0-139.15-136.221-252.013-304.252-252.013S403.495 489.98 403.495 629.195c0 139.283 136.222 252.08 304.253 252.08 38.863 0 75.93-6.256 110.002-17.236l95.894 52.506-25.288-84.581c0.333-0.2 0.732-0.333 1.065-0.533C963.82 785.381 1012 711.98 1012 629.195z m-414.121-47.58c-22.56 0-40.727-18.301-40.727-40.728 0-22.492 18.167-40.726 40.727-40.726 22.426 0 40.66 18.234 40.66 40.726 0 22.427-18.234 40.727-40.66 40.727z m205.896 0c-22.493 0-40.66-18.301-40.66-40.728 0-22.492 18.167-40.726 40.66-40.726 22.493 0 40.726 18.234 40.726 40.726 0 22.427-18.233 40.727-40.726 40.727zM697.034 366.6c4.791 0 9.582 0.067 14.24 0.266C692.243 221.33 543.445 108 362.703 108 169.051 108 12 238.1 12 398.477c0 95.428 55.5 180.076 141.279 233.047 0.4 0.2 0.799 0.4 1.198 0.666l-29.081 97.491 110.468-60.558c39.395 12.644 82.052 19.831 126.838 19.831a407.21 407.21 0 0 0 41.525-2.13c-7.32-21.627-11.38-44.52-11.38-68.143-0.066-139.283 136.222-252.08 304.187-252.08zM489.34 249.678c25.887 0 46.915 21.03 46.915 46.982 0 25.887-21.028 46.916-46.915 46.916-25.953 0-46.982-21.029-46.982-46.916 0.066-25.953 21.095-46.982 46.982-46.982z m-237.373 93.898c-25.887 0-46.915-21.029-46.915-46.916 0-25.953 20.962-46.982 46.915-46.982s46.982 21.03 46.982 46.982c0 25.887-21.029 46.916-46.982 46.916z" p-id="2367"></path></svg>