<?xml version="1.0" standalone="no"?><!DOCTYPE svg PUBLIC "-//W3C//DTD SVG 1.1//EN" "http://www.w3.org/Graphics/SVG/1.1/DTD/svg11.dtd"><svg t="1571298572439" class="icon" viewBox="0 0 1024 1024" version="1.1" xmlns="http://www.w3.org/2000/svg" p-id="1587" xmlns:xlink="http://www.w3.org/1999/xlink"  ><defs><style type="text/css"></style></defs><path d="M512 0c247.424 0 448.353 200.576 448.353 448 0 164.949-149.569 356.949-448.706 576C213.451 804.949 64.353 612.949 64.353 448 64.353 200.576 264.576 0 512 0z m0 128c-176.633 0-319.647 143.17-319.647 320 0 50.613 26.426 113.879 84.92 189.205 53.84 69.33 132.043 144.953 234.5 226.025l3.078-2.432C616.21 780.587 693.697 705.73 747.199 637.05c58.664-75.305 85.154-138.525 85.154-189.05 0-176.633-143.523-320-320.353-320z m0 128c106.039 0 192 85.961 192 192s-85.961 192-192 192-192-85.961-192-192 85.961-192 192-192z m0 128c-35.346 0-64 28.654-64 64 0 35.346 28.654 64 64 64 35.346 0 64-28.654 64-64 0-35.346-28.654-64-64-64z" p-id="1588"></path></svg>