<?xml version="1.0" standalone="no"?><!DOCTYPE svg PUBLIC "-//W3C//DTD SVG 1.1//EN" "http://www.w3.org/Graphics/SVG/1.1/DTD/svg11.dtd"><svg t="1596792957562" class="icon" viewBox="0 0 1024 1024" version="1.1" xmlns="http://www.w3.org/2000/svg" p-id="1733" xmlns:xlink="http://www.w3.org/1999/xlink"  ><defs><style type="text/css"></style></defs><path d="M896 128c47.128 0 85.333 38.205 85.333 85.333v597.334C981.333 857.795 943.128 896 896 896H128c-47.128 0-85.333-38.205-85.333-85.333V213.333C42.667 166.205 80.872 128 128 128h768z m0 64H128c-11.782 0-21.333 9.551-21.333 21.333v597.334c0 11.782 9.55 21.333 21.333 21.333h768c11.782 0 21.333-9.551 21.333-21.333V213.333c0-11.782-9.55-21.333-21.333-21.333zM437.333 345.6a42.667 42.667 0 0 1 19.081 4.504L681.01 462.402c21.076 10.538 29.62 36.167 19.081 57.243a42.667 42.667 0 0 1-19.081 19.081L456.414 651.023c-21.076 10.539-46.705 1.996-57.243-19.08a42.674 42.674 0 0 1-4.504-19.082V388.267c0-23.564 19.102-42.667 42.666-42.667z m21.334 77.185v155.558l155.558-77.78-155.558-77.778z" p-id="1734"></path></svg>