<?xml version="1.0" standalone="no"?><!DOCTYPE svg PUBLIC "-//W3C//DTD SVG 1.1//EN" "http://www.w3.org/Graphics/SVG/1.1/DTD/svg11.dtd"><svg t="1573701662438" class="icon" viewBox="0 0 1024 1024" version="1.1" xmlns="http://www.w3.org/2000/svg" p-id="2253" xmlns:xlink="http://www.w3.org/1999/xlink"  ><defs><style type="text/css"></style></defs><path d="M474.994 621.672h1.203c4.81-5.866 12.292-8.532 18.705-12.798 14.296-9.465 28.592-19.33 43.29-29.196 38.345-25.596 75.89-54.125 113.433-80.521 10.155-7.2 33.269-19.997 39.816-29.196 3.34-4.8 5.879-13.598 2.271-18.664-2.94-8.665-15.766-5.866-26.855-5.866H589.63c-7.482 4.533-48.634 1.2-60.792 1.2l-150.845 2.4c-12.292 0-54.378-3.466-61.994 1.2 15.365-0.134 31.13 2.8 44.358 5.865 17.77 4.133 36.075 3.2 52.642 6.933l18.705 1.2c27.657 6.399 59.857 6.399 87.648 12.798 17.77 4.132 36.074 3.2 52.641 7.065 8.017 1.867 16.835-0.666 22.18 3.466h-2.272c-15.365 13.732-44.492 23.597-63.197 35.062-46.496 28.396-95.396 53.725-141.492 82.788-9.887 6.266-27.39 16.13-32.734 26.796-3.607 7.199-1.603 23.73 4.677 26.796h18.705L704 643.802v-3.466l-229.14-17.464v-1.2h0.134zM512 0C229.257 0 0 229.257 0 512s229.257 512 512 512 512-229.257 512-512S794.857 0 512 0z m330.29 462.34c-10.028 7.611-17.116 18.292-26.877 25.635-27.146 20.562-50.814 47.398-74.884 71.297-8.157 8.145-43.192 35.382-44.395 45.53 3.744 5.74 6.017 28.17 6.953 36.182 10.43-0.267 29.553-1.202 36.239 3.471l-35.169 1.202L739.326 849h-2.274c-10.831-10.548-41.186-21.362-56.162-29.24-38.378-19.894-77.024-39.52-115.803-59.547-13.372-6.943-26.878-13.753-40.918-20.962-2.942-1.469-9.628-8.145-14.041-7.077-1.738 0.534-6.151 4.807-8.157 5.875-12.436 6.409-24.605 12.55-36.238 18.692-41.855 21.763-83.309 41.39-125.163 63.02-16.85 8.811-37.71 23.765-56.163 29.239l43.326-248.872c-12.57-8.278-22.198-21.229-32.762-31.51-18.988-18.558-38.512-38.986-59.64-54.874l-24.604-25.769c-16.715-12.55-30.89-28.572-45.6-43.258-6.685-6.676-15.778-11.75-21.127-19.894 14.442-1.335 30.89-3.872 44.53-7.076 19.923-4.673 39.982-3.872 58.435-8.145 27.28-6.409 55.762-5.474 81.971-11.75 15.378-3.604 60.04-3.604 69-10.547 5.616-6.275 7.622-15.621 11.767-23.365 8.425-16.289 16.85-33.245 25.675-50.202 25.808-49.534 51.75-100.136 76.087-150.738 0.936 1.202 0.401 0.267 1.204 2.27 4.947 4.272 6.15 11.482 9.36 17.49 8.29 16.022 16.047 32.578 24.605 49.134l79.564 156.48c32.36 3.07 70.738 7.877 101.761 15.22 27.28 6.409 55.762 5.474 81.838 11.75 15.645 3.738 60.976 3.337 70.203 10.547-14.843 9.747-24.07 26.169-37.71 36.45z" p-id="2254"></path></svg>