<?xml version="1.0" standalone="no"?><!DOCTYPE svg PUBLIC "-//W3C//DTD SVG 1.1//EN" "http://www.w3.org/Graphics/SVG/1.1/DTD/svg11.dtd"><svg t="1596792939362" class="icon" viewBox="0 0 1024 1024" version="1.1" xmlns="http://www.w3.org/2000/svg" p-id="1345" xmlns:xlink="http://www.w3.org/1999/xlink"  ><defs><style type="text/css"></style></defs><path d="M416 544c35.346 0 64 28.654 64 64v288c0 35.346-28.654 64-64 64H128c-35.346 0-64-28.654-64-64V608c0-35.346 28.654-64 64-64h288z m542.5 256a1.5 1.5 0 0 1 1.5 1.5v93a1.5 1.5 0 0 1-1.5 1.5h-381a1.5 1.5 0 0 1-1.5-1.5v-93a1.5 1.5 0 0 1 1.5-1.5h381zM384 640H160v224h224V640z m574.5-32a1.5 1.5 0 0 1 1.5 1.5v93a1.5 1.5 0 0 1-1.5 1.5h-381a1.5 1.5 0 0 1-1.5-1.5v-93a1.5 1.5 0 0 1 1.5-1.5h381zM416 64c35.346 0 64 28.654 64 64v288c0 35.346-28.654 64-64 64H128c-35.346 0-64-28.654-64-64V128c0-35.346 28.654-64 64-64h288z m542.5 256a1.5 1.5 0 0 1 1.5 1.5v93a1.5 1.5 0 0 1-1.5 1.5h-381a1.5 1.5 0 0 1-1.5-1.5v-93a1.5 1.5 0 0 1 1.5-1.5h381zM384 160H160v224h224V160z m574.5-32a1.5 1.5 0 0 1 1.5 1.5v93a1.5 1.5 0 0 1-1.5 1.5h-381a1.5 1.5 0 0 1-1.5-1.5v-93a1.5 1.5 0 0 1 1.5-1.5h381z" p-id="1346"></path></svg>