<?xml version="1.0" standalone="no"?><!DOCTYPE svg PUBLIC "-//W3C//DTD SVG 1.1//EN" "http://www.w3.org/Graphics/SVG/1.1/DTD/svg11.dtd"><svg t="1573701643150" class="icon" viewBox="0 0 1024 1024" version="1.1" xmlns="http://www.w3.org/2000/svg" p-id="1575" xmlns:xlink="http://www.w3.org/1999/xlink"  ><defs><style type="text/css"></style></defs><path d="M512 0c282.77 0 512 229.23 512 512s-229.23 512-512 512S0 794.77 0 512 229.23 0 512 0zM320.31 402.352s-28.51 12.1-20.734 80.342c0 0-54.426 49.24-67.383 124.398 0 0-6.922 126.99 62.197 15.551 0 0 15.553 42.32 44.06 80.338 0 0-50.979 17.29-46.65 62.201 0 0-1.736 50.097 108.85 46.652l0.092-0.007c2.996-0.245 78.123-6.69 100.984-38.867h20.554c23.323 32.835 101.074 38.874 101.074 38.874 110.558 3.445 108.847-46.652 108.847-46.652 4.304-44.911-46.648-62.2-46.648-62.2 28.508-38.018 44.055-80.339 44.055-80.339 69.094 111.439 62.201-15.553 62.201-15.553-12.958-75.157-67.38-124.397-67.38-124.397 7.773-68.242-20.735-80.343-20.735-80.343-6.003-211.132-187.873-207.435-191.691-207.334-3.824-0.1-185.719-3.798-191.694 207.336z" p-id="1576"></path></svg>