<?xml version="1.0" standalone="no"?><!DOCTYPE svg PUBLIC "-//W3C//DTD SVG 1.1//EN" "http://www.w3.org/Graphics/SVG/1.1/DTD/svg11.dtd"><svg t="1596792943803" class="icon" viewBox="0 0 1024 1024" version="1.1" xmlns="http://www.w3.org/2000/svg" p-id="1475" xmlns:xlink="http://www.w3.org/1999/xlink"  ><defs><style type="text/css"></style></defs><path d="M853.333 85.333c47.129 0 85.334 38.205 85.334 85.334v682.666c0 47.129-38.205 85.334-85.334 85.334H170.667c-47.129 0-85.334-38.205-85.334-85.334V170.667c0-47.129 38.205-85.334 85.334-85.334h682.666z m0 64H170.667c-11.782 0-21.334 9.552-21.334 21.334v682.666c0 11.782 9.552 21.334 21.334 21.334h682.666c11.782 0 21.334-9.552 21.334-21.334V170.667c0-11.782-9.552-21.334-21.334-21.334zM703.201 382.221c12.765-12.223 33.021-11.784 45.245 0.98 12.223 12.765 11.784 33.021-0.98 45.245L603.241 566.553c-12.375 11.85-31.889 11.85-44.264 0l-102.089-97.76-136.09 130.32c-12.765 12.222-33.021 11.784-45.245-0.981-12.223-12.764-11.784-33.021 0.98-45.244l158.223-151.513c12.375-11.85 31.889-11.85 44.264 0l102.089 97.76z" p-id="1476"></path></svg>