<?xml version="1.0" standalone="no"?><!DOCTYPE svg PUBLIC "-//W3C//DTD SVG 1.1//EN" "http://www.w3.org/Graphics/SVG/1.1/DTD/svg11.dtd"><svg t="1573701656128" class="icon" viewBox="0 0 1024 1024" version="1.1" xmlns="http://www.w3.org/2000/svg" p-id="2027" xmlns:xlink="http://www.w3.org/1999/xlink"  ><defs><style type="text/css"></style></defs><path d="M512 0c282.77 0 512 229.23 512 512s-229.23 512-512 512S0 794.77 0 512 229.23 0 512 0z m137.023 417.427c-117.621 0-212.976 78.958-212.976 176.41 0 97.497 95.355 176.455 212.976 176.455 27.205 0 53.151-4.378 77.002-12.065l67.126 36.754-17.702-59.207c0.233-0.14 0.513-0.232 0.745-0.372C828.274 703.166 862 651.786 862 593.837c0-97.405-95.355-176.41-212.977-176.41zM407.491 229C271.935 229 162 320.07 162 432.334c0 66.8 38.85 126.053 98.895 163.133 0.28 0.14 0.56 0.28 0.839 0.466l-20.357 68.244 77.328-42.39a290.245 290.245 0 0 0 88.786 13.881 285.1 285.1 0 0 0 29.068-1.49c-5.124-15.14-7.966-31.165-7.966-47.701-0.046-97.498 95.355-176.456 212.93-176.456 3.354 0 6.708 0.046 9.97 0.186C638.17 308.331 534.01 229 407.49 229z m164.624 274.513c15.699 0 28.462 12.763 28.462 28.508 0 15.699-12.763 28.509-28.462 28.509-15.791 0-28.509-12.81-28.509-28.509 0-15.745 12.718-28.508 28.51-28.508z m144.127 0c15.745 0 28.509 12.763 28.509 28.508 0 15.699-12.764 28.509-28.509 28.509-15.745 0-28.462-12.81-28.462-28.509 0-15.745 12.717-28.508 28.462-28.508zM496.14 328.175c18.12 0 32.84 14.72 32.84 32.887 0 18.121-14.72 32.841-32.84 32.841-18.168 0-32.888-14.72-32.888-32.84 0.047-18.168 14.767-32.888 32.888-32.888z m-166.161 0c18.167 0 32.887 14.72 32.887 32.887 0 18.121-14.72 32.841-32.887 32.841-18.121 0-32.841-14.72-32.841-32.84 0-18.168 14.673-32.888 32.84-32.888z" p-id="2028"></path></svg>