<?xml version="1.0" standalone="no"?><!DOCTYPE svg PUBLIC "-//W3C//DTD SVG 1.1//EN" "http://www.w3.org/Graphics/SVG/1.1/DTD/svg11.dtd"><svg t="1575601837303" class="icon" viewBox="0 0 1024 1024" version="1.1" xmlns="http://www.w3.org/2000/svg" p-id="1401" xmlns:xlink="http://www.w3.org/1999/xlink"  ><defs><style type="text/css"></style></defs><path d="M512 64c244.95 0 443.984 196.585 447.94 440.592l0.063 7.408v436.845C937.978 956.084 914.447 960 890 960c-123.712 0-224-100.288-224-224 0-103.653 70.403-190.862 165.998-216.418L832 512l-0.043-5.292C829.131 332.418 686.964 192 512 192S194.869 332.418 192.043 506.708L192 512v9.276C284.529 548.814 352 634.528 352 736c0 123.712-100.288 224-224 224-22.24 0-43.722-3.241-64.002-9.277V512l0.062-7.408C68.016 260.585 267.05 64 512 64z" p-id="1402"></path></svg>