<?xml version="1.0" standalone="no"?><!DOCTYPE svg PUBLIC "-//W3C//DTD SVG 1.1//EN" "http://www.w3.org/Graphics/SVG/1.1/DTD/svg11.dtd"><svg t="1567069318258" class="icon" viewBox="0 0 1024 1024" version="1.1" xmlns="http://www.w3.org/2000/svg" p-id="2134" xmlns:xlink="http://www.w3.org/1999/xlink"  ><defs><style type="text/css"></style></defs><path d="M416 768C221.596 768 64 610.404 64 416S221.596 64 416 64s352 157.596 352 352c0 85.68-30.612 164.21-81.495 225.249l40.122 40.124 22.628-22.628 256 256-90.51 90.51-256-256 22.628-22.628-40.124-40.122C580.209 737.388 501.679 768 416 768z m0-576c-123.712 0-224 100.288-224 224s100.288 224 224 224 224-100.288 224-224-100.288-224-224-224z" p-id="2135"></path></svg>