<?xml version="1.0" standalone="no"?><!DOCTYPE svg PUBLIC "-//W3C//DTD SVG 1.1//EN" "http://www.w3.org/Graphics/SVG/1.1/DTD/svg11.dtd"><svg t="1567069333340" class="icon" viewBox="0 0 1024 1024" version="1.1" xmlns="http://www.w3.org/2000/svg" p-id="2694" xmlns:xlink="http://www.w3.org/1999/xlink"  ><defs><style type="text/css"></style></defs><path d="M768 0c35.346 0 64 28.654 64 64v896c0 35.346-28.654 64-64 64H256c-35.346 0-64-28.654-64-64V64c0-35.346 28.654-64 64-64h512zM512 832c-35.346 0-64 28.654-64 64 0 35.346 28.654 64 64 64 35.346 0 64-28.654 64-64 0-35.346-28.654-64-64-64z m256-640H256v576h512V192zM608 64H416c-17.673 0-32 14.327-32 32 0 17.496 14.042 31.713 31.47 31.996l0.53 0.004h192c17.673 0 32-14.327 32-32 0-17.673-14.327-32-32-32z" p-id="2695"></path></svg>