<?xml version="1.0" standalone="no"?><!DOCTYPE svg PUBLIC "-//W3C//DTD SVG 1.1//EN" "http://www.w3.org/Graphics/SVG/1.1/DTD/svg11.dtd"><svg t="1596792952123" class="icon" viewBox="0 0 1025 1024" version="1.1" xmlns="http://www.w3.org/2000/svg" p-id="1605" xmlns:xlink="http://www.w3.org/1999/xlink"  ><defs><style type="text/css"></style></defs><path d="M753.947 789.333c23.564 0 42.666 19.103 42.666 42.667s-19.102 42.667-42.666 42.667H129c-23.564 0-42.667-19.103-42.667-42.667s19.103-42.667 42.667-42.667zM618.785 448c23.565 0 42.667 19.103 42.667 42.667s-19.102 42.666-42.667 42.666H129c-23.564 0-42.667-19.102-42.667-42.666C86.333 467.103 105.436 448 129 448z m273.94-320c23.565 0 42.667 19.103 42.667 42.667s-19.102 42.666-42.666 42.666H129c-23.564 0-42.667-19.102-42.667-42.666C86.333 147.103 105.436 128 129 128z" p-id="1606"></path></svg>