<?xml version="1.0" standalone="no"?><!DOCTYPE svg PUBLIC "-//W3C//DTD SVG 1.1//EN" "http://www.w3.org/Graphics/SVG/1.1/DTD/svg11.dtd"><svg t="1573701668634" class="icon" viewBox="0 0 1024 1024" version="1.1" xmlns="http://www.w3.org/2000/svg" p-id="2479" xmlns:xlink="http://www.w3.org/1999/xlink"  ><defs><style type="text/css"></style></defs><path d="M512.003 96.786c248.528 0 450 167.9 450 375 0 112.114-59.1 212.657-152.672 281.357-4.75 3.5-9.609 6.869-14.53 10.183l-2.112 1.417 0.014 0.071c-1.229 0.786-2.372 1.757-3.457 2.843-3.429 3.429-5.359 7.754-5.972 12.237l-0.057 0.449-2.471 23.586L770.33 902.8s-0.042 0.257-0.114 0.614c-0.257 2.329-1.243 4.586-3.014 6.372-3.743 3.728-9.529 4.1-13.714 1.171a3.528 3.528 0 0 0-0.158-0.092l-0.014-0.008-83.271-60.5-18.986-13.786c-4.995-3.683-11.3-4.955-17.127-3.76l-0.416 0.089 0.214-0.057-22.614 4.757c-31.9 6-65.057 9.186-99.114 9.186-248.529 0-450-167.9-450-375s201.471-375 450-375z m119.066 184.218c-7.029 7.029-8.072 17.7-3.286 25.915l70.457 122.257c14.514 25.228 15.129 56.285 1.857 82.014-0.957 1.843-2.043 3.643-3.143 5.429l-69.271 120 0.086 0.071c-4.772 8.2-3.715 18.857 3.3 25.871 8.371 8.372 21.928 8.372 30.3 0l0.012-0.007 0.002-0.007 0.014 0.014 152.9-152.9c20.914-20.914 20.914-54.842 0-75.757L661.383 281.02l-0.014-0.015c-8.372-8.371-21.929-8.371-30.3 0z m-192.858 0c-7.028 7.029-8.071 17.7-3.285 25.915l70.457 122.257c14.514 25.228 15.128 56.285 1.857 82.014-0.957 1.843-2.043 3.643-3.143 5.429l-69.271 120 0.085 0.071c-4.771 8.2-3.714 18.857 3.3 25.871 8.372 8.372 21.929 8.372 30.3 0l0.013-0.007 0.002-0.007 0.014 0.014 152.9-152.9c20.914-20.914 20.914-54.842 0-75.757L468.526 281.02l-0.015-0.015c-8.371-8.371-21.928-8.371-30.3 0z m-192.857 0c-7.028 7.029-8.071 17.7-3.285 25.915l70.457 122.257c14.514 25.228 15.128 56.285 1.857 82.014-0.957 1.843-2.043 3.643-3.143 5.429l-69.271 120 0.085 0.071c-4.771 8.2-3.714 18.857 3.3 25.871 8.372 8.372 21.929 8.372 30.3 0l0.013-0.007 0.002-0.007 0.014 0.014 0.014-0.014 152.886-152.886c20.914-20.914 20.914-54.842 0-75.757L275.669 281.02l-0.015-0.015c-8.371-8.371-21.928-8.371-30.3 0z" p-id="2480"></path></svg>