<?xml version="1.0" standalone="no"?><!DOCTYPE svg PUBLIC "-//W3C//DTD SVG 1.1//EN" "http://www.w3.org/Graphics/SVG/1.1/DTD/svg11.dtd"><svg t="1567069311651" class="icon" viewBox="0 0 1024 1024" version="1.1" xmlns="http://www.w3.org/2000/svg" p-id="1910" xmlns:xlink="http://www.w3.org/1999/xlink"  ><defs><style type="text/css"></style></defs><path d="M651.33 64l35.255 88.138c19.69 9.194 36.447 18.178 51.6 27.937l94.786-17.772 140.645 246.129-57.654 69.185c0.026 0.34 0.05 0.681 0.075 1.023 0.638 8.931 0.763 15.666 0.763 28.56 0 12.894-0.125 19.629-0.763 28.56-0.024 0.342-0.05 0.683-0.075 1.023l57.654 69.185-137.825 241.194-93.424-5.84c-17.667 12.05-37.12 23.084-56.308 31.856L651.33 960H372.67l-35.255-88.138c-19.69-9.194-36.447-18.178-51.6-27.937l-94.786 17.772L50.384 615.568 112 541.628V509.89c0.011-13.461 0.134-19.716 0.715-27.62l-57.531-69.037 140.645-246.13 94.54 17.727c15.716-10.43 32.69-20.01 49.537-27.895L368.948 64H651.33z m-86.66 128H463.052l-19.736 63.157-31.077 10.359c-20.523 6.84-47.562 21.983-66.659 37.26l-22.922 18.338-60.887-11.417-51.355 89.871 42.374 50.849-11.274 33.822c-1.11 3.329-1.5 8.182-1.516 26.615v77.117l-34.384 41.26 51.355 89.872 60.887-11.417 22.922 18.338c16.27 13.015 37.57 24.553 71.63 39.15l24.367 10.443L459.33 832h105.34l23.732-59.33 28.16-9.386c20.522-6.84 47.561-21.983 66.658-37.26l19.302-15.441 61.687 3.855 54.175-94.806-42.374-50.849 11.265-33.796c-0.005 0.01 0.013-0.063 0.047-0.203 0.1-0.422 0.21-0.977 0.324-1.656 0.286-1.719 0.531-3.896 0.717-6.488 0.352-4.929 0.437-9.534 0.437-19.44 0-16.666-0.595-25-1.516-27.761l-11.274-33.822 42.374-50.849-51.355-89.87-60.887 11.416-22.922-18.338c-16.27-13.015-37.57-24.553-71.63-39.15l-24.367-10.443L564.67 192zM512 320c106.039 0 192 85.961 192 192s-85.961 192-192 192-192-85.961-192-192 85.961-192 192-192z m0 128c-35.346 0-64 28.654-64 64 0 35.346 28.654 64 64 64 35.346 0 64-28.654 64-64 0-35.346-28.654-64-64-64z" p-id="1911"></path></svg>