<?xml version="1.0" standalone="no"?><!DOCTYPE svg PUBLIC "-//W3C//DTD SVG 1.1//EN" "http://www.w3.org/Graphics/SVG/1.1/DTD/svg11.dtd"><svg t="1570529189271" class="icon" viewBox="0 0 1024 1024" version="1.1" xmlns="http://www.w3.org/2000/svg" p-id="3200" xmlns:xlink="http://www.w3.org/1999/xlink"  ><defs><style type="text/css"></style></defs><path d="M1024 128v768H0V128h1024zM896 256H128v512h768V256zM352 545c87.482 0 158.566 70.209 159.979 157.354L512 705H192c0-88.366 71.634-160 160-160z m429 31v128H576V576h205zM352 320c53.02 0 96 42.98 96 96s-42.98 96-96 96-96-42.98-96-96 42.98-96 96-96z m480 64v128H576V384h256z" p-id="3201"></path></svg>