<?xml version="1.0" standalone="no"?><!DOCTYPE svg PUBLIC "-//W3C//DTD SVG 1.1//EN" "http://www.w3.org/Graphics/SVG/1.1/DTD/svg11.dtd"><svg t="1573701629642" class="icon" viewBox="0 0 1024 1024" version="1.1" xmlns="http://www.w3.org/2000/svg" p-id="1462" xmlns:xlink="http://www.w3.org/1999/xlink"  ><defs><style type="text/css"></style></defs><path d="M512 0c282.77 0 512 229.23 512 512s-229.23 512-512 512S0 794.77 0 512 229.23 0 512 0z m-59.847 301.922C371.866 301.922 162 480.76 162 594.023c0 113.265 140.13 205.088 312.986 205.088 172.86 0 311.652-91.824 311.652-205.088 0-95.685-117.984-95.685-117.984-101.861 0-6.176 58.747-61.765 0-96.358-58.749-34.588-166.217 18-162.997 12.353 46.222-80.744-19.829-106.235-53.504-106.235z m212.703 274.254c10.25 72.903-70.97 144.586-181.415 160.108-110.428 15.521-208.264-30.999-218.51-103.901-10.247-72.908 70.972-144.592 181.405-160.113 110.447-15.52 208.27 30.998 218.52 103.906zM423.92 515.111c-65.684 12.766-110.171 68.181-99.367 123.776 10.809 55.59 72.815 90.306 138.496 77.54 65.683-12.771 110.18-68.188 99.371-123.781-10.805-55.59-72.81-90.306-138.5-77.535z m18.22 101.253c7.17 15.402-3.386 35.525-23.607 44.95-20.215 9.424-42.424 4.587-49.603-10.81-7.18-15.402 3.386-35.524 23.601-44.948 20.216-9.43 42.426-4.588 49.609 10.808z m22.749-42.851c11.16 0 20.202 9.186 20.202 20.51-0.001 11.328-9.043 20.509-20.202 20.509-11.145 0-20.185-9.183-20.185-20.509 0-11.325 9.038-20.51 20.185-20.51z m183.417-349.084c-12.074 0.244-21.863 10.241-21.863 22.421v10.854c0 12.14 9.744 21.415 22.173 21.202 0 0 94.234-10.002 134.373 48.507 40.133 58.51 22.793 131.928 22.793 131.928-1.842 11.985 6.476 21.702 18.742 21.702h9.363c12.193 0 23.468-9.686 24.781-21.782 0.002 0 21.615-115.338-45.276-179.575-66.891-64.24-165.086-55.257-165.086-55.257z m12.808 100.774c-7.996 1.22-14.486 8.804-14.486 16.865v5.724c0 8.098 6.478 14.172 14.843 13.929 0 0 40.019-5.445 59.484 18.023 19.461 23.474 4.224 61.434 4.224 61.434-2.339 7.69 2.432 13.92 10.423 13.92h13.267c8.098 0 15.948-6.347 17.256-14.502 0 0 15.637-60.852-20.846-94.205-36.486-33.355-84.165-21.188-84.165-21.188z" p-id="1463"></path></svg>