<svg xmlns="http://www.w3.org/2000/svg"   viewBox="0 0 1024 1024">
    <g fill="none" fill-rule="evenodd">
        <path fill="#000" fill-rule="nonzero" d="M881.941 142.059c18.745 18.745 18.745 49.137 0 67.882L579.883 512l302.058 302.059c18.558 18.558 18.743 48.53.557 67.316l-.557.566c-18.745 18.745-49.137 18.745-67.882 0L512 579.883 209.941 881.941c-18.745 18.745-49.137 18.745-67.882 0-18.745-18.745-18.745-49.137 0-67.882L444.117 512 142.059 209.941c-18.558-18.558-18.743-48.53-.557-67.316l.557-.566c18.745-18.745 49.137-18.745 67.882 0L512 444.117l302.059-302.058c18.745-18.745 49.137-18.745 67.882 0z"/>
    </g>
</svg>
