<?xml version="1.0" standalone="no"?><!DOCTYPE svg PUBLIC "-//W3C//DTD SVG 1.1//EN" "http://www.w3.org/Graphics/SVG/1.1/DTD/svg11.dtd"><svg t="1596792923717" class="icon" viewBox="0 0 1024 1024" version="1.1" xmlns="http://www.w3.org/2000/svg" p-id="1081" xmlns:xlink="http://www.w3.org/1999/xlink"  ><defs><style type="text/css"></style></defs><path d="M512 42.667c259.206 0 469.333 210.127 469.333 469.333S771.206 981.333 512 981.333 42.667 771.206 42.667 512 252.794 42.667 512 42.667z m0 64c-223.86 0-405.333 181.474-405.333 405.333 0 223.86 181.474 405.333 405.333 405.333 151.333 0 283.296-82.934 352.919-205.831L626.786 579.287c-36.053-20.017-49.053-65.471-29.036-101.524a74.658 74.658 0 0 1 28.315-28.63l239.083-136.23C795.586 189.784 663.5 106.668 512 106.668z m380.193 264.488L657.75 504.739a10.666 10.666 0 0 0-4.045 4.09c-2.86 5.15-1.002 11.644 4.148 14.504L892.01 653.339C908.385 609.33 917.333 561.71 917.333 512c0-49.525-8.882-96.975-25.14-140.845z" p-id="1082"></path></svg>