<?xml version="1.0" standalone="no"?><!DOCTYPE svg PUBLIC "-//W3C//DTD SVG 1.1//EN" "http://www.w3.org/Graphics/SVG/1.1/DTD/svg11.dtd"><svg t="1567069339908" class="icon" viewBox="0 0 1024 1024" version="1.1" xmlns="http://www.w3.org/2000/svg" p-id="2918" xmlns:xlink="http://www.w3.org/1999/xlink"  ><defs><style type="text/css"></style></defs><path d="M512 192c247.424 0 448 143.269 448 320S759.424 832 512 832 64 688.731 64 512s200.576-320 448-320z m0 128c-176.731 0-320 85.961-320 192s143.269 192 320 192 320-85.961 320-192-143.269-192-320-192z m0 128c70.692 0 128 28.654 128 64 0 35.346-57.308 64-128 64-70.692 0-128-28.654-128-64 0-35.346 57.308-64 128-64z" p-id="2919"></path></svg>