<?xml version="1.0" standalone="no"?><!DOCTYPE svg PUBLIC "-//W3C//DTD SVG 1.1//EN" "http://www.w3.org/Graphics/SVG/1.1/DTD/svg11.dtd"><svg t="1573701650019" class="icon" viewBox="0 0 1024 1024" version="1.1" xmlns="http://www.w3.org/2000/svg" p-id="1801" xmlns:xlink="http://www.w3.org/1999/xlink"  ><defs><style type="text/css"></style></defs><path d="M576 64v896L192 704H64V320h128L576 64z m298.039 85.961C966.692 242.615 1024 370.615 1024 512c0 141.384-57.307 269.384-149.96 362.038l-90.511-90.509C853.019 714.039 896 618.039 896 512c0-104.978-42.125-200.118-110.394-269.436l-2.077-2.093 90.51-90.51zM738.275 285.727C796.183 343.635 832 423.635 832 512c0 88.366-35.817 168.366-93.726 226.274l-90.51-90.51C682.51 613.02 704 565.02 704 512c0-52.489-21.062-100.058-55.196-134.717l-1.039-1.047 90.51-90.51z" p-id="1802"></path></svg>