<?xml version="1.0" standalone="no"?><!DOCTYPE svg PUBLIC "-//W3C//DTD SVG 1.1//EN" "http://www.w3.org/Graphics/SVG/1.1/DTD/svg11.dtd"><svg t="1572510390887" class="icon" viewBox="0 0 1024 1024" version="1.1" xmlns="http://www.w3.org/2000/svg" p-id="1584" xmlns:xlink="http://www.w3.org/1999/xlink"  ><defs><style type="text/css"></style></defs><path d="M582.4 793.912l-256-140.855c-38.4 32.012-83.2 51.22-134.4 51.22-108.8 0-192-83.233-192-192.076 0-108.843 83.2-192.075 192-192.075 57.6 0 102.4 25.61 140.8 57.622L640 224.088v-32.013C640 83.233 723.2 0 832 0s192 83.233 192 192.075c0 108.843-83.2 192.076-192 192.076-51.2 0-96-19.208-128-51.22L384 499.396v32.013l262.4 147.258c32-25.61 76.8-44.818 121.6-44.818 108.8 0 192 83.233 192 192.076C960 934.767 876.8 1018 768 1018s-192-83.233-192-192.075c0-6.403 0-19.208 6.4-32.013zM192 577c38.4 0 64-25.6 64-64s-25.6-64-64-64-64 25.6-64 64 25.6 64 64 64z m641-320c38.4 0 64-25.6 64-64s-25.6-64-64-64-64 25.6-64 64 25.6 64 64 64z m-65 639c38.4 0 64-25.6 64-64s-25.6-64-64-64-64 25.6-64 64 25.6 64 64 64z" p-id="1585"></path></svg>