<?xml version="1.0" standalone="no"?><!DOCTYPE svg PUBLIC "-//W3C//DTD SVG 1.1//EN" "http://www.w3.org/Graphics/SVG/1.1/DTD/svg11.dtd"><svg t="1570529155684" class="icon" viewBox="0 0 1024 1024" version="1.1" xmlns="http://www.w3.org/2000/svg" p-id="2183" xmlns:xlink="http://www.w3.org/1999/xlink"  ><defs><style type="text/css"></style></defs><path d="M571.448 832.001l74.236 73.813C611.115 939.353 563.969 960 512 960c-82.761 0-153.293-52.364-180.27-125.768l-0.804-2.23L571.448 832zM921.165 543.86l90.51 90.51-277.31 269.369-167.161-166.21 90.458-90.562 76.651 75.804L921.165 543.86zM576 0l0.004 70.402C722.065 100.052 832 229.188 832 384v156.628l-96.966 92.845L704 602.781V384c0-106.039-85.961-192-192-192s-192 85.961-192 192v256h254.162l-97.57 97.683L507.08 768H64V640h128V384c0-154.812 109.935-283.948 255.997-313.598L448 0h128z" p-id="2184"></path></svg>