<?xml version="1.0" standalone="no"?><!DOCTYPE svg PUBLIC "-//W3C//DTD SVG 1.1//EN" "http://www.w3.org/Graphics/SVG/1.1/DTD/svg11.dtd"><svg t="1567069304346" class="icon" viewBox="0 0 1024 1024" version="1.1" xmlns="http://www.w3.org/2000/svg" p-id="1686" xmlns:xlink="http://www.w3.org/1999/xlink"  ><defs><style type="text/css"></style></defs><path d="M960 512c0 176.731-200.576 320-448 320-70.676 0-137.53-11.69-196.978-32.51l103.763-103.763C448.278 701.107 479.575 704 512 704c176.731 0 320-85.961 320-192 0-53.02-35.817-101.02-93.726-135.765l90.51-90.51C909.856 343.636 960 423.636 960 512zM512 192c70.677 0 137.53 11.69 196.98 32.511L605.215 328.274C575.723 322.894 544.425 320 512 320c-176.731 0-320 85.961-320 192 0 53.02 35.818 101.02 93.727 135.765l-90.51 90.51C114.143 680.364 64 600.364 64 512c0-176.731 200.576-320 448-320z m128 320c0 30.527-42.747 56.063-99.945 62.458l88.713-88.714C635.984 493.756 640 502.644 640 512z m-156.054-62.458l-88.713 88.715C388.016 530.245 384 521.357 384 512c0-30.528 42.748-56.063 99.946-62.458z" p-id="1687"></path></svg>