<?xml version="1.0" standalone="no"?><!DOCTYPE svg PUBLIC "-//W3C//DTD SVG 1.1//EN" "http://www.w3.org/Graphics/SVG/1.1/DTD/svg11.dtd"><svg t="1596792933419" class="icon" viewBox="0 0 1024 1024" version="1.1" xmlns="http://www.w3.org/2000/svg" p-id="1213" xmlns:xlink="http://www.w3.org/1999/xlink"  ><defs><style type="text/css"></style></defs><path d="M512 42.667c259.206 0 469.333 210.127 469.333 469.333S771.206 981.333 512 981.333 42.667 771.206 42.667 512 252.794 42.667 512 42.667z m0 64c-223.86 0-405.333 181.474-405.333 405.333 0 223.86 181.474 405.333 405.333 405.333 223.86 0 405.333-181.474 405.333-405.333 0-223.86-181.474-405.333-405.333-405.333z m182.262 229.969a25.6 25.6 0 0 1 0 20.169L561.295 667.06c-5.57 12.996-20.619 19.016-33.614 13.446a25.598 25.598 0 0 1-13.221-12.937l-47.458-104.407a25.604 25.604 0 0 0-12.712-12.712l-104.408-47.458c-12.871-5.85-18.562-21.028-12.712-33.899a25.598 25.598 0 0 1 13.221-12.937L660.648 323.19c12.995-5.57 28.045 0.45 33.614 13.446z m-96.641 83.196L455.546 480.72l25.227 11.466a89.598 89.598 0 0 1 44.492 44.492l11.467 25.227 60.889-142.074z" p-id="1214"></path></svg>