<?xml version="1.0" standalone="no"?><!DOCTYPE svg PUBLIC "-//W3C//DTD SVG 1.1//EN" "http://www.w3.org/Graphics/SVG/1.1/DTD/svg11.dtd"><svg t="1572510372689" class="icon" viewBox="0 0 1024 1024" version="1.1" xmlns="http://www.w3.org/2000/svg" p-id="1245" xmlns:xlink="http://www.w3.org/1999/xlink"  ><defs><style type="text/css"></style></defs><path d="M1024 192v640H0V192h1024z m-32 32H32v576h960V224zM442.394 434.021v73.658h-29.578l-10.756 19.182h89.886v32.225H254.171a854.072 854.072 0 0 1-1.536 6.778l-3.073 12.787h67.99c-0.768 47.571-4.993 76.344-13.444 85.55-8.835 9.208-23.816 14.195-44.943 14.195-3.073 0-6.53-0.191-10.275-0.48l-12.004-1.054-8.451-32.225c4.61 0.383 8.739 0.767 12.484 1.15l10.18 1.151c12.291 0 19.974-1.918 23.047-5.754 2.305-2.877 3.745-8.992 4.646-18.343l0.732-10.43h-41.486c-2.689 6.138-5.378 11.51-8.067 16.113-13.06 19.949-32.266 38.363-57.619 54.476l-23.431-30.307c20.742-11.893 36.492-25.32 47.247-40.282h-37.26v-33.76h53.01c1.92-6.521 3.84-13.043 5.377-19.565H147v-32.225h93.343l-8.45-19.182H195.4v-73.658h246.994z m309.99 163.429c39.95 14.194 76.441 31.458 109.476 51.407l-21.895 33.76c-34.571-23.402-70.68-41.817-107.94-55.244z m-104.867 0.767l28.426 24.936c-29.962 22.25-66.07 42.2-108.708 59.08l-24.968-31.842c41.485-14.962 76.825-32.225 105.25-52.174z m-180.54-23.786v106.267H430.87v-13.81h-60.692v13.81H334.07V574.431h132.908z m-36.107 31.075h-60.692v29.923h60.692v-29.923zM787.34 396.04l20.358 33.377c-50.704 9.974-107.94 17.263-171.32 21.483v19.182H831.13v36.829h-49.552v47.57H873v37.98H534.968v-37.98h62.613V419.443c70.68-1.534 134.06-9.207 189.759-23.402z m-44.559 110.87H636.378v47.571H742.78v-47.57z m-372.22 0.768h-96.415l8.45 19.182h77.21l10.756-19.182z m34.572-44.885H232.66v15.729h172.473v-15.73zM711.283 322c3.84 8.44 7.298 17.264 10.755 27.238H864.55v79.796h-40.717v-44.118H583.368v44.118h-40.717v-79.796h135.98c-3.84-7.289-7.682-14.194-11.907-20.333L711.283 322z m-372.22 2.685v19.566H477.35v31.458H339.063v14.578H464.29v30.69H175.425v-30.69h124.458v-14.578H161.98V344.25h137.902v-19.566h39.18z" p-id="1246"></path></svg>