<?xml version="1.0" standalone="no"?><!DOCTYPE svg PUBLIC "-//W3C//DTD SVG 1.1//EN" "http://www.w3.org/Graphics/SVG/1.1/DTD/svg11.dtd"><svg t="1568797963229" class="icon" viewBox="0 0 1024 1024" version="1.1" xmlns="http://www.w3.org/2000/svg" p-id="1016" xmlns:xlink="http://www.w3.org/1999/xlink"  ><defs><style type="text/css"></style></defs><path d="M150.478049 474.536585C150.478049 267.613659 318.189268 99.902439 525.112195 99.902439s374.634146 167.71122 374.634146 374.634146-167.71122 374.634146-374.634146 374.634147-374.634146-167.71122-374.634146-374.634147z m241.014634-126.57639L525.112195 478.907317l4.470634-4.370732-4.470634-4.370731-133.619512 130.872195-13.112195-13.386927-0.274732 26.549073-4.470634 4.345756 4.420683 0.049951-0.049951 4.370732 4.395707-4.32078 26.574049 0.274731-13.137171-13.436878L525.112195 478.932293l129.273756 126.626341-13.137171 13.436878 26.574049-0.274732 4.395708 4.295805-0.049952-4.345756 4.420683-0.049951-4.470634-4.370732-0.274732-26.524097-13.112195 13.386927L529.582829 474.536585l129.123903-126.526439 13.13717 13.411903 0.274732-26.549073 4.470634-4.345756-4.420683-0.049952 0.049952-4.370731-4.395708 4.32078-26.574049-0.274732 13.137171 13.436878L525.112195 470.140878l-129.273756-126.626341 13.137171-13.436878-26.574049 0.274731-4.395707-4.295805 0.049951 4.345756-4.420683 0.049952 4.470634 4.370731 0.274732 26.524098 13.112195-13.386927z" p-id="1017"></path></svg>