<svg xmlns="http://www.w3.org/2000/svg"   viewBox="0 0 1024 1024">
    <g fill="none" fill-rule="evenodd">
        <path fill="#000" fill-rule="nonzero" d="M-2 123.62C-2 53.137 55.249-4 125.62-4h768.76C964.863-4 1022 53.249 1022 123.62v768.76c0 70.483-57.249 127.62-127.62 127.62H125.62C55.137 1020-2 962.751-2 892.38V123.62zm64 0v768.76C62 927.452 90.53 956 125.62 956h768.76c35.072 0 63.62-28.53 63.62-63.62V123.62C958 88.548 929.47 60 894.38 60H125.62C90.548 60 62 88.53 62 123.62z"/>
    </g>
</svg>
