<?xml version="1.0" standalone="no"?><!DOCTYPE svg PUBLIC "-//W3C//DTD SVG 1.1//EN" "http://www.w3.org/Graphics/SVG/1.1/DTD/svg11.dtd"><svg t="1585815466832" class="icon" viewBox="0 0 1024 1024" version="1.1" xmlns="http://www.w3.org/2000/svg" p-id="809" xmlns:xlink="http://www.w3.org/1999/xlink"  ><defs><style type="text/css"></style></defs><path d="M960 64v768H288L64 960V64h896zM832 192H192v547.432L254.008 704H832V192zM307 366c40.317 0 73 32.683 73 73s-32.683 73-73 73-73-32.683-73-73 32.683-73 73-73z m205 0c40.317 0 73 32.683 73 73s-32.683 73-73 73-73-32.683-73-73 32.683-73 73-73z m205 0c40.317 0 73 32.683 73 73s-32.683 73-73 73-73-32.683-73-73 32.683-73 73-73z" p-id="810"></path></svg>