<?xml version="1.0" standalone="no"?><!DOCTYPE svg PUBLIC "-//W3C//DTD SVG 1.1//EN" "http://www.w3.org/Graphics/SVG/1.1/DTD/svg11.dtd"><svg t="1599477282040" class="icon" viewBox="0 0 1024 1024" version="1.1" xmlns="http://www.w3.org/2000/svg" p-id="926" xmlns:xlink="http://www.w3.org/1999/xlink"  ><defs><style type="text/css"></style></defs><path d="M665.6 51.2c56.554 0 102.4 45.846 102.4 102.4V256h115.2c21.208 0 38.4 17.192 38.4 38.4s-17.192 38.4-38.4 38.4h-38.4v537.6c0 56.554-45.846 102.4-102.4 102.4H281.6c-56.554 0-102.4-45.846-102.4-102.4V332.8h-38.4c-21.208 0-38.4-17.192-38.4-38.4s17.192-38.4 38.4-38.4H256V153.6c0-56.554 45.846-102.4 102.4-102.4h307.2zM768 332.8H256v537.6c0 14.138 11.462 25.6 25.6 25.6h460.8c14.138 0 25.6-11.462 25.6-25.6V332.8zM422.4 435.2c21.208 0 38.4 17.192 38.4 38.4v256c0 21.208-17.192 38.4-38.4 38.4S384 750.808 384 729.6v-256c0-21.208 17.192-38.4 38.4-38.4z m179.2 0c21.208 0 38.4 17.192 38.4 38.4v256c0 21.208-17.192 38.4-38.4 38.4s-38.4-17.192-38.4-38.4v-256c0-21.208 17.192-38.4 38.4-38.4z m64-307.2H358.4c-14.138 0-25.6 11.462-25.6 25.6V256h358.4V153.6c0-14.138-11.462-25.6-25.6-25.6z" p-id="927"></path></svg>