<?xml version="1.0" standalone="no"?><!DOCTYPE svg PUBLIC "-//W3C//DTD SVG 1.1//EN" "http://www.w3.org/Graphics/SVG/1.1/DTD/svg11.dtd"><svg t="1572311931929" class="icon" viewBox="0 0 1024 1024" version="1.1" xmlns="http://www.w3.org/2000/svg" p-id="1348" xmlns:xlink="http://www.w3.org/1999/xlink"  ><defs><style type="text/css"></style></defs><path d="M599.391 85.333c82.658 0 141.586 80.491 116.923 159.702l-27.978 89.941c-4.29 13.739 5.949 27.69 20.288 27.69h157.794c46.438 0 80.809 43.393 70.379 88.854l-94.129 409.6c-7.562 32.896-36.73 56.213-70.379 56.213H350.868c-28.849 0-52.195-23.466-52.195-52.416V415.083c0-28.95 23.346-52.416 52.195-52.416 39.618 0 75.838-22.486 93.554-58.07l88.67-178.112c12.575-25.216 38.237-41.152 66.3-41.152zM170.667 362.667C217.792 362.667 256 400.875 256 448v384c0 47.125-38.208 85.333-85.333 85.333-47.126 0-85.334-38.208-85.334-85.333V448c0-47.125 38.208-85.333 85.334-85.333zM599.39 149.333c-3.972 0-7.52 2.219-9.283 5.782l-88.69 178.112c-26.958 54.144-79.513 89.024-139.015 93.056v427.05h409.886c3.973 0 7.372-2.709 8.264-6.613l94.129-409.6c0.616-2.667 0.085-5.099-1.615-7.232s-3.951-3.221-6.649-3.221H708.624c-26.937 0-52.535-13.014-68.467-34.795-15.954-21.781-20.69-50.197-12.66-75.99l27.998-89.94c5.629-18.113 2.443-37.27-8.753-52.545-11.195-15.296-28.444-24.064-47.35-24.064zM170.667 426.667c-11.776 0-21.334 9.578-21.334 21.333v384c0 11.755 9.558 21.333 21.334 21.333S192 843.755 192 832V448c0-11.755-9.557-21.333-21.333-21.333z" p-id="1349"></path></svg>