<?xml version="1.0" standalone="no"?><!DOCTYPE svg PUBLIC "-//W3C//DTD SVG 1.1//EN" "http://www.w3.org/Graphics/SVG/1.1/DTD/svg11.dtd"><svg t="1572311946880" class="icon" viewBox="0 0 1024 1024" version="1.1" xmlns="http://www.w3.org/2000/svg" p-id="1574" xmlns:xlink="http://www.w3.org/1999/xlink"  ><defs><style type="text/css"></style></defs><path d="M492.145 789.105L300.115 890.06c-20.858 10.966-46.655 2.947-57.62-17.91a42.667 42.667 0 0 1-4.287-27.068l36.674-213.83a42.667 42.667 0 0 0-12.27-37.765L107.254 442.054c-16.874-16.448-17.219-43.461-0.77-60.335a42.667 42.667 0 0 1 24.417-12.442l214.697-31.197a42.667 42.667 0 0 0 32.125-23.34l96.015-194.549c10.429-21.13 36.013-29.806 57.144-19.378a42.667 42.667 0 0 1 19.378 19.378l96.015 194.549a42.667 42.667 0 0 0 32.125 23.34l214.697 31.197c23.32 3.389 39.476 25.04 36.088 48.359a42.667 42.667 0 0 1-12.441 24.418L761.389 593.488a42.667 42.667 0 0 0-12.271 37.766l36.674 213.83c3.984 23.224-11.615 45.28-34.84 49.264a42.667 42.667 0 0 1-27.067-4.287l-192.03-100.956a42.667 42.667 0 0 0-39.71 0z m-183.551 24.193l153.77-80.842a106.667 106.667 0 0 1 99.272 0l153.77 80.842-29.367-171.225a106.667 106.667 0 0 1 30.677-94.414l124.402-121.263-171.92-24.981a106.667 106.667 0 0 1-80.313-58.351L512 187.278l-76.885 155.786a106.667 106.667 0 0 1-80.313 58.35l-171.92 24.982L307.284 547.66a106.667 106.667 0 0 1 30.677 94.414l-29.367 171.225z" p-id="1575"></path></svg>