<svg xmlns="http://www.w3.org/2000/svg"   viewBox="0 0 1024 1024">
    <g fill="none" fill-rule="evenodd">
        <g fill="#000">
            <path d="M192.464 328.228L556.8 692.563 556.8 960 272.977 699.498H72.938v-371.27h119.526zM149.961 82.08l791.96 791.96-67.882 67.882-791.96-791.96 67.882-67.882zm658.366 79.453c138.069 199.836 162.25 395.673 72.1 583.12l-48.305-48.304c67.868-158.092 44.014-320.809-71.935-491.84l-4.514-6.596 52.654-36.38zM701.68 321.177c72.088 96.964 88.681 196.407 49.779 294.513l-50.542-50.54c17.777-67.39 1.671-134.136-48.317-202.69l-2.28-3.098 51.36-38.185zM556.8 64.405v356.63L371.971 236.208 556.8 64.405z"/>
        </g>
    </g>
</svg>
