<svg xmlns="http://www.w3.org/2000/svg"   viewBox="0 0 1024 1024">
    <g fill="none" fill-rule="evenodd">
        <g fill="#000">
            <path d="M512 64c247.45 0 448 200.55 448 448S759.45 960 512 960 64 759.45 64 512 264.55 64 512 64zm0 64c-212.104 0-384 171.896-384 384s171.896 384 384 384 384-171.896 384-384-171.896-384-384-384zM340.325 304.538L512 472.8l171.675-168.175 39.2 40.075L551.987 512l170.888 167.388-39.2 40.074L512 551.2 340.325 719.375l-39.2-40.075L472.012 512 301.125 344.613l39.2-40.075z"/>
        </g>
    </g>
</svg>
