<svg xmlns="http://www.w3.org/2000/svg"   viewBox="0 0 1024 1024">
    <g fill="none" fill-rule="evenodd">
        <g fill="#000">
            <path d="M512 64c247.45 0 448 200.55 448 448S759.45 960 512 960 64 759.45 64 512 264.55 64 512 64zm0 64c-212.104 0-384 171.896-384 384s171.896 384 384 384 384-171.896 384-384-171.896-384-384-384zm38.938 256v338.563h85.312v56.062h-224v-56.062h82.688v-282.5h-83.563V384h139.563zm-38.063-139.52c23.231 0 42 18.769 42 42s-18.769 42-42 42-42-18.769-42-42 18.769-42 42-42z"/>
        </g>
    </g>
</svg>
