<svg xmlns="http://www.w3.org/2000/svg"   viewBox="0 0 1024 1024">
    <g fill="none" fill-rule="evenodd">
        <g fill="#000">
            <path d="M64 512C64 264.55 264.55 64 512 64s448 200.55 448 448-200.55 448-448 448S64 759.45 64 512zm490.875 225.75c0-23.231-18.769-42-42-42s-42 18.769-42 42 18.769 42 42 42 42-18.769 42-42zm44.934-492.625H412.25v56.062h82.688v282.5h-83.563v56.063h139.563V301.187h85.312v-28.03-28.032h-36.441z" transform="matrix(1 0 0 -1 0 1024)"/>
        </g>
    </g>
</svg>
