<svg xmlns="http://www.w3.org/2000/svg"   viewBox="0 0 1024 1024">
    <g fill="none" fill-rule="evenodd">
        <g fill="#000">
            <path d="M512 64c247.45 0 448 200.55 448 448S759.45 960 512 960 64 759.45 64 512 264.55 64 512 64zm0 64c-212.104 0-384 171.896-384 384s171.896 384 384 384 384-171.896 384-384-171.896-384-384-384zm0 580c23.231 0 42 18.769 42 42 0 21.12-15.511 38.55-35.786 41.545L512 792c-21.12 0-38.55-15.511-41.545-35.786L470 750c0-21.12 15.511-38.55 35.786-41.545L512 708zm28-448v392h-56V260h56z"/>
        </g>
    </g>
</svg>
