<svg xmlns="http://www.w3.org/2000/svg"   viewBox="0 0 1024 1024">
    <g fill="none" fill-rule="evenodd">
        <g fill="#000">
            <path d="M512 64c247.45 0 448 200.55 448 448S759.45 960 512 960 64 759.45 64 512 264.55 64 512 64zm0 644l-6.214.455c-18.247 2.695-32.636 17.084-35.331 35.33L470 750l.455 6.214c2.695 18.247 17.084 32.636 35.33 35.331L512 792l6.214-.455C538.49 788.551 554 771.12 554 750c0-21.12-15.511-38.55-35.786-41.545L512 708zm28-448h-56v392h56V260z"/>
        </g>
    </g>
</svg>
