<?xml version="1.0" standalone="no"?><!DOCTYPE svg PUBLIC "-//W3C//DTD SVG 1.1//EN" "http://www.w3.org/Graphics/SVG/1.1/DTD/svg11.dtd"><svg class="icon"   viewBox="0 0 1024 1024" version="1.1" xmlns="http://www.w3.org/2000/svg"><path fill="#333333" d="M633.728 469.312a438.848 438.848 0 0 1 312.256 355.584c5.12 33.856-2.56 74.496-24.96 101.376-23.616 28.48-55.744 37.76-101.568 37.76H173.248c-36.544 0-81.92-37.12-91.712-71.36-6.656-23.296-6.4-50.432-0.832-80.896a438.848 438.848 0 0 1 292.48-336.96 232.512 232.512 0 1 1 260.48-5.44z m-134.272-23.68a166.08 166.08 0 1 0 0-332.16 166.08 166.08 0 0 0 0 332.16z m-346.88 379.264c-3.648 20.352-3.84 36.928-0.768 47.68 1.088 3.84 18.752 18.304 21.44 18.304h646.208c26.176 0 39.04-3.712 45.376-11.328 7.296-8.768 11.072-28.8 8.832-43.712a365.632 365.632 0 0 0-721.024-10.944z" /></svg>