<?xml version="1.0" standalone="no"?><!DOCTYPE svg PUBLIC "-//W3C//DTD SVG 1.1//EN" "http://www.w3.org/Graphics/SVG/1.1/DTD/svg11.dtd"><svg class="icon"   viewBox="0 0 1024 1024" version="1.1" xmlns="http://www.w3.org/2000/svg"><path fill="#333333" d="M160.192 434.88a32 32 0 0 1-62.144-10.88V201.024a32 32 0 0 1 64 0v83.904a416 416 0 0 1 739.584 135.232 32 32 0 1 1-61.76 16.64 352 352 0 0 0-678.912-4.416 32.448 32.448 0 0 1-0.768 2.496z m749.504 164.544a32.256 32.256 0 0 1 0.32 4.48v222.976a32 32 0 0 1-64 0v-68.224a415.424 415.424 0 0 1-238.528 171.008c-221.888 59.52-457.984-82.816-516.16-323.904a32.256 32.256 0 0 1 22.656-39.168c17.024-4.608 35.52 5.312 39.168 22.592 44.096 210.624 249.984 328.96 437.76 278.656a352 352 0 0 0 255.616-278.656 32 32 0 0 1 63.168 10.24z m-264.512-204.032a31.488 31.488 0 1 1-59.712 19.968c-7.488-22.4-34.432-48.512-85.632-48.512-42.432 0-67.584 28.544-70.528 56.704-3.584 34.624 25.92 62.784 76.992 73.472 102.08 21.376 132.032 89.6 126.656 141.632-5.632 54.4-47.232 97.344-101.632 109.568v39.424a31.488 31.488 0 0 1-62.976 0v-38.336c-64.896-10.432-101.632-52.352-113.856-88.96a31.488 31.488 0 1 1 59.712-20.032c7.488 22.4 34.432 48.512 85.632 48.512 42.432 0 67.584-28.544 70.464-56.704 3.584-34.56-25.856-62.72-76.928-73.472-102.08-21.376-132.032-89.6-126.72-141.632 5.696-54.4 47.36-97.344 101.696-109.568v-39.424a31.488 31.488 0 0 1 62.976 0v38.4c64.896 10.368 101.568 52.352 113.856 88.96z" /></svg>