<?xml version="1.0" standalone="no"?><!DOCTYPE svg PUBLIC "-//W3C//DTD SVG 1.1//EN" "http://www.w3.org/Graphics/SVG/1.1/DTD/svg11.dtd"><svg class="icon"   viewBox="0 0 1024 1024" version="1.1" xmlns="http://www.w3.org/2000/svg"><path fill="#333333" d="M938.666667 128v768a42.666667 42.666667 0 0 1-85.333334 0V128a42.666667 42.666667 0 1 1 85.333334 0zM170.666667 128v768a42.666667 42.666667 0 0 1-85.333334 0V128a42.666667 42.666667 0 1 1 85.333334 0z m384 0v768a42.666667 42.666667 0 0 1-85.333334 0V128a42.666667 42.666667 0 1 1 85.333334 0z"  /><path fill="#333333" d="M708.096 376.234667l-331.861333 331.861333a42.666667 42.666667 0 0 1-60.330667-60.330667l331.861333-331.861333a42.666667 42.666667 0 1 1 60.330667 60.330667z"  /><path fill="#333333" d="M647.765333 708.096L315.904 376.234667a42.666667 42.666667 0 0 1 60.330667-60.330667l331.861333 331.861333a42.666667 42.666667 0 1 1-60.330667 60.330667z"  /></svg>