<?xml version="1.0" standalone="no"?><!DOCTYPE svg PUBLIC "-//W3C//DTD SVG 1.1//EN" "http://www.w3.org/Graphics/SVG/1.1/DTD/svg11.dtd"><svg class="icon"   viewBox="0 0 1024 1024" version="1.1" xmlns="http://www.w3.org/2000/svg"><path fill="#333333" d="M725.333333 213.333333h169.770667a21.333333 21.333333 0 0 1 0 42.666667h-64.256v593.109333a85.333333 85.333333 0 0 1-85.333333 85.333334h-469.333334a85.333333 85.333333 0 0 1-85.333333-85.333334V256H84.437333a21.333333 21.333333 0 0 1 0-42.666667H298.666667v-38.016a85.333333 85.333333 0 0 1 85.333333-85.333333h256a85.333333 85.333333 0 0 1 85.333333 85.333333V213.333333z m-42.666666 0v-38.016a42.666667 42.666667 0 0 0-42.666667-42.666666H384a42.666667 42.666667 0 0 0-42.666667 42.666666V213.333333h341.333334zM233.514667 849.109333a42.666667 42.666667 0 0 0 42.666666 42.666667h469.333334a42.666667 42.666667 0 0 0 42.666666-42.666667V256.341333h-554.666666v592.768zM384 704v-256a21.333333 21.333333 0 1 1 42.666667 0v256a21.333333 21.333333 0 1 1-42.666667 0z m213.333333 0v-256a21.333333 21.333333 0 1 1 42.666667 0v256a21.333333 21.333333 0 1 1-42.666667 0z" /></svg>