<?xml version="1.0" standalone="no"?><!DOCTYPE svg PUBLIC "-//W3C//DTD SVG 1.1//EN" "http://www.w3.org/Graphics/SVG/1.1/DTD/svg11.dtd"><svg class="icon"   viewBox="0 0 1024 1024" version="1.1" xmlns="http://www.w3.org/2000/svg"><path fill="#333333" d="M768 434.858667h86.272a21.333333 21.333333 0 0 1 22.741333 9.173333l81.962667 126.250667h1.024v272.426666a85.333333 85.333333 0 0 1-85.333333 85.333334h-725.333334a85.333333 85.333333 0 0 1-85.333333-85.333334v-270.293333l-0.896-0.597333 0.896-1.365334v-0.170666h0.085333l78.293334-120.533334a21.376 21.376 0 0 1 13.184-13.696 21.418667 21.418667 0 0 1 13.013333-1.28H256V128a42.666667 42.666667 0 0 1 42.666667-42.666667h426.666666a42.666667 42.666667 0 0 1 42.666667 42.666667v306.858667z m0 42.666666v92.757334h140.117333l-60.245333-92.757334H768z m-512-0.042666H175.232l-60.245333 92.8H256V477.44z m-149.333333 365.226666a42.666667 42.666667 0 0 0 42.666666 42.666667h725.333334a42.666667 42.666667 0 0 0 42.666666-42.666667v-229.76h-810.666666v229.76zM298.666667 128v440.448h426.666666V128H298.666667z m90.837333 76.373333h244.992a21.333333 21.333333 0 1 1 0 42.666667H389.546667a21.333333 21.333333 0 1 1 0-42.666667z m0 124.074667h244.992a21.333333 21.333333 0 1 1 0 42.666667H389.546667a21.333333 21.333333 0 1 1 0-42.666667z m0 124.074667h244.992a21.333333 21.333333 0 0 1 0 42.666666H389.546667a21.333333 21.333333 0 1 1 0-42.666666z" /></svg>