<?xml version="1.0" standalone="no"?><!DOCTYPE svg PUBLIC "-//W3C//DTD SVG 1.1//EN" "http://www.w3.org/Graphics/SVG/1.1/DTD/svg11.dtd"><svg class="icon"   viewBox="0 0 1024 1024" version="1.1" xmlns="http://www.w3.org/2000/svg"><path fill="#333333" d="M128 85.333333h768a42.666667 42.666667 0 0 1 0 85.333334H128a42.666667 42.666667 0 1 1 0-85.333334z m0 768h768a42.666667 42.666667 0 0 1 0 85.333334H128a42.666667 42.666667 0 0 1 0-85.333334z m0-384h768a42.666667 42.666667 0 0 1 0 85.333334H128a42.666667 42.666667 0 1 1 0-85.333334z"  /><path fill="#333333" d="M376.234667 315.904l331.861333 331.861333a42.666667 42.666667 0 0 1-60.330667 60.330667L315.904 376.234667a42.666667 42.666667 0 1 1 60.330667-60.330667z"  /><path fill="#333333" d="M708.096 376.234667l-331.861333 331.861333a42.666667 42.666667 0 0 1-60.330667-60.330667l331.861333-331.861333a42.666667 42.666667 0 1 1 60.330667 60.330667z"  /></svg>