<?xml version="1.0" standalone="no"?><!DOCTYPE svg PUBLIC "-//W3C//DTD SVG 1.1//EN" "http://www.w3.org/Graphics/SVG/1.1/DTD/svg11.dtd"><svg t="1564378773648" class="icon" viewBox="0 0 1024 1024" version="1.1" xmlns="http://www.w3.org/2000/svg" p-id="1411" xmlns:xlink="http://www.w3.org/1999/xlink"  ><defs><style type="text/css"></style></defs><path d="M891.999 754.5l-257.86-200.57-116.031 64.903a32.738 32.738 0 0 1-32.521-0.317L375.74 554.229 141.114 754.5h750.885z m46.468-46.85V383.703l-242.262 135.51L938.467 707.65z m-851.934 7.4l229.41-195.817-229.41-134.26V715.05zM21 327.774V197.75C21 179.663 35.67 165 53.767 165h917.466c18.097 0 32.767 14.663 32.767 32.75v589.5c0 18.087-14.67 32.75-32.767 32.75H53.767C35.67 820 21 805.337 21 787.25V327.774z m917.467-19.216V230.5H86.533v78.485l415.96 243.437 435.974-243.864z" p-id="1412"></path></svg>