<?xml version="1.0" standalone="no"?><!DOCTYPE svg PUBLIC "-//W3C//DTD SVG 1.1//EN" "http://www.w3.org/Graphics/SVG/1.1/DTD/svg11.dtd"><svg class="icon"   viewBox="0 0 1024 1024" version="1.1" xmlns="http://www.w3.org/2000/svg"><path fill="#333333" d="M810.666667 896v-768a42.666667 42.666667 0 0 1 85.333333 0v768a42.666667 42.666667 0 1 1-85.333333 0z m-682.666667 0v-768a42.666667 42.666667 0 0 1 85.333333 0v768a42.666667 42.666667 0 1 1-85.333333 0z"  /><path fill="#333333" d="M725.333333 554.666667m-42.666666 0l-384 0q-42.666667 0-42.666667-42.666667l0 0q0-42.666667 42.666667-42.666667l384 0q42.666667 0 42.666666 42.666667l0 0q0 42.666667-42.666666 42.666667Z"  /></svg>