<?xml version="1.0" standalone="no"?><!DOCTYPE svg PUBLIC "-//W3C//DTD SVG 1.1//EN" "http://www.w3.org/Graphics/SVG/1.1/DTD/svg11.dtd"><svg class="icon"   viewBox="0 0 1024 1024" version="1.1" xmlns="http://www.w3.org/2000/svg"><path fill="#333333" d="M386.816 438.144v174.784h32a32 32 0 1 1 0 64h-128a32 32 0 1 1 0-64h32v-174.72h-32a32 32 0 1 1 0-64h128a32 32 0 0 1 0 64h-32zM135.36 39.872h764.16c52.736 0 95.488 42.752 95.488 95.488v764.16c0 52.736-42.752 95.488-95.488 95.488H135.36a95.488 95.488 0 0 1-95.488-95.488V135.36c0-52.736 42.752-95.488 95.488-95.488z m-32.192 63.296v828.544h828.544V103.168H103.168z m414.272 541.76a32 32 0 1 1 64 0 32 32 0 0 1-64 0z m95.488 0a32 32 0 1 1 64 0 32 32 0 0 1-64 0z m95.552 0a32 32 0 1 1 64 0 32 32 0 0 1-64 0z" /></svg>