<?xml version="1.0" standalone="no"?><!DOCTYPE svg PUBLIC "-//W3C//DTD SVG 1.1//EN" "http://www.w3.org/Graphics/SVG/1.1/DTD/svg11.dtd"><svg class="icon"   viewBox="0 0 1024 1024" version="1.1" xmlns="http://www.w3.org/2000/svg"><path fill="#333333" d="M512.384 696a184 184 0 1 1 0-368 184 184 0 0 1 0 368z m0-64a120 120 0 1 0 0-240 120 120 0 0 0 0 240zM28.8 526.912a32 32 0 0 1 0-29.76C132.608 298.56 295.04 197.76 512 197.76c216.832 0 379.328 100.864 483.2 299.52a32 32 0 0 1 0 29.696c-104.64 198.592-267.072 299.392-483.2 299.392S133.44 725.504 28.8 526.912zM512 762.304c186.624 0 324.864-82.56 418.432-250.368C837.504 344.192 699.264 261.76 512 261.76 324.672 261.76 186.496 344.192 93.44 512c93.696 167.808 231.936 250.304 418.56 250.304z" /></svg>