<?xml version="1.0" standalone="no"?><!DOCTYPE svg PUBLIC "-//W3C//DTD SVG 1.1//EN" "http://www.w3.org/Graphics/SVG/1.1/DTD/svg11.dtd"><svg class="icon"   viewBox="0 0 1024 1024" version="1.1" xmlns="http://www.w3.org/2000/svg"><path fill="#333333" d="M758.272 724.8h117.504V128H360.256v83.52h334.08a64 64 0 0 1 64 64v449.28z m-462.08-513.28V128a64 64 0 0 1 64-64h515.584a64 64 0 0 1 64 64v596.8a64 64 0 0 1-64 64h-117.504V896a64 64 0 0 1-64 64H178.752a64 64 0 0 1-64-64V275.52a64 64 0 0 1 64-64h117.504z m-117.44 64V896h515.52V275.52H178.752zM288 374.656h300.544a32 32 0 0 1 0 64H288a32 32 0 1 1 0-64z m0 180.928h300.544a32 32 0 1 1 0 64H288a32 32 0 0 1 0-64z m0 180.992h300.544a32 32 0 1 1 0 64H288a32 32 0 1 1 0-64z" /></svg>