<?xml version="1.0" standalone="no"?><!DOCTYPE svg PUBLIC "-//W3C//DTD SVG 1.1//EN" "http://www.w3.org/Graphics/SVG/1.1/DTD/svg11.dtd"><svg class="icon"   viewBox="0 0 1024 1024" version="1.1" xmlns="http://www.w3.org/2000/svg"><path fill="#333333" d="M880.896 798.208h59.776V93.632h-704v60.352h560.128c46.4 0 84.096 37.632 84.096 84.096v560.128zM182.848 153.984v-32.896c0-44.864 36.352-81.28 81.216-81.28h649.728c44.8 0 81.216 36.416 81.216 81.28v649.728c0 44.8-36.352 81.216-81.216 81.216h-32.896v58.88c0 46.464-37.696 84.096-84.096 84.096H123.968a84.096 84.096 0 0 1-84.096-84.096V238.08c0-46.464 37.632-84.096 84.096-84.096h58.88z m-87.296 55.68v729.6h729.6v-729.6h-729.6z m332.8 332.8v-192a32 32 0 0 1 64 0v192h192a32 32 0 1 1 0 64h-192v192a32 32 0 1 1-64 0v-192h-192a32 32 0 1 1 0-64h192z" /></svg>