<?xml version="1.0" standalone="no"?><!DOCTYPE svg PUBLIC "-//W3C//DTD SVG 1.1//EN" "http://www.w3.org/Graphics/SVG/1.1/DTD/svg11.dtd"><svg class="icon"   viewBox="0 0 1024 1024" version="1.1" xmlns="http://www.w3.org/2000/svg"><path fill="#333333" d="M756.864 707.52l155.136-155.136a32 32 0 1 1 45.248 45.248l-155.136 155.136 159.616 159.616a32 32 0 0 1-45.248 45.248l-159.616-159.616-155.136 155.136a32 32 0 0 1-45.248-45.248l155.136-155.136-159.616-159.616a32 32 0 1 1 45.248-45.248l159.616 159.616z m-329.728 272.768H107.712a64 64 0 0 1-64-64V103.616a64 64 0 0 1 64-64h812.672a64 64 0 0 1 64 64v340.288a32 32 0 0 1-64 0V103.68H107.712v812.672h320.64a32 32 0 1 1-1.28 64z m-172.8-767.104h512a32 32 0 1 1 0 64h-512a32 32 0 1 1 0-64z m0 234.816H376.96a32 32 0 1 1 0 64H254.272a32 32 0 1 1 0-64z" /></svg>