<?xml version="1.0" standalone="no"?><!DOCTYPE svg PUBLIC "-//W3C//DTD SVG 1.1//EN" "http://www.w3.org/Graphics/SVG/1.1/DTD/svg11.dtd"><svg class="icon"   viewBox="0 0 1024 1024" version="1.1" xmlns="http://www.w3.org/2000/svg"><path fill="#333333" d="M815.04 683.904h128a32 32 0 1 1 0 64h-128v128a32 32 0 1 1-64 0v-128h-128a32 32 0 1 1 0-64h128v-128a32 32 0 0 1 64 0v128z m105.344-241.408H107.712v366.208h320.64a32 32 0 1 1-1.28 64h-319.36a64 64 0 0 1-64-64v-569.6a64 64 0 0 1 64-64h812.672a64 64 0 0 1 64 64v217.984a32 32 0 0 1-64 0v-14.592z m0-64V239.168H107.712v139.328h812.672zM182.784 312.96a32 32 0 1 1 64 0 32 32 0 0 1-64 0z m128 0a32 32 0 1 1 64 0 32 32 0 0 1-64 0z" /></svg>