<?xml version="1.0" standalone="no"?><!DOCTYPE svg PUBLIC "-//W3C//DTD SVG 1.1//EN" "http://www.w3.org/Graphics/SVG/1.1/DTD/svg11.dtd"><svg class="icon"   viewBox="0 0 1024 1024" version="1.1" xmlns="http://www.w3.org/2000/svg"><path fill="#333333" d="M357.568 707.904l87.36-24.704-63.552-65.664-23.808 90.368z m60.032-138.176l74.24 76.672 328.96-340.16-73.6-77.312-329.6 340.8zM912.64 211.2a18.176 18.176 0 0 0 4.928-12.8 24.768 24.768 0 0 0-7.04-16.96l-43.2-44.672c-8.128-8.448-21.76-9.536-28.864-2.176l-44.736 46.272 73.6 77.248 45.312-46.912zM336.384 562.304c0.32-0.512 0.192-1.152 0.64-1.6l456.768-472.384c13.632-14.08 32.128-21.76 52.224-21.76 22.784 0 45.632 10.048 62.592 27.584l43.136 44.672c16.96 17.472 26.624 41.088 26.624 64.64a76.8 76.8 0 0 1-20.992 54.016L500.48 729.728a7.168 7.168 0 0 1-5.376 2.24c-0.192 0-0.32-0.192-0.64-0.192l-170.816 48.128a28.8 28.8 0 0 1-28.288-7.68 31.36 31.36 0 0 1-7.488-29.376l46.976-177.92a8.064 8.064 0 0 1 1.472-2.56z m577.92-138.56a32 32 0 1 1 64 0v490.624a64 64 0 0 1-64 64H109.696a64 64 0 0 1-64-64V109.632a64 64 0 0 1 64-64h506.752a32 32 0 0 1 0 64H109.632v804.736h804.736V423.68z" /></svg>