<?xml version="1.0" standalone="no"?><!DOCTYPE svg PUBLIC "-//W3C//DTD SVG 1.1//EN" "http://www.w3.org/Graphics/SVG/1.1/DTD/svg11.dtd"><svg class="icon"   viewBox="0 0 1024 1024" version="1.1" xmlns="http://www.w3.org/2000/svg"><path fill="#333333" d="M640 142.464v104.128c0 24.32 13.632 41.408 26.368 41.408h109.312L640 142.464zM802.56 352h-136.192C614.656 352 576 303.36 576 246.592V128H226.56v768h576V352z m-576-288h427.84l212.224 227.648V896a64 64 0 0 1-64 64h-576a64 64 0 0 1-64-64V128a64 64 0 0 1 64-64zM352 320h128a32 32 0 0 1 0 64h-128a32 32 0 0 1 0-64z m0 192h320a32 32 0 1 1 0 64h-320a32 32 0 0 1 0-64z m0 192h320a32 32 0 1 1 0 64h-320a32 32 0 1 1 0-64z" /></svg>