<?xml version="1.0" standalone="no"?><!DOCTYPE svg PUBLIC "-//W3C//DTD SVG 1.1//EN" "http://www.w3.org/Graphics/SVG/1.1/DTD/svg11.dtd"><svg class="icon"   viewBox="0 0 1024 1024" version="1.1" xmlns="http://www.w3.org/2000/svg"><path fill="#333333" d="M688.192 396.16h-142.72v205.952h142.976a559.424 559.424 0 0 0 10.304-108.608 449.92 449.92 0 0 0-10.56-97.28z m65.344 0c6.08 31.424 9.216 63.872 9.216 97.28 0 37.376-3.072 73.6-9.216 108.672h141.44a392.704 392.704 0 0 0-1.856-205.952h-139.52z m-208.128 473.28c59.2-61.76 101.12-129.408 126.08-203.328h-126.08v203.328z m76.544 10.56a393.024 393.024 0 0 0 250.112-213.888H738.56c-22.848 77.312-61.76 148.672-116.608 213.888zM545.408 143.04V332.16h123.52a528.896 528.896 0 0 0-67.456-122.752 612.608 612.608 0 0 0-56.064-66.368z m67.52-20.48c14.72 16.64 29.248 34.048 40.32 49.216a583.168 583.168 0 0 1 83.648 160.384h131.968a392.96 392.96 0 0 0-256-209.536zM339.328 396.16c-6.976 31.36-10.624 63.808-10.624 97.28 0 37.568 3.456 73.792 10.368 108.672h142.336V396.16h-142.08z m-65.408 0H138.24a392.704 392.704 0 0 0-1.792 205.952H273.92a628.16 628.16 0 0 1-9.28-108.608c0-33.472 3.2-65.92 9.216-97.28z m207.488 472.576v-202.624H356.032c24.832 73.6 66.56 141.12 125.44 202.624z m-77.056 9.792a589.056 589.056 0 0 1-115.392-212.416H159.296a393.088 393.088 0 0 0 245.12 212.48zM481.408 143.68c-19.264 19.904-37.76 41.6-55.36 65.728A528.896 528.896 0 0 0 358.592 332.16h122.88V143.68zM413.44 123.904A392.96 392.96 0 0 0 162.432 332.16h128.192a583.168 583.168 0 0 1 83.648-160.384c10.752-14.72 24.832-31.616 39.168-47.872z m102.208 834.688a456.064 456.064 0 1 1 0-912.128 456.064 456.064 0 0 1 0 912.128z" /></svg>