<?xml version="1.0" standalone="no"?><!DOCTYPE svg PUBLIC "-//W3C//DTD SVG 1.1//EN" "http://www.w3.org/Graphics/SVG/1.1/DTD/svg11.dtd"><svg class="icon"   viewBox="0 0 1024 1024" version="1.1" xmlns="http://www.w3.org/2000/svg"><path fill="#333333" d="M160.192 434.88a32 32 0 0 1-62.144-10.88V201.024a32 32 0 0 1 64 0v83.904a416 416 0 0 1 739.584 135.232 32 32 0 1 1-61.76 16.64 352 352 0 0 0-678.912-4.416 32.448 32.448 0 0 1-0.768 2.496z m749.504 164.544a32.256 32.256 0 0 1 0.32 4.48v222.976a32 32 0 0 1-64 0v-68.224a415.424 415.424 0 0 1-238.528 171.008c-221.888 59.52-457.984-82.816-516.16-323.904a32.256 32.256 0 0 1 22.656-39.168c17.024-4.608 35.52 5.312 39.168 22.592 44.096 210.624 249.984 328.96 437.76 278.656a352 352 0 0 0 255.616-278.656 32 32 0 0 1 63.168 10.24z" /></svg>