<?xml version="1.0" standalone="no"?><!DOCTYPE svg PUBLIC "-//W3C//DTD SVG 1.1//EN" "http://www.w3.org/Graphics/SVG/1.1/DTD/svg11.dtd"><svg class="icon"   viewBox="0 0 1024 1024" version="1.1" xmlns="http://www.w3.org/2000/svg"><path fill="#333333" d="M896 213.333333H128a42.666667 42.666667 0 0 1 0-85.333333h768a42.666667 42.666667 0 1 1 0 85.333333z m0 682.666667H128a42.666667 42.666667 0 0 1 0-85.333333h768a42.666667 42.666667 0 0 1 0 85.333333z"  /><path fill="#333333" d="M554.666667 298.666667m0 42.666666l0 384q0 42.666667-42.666667 42.666667l0 0q-42.666667 0-42.666667-42.666667l0-384q0-42.666667 42.666667-42.666666l0 0q42.666667 0 42.666667 42.666666Z"  /></svg>