<?xml version="1.0" standalone="no"?><!DOCTYPE svg PUBLIC "-//W3C//DTD SVG 1.1//EN" "http://www.w3.org/Graphics/SVG/1.1/DTD/svg11.dtd"><svg class="icon"   viewBox="0 0 1024 1024" version="1.1" xmlns="http://www.w3.org/2000/svg"><path fill="#333333" d="M511.088 974.192C255.328 974.192 48 766.848 48 511.088S255.328 48 511.088 48c255.76 0 463.104 207.328 463.104 463.088 0 255.76-207.344 463.104-463.104 463.104z m0-16c246.928 0 447.104-200.16 447.104-447.104C958.192 264.176 758.032 64 511.088 64 264.176 64 64 264.16 64 511.088c0 246.928 200.16 447.104 447.088 447.104z m0-775.056a61.536 61.536 0 0 1 61.504 63.888l-11.68 303.84a49.84 49.84 0 0 1-99.616 0l-11.68-303.84a61.536 61.536 0 0 1 61.488-63.888z m0 591.744a47.952 47.952 0 1 1 0-95.92 47.952 47.952 0 0 1 0 95.92z"  /></svg>