<?xml version="1.0" standalone="no"?><!DOCTYPE svg PUBLIC "-//W3C//DTD SVG 1.1//EN" "http://www.w3.org/Graphics/SVG/1.1/DTD/svg11.dtd"><svg class="icon"   viewBox="0 0 1024 1024" version="1.1" xmlns="http://www.w3.org/2000/svg"><path fill="#333333" d="M966.144 894.464l-91.733333-90.026667a52.650667 52.650667 0 0 0-73.386667 0 50.261333 50.261333 0 0 0 0 72.021334l91.733333 89.984a52.608 52.608 0 0 0 73.386667 0 50.261333 50.261333 0 0 0 0-71.978667z m-496.341333-3.797333c235.648 0 426.666667-191.018667 426.666666-426.666667s-191.018667-426.666667-426.666666-426.666667-426.666667 191.018667-426.666667 426.666667 191.018667 426.666667 426.666667 426.666667z m0-42.666667a384 384 0 1 1 0-768 384 384 0 0 1 0 768z" /></svg>