<?xml version="1.0" standalone="no"?><!DOCTYPE svg PUBLIC "-//W3C//DTD SVG 1.1//EN" "http://www.w3.org/Graphics/SVG/1.1/DTD/svg11.dtd"><svg class="icon"   viewBox="0 0 1024 1024" version="1.1" xmlns="http://www.w3.org/2000/svg"><path fill="#333333" d="M512 992a480 480 0 1 0 0-960 480 480 0 0 0 0 960z m0-64a416 416 0 1 1 0-832 416 416 0 0 1 0 832z m-62.144-275.2L274.304 530.24a32 32 0 1 0-36.608 52.48L437.12 721.92a32 32 0 0 0 42.752-5.568l317.312-375.744a32 32 0 0 0-48.896-41.344L449.856 652.8z"  /></svg>