<?xml version="1.0" standalone="no"?><!DOCTYPE svg PUBLIC "-//W3C//DTD SVG 1.1//EN" "http://www.w3.org/Graphics/SVG/1.1/DTD/svg11.dtd"><svg class="icon"   viewBox="0 0 1024 1024" version="1.1" xmlns="http://www.w3.org/2000/svg"><path fill="#333333" d="M480 832v-64H128a64 64 0 0 1-64-64V192a64 64 0 0 1 64-64h768a64 64 0 0 1 64 64v512a64 64 0 0 1-64 64H544v64h128a32 32 0 1 1 0 64h-320a32 32 0 1 1 0-64h128zM320 384v320H256V384H128V320h768v64H320zM128 192v512h768V192H128z m529.92 399.936L530.176 543.36l-126.528 98.688a32 32 0 1 1-39.424-50.432l140.8-109.824a32 32 0 0 1 31.04-4.672l127.232 48.32 126.08-102.4a32 32 0 0 1 40.32 49.728L689.408 586.88a32 32 0 0 1-31.552 5.12z" /></svg>