<?xml version="1.0" standalone="no"?><!DOCTYPE svg PUBLIC "-//W3C//DTD SVG 1.1//EN" "http://www.w3.org/Graphics/SVG/1.1/DTD/svg11.dtd"><svg t="1557730235554" class="icon" style="" viewBox="0 0 1024 1024" version="1.1" xmlns="http://www.w3.org/2000/svg" p-id="5472" xmlns:xlink="http://www.w3.org/1999/xlink"  ><defs><style type="text/css"></style></defs><path d="M512.933 471.092L911.746 72.279c11.039-11.039 28.936-11.039 39.975 0 11.039 11.039 11.039 28.936 0 39.975L552.908 511.067l398.426 398.426c11.555 11.554 11.555 30.287 0 41.841-11.554 11.555-30.287 11.555-41.841 0L511.067 552.908 112.254 951.721c-11.039 11.039-28.936 11.039-39.975 0-11.039-11.039-11.039-28.936 0-39.975l398.813-398.813L72.666 114.507c-11.555-11.554-11.555-30.287 0-41.841 11.554-11.555 30.287-11.555 41.841 0l398.426 398.426z" fill="#000000" p-id="5473"></path></svg>