<?xml version="1.0" standalone="no"?><!DOCTYPE svg PUBLIC "-//W3C//DTD SVG 1.1//EN" "http://www.w3.org/Graphics/SVG/1.1/DTD/svg11.dtd"><svg t="1557730203613" class="icon" style="" viewBox="0 0 1024 1024" version="1.1" xmlns="http://www.w3.org/2000/svg" p-id="4702" xmlns:xlink="http://www.w3.org/1999/xlink"  ><defs><style type="text/css"></style></defs><path d="M512.5 676.046c-89.93 0-162.833-72.903-162.833-162.834 0-89.93 72.903-162.833 162.833-162.833 89.93 0 162.833 72.903 162.833 162.833 0 89.93-72.903 162.834-162.833 162.834z m0-40.709c67.448 0 122.125-54.677 122.125-122.125 0-67.447-54.677-122.125-122.125-122.125-67.448 0-122.125 54.678-122.125 122.125 0 67.448 54.677 122.125 122.125 122.125zM67.819 522.697a20.354 20.354 0 0 1-0.028-18.915c95.703-183.043 244.706-275.528 444.34-275.528S860.78 320.738 956.51 503.78c3.1 5.927 3.09 12.999-0.028 18.917-96.38 183.003-245.366 275.474-444.33 275.474-198.966 0-347.952-92.47-444.332-275.474zM512.15 757.462c180.216 0 313.801-80.817 403.239-244.282-88.83-163.419-222.41-244.218-403.258-244.218-180.847 0-314.414 80.799-403.22 244.217 89.437 163.466 223.023 244.283 403.24 244.283z" fill="#000000" p-id="4703"></path></svg>