<?xml version="1.0" standalone="no"?><!DOCTYPE svg PUBLIC "-//W3C//DTD SVG 1.1//EN" "http://www.w3.org/Graphics/SVG/1.1/DTD/svg11.dtd"><svg t="1557730156858" class="icon" style="" viewBox="0 0 1024 1024" version="1.1" xmlns="http://www.w3.org/2000/svg" p-id="3162" xmlns:xlink="http://www.w3.org/1999/xlink"  ><defs><style type="text/css"></style></defs><path d="M181.55 869.368h174.796c11.057 0 20.02 8.964 20.02 20.021s-8.963 20.021-20.02 20.021H133.463c-11.058 0-20.021-8.964-20.021-20.02V661.602c0-11.057 8.963-20.021 20.02-20.021 11.058 0 20.021 8.964 20.021 20.02v179.202l180.829-182.416c7.784-7.853 20.46-7.908 28.313-0.124 7.853 7.785 7.908 20.46 0.124 28.314l-181.2 182.79z m659.208 0l-199.81-200.457c-7.806-7.831-7.785-20.508 0.046-28.314 7.831-7.806 20.508-7.785 28.314 0.046L870.4 842.387V661.858c0-11.057 8.963-20.02 20.02-20.02 11.058 0 20.021 8.963 20.021 20.02V889.39c0 11.057-8.963 20.021-20.02 20.021H654.144c-11.057 0-20.02-8.964-20.02-20.02 0-11.058 8.963-20.022 20.02-20.022h186.614z m29.642-686.79L655.569 391.633c-7.925 7.712-20.6 7.539-28.311-0.385-7.712-7.925-7.539-20.6 0.385-28.312l216.3-210.484h-169.12c-11.058 0-20.022-8.964-20.022-20.02 0-11.058 8.964-20.022 20.021-20.022h215.599c11.057 0 20.02 8.964 20.02 20.021v224.977c0 11.057-8.963 20.02-20.02 20.02-11.058 0-20.021-8.963-20.021-20.02v-174.83z m-689.246-30.126l208.869 208.225c7.83 7.807 7.85 20.484 0.043 28.314-7.806 7.83-20.483 7.85-28.313 0.044l-208.27-207.628v170.952c0 11.058-8.963 20.021-20.02 20.021-11.058 0-20.021-8.963-20.021-20.02V132.43c0-11.057 8.963-20.02 20.02-20.02h221.744c11.057 0 20.02 8.963 20.02 20.02s-8.963 20.021-20.02 20.021H181.154z" fill="#000000" p-id="3163"></path></svg>