<?xml version="1.0" standalone="no"?><!DOCTYPE svg PUBLIC "-//W3C//DTD SVG 1.1//EN" "http://www.w3.org/Graphics/SVG/1.1/DTD/svg11.dtd"><svg t="1557730159952" class="icon" style="" viewBox="0 0 1024 1024" version="1.1" xmlns="http://www.w3.org/2000/svg" p-id="3272" xmlns:xlink="http://www.w3.org/1999/xlink"  ><defs><style type="text/css"></style></defs><path d="M510.336 482.81l378.32-379.557c7.962-7.989 20.893-8.01 28.882-0.047l0.07 0.07c8 8.052 7.99 21.055-0.023 29.094L539.311 511.88l378.274 379.511c8.018 8.044 8.028 21.055 0.023 29.112-7.955 8.007-20.895 8.048-28.901 0.093l-0.07-0.07-378.32-379.557-378.32 379.557c-7.963 7.989-20.894 8.01-28.882 0.047l-0.07-0.07c-8-8.052-7.99-21.055 0.023-29.094L481.34 511.9 103.068 132.388c-8.018-8.044-8.028-21.055-0.023-29.112 7.955-8.007 20.894-8.048 28.9-0.093l0.071 0.07 378.32 379.557z" fill="#000000" p-id="3273"></path></svg>