<?xml version="1.0" standalone="no"?><!DOCTYPE svg PUBLIC "-//W3C//DTD SVG 1.1//EN" "http://www.w3.org/Graphics/SVG/1.1/DTD/svg11.dtd"><svg t="1557730226441" class="icon" style="" viewBox="0 0 1024 1024" version="1.1" xmlns="http://www.w3.org/2000/svg" p-id="5142" xmlns:xlink="http://www.w3.org/1999/xlink"  ><defs><style type="text/css"></style></defs><path d="M927.135 263.495c4.392 3.907 7.158 9.602 7.158 15.943v0.057a21.275 21.275 0 0 1-6.254 15.154L759.148 463.42c-8.334 8.328-21.842 8.323-30.17-0.01-8.328-8.335-8.324-21.842 0.01-30.17L861.552 300.77h-439.93c-160.156 0-289.564 123.024-289.564 274.227 0 151.204 129.408 274.228 289.564 274.228H912.96c11.782 0 21.333 9.551 21.333 21.333 0 11.782-9.551 21.333-21.333 21.333H421.62c-183.251 0-332.23-141.63-332.23-316.894 0-175.263 148.979-316.893 332.23-316.893h441.793L738.094 125.18c-8.082-8.573-7.685-22.075 0.888-30.157 8.573-8.083 22.074-7.685 30.157 0.888l157.996 167.583z" fill="#000000" p-id="5143"></path></svg>