<svg xmlns="http://www.w3.org/2000/svg"   viewBox="0 0 1024 1024">
    <g fill="none" fill-rule="evenodd">
        <g fill="#000">
            <path d="M512 64c247.424 0 448 200.576 448 448S759.424 960 512 960 64 759.424 64 512 264.576 64 512 64zm0 64c-212.077 0-384 171.923-384 384s171.923 384 384 384 384-171.923 384-384-171.923-384-384-384zm-.054 461.816c83.223 0 157.63 48.48 192.17 122.563l1.034 2.253L646.834 741c-23.809-52.656-76.21-87.184-134.888-87.184-58.026 0-109.918 33.766-134.089 85.447l-.723 1.572-58.284-26.44c34.125-75.224 109.126-124.579 193.096-124.579zM376 352c35.346 0 64 28.654 64 64 0 35.346-28.654 64-64 64-35.346 0-64-28.654-64-64 0-35.346 28.654-64 64-64zm272 0c35.346 0 64 28.654 64 64 0 35.346-28.654 64-64 64-35.346 0-64-28.654-64-64 0-35.346 28.654-64 64-64z"/>
        </g>
    </g>
</svg>
