<svg xmlns="http://www.w3.org/2000/svg"   viewBox="0 0 1024 1024">
    <g fill="none" fill-rule="evenodd">
        <g fill="#000">
            <path d="M960 884.6c.018 0 .026 2.657.028 7.014v5.798c-.003 7.688-.015 17.938-.028 28.188l-.003 2.459c-.011 9.415-.022 18.656-.025 25.729v5.798c.002 4.357.01 7.014.028 7.014H59v-82zM602.4 69c25.4-25.5 66-26.5 92.7-3.3l179.4 179.4c.1.2.3.3.4.4 24.9 25 26.4 64.6 4.5 91.3L411.926 804.276C404.44 814.257 392.51 820.7 379.1 820.7H164.8c-22.7 0-41-18.4-41-41V570.573c-1.727-12.29 2.14-25.212 11.6-34.673L602 69.4c.2-.1.3-.3.4-.4zm32.444 83.256L205.8 581.3v157.4h155.9l430.209-430.207c6.439-9.178 6.273-21.554-.44-30.615L664.892 151.382c-9.124-6.027-21.18-5.718-30.048.874z"/>
        </g>
    </g>
</svg>
