<svg xmlns="http://www.w3.org/2000/svg"   viewBox="0 0 1024 1024">
    <g fill="none" fill-rule="evenodd">
        <g fill="#000">
            <path d="M935.676 299.175l48.593 41.65c-39.71 46.33-81.55 85.87-125.47 118.571l88.135 94.818-46.878 43.572-95.122-102.336c-48.03 28.666-98.35 49.716-150.904 63.094l42.5 145.192-61.422 17.98-44.184-150.943C565.114 574.256 538.804 576 512 576c-26.471 0-52.46-1.701-77.962-5.098L389.89 721.716l-61.422-17.98L370.9 558.78c-54.415-13.752-106.436-35.722-156.001-65.848l-97.46 104.855-46.878-43.572 90.815-97.703c-41.036-31.018-80.243-68.04-117.581-111.027l-4.022-4.662 48.598-41.644C210.487 441.684 351.097 512 512 512c159.295 0 298.716-68.918 420.006-208.571l3.67-4.254z"/>
        </g>
    </g>
</svg>
