<svg xmlns="http://www.w3.org/2000/svg"   viewBox="0 0 1024 1024">
    <g fill="none" fill-rule="evenodd">
        <g fill="#000">
            <path d="M402 64l.003 62.568c125.983 12.429 225.815 97.325 227.962 204.409L630 334.5h-64c0-78.356-86.247-145.5-196-145.5s-196 67.144-196 145.5c0 77.573 84.53 144.156 192.715 145.48L370 480c142.088 0 260 91.795 260 209.5 0 108.74-100.635 195.367-227.998 207.932L402 960h-64l-.002-62.568c-125.984-12.428-225.816-97.325-227.963-204.409L110 689.5h64c0 78.356 86.247 145.5 196 145.5s196-67.144 196-145.5c0-77.573-84.53-144.156-192.715-145.48L370 544c-142.088 0-260-91.795-260-209.5 0-108.74 100.636-195.368 227.999-207.932L338 64h64zm558 448L832 642.5V576H640v-64h320zM768 318v66.5h192v64H640L768 318z"/>
        </g>
    </g>
</svg>
