<svg xmlns="http://www.w3.org/2000/svg"   viewBox="0 0 24 24">
    <g fill="none" fill-opacity=".38" fill-rule="evenodd">
        <g fill="#000">
            <g>
                <g>
                    <g>
                        <path d="M12 1.5c5.799 0 10.5 4.701 10.5 10.5S17.799 22.5 12 22.5 1.5 17.799 1.5 12 6.201 1.5 12 1.5zM12 3c-4.97 0-9 4.03-9 9s4.03 9 9 9 9-4.03 9-9-4.03-9-9-9zm5.917 10c-.476 2.838-2.944 5-5.917 5s-5.44-2.162-5.917-5h11.834zM8 8c.828 0 1.5.672 1.5 1.5S8.828 11 8 11s-1.5-.672-1.5-1.5S7.172 8 8 8zm8 0c.828 0 1.5.672 1.5 1.5S16.828 11 16 11s-1.5-.672-1.5-1.5S15.172 8 16 8z" transform="translate(-744 -897) translate(236 25) translate(0 848) translate(508 24)"/>
                    </g>
                </g>
            </g>
        </g>
    </g>
</svg>
