<svg xmlns="http://www.w3.org/2000/svg"   viewBox="0 0 1024 1024">
    <g fill="none" fill-rule="evenodd">
        <g fill="#000">
            <path d="M416 64c194.404 0 352 157.596 352 352 0 85.68-30.612 164.21-81.495 225.249l296.122 296.124-45.254 45.254-296.124-296.122C580.209 737.388 501.679 768 416 768 221.596 768 64 610.404 64 416S221.596 64 416 64zm0 64c-159.058 0-288 128.942-288 288s128.942 288 288 288 288-128.942 288-288-128.942-288-288-288zm32 128v128h128v64H448v128h-64V448H256v-64h128V256h64z"/>
        </g>
    </g>
</svg>
