<svg xmlns="http://www.w3.org/2000/svg"   viewBox="0 0 1024 1024">
    <g fill="none" fill-rule="evenodd">
        <g fill="#000">
            <path d="M512 125.74c231.96 0 420 159.097 420 355.354 0 106.23-55.16 201.51-142.5 266.621-5.06 3.777-10.26 7.417-15.52 10.991l.015.056c-1.145.756-2.22 1.675-3.23 2.7-3.315 3.366-5.12 7.63-5.62 12.022l-2.315 22.351-9.73 93.687s-.04.259-.095.589c-.25 2.203-1.155 4.34-2.82 6.03-3.49 3.539-8.895 3.9-12.795 1.117-.045-.025-.165-.101-.165-.101L659.5 839.828l-17.71-13.067c-4.77-3.573-10.83-4.751-16.375-3.472l.2-.05-21.115 4.512c-29.76 5.676-60.71 8.696-92.5 8.696-231.96 0-420-159.097-420-355.353C92 284.837 280.04 125.74 512 125.74zm-78.863 174.57c-6.56 6.661-7.535 16.779-3.07 24.55l65.765 115.856c13.545 23.91 14.115 53.334 1.73 77.716-.895 1.751-1.905 3.452-2.93 5.153l-64.58 113.769c-4.45 7.772-3.47 17.869 3.085 24.524 7.81 7.93 20.475 7.93 28.285 0l.006-.01.014.01.015-.015 142.69-144.873c19.53-19.823 19.53-51.968 0-71.791l-142.72-144.883c-7.815-7.935-20.48-7.935-28.29-.005zm180.005 0c-6.56 6.661-7.535 16.779-3.07 24.55l65.765 115.856c13.545 23.91 14.115 53.334 1.73 77.716-.895 1.751-1.905 3.452-2.93 5.153l-64.58 113.769c-4.45 7.772-3.47 17.869 3.085 24.524 7.81 7.93 20.475 7.93 28.285 0l.006-.01.014.01.015-.015 142.69-144.873c19.53-19.823 19.53-51.968 0-71.791l-142.72-144.883c-7.815-7.935-20.48-7.935-28.29-.005zm-360.005 0c-6.56 6.661-7.535 16.779-3.07 24.55l65.765 115.856c13.545 23.91 14.115 53.334 1.725 77.716-.89 1.751-1.9 3.452-2.925 5.153l-64.58 113.769c-4.45 7.772-3.47 17.869 3.085 24.524 7.81 7.93 20.475 7.93 28.285 0l.006-.01.014.01.015-.015 142.69-144.873c19.525-19.823 19.525-51.968 0-71.791l-142.72-144.883-.005-.005c-7.81-7.93-20.475-7.93-28.285 0z"/>
        </g>
    </g>
</svg>
