<svg xmlns="http://www.w3.org/2000/svg"   viewBox="0 0 1024 1024">
    <g fill="none" fill-rule="evenodd">
        <g fill="#000">
            <path d="M352 512c77.406 0 141.974 54.968 156.8 127.998L896 640v64l-387.201.003C493.973 777.033 429.406 832 352 832s-141.973-54.967-156.799-127.997L128 704v-64l67.2-.002C210.027 566.968 274.595 512 352 512zm0 64c-53.02 0-96 42.98-96 96s42.98 96 96 96 96-42.98 96-96-42.98-96-96-96zm320-448c77.406 0 141.974 54.968 156.8 127.998L896 256v64l-67.201.003C813.973 393.033 749.406 448 672 448s-141.973-54.967-156.799-127.997L128 320v-64l387.2-.002C530.027 182.968 594.595 128 672 128zm0 64c-53.02 0-96 42.98-96 96s42.98 96 96 96 96-42.98 96-96-42.98-96-96-96z"/>
        </g>
    </g>
</svg>
