<svg xmlns="http://www.w3.org/2000/svg"   viewBox="0 0 1024 1024">
    <g fill="none" fill-rule="evenodd">
        <g fill="#000">
            <path d="M652.651 91.477c124.212 0 208.673 76.862 227.565 202.663l.552 3.827.163 1.232.537.487c22.72 20.916 31.094 51.68 23.842 84.638l-.224 1-.283 1.205c-4.695 19.64-10.034 35.726-16.311 48.572-3.85 7.88-8.196 14.877-13.402 21.082-4.275 5.094-9.08 9.632-14.566 13.424l-.753.513-.203.134-.149.354c-20.533 48.382-52.921 92.08-91.524 123.807l-1.172.958-.422.341v12.652l2.355.385c35.453 5.864 67.776 14.406 94.863 25.007l1.286.507 1.154.46c18.205 7.293 34 15.541 46.933 24.764 16.944 12.082 29.751 26.153 36.84 43.973 11.148 28.025-1.76 59.857-29.28 72.203-2.962 1.329-6.1 2.574-9.4 3.73l-1.245.43-1.476.498-.97.322c-16.139 5.29-37.404 9.618-63.409 13.164l-2.17.293-3.062.4c-30.354 3.908-66.767 6.745-106.3 8.384 6.272 7.7 11.346 16.106 15.048 25.412 12.668 31.846-2 68.02-33.272 82.048-3.788 1.7-7.827 3.279-12.097 4.728l-1.787.603-1.732.57c-18 5.822-41.514 10.611-70.134 14.556l-2.616.356-2.766.367c-57.426 7.512-134.355 11.613-215.064 11.613h-4.832c-78.96-.166-153.936-4.252-210.246-11.615l-1.743-.23c-30.247-4.032-55.006-8.98-73.764-15.05l-1.616-.53-2.386-.808c-4.094-1.411-7.98-2.932-11.61-4.56-31.27-14.029-45.939-50.202-33.27-82.048 8.053-20.247 22.604-36.237 41.855-49.969 14.697-10.483 32.648-19.86 53.335-28.152 31.69-12.702 69.913-22.885 111.959-29.756l1.293-.21V703.71l-1.03-.84c-46.052-37.85-84.242-89.934-107.49-147.209l-.556-1.382-.756-.645c-10.063-8.683-18.39-19.478-25.551-32.108l-.477-.846c-7.79-13.929-14.446-30.607-20.386-50.45-11.211-37.506-1.587-72.478 25.036-96.733l.544-.49.178-1.409c19.298-145.705 116.672-236.825 258.884-238.707l4.506-.03c31.328 0 60.835 4.33 87.994 12.912 38.315-33.807 88.926-52.999 148.62-54.232l2.195-.037 3.965-.027zM409.877 196.861c-115.818 0-190.965 72.216-201.636 198.805-.706 8.284-5.38 15.75-12.6 20.127l-.41.253c-13.44 8.36-18.2 19.073-13.183 35.856 9.544 31.883 19.973 49.491 30.831 56.156l.39.245c4.91 3.14 8.638 7.773 10.602 13.191 21.02 57.81 60.51 109.506 106.167 142.281 6.877 4.945 10.938 12.799 10.938 21.151v68.254l-.003.399c-.203 13.128-10.307 24.118-23.67 25.659C212.477 791.309 139.18 823.848 128 851.953c1.93.866 4.29 1.784 7.024 2.703l1.005.34c14.41 4.8 36.103 9.193 63.606 12.86l1.653.217c52.551 6.872 123.24 10.75 197.465 11.052l4.55.014h7.047c77.515-.08 151.684-4.061 206.015-11.284l3.12-.422c26.026-3.58 46.626-7.82 60.486-12.437l1.551-.524c2.524-.857 4.676-1.71 6.478-2.519-11.18-28.105-84.477-60.618-189.276-72.689l-.027-.026-.404-.05c-13.297-1.73-23.267-12.837-23.269-26.008v-66.207l.003-.42c.132-8.256 4.227-15.98 11.07-20.836 44.29-31.385 83.083-81.742 104.504-138.712 2.777-7.393 8.8-13.173 16.407-15.745l.246-.087c8.128-3.013 17.888-20.16 26.912-57.907 4.96-20.626-.858-33.589-13.887-41.33l-.362-.219c-7.073-4.354-11.675-11.695-12.426-19.856-11.448-125.04-83.754-195-197.614-195zm242.774-49.064c-37.5 0-70.156 8.604-96.923 25.03 12.947 8.362 25.042 18.024 36.194 28.971 42.047 41.275 67.95 98.093 77.25 166.178l.125.942.598.543c26.08 24.008 35.525 59.435 26.839 97.316l-.322 1.37c-5.335 22.318-11.402 40.597-18.535 55.195-4.376 8.955-9.313 16.906-15.23 23.957-5.026 5.99-10.697 11.303-17.205 15.701l-.434.29-.168.401c-23.569 55.535-60.883 105.638-105.336 141.779l-.48.386v14.378l1.31.213c39.828 6.507 76.22 15.984 106.879 27.756h5.855l4.09-.009c66.046-.201 129.05-3.622 175.763-9.731l1.44-.19 2.97-.403 2.09-.292c20.427-2.885 36.913-6.24 48.602-9.878l1.172-.371 1.14-.373 1.365-.46c2.22-.755 4.115-1.506 5.7-2.217-9.74-24.485-73.055-52.772-163.805-63.642l-2.758-.325-.024-.023-.355-.043c-11.577-1.507-20.288-11.09-20.474-22.518l-.003-.37v-58.262l.003-.37c.116-7.264 3.72-14.061 9.74-18.335 38.976-27.618 73.114-71.933 91.964-122.067 2.395-6.372 7.53-11.384 14.031-13.713l.624-.219c6.87-2.546 15.064-16.564 22.737-47.096l.469-1.89.477-1.972c4.321-17.969-.653-29.33-11.879-36.165l-.66-.398c-6.224-3.832-10.274-10.291-10.935-17.473-10.074-110.036-73.703-171.6-173.9-171.6z"/>
        </g>
    </g>
</svg>
