<svg xmlns="http://www.w3.org/2000/svg"   viewBox="0 0 1024 1024">
    <g fill="none" fill-rule="evenodd">
        <g fill="#000">
            <path d="M768.075 68.67l62.851 147.138-158.851 19.139 32-55.426C520.41 73.482 285.56 136.411 179.52 320.075 73.482 503.739 136.411 738.59 320.075 844.629c183.664 106.038 418.515 43.11 524.554-140.554 54.87-95.038 65.925-206.676 33.16-309.095l-1.006-3.101 60.792-20.01c39.628 120.396 27.112 252.258-37.52 364.206-123.713 214.275-397.705 287.691-611.98 163.98C73.8 776.341.384 502.35 124.095 288.074 246.57 75.942 516.335 1.866 729.63 120.443l6.446 3.652 32-55.425z"/>
        </g>
    </g>
</svg>
