<svg xmlns="http://www.w3.org/2000/svg"   viewBox="0 0 1024 1024">
    <g fill="none" fill-rule="evenodd">
        <g fill="#000">
            <path d="M349.392 86.534L263.95 247.72 450.36 410.906l-31.567 159.94 124.731-160.933-146.29-184.6 102.19-129.367 480.566 34.418-59.13 807.375-536.468-48.21-56.105-190.634 52.134-264.156-196.742-172.23 54.618-103.043-123.001 9.672 40.035 533.586 114.853-11.803 6.543 63.665-116.606 11.983 6.172 82.259 136.489-12.558 5.864 63.731-201.303 18.522-60.639-808.189 302.688-23.8zm179.252 75.668l-49.802 63.047 145.995 184.225L396.52 704.057l36.973 125.626 428.291 38.488 6.03-82.33-389.07-38.863 6.361-63.683L872.49 721.99l38.99-532.37-382.835-27.418zm231.607 88.67c36.33 0 65.783 29.452 65.783 65.783s-29.452 65.783-65.783 65.783-65.783-29.452-65.783-65.783c0-36.33 29.452-65.783 65.783-65.783z"/>
        </g>
    </g>
</svg>
