<svg xmlns="http://www.w3.org/2000/svg"   viewBox="0 0 1024 1024">
    <g fill="none" fill-rule="evenodd">
        <g fill="#000">
            <path d="M709.758 413.003c140.543 0 263.523 101.02 263.523 224 0 65.876-48.293 127.376-109.793 175.69l21.958 79.062-83.458-48.313-2.752.786-2.752.784c-28.898 8.22-57.812 15.993-86.726 15.993-149.334 0-263.523-101.021-263.523-224.001S564.82 413.003 709.758 413.003zm-307.46-237.189c153.73 0 285.501 92.23 320.667 215.21h-30.75c-149.334 0-263.522 109.833-263.522 245.98 0 20.982 3.995 41.965 8.185 62.948l.586 2.927h-30.75c-39.541 0-70.291-8.771-109.813-17.562l-109.813 52.708 30.73-92.23c-74.667-52.708-122.98-122.98-122.98-206.438 0-149.334 136.168-263.543 307.46-263.543zM626.32 535.962c-13.188 0-30.75 17.583-30.75 30.75 0 17.563 13.187 30.75 30.75 30.75 21.958 0 39.52-17.562 39.54-30.75 0-17.562-17.582-30.75-39.54-30.75zm166.897 0c-13.188 0-30.75 17.583-30.75 30.75 0 17.563 17.582 30.75 30.75 30.75 26.354 0 39.54-17.562 39.54-30.75 0-17.562-17.582-30.75-39.54-30.75zM305.673 303.17c-26.335 0-48.313 17.563-48.313 39.541 0 26.354 26.354 39.542 48.313 39.542 21.978 0 35.145-13.188 39.541-39.542 0-26.354-17.583-39.541-39.541-39.541zm215.23 0c-26.355 0-48.313 17.563-48.313 39.541 0 26.354 26.354 39.542 48.312 39.542 21.959 0 39.522-13.188 39.542-39.542 0-26.354-17.583-39.541-39.542-39.541z"/>
        </g>
    </g>
</svg>
