<svg xmlns="http://www.w3.org/2000/svg"   viewBox="0 0 1024 1024">
    <g fill="none" fill-rule="evenodd">
        <g fill="#000">
            <path d="M511.956 98C696.18 98 776.17 253.45 771.612 445.64l5.169 12.87c26.432 65.696 44.213 108.202 59.797 158.207 35.228 113.223 23.83 160.106 15.024 161.245-18.65 2.276-72.634-85.28-72.634-85.28 0 50.609-26.11 116.742-82.683 164.557l1.675.52c28.006 8.77 86.83 31.02 72.512 55.16-11.812 19.974-203.29 12.73-258.516 6.52-55.227 6.21-246.705 13.454-258.517-6.52-14.61-24.735 46.833-47.297 74.188-55.68-56.574-47.711-82.684-113.845-82.684-164.557l-1.53 2.45c-8.914 14.163-54.318 84.879-71.104 82.83-8.703-1.035-20.1-47.919 15.128-161.245l.998-3.194c16.343-51.997 35.13-96.075 63.968-167.884C247.429 256.554 325.658 98 511.956 98z"/>
        </g>
    </g>
</svg>
