<svg xmlns="http://www.w3.org/2000/svg"   viewBox="0 0 1024 1024">
    <g fill="none" fill-rule="evenodd">
        <g fill="#000">
            <path d="M512 64c247.424 0 448 200.576 448 448S759.424 960 512 960 64 759.424 64 512 264.576 64 512 64zm0 64c-212.077 0-384 171.923-384 384s171.923 384 384 384 384-171.923 384-384-171.923-384-384-384zm-57.084 215.728c2.517 1.531 3.299 3.776 2.279 6.838-8.059 19.254-12.105 38.678-12.105 58.408 0 45.006 16.049 83.548 48.145 115.66 32.097 32.113 70.62 48.17 115.603 48.17 24.752 0 46.24-3.777 64.431-11.363 2.006-1.564 4.012-1.292 6.018.715 2.516 1.53 3.298 3.776 2.278 6.837-13.124 34.392-34.476 61.81-64.057 82.29C587.961 671.76 554.743 682 517.852 682c-48.52 0-89.932-17.179-124.307-51.57C359.17 596.036 342 554.57 342 506.06c0-34.901 9.86-67.218 29.547-97.086 19.72-29.833 45.493-51.809 77.317-65.994 2.006-1.53 4.046-1.259 6.052.748z"/>
        </g>
    </g>
</svg>
