<svg xmlns="http://www.w3.org/2000/svg"   viewBox="0 0 1024 1024">
    <g fill="none" fill-rule="evenodd">
        <g fill="#000">
            <path d="M512 64c247.424 0 448 200.576 448 448S759.424 960 512 960 64 759.424 64 512 264.576 64 512 64zm0 64c-212.077 0-384 171.923-384 384s171.923 384 384 384 384-171.923 384-384-171.923-384-384-384zM377.158 589.816C400.967 642.472 453.368 677 512.046 677c58.026 0 109.918-33.766 134.088-85.447l.724-1.571 58.284 26.44C671.017 691.644 596.016 741 512.046 741c-83.223 0-157.63-48.48-192.17-122.563l-1.034-2.253 58.316-26.368zM352 352c35.346 0 64 28.654 64 64 0 35.346-28.654 64-64 64-35.346 0-64-28.654-64-64 0-35.346 28.654-64 64-64zm320 0c35.346 0 64 28.654 64 64 0 35.346-28.654 64-64 64-35.346 0-64-28.654-64-64 0-35.346 28.654-64 64-64z"/>
        </g>
    </g>
</svg>
