<svg xmlns="http://www.w3.org/2000/svg"   viewBox="0 0 1024 1024">
    <g fill="none" fill-rule="evenodd">
        <g fill="#000">
            <path d="M512 145.874c46.774-31.595 170.324-99.38 294.64-38.01 131.025 64.626 188.247 191.578 157 348.305C916.62 692.84 572.71 909.217 531.28 934.534l-2.19 1.332-1.37.826C522.926 939.564 517.462 941 512 941c-5.463 0-10.927-1.436-15.72-4.308l-1.37-.826-2.19-1.332C451.292 909.217 107.38 692.84 60.36 456.17c-31.247-156.727 25.975-283.775 157-348.304 124.412-61.466 247.866 6.51 294.64 38.009zm-133.932 8.171c-46.85-11.876-90.985-9.242-132.431 11.234-104.14 51.289-148.266 149.202-122.504 278.419 18.076 90.987 94.394 192.673 209.73 293.43 42.474 37.105 87.384 71.588 132.022 102.581l3.091 2.141 3.065 2.112 3.038 2.083 3.01 2.053 2.98 2.023 2.953 1.994 2.923 1.964 1.45.97 2.879 1.918 2.847 1.888 2.815 1.858 2.784 1.826 2.752 1.796 2.719 1.765 2.685 1.733 3.577 2.294 1.547.987 3.794-2.426 2.669-1.718 2.702-1.749 4.115-2.682 2.784-1.826 2.815-1.858 2.847-1.888 2.878-1.918 2.908-1.948 1.466-.986 2.952-1.994 2.982-2.023 3.01-2.053 3.037-2.083 3.065-2.112 3.091-2.14c44.638-30.994 89.548-65.477 132.022-102.583 115.336-100.756 191.654-202.442 209.738-293.471C926.625 314.5 882.52 216.652 778.31 165.253c-41.352-20.414-85.51-23.055-132.371-11.2-35.79 9.054-69.637 25.62-98.115 44.856-21.617 14.601-49.934 14.621-71.572.05-28.708-19.333-62.438-35.852-98.183-44.914z"/>
        </g>
    </g>
</svg>
