<svg xmlns="http://www.w3.org/2000/svg"   viewBox="0 0 1024 1024">
    <g fill="none" fill-rule="evenodd">
        <g fill="#000">
            <path d="M509.164 63.033c-156.34 2.06-262.944 101.8-284.157 262.356l-.574 4.547-.053.045c-29.81 25.319-40.844 62.557-28.702 103.18 6.543 21.856 13.838 40.138 22.305 55.275l.492.873c8.06 14.222 17.438 26.183 28.81 35.563l.609.498.48 1.214c26.227 65.758 70.307 125.519 123.438 168.062l.546.435v29.595l-1.151.177c-49.727 7.654-94.851 19.42-131.83 34.242-22.778 9.13-42.47 19.416-58.475 30.833-20.553 14.66-35.958 31.589-44.37 52.735-12.668 31.846 2 68.02 33.272 82.049l1.07.473c3.589 1.57 7.425 3.052 11.46 4.44l.846.288c21 7.196 49.654 13.052 85.209 17.791C333.027 956.297 420.331 961 512 961h5.495c89.657-.19 174.77-4.875 238.093-13.293l1.283-.172c34.126-4.596 61.813-10.229 82.408-17.101l.993-.336c4.949-1.646 9.6-3.447 13.924-5.386 31.271-14.03 45.94-50.203 33.272-82.049-8.413-21.15-23.821-38.077-44.377-52.736-16.004-11.413-35.695-21.694-58.473-30.82l-1.34-.535-2.605-1.022c-36.214-14.08-79.893-25.285-127.86-32.669l-1.172-.18v-27.214l.049-.037c51.26-40.592 94.325-98.083 120.96-161.89l.227-.55.597-.373c7.167-4.551 13.421-10.201 18.952-16.656 6.385-7.45 11.738-15.954 16.5-25.615 7.864-15.951 14.61-36.204 20.565-61.113l.34-1.446c9.391-40.934-1.125-78.715-29.883-103.788l-.813-.7-.199-1.555c-9.964-76.257-38.551-139.595-85.131-185.32C662.952 88.528 594.075 63 514.118 63l-4.954.033zM514.118 127c128.5 0 210.102 78.955 223.021 220.072.849 9.21 6.042 17.495 14.025 22.409l.408.247c14.705 8.736 21.27 23.366 15.673 46.644-10.185 42.6-21.2 61.952-30.373 65.352l-.277.098c-8.584 2.903-15.382 9.426-18.517 17.77-24.175 64.294-67.957 121.126-117.94 156.546-7.723 5.48-12.345 14.198-12.493 23.514l-.003.475v74.72c.002 14.863 11.254 27.398 26.26 29.351l.456.056.03.03C732.661 797.907 815.383 834.6 828 866.318c-2.033.913-4.462 1.876-7.31 2.844l-1.751.59c-16.071 5.355-40.17 10.259-70.692 14.367l-1.093.146C685.22 892.498 600.44 897 512 897h-5.302c-85.637-.18-167.469-4.575-227.987-12.489l-1.865-.246c-31.04-4.137-55.522-9.095-71.785-14.513l-1.134-.383c-3.086-1.037-5.749-2.073-7.927-3.05 12.617-31.719 95.339-68.442 213.642-82.065 15.082-1.739 26.484-14.142 26.713-28.958l.003-.45v-77.03c.001-9.426-4.583-18.29-12.344-23.87-51.527-36.99-96.095-95.331-119.816-160.574-2.218-6.115-6.424-11.343-11.965-14.887l-.44-.276c-12.255-7.522-24.024-27.394-34.796-63.377-5.661-18.94-.29-31.03 14.878-40.466l.462-.285c8.149-4.94 13.424-13.366 14.221-22.715C298.6 208.502 383.409 127 514.118 127z"/>
        </g>
    </g>
</svg>
