<svg xmlns="http://www.w3.org/2000/svg"   viewBox="0 0 1024 1024">
    <g fill="none" fill-rule="evenodd">
        <g fill="#000">
            <path d="M896 155.608v64l-44.539-.001 1.432 1.661c67.313 78.818 106.117 179.518 107.088 286.61L960 512c0 247.424-200.576 448-448 448-31.983 0-63.552-3.357-94.332-9.956l-1.846-.4 13.681-62.52C456.38 893.005 483.985 896 512 896c212.077 0 384-171.923 384-384 0-116.727-52.37-224.788-140.9-297.267l-2.693-2.186-70.826-56.94H896zM512 64c33.846 0 67.225 3.76 99.692 11.14l1.837.421-14.45 62.347C570.764 131.346 541.612 128 512 128c-212.077 0-384 171.923-384 384 0 117.385 52.967 225.991 142.349 298.448l2.72 2.185 71.663 57.038H128v-64l45.643-.001-1.408-1.622C104.246 725.057 65.002 623.84 64.019 516.145L64 512C64 264.576 264.576 64 512 64zM398.559 283L514 398.442 629.441 283l45.962 45.962L584.364 420H704v65H544.5v64H704v65H544.5v127.5h-65V614H320v-65h159.5v-64H320v-65h123.635l-91.038-91.038L398.559 283z"/>
        </g>
    </g>
</svg>
