<svg xmlns="http://www.w3.org/2000/svg"   viewBox="0 0 1024 1024">
    <g fill="none" fill-rule="evenodd">
        <g fill="#000">
            <path d="M512 64c141.385 0 256 114.615 256 256 0 106.115-64.564 197.15-156.552 235.966 179.593 44.05 313.376 204.72 316.496 397.155L928 960h-64c0-194.404-157.596-352-352-352-192.46 0-348.844 154.46-351.953 346.179L160 960H96c0-195.475 134.824-359.46 316.553-404.038C320.565 517.152 256 426.116 256 320c0-141.385 114.615-256 256-256zm448 480v64H768v-64h192zM512 128c-106.039 0-192 85.961-192 192s85.961 192 192 192 192-85.961 192-192-85.961-192-192-192zm448 288v64H768v-64h192z"/>
        </g>
    </g>
</svg>
