<svg xmlns="http://www.w3.org/2000/svg"   viewBox="0 0 1024 1024">
    <g fill="none" fill-rule="evenodd">
        <g fill="#000" fill-rule="nonzero">
            <path d="M832 704c0 96.64-83.84 176-192 189.44V864v-32H448v96c0 17.92 14.08 32 32 32h128c159.36 0 288-114.56 288-256m-8.356 60.621C938.724 764.621 960 713.6 960 672V544c0-41.6-26.88-76.8-64-90.24V448c0-211.84-172.16-384-384-384S128 236.16 128 448v5.76C90.88 467.2 64 502.4 64 544v128c0 53.12 42.88 96 96 96s96-42.88 96-96V544c0-41.6-26.88-76.8-64-90.24V448c0-176.64 143.36-320 320-320s320 143.36 320 320v5.76c-37.12 13.44-64 48.64-64 90.24v128c0 41.6 18.675 76.8 55.795 90.24M192 672c0 17.92-14.08 32-32 32s-32-14.08-32-32V544c0-17.92 14.08-32 32-32s32 14.08 32 32v128zm704 0c0 17.92-14.08 32-32 32s-32-14.08-32-32V544c0-17.92 14.08-32 32-32s32 14.08 32 32v128z"/>
        </g>
    </g>
</svg>
