<svg xmlns="http://www.w3.org/2000/svg"   viewBox="0 0 1024 1024">
    <g fill="none" fill-rule="evenodd">
        <g fill="#000">
            <path d="M842.933 332.869c-26.564-66.791-71.054-123.185-126.818-164.277-63.372-46.702-141.368-73.653-224.202-73.653-82.836 0-160.83 26.951-224.202 73.653-55.767 41.093-100.254 97.486-126.818 164.277h38.983c14.704 0 28.158 6.052 37.955 15.8l.052.061.058.05c9.764 9.796 15.803 23.245 15.803 37.955V665.36c0 14.72-6.052 28.158-15.803 37.956l-.058.047-.052.062c-9.797 9.763-23.246 15.8-37.955 15.8h-62.788c-32.03 0-61.166-13.118-82.295-34.238l-.109-.109C13.568 663.75.447 634.614.447 602.59V449.516c0-32.108 13.116-61.275 34.244-82.403l.056.056c12.826-12.82 28.577-22.691 46.117-28.486 28.648-87.875 83.652-161.802 154.595-214.086 72.565-53.474 161.776-84.33 256.453-84.33 94.67 0 183.888 30.855 256.453 84.33 72.57 53.48 128.47 129.61 156.532 220.138 11.597 5.712 22.177 13.29 31.316 22.433l.056-.056c21.13 21.128 34.246 50.295 34.246 82.403v153.072c0 32.026-13.121 61.16-34.237 82.29l-.109.108c-21.128 21.12-50.268 34.237-82.297 34.237h-17.424l12.479.001c-40.62 56.769-99.044 107.026-159.327 138.009-60.402 31.047-128.034 47.904-197.69 47.904l-2.167-.004c-8.94 9.326-21.533 15.135-35.478 15.135-27.15 0-49.153-22.007-49.153-49.155s22.003-49.152 49.153-49.152c19.745 0 36.771 11.647 44.587 28.443 58.56-1.069 115.164-15.646 165.768-41.656 43.806-22.505 82.789-53.36 114.752-90.828-10.066-2.272-19.116-7.4-26.244-14.497l-.052-.062-.056-.047c-9.764-9.799-15.805-23.228-15.805-37.956V386.735c0-14.71 6.042-28.158 15.805-37.955l.056-.05.052-.06c9.801-9.764 23.23-15.801 37.959-15.801h51.846zm-663.86 54.67h-61.985c-17.081 0-32.569 6.944-43.743 18.119v.108c-11.245 11.243-18.228 26.737-18.228 43.75V602.59c0 17.05 6.966 32.557 18.171 43.793 11.236 11.204 26.744 18.172 43.8 18.172h61.985V387.539zm674.801 0h-61.983v277.015h61.983c17.055 0 32.567-6.968 43.802-18.172 11.204-11.236 18.168-26.743 18.168-43.793V449.516c0-17.013-6.984-32.507-18.225-43.75v-.108c-11.174-11.174-26.663-18.119-43.745-18.119z" transform="translate(26 32)"/>
        </g>
    </g>
</svg>
