<svg xmlns="http://www.w3.org/2000/svg"   viewBox="0 0 1024 1024">
    <g fill="none" fill-rule="evenodd">
        <g fill="#000">
            <path d="M512 832c-156.448 0-296.021-98.73-418.41-291.605-3.616-5.689-9.83-15.154-18.645-28.395 8.703-13.066 14.918-22.53 18.644-28.395C215.98 290.731 355.552 192 512 192c156.448 0 296.021 98.73 418.41 291.605 3.708 5.834 9.905 15.3 18.59 28.395-8.759 13.212-14.955 22.676-18.59 28.395C808.022 733.269 668.449 832 512 832zm0-576c-129.515 0-249.461 83.85-360.117 256C262.539 684.15 382.485 768 512 768c129.515 0 249.461-83.85 360.117-256C761.461 339.85 641.515 256 512 256zm0 405.333c-83.21 0-150.667-66.858-150.667-149.333S428.79 362.667 512 362.667c83.21 0 150.667 66.858 150.667 149.333S595.21 661.333 512 661.333zm0-64c47.552 0 86.101-38.208 86.101-85.333S559.552 426.667 512 426.667 425.899 464.875 425.899 512s38.549 85.333 86.101 85.333z"/>
        </g>
    </g>
</svg>
