<svg xmlns="http://www.w3.org/2000/svg"   viewBox="0 0 1024 1025">
    <g fill="none" fill-rule="evenodd">
        <g fill="#000">
            <path d="M512 0c282.857 0 512 229.257 512 512s-229.257 512-512 512S0 794.743 0 512 229.257 0 512 0zm84.807 426.2c-15.655-15.156-40.632-15.002-56.097.463-15.621 15.621-15.621 40.948 0 56.569l.971.988c29.814 30.904 27.64 83.597-7.05 118.286L433.71 703.427l-1.057 1.042c-35.049 34.032-87.7 35.555-118.159 5.095l-.972-.988c-29.813-30.904-27.639-83.597 7.05-118.286l.465-.471c15.155-15.655 15-40.633-.464-56.097-15.621-15.621-40.948-15.621-56.569 0-65.433 65.432-69.063 169.426-6.137 232.353l1.959 1.926c63.102 60.98 165.674 56.773 230.452-8.005L591.2 659.075l1.944-1.975c63.554-65.534 66.49-168.081 4.193-230.378zM764.174 256c-63.102-60.98-165.674-56.774-230.452 8.004L432.8 364.925l-1.944 1.975c-63.554 65.534-66.49 168.081-4.193 230.378l.53.523c15.655 15.155 40.632 15 56.097-.464 15.621-15.621 15.621-40.948 0-56.569l-.971-.988c-29.814-30.904-27.64-83.597 7.05-118.286L590.29 320.573l1.057-1.042c35.049-34.032 87.7-35.555 118.159-5.095l.972.988c29.813 30.904 27.639 83.597-7.05 118.286l-.465.471c-15.155 15.655-15 40.633.464 56.097 15.621 15.621 40.948 15.621 56.569 0 65.433-65.432 69.063-169.426 6.137-232.353z"/>
        </g>
    </g>
</svg>
