<svg xmlns="http://www.w3.org/2000/svg"   viewBox="0 0 1024 1024">
    <g fill="none" fill-rule="evenodd">
        <g fill="#000">
            <path d="M512 0c282.77 0 512 229.23 512 512s-229.23 512-512 512S0 794.77 0 512 229.23 0 512 0zm0 204.8c-131.96 0-238.933 106.974-238.933 238.933 0 79.456 38.783 149.852 98.452 193.287-99.008 34-166.719 102.819-166.719 182.18 0 4.578.225 9.12.669 13.624l-.008.01c79.665 76.136 187.641 122.9 306.539 122.9s226.873-46.763 306.538-122.9l-.007-.009c.444-4.503.669-9.047.669-13.625 0-79.361-67.71-148.18-166.718-182.174 59.668-43.44 98.451-113.837 98.451-193.293C750.933 311.774 643.96 204.8 512 204.8z"/>
        </g>
    </g>
</svg>
