<svg xmlns="http://www.w3.org/2000/svg"   viewBox="0 0 1024 1024">
    <g fill="none" fill-rule="evenodd">
        <g fill="#000">
            <path d="M752 64c44.183 0 80 35.817 80 80v736c0 44.183-35.817 80-80 80H272c-44.183 0-80-35.817-80-80V144c0-44.183 35.817-80 80-80h480zm-418.214 64H272c-8.731 0-15.83 6.994-16 15.685V880c0 8.731 6.994 15.83 15.685 16H752c8.731 0 15.83-6.994 16-15.685V144c0-8.731-6.994-15.83-15.685-16h-61.872l-18.588 34.539C662.09 180.684 643.15 192 622.543 192h-220.98c-20.662 0-39.645-11.377-49.386-29.599L333.786 128zM608 769.522c17.673 0 32 14.327 32 32 0 17.673-14.327 32-32 32H416c-17.673 0-32-14.327-32-32 0-17.673 14.327-32 32-32h192z"/>
        </g>
    </g>
</svg>
