<svg xmlns="http://www.w3.org/2000/svg"   viewBox="0 0 16 16">
    <g fill="none" fill-opacity=".45" fill-rule="evenodd">
        <g fill="#000">
            <g>
                <g>
                    <path d="M13.24 3H1v10h2.44l.24 2.72L6.16 13H15V3h-1.76zM3.999 9C3.458 9 3 8.542 3 8s.458-1 .999-1c.54 0 .998.458.998 1 .042.542-.416 1-.998 1zM8 9c-.542 0-1-.458-1-1s.458-1 1-1 1 .458 1 1-.458 1-1 1zm3-1c0-.542.458-1 .999-1 .54 0 .998.458.998 1 .042.542-.416 1-.998 1C11.458 9 11 8.542 11 8z" transform="translate(-443 -1689) translate(360 1687) translate(83 2)"/>
                </g>
            </g>
        </g>
    </g>
</svg>
