<svg xmlns="http://www.w3.org/2000/svg"   viewBox="0 0 1024 1024">
    <g fill="none" fill-rule="evenodd">
        <g fill="#000">
            <path d="M479.543 611.543h1.028c4.115-5.029 10.515-7.314 16-10.972C508.8 592.457 521.03 584 533.6 575.543c32.8-21.943 64.914-46.4 97.029-69.029 8.685-6.171 28.457-17.143 34.057-25.028 2.857-4.115 5.028-11.657 1.943-16-2.515-7.429-13.486-5.029-22.972-5.029H577.6c-6.4 3.886-41.6 1.029-52 1.029l-129.029 2.057c-10.514 0-46.514-2.972-53.028 1.028 13.143-.114 26.628 2.4 37.943 5.029 15.2 3.543 30.857 2.743 45.028 5.943l16 1.028c23.657 5.486 51.2 5.486 74.972 10.972 15.2 3.543 30.857 2.743 45.028 6.057 6.857 1.6 14.4-.571 18.972 2.971h-1.943c-13.143 11.772-38.057 20.229-54.057 30.058-39.772 24.342-81.6 46.057-121.029 70.971-8.457 5.371-23.428 13.829-28 22.971-3.086 6.172-1.371 20.343 4 22.972h16l278.972-13.029v-2.971l-196-14.972v-1.028h.114zM512 0C229.257 0 0 229.257 0 512s229.257 512 512 512 512-229.257 512-512S794.857 0 512 0zm282.514 474.514c-8.571 6.515-14.628 15.657-22.971 21.943-23.2 17.6-43.429 40.572-64 61.029-6.972 6.971-36.914 30.285-37.943 38.971 3.2 4.914 5.143 24.114 5.943 30.972 8.914-.229 25.257-1.029 30.971 2.971l-30.057 1.029 30.057 174.057h-1.943c-9.257-9.029-35.2-18.286-48-25.029-32.8-17.028-65.828-33.828-98.971-50.971-11.429-5.943-22.971-11.772-34.971-17.943-2.515-1.257-8.229-6.972-12-6.057-1.486.457-5.258 4.114-6.972 5.028-10.628 5.486-21.028 10.743-30.971 16-35.772 18.629-71.2 35.429-106.972 53.943-14.4 7.543-32.228 20.343-48 25.029l37.029-213.029c-10.743-7.086-18.972-18.171-28-26.971-16.229-15.886-32.914-33.372-50.972-46.972l-21.028-22.057c-14.286-10.743-26.4-24.457-38.972-37.028-5.714-5.715-13.485-10.058-18.057-17.029 12.343-1.143 26.4-3.314 38.057-6.057 17.029-4 34.172-3.314 49.943-6.972 23.315-5.485 47.657-4.685 70.057-10.057 13.143-3.085 51.315-3.085 58.972-9.028 4.8-5.372 6.514-13.372 10.057-20 7.2-13.943 14.4-28.457 21.943-42.972 22.057-42.4 44.228-85.714 65.028-129.028.8 1.028.343.228 1.029 1.943 4.229 3.657 5.257 9.828 8 14.971 7.086 13.714 13.714 27.886 21.029 42.057l68 133.943c27.657 2.629 60.457 6.743 86.971 13.029 23.314 5.485 47.657 4.685 69.943 10.057 13.371 3.2 52.114 2.857 60 9.028-12.686 8.343-20.572 22.4-32.229 31.2z"/>
        </g>
    </g>
</svg>
