<svg xmlns="http://www.w3.org/2000/svg"   viewBox="0 0 1024 1024">
    <g fill="none" fill-rule="evenodd">
        <g fill="#000">
            <path d="M512 64c141.385 0 256 114.615 256 256v128h128v512H128V448h128V320c0-141.385 114.615-256 256-256zm0 480c-53.02 0-96 42.98-96 96 0 41.799 26.714 77.358 64 90.537V864h64l.002-133.463C581.287 717.357 608 681.798 608 640c0-53.02-42.98-96-96-96zm0-416c-104.978 0-190.279 84.25-191.974 188.825L320 320v128h384V320c0-106.039-85.961-192-192-192z"/>
        </g>
    </g>
</svg>
