<svg xmlns="http://www.w3.org/2000/svg"   viewBox="0 0 1024 1024">
    <g fill="none" fill-rule="evenodd">
        <g fill="#000">
            <path d="M399.84 615.936c-22.816 0-43.808 18.784-44.16 39.488-.288 17.664 14.56 31.104 34.464 31.104 23.68.032 43.488-17.792 43.647-39.231.16-18.272-14.111-31.361-33.952-31.361h.001zm56.768-15.743c-6.783 3.328-13.312 8.223-17.983 14.143-.992 1.28 5.951 8.833 11.583 16.928 7.232-7.936 13.76-12.512 16.16-18.688 1.056-2.655-8.64-12.96-9.76-12.383zm143.296-89.76c-11.008-6.881-22.848-12.64-34.944-17.536-40.48-16.192-82.944-20.992-126.112-17.216-65.28 5.664-125.568 24.896-172.449 73.312-54.367 56.095-47.008 127.103 16.992 171.615 43.328 30.08 92.511 40.416 144.48 39.168 9.44 0 18.912.736 28.288-.128 59.168-5.664 113.664-23.616 158.816-63.649 65.984-58.4 59.36-138.816-15.073-185.568l.002.001zm-73.216 164.895c-22.465 34.048-62.24 54.72-105.44 54.944-54.465.352-95.328-30.24-102.561-77.824-1.6-9.728-1.153-20.416 1.056-29.952 10.976-46.687 43.296-72.767 87.296-84.543 43.456-11.52 83.872-4 115.488 30.527 26.175 28.577 27.231 72.129 4.16 106.848zM512.032 0C229.247 0 0 229.247 0 512s229.247 512 512 512c282.751 0 512-229.247 512-512C1024 229.249 794.784 0 512.032 0zm244.16 664.864C712.448 732.16 645.25 765.536 570.176 783.936c-36.32 8.96-74.24 11.712-93.952 14.72-93.089-2.304-165.088-16.064-230.016-56.415-81.824-50.849-105.664-127.04-62.88-213.44 45.951-92.673 117.44-161.217 211.264-205.28 17.408-8.16 37.215-12.8 56.32-15.168 39.36-4.896 62.335 17.44 61.344 57.056-.224 8.672-2.177 17.215-2.687 25.951-.384 7.456.16 15.04.351 22.528 7.648-1.248 15.36-2.048 22.848-3.712 30.336-6.496 60.352-17.345 90.912-18.976 53.055-2.816 76.832 29.312 60.704 79.711-6.944 21.473-1.76 28.704 18.304 35.904 75.456 27.2 97.185 90.912 53.504 158.048zm-39.584-282.529c-12.48-15.872-40.8-19.551-49.76-19.648-13.248-.095-23.935-10.944-23.809-24.16.097-13.184 10.817-23.776 23.937-23.776h.192c5.856 0 58.368 1.505 87.104 37.92 11.392 14.432 23.071 40.097 13.824 80.033-2.56 11.136-12.449 18.624-23.36 18.624-1.76 0-3.552-.224-5.376-.672-12.929-2.977-20.96-15.872-17.984-28.736 4.032-17.472 2.465-30.432-4.768-39.585zM857.696 460.8c-1.888 11.776-12.032 20.288-23.681 20.288-1.184 0-2.496-.16-3.744-.352-13.056-2.016-21.985-14.304-19.968-27.392 8.896-56.608-.16-100.64-27.04-130.72-46.785-52.417-132.545-49.313-133.409-49.313-13.375.544-24.447-9.696-25.024-22.88-.544-13.216 9.76-24.415 22.944-25.024 4.448-.16 109.441-3.84 171.264 65.249 36.864 41.376 49.857 98.623 38.656 170.144h.002z"/>
        </g>
    </g>
</svg>
