<svg xmlns="http://www.w3.org/2000/svg"   viewBox="0 0 1024 1024">
    <g fill="none" fill-rule="evenodd">
        <g fill="#000">
            <path d="M579.584 511.59c-11.674 0-23.381 10.82-23.381 24.167 0 10.854 11.673 21.709 23.381 21.709 17.51 0 30.037-10.855 30.037-21.71 0-13.311-12.527-24.166-30.037-24.166zm-76.766-112.64c18.364 0 30.037-11.673 30.037-29.184 0-18.363-11.673-29.184-30.037-29.184-17.51 0-34.201 10.82-34.201 29.184 0 17.51 16.69 29.184 34.201 29.184zM512 0C229.24 0 0 229.24 0 512s229.24 512 512 512 512-229.24 512-512S794.76 0 512 0zm-96.768 641.707c-30.857 0-53.385-4.984-82.603-13.312l-84.24 42.53 24.234-71.748c-59.256-41.711-94.31-94.277-94.31-158.516 0-113.425 106.803-200.192 236.919-200.192 115.132 0 217.737 68.404 237.739 165.206-7.409-1.578-14.954-2.424-22.528-2.526-113.425 0-201.046 85.094-201.046 187.699 0 17.51 2.526 33.348 6.69 50.04-6.918.685-13.87.959-20.82.819h-.035zm347.853 81.749l16.691 60.075-63.386-35.84c-24.2 4.983-47.547 12.492-71.748 12.492-111.787 0-200.226-76.765-200.226-171.86 0-95.096 88.44-171.828 200.226-171.828 105.95 0 201.045 76.732 201.045 171.827 0 53.385-35.874 100.932-82.602 135.168v-.034zM337.647 340.582c-17.51 0-35.84 10.82-35.84 29.184 0 17.51 18.33 29.219 35.84 29.219 16.725 0 30.037-11.708 30.037-29.219 0-18.363-13.312-29.184-30.037-29.184zM710.554 511.59c-12.527 0-23.382 10.82-23.382 24.167 0 10.854 10.855 21.709 23.382 21.709 16.657 0 29.184-10.855 29.184-21.71 0-13.311-12.527-24.166-29.184-24.166z"/>
        </g>
    </g>
</svg>
