<svg xmlns="http://www.w3.org/2000/svg"   viewBox="0 0 1024 1025">
    <g fill="none" fill-rule="evenodd">
        <g fill="#000">
            <path d="M461.507 74.38c30.79-19.665 70.196-19.665 100.986 0 29.559 18.877 46.015 52.58 42.953 87.31l-.052.556.745.215c139.637 41.27 236.19 168.714 238.125 314.31l.03 4.462-.001 217.863 59.622 50.768v109.183h-197.66l-42.404 44.24c-39.633 41.347-94.268 64.915-151.568 65.405l-1.737.007c-57.83-.047-113.144-23.66-153.18-65.392l-42.46-44.26h-194.82v-109.63l59.62-48.682V481.233c-.001-147.448 97.093-277.08 238.228-318.792l.67-.194-.054-.59c-3.026-34.336 13.058-67.698 42.038-86.683zm156.094 784.667l-214.005.001c27.975 29.134 66.61 45.618 107.003 45.651 40.418-.016 79.08-16.52 107.05-45.699l-.048.047zm-89.556-730.73c-9.784-6.248-22.306-6.248-32.09 0-9.785 6.25-15.051 17.61-13.497 29.115l6.976 51.423-49.963 13.981c-115.773 32.55-195.766 138.135-195.765 258.397v249.871l-59.62 48.68v15.263h69.42l-.045-.047h514.187l-.047.047h72.314v-15.62l-59.621-50.767V481.233c0-120.262-79.992-225.847-195.765-258.397l-49.962-13.981 6.975-51.423c1.554-11.505-3.712-22.866-13.497-29.114z"/>
        </g>
    </g>
</svg>
