<svg xmlns="http://www.w3.org/2000/svg"   viewBox="0 0 1024 1025">
    <g fill="none" fill-rule="evenodd">
        <g fill="#000">
            <path d="M511.998-.004C794.774-.004 1024 229.23 1024 512s-229.228 512.004-512.002 512.004C229.228 1024.004 0 794.77 0 511.998 0 229.228 229.228-.004 511.998-.004zm0 51.2C257.506 51.196 51.2 257.504 51.2 511.998c0 254.496 206.306 460.806 460.798 460.806C766.493 972.804 972.8 766.494 972.8 512c0-254.496-206.306-460.804-460.802-460.804zm24.088 653.846c14.14 0 25.6 11.46 25.6 25.604v76.798c0 14.138-11.458 25.602-25.6 25.602h-76.8c-14.136 0-25.598-11.462-25.598-25.602v-76.798c0-14.142 11.462-25.604 25.598-25.604h76.8zm-31.422-513.134c61.39 0 112.35 14.634 152.978 43.944 40.556 29.27 60.892 72.642 60.892 130.15 0 35.218-12.356 64.916-29.946 89.058-10.29 14.672-33.646 33.368-62.886 56.162l-32.404 22.362c-15.738 12.208-29.696 26.42-34.858 42.692-1.764 5.544-3.086 14.656-3.976 24.496-.448 4.952-4.878 15.054-15.232 15.054h-83.34c-13.546 0-15.966-10.61-15.74-15.8 1.5-34.016 4.616-64.216 18.476-80.474 28.06-32.9 91.908-73.852 91.908-73.852 9.72-7.336 17.59-15.31 23.542-24 10.82-14.92 19.796-31.304 19.796-49.214 0-20.584-6.018-39.348-18.094-56.332-12.034-16.916-34.078-25.392-66.02-25.392-31.444 0-53.734 10.436-66.874 31.3-9.706 15.416-15.818 29.588-18.348 45.01-.9 5.458-4.4 16.954-16.066 16.954H327.19c-17.308 0-21.118-11.216-20.618-16.622 6.266-68.138 32.892-114.692 79.972-144.586 32.014-20.582 71.4-30.91 118.12-30.91z" transform="translate(0 1)"/>
        </g>
    </g>
</svg>
