<?xml version="1.0" standalone="no"?><!DOCTYPE svg PUBLIC "-//W3C//DTD SVG 1.1//EN" "http://www.w3.org/Graphics/SVG/1.1/DTD/svg11.dtd"><svg t="1560409113736" class="icon" style="" viewBox="0 0 1024 1024" version="1.1" xmlns="http://www.w3.org/2000/svg" p-id="1177" xmlns:xlink="http://www.w3.org/1999/xlink"  ><defs><style type="text/css"></style></defs><path d="M512 1024C229.23 1024 0 794.77 0 512S229.23 0 512 0s512 229.23 512 512-229.23 512-512 512z m-23.06-724.693c-99.605 11.742-176.711 97.025-176.711 200.738V628.56c-21.088 12.38-35.342 35.449-35.342 61.714 0 39.235 31.808 71.336 70.684 71.336h329.86c38.877 0 70.685-32.101 70.685-71.336 0-26.265-14.255-49.333-35.342-61.714V500.045c0-103.713-77.107-188.996-176.711-200.738v-13.268c0-13.079-10.603-23.779-23.562-23.779-12.959 0-23.561 10.7-23.561 23.779v13.268z m-129.588 319.63V500.046c0-85.602 68.328-154.56 153.15-154.56 84.82 0 153.149 68.958 153.149 154.56v118.893h-306.3z m318.08 47.558c12.958 0 23.561 10.7 23.561 23.778s-10.603 23.779-23.561 23.779H347.57c-12.959 0-23.562-10.7-23.562-23.779 0-13.078 10.603-23.778 23.562-23.778h329.86z m-164.93-225.896c12.958 0 23.56 10.7 23.56 23.778 0 13.079-10.602 23.779-23.56 23.779-12.96 0-23.562-10.7-23.562-23.779 0-13.078 10.602-23.778 23.561-23.778z m0-47.557c-38.877 0-70.685 32.1-70.685 71.335 0 39.235 31.808 71.336 70.684 71.336 38.877 0 70.685-32.101 70.685-71.336 0-39.234-31.808-71.335-70.685-71.335z" fill="#000000" p-id="1178"></path></svg>