<?xml version="1.0" standalone="no"?><!DOCTYPE svg PUBLIC "-//W3C//DTD SVG 1.1//EN" "http://www.w3.org/Graphics/SVG/1.1/DTD/svg11.dtd"><svg t="1559045345284" class="icon" style="" viewBox="0 0 1024 1024" version="1.1" xmlns="http://www.w3.org/2000/svg" p-id="2887" xmlns:xlink="http://www.w3.org/1999/xlink"  ><defs><style type="text/css"></style></defs><path d="M790.164 227.425c-13.18-11.3-31.198-16.085-49.26-13.33l-309.728 48.038c-35.302 5.466-62.978 37.517-62.978 72.971v307.308c-15.815-10.586-34.827-16.808-55.31-16.808-54.984 0-99.555 44.571-99.555 99.555 0 54.985 44.571 99.556 99.556 99.556 54.984 0 99.555-44.571 99.555-99.556V442.556l353.976-54.899v198.064c-15.815-10.586-34.827-16.808-55.309-16.808-54.984 0-99.555 44.57-99.555 99.555 0 54.985 44.57 99.556 99.555 99.556 54.985 0 99.556-44.571 99.556-99.556V273.347c0-18.019-7.476-34.763-20.503-45.922zM312.889 780.468c-30.506 0-55.309-24.802-55.309-55.309 0-30.506 24.803-55.308 55.309-55.308 30.506 0 55.309 24.802 55.309 55.308 0 30.507-24.803 55.31-55.31 55.31z m99.555-382.688v-62.676c0-13.47 11.926-27.135 25.515-29.243l309.729-48.039c5.488-0.842 10.305 0.302 13.675 3.198 3.306 2.831 5.056 7.098 5.056 12.327v69.535L412.444 397.78z m298.667 325.997c-30.506 0-55.309-24.803-55.309-55.309 0-30.506 24.803-55.309 55.31-55.309 30.505 0 55.308 24.803 55.308 55.31 0 30.505-24.803 55.308-55.309 55.308z" fill="#000000" p-id="2888"></path></svg>