<?xml version="1.0" standalone="no"?><!DOCTYPE svg PUBLIC "-//W3C//DTD SVG 1.1//EN" "http://www.w3.org/Graphics/SVG/1.1/DTD/svg11.dtd"><svg t="1559045381574" class="icon" style="" viewBox="0 0 1024 1024" version="1.1" xmlns="http://www.w3.org/2000/svg" p-id="4207" xmlns:xlink="http://www.w3.org/1999/xlink"  ><defs><style type="text/css"></style></defs><path d="M585.656 322.724l144.343-144.228a24.757 24.757 0 0 1 27.19-5.36c2.926 1.212 5.673 3 8.064 5.36l80.251 80.38a24.76 24.76 0 0 1 0 35.125c-0.51 0.51-1.038 0.995-1.58 1.452l-142.77 142.77L819.352 556.42a24.76 24.76 0 0 1 0 35.126c-0.474 0.468-0.962 0.912-1.462 1.334L565.394 845.376a25.725 25.725 0 0 1-0.128 0.128c-9.743 9.615-25.383 9.615-35.126-0.128l-82.717-82.687a25.518 25.518 0 0 1-2.65-2.65L178.495 493.86a24.757 24.757 0 0 1-5.36-27.19c1.212-2.927 3-5.673 5.36-8.064l253.83-253.83c6.281-6.281 15.014-8.513 23.037-6.695a25.082 25.082 0 0 1 12.345 6.695l117.948 117.948z m19.696 50.544a25.395 25.395 0 0 1-2.012 2.266c-5.969 5.89-14.199 8.173-21.92 6.816a24.767 24.767 0 0 1-13.334-6.944l-118.07-118.069-72.882 72.883 316.524 316.64 72.94-72.94-118.004-118.006a25.813 25.813 0 0 1-0.128-0.128c-9.743-9.743-9.615-25.383 0-35.126l144.3-144.3-45.161-45.232-142.253 142.14z m-263.341-7.925l-110.89 110.89 48.458 48.458 38.139-38.138a24.76 24.76 0 0 1 35.126 0c9.614 9.743 9.614 25.511 0 35.126l-38.139 38.138 57.496 57.497 59.355-59.355a24.76 24.76 0 0 1 35.126 0c9.743 9.743 9.743 25.51 0 35.125l-59.355 59.356 56.279 56.278 38.074-38.074a24.76 24.76 0 0 1 35.126 0 24.76 24.76 0 0 1 0 35.126l-38.074 38.074 48.97 48.971 110.891-110.89-316.582-316.582z" fill="#000000" p-id="4208"></path></svg>