<?xml version="1.0" standalone="no"?><!DOCTYPE svg PUBLIC "-//W3C//DTD SVG 1.1//EN" "http://www.w3.org/Graphics/SVG/1.1/DTD/svg11.dtd"><svg t="1559045355212" class="icon" style="" viewBox="0 0 1024 1024" version="1.1" xmlns="http://www.w3.org/2000/svg" p-id="3217" xmlns:xlink="http://www.w3.org/1999/xlink"  ><defs><style type="text/css"></style></defs><path d="M351.18 267.487h459.487v68.923H351.179v-68.923z m0 218.257h459.487v68.923H351.179v-68.923z m0 218.256h459.487v68.923H351.179V704zM213.332 301.949c0-25.377 20.572-45.949 45.95-45.949 25.376 0 45.948 20.572 45.948 45.949 0 25.376-20.572 45.948-45.949 45.948s-45.949-20.572-45.949-45.948z m0 218.256c0-25.377 20.572-45.949 45.95-45.949 25.376 0 45.948 20.572 45.948 45.95 0 25.376-20.572 45.948-45.949 45.948s-45.949-20.572-45.949-45.949z m0 218.257c0-25.377 20.572-45.95 45.95-45.95 25.376 0 45.948 20.573 45.948 45.95 0 25.376-20.572 45.948-45.949 45.948s-45.949-20.572-45.949-45.948z" fill="#000000" p-id="3218"></path></svg>