<?xml version="1.0" standalone="no"?><!DOCTYPE svg PUBLIC "-//W3C//DTD SVG 1.1//EN" "http://www.w3.org/Graphics/SVG/1.1/DTD/svg11.dtd"><svg t="1559045337813" class="icon" style="" viewBox="0 0 1024 1024" version="1.1" xmlns="http://www.w3.org/2000/svg" p-id="2666" xmlns:xlink="http://www.w3.org/1999/xlink"  ><defs><style type="text/css"></style></defs><path d="M727.879 640.084l40.261-32.589c98.412-79.707 113.591-224.088 33.907-322.5s-224.088-113.615-322.5-33.907l-38.607 31.27-82.394-102.729c-8.48-10.08-23.505-11.433-33.649-3.028-10.144 8.405-11.608 23.42-3.28 33.626L801.52 808.516c8.48 10.08 23.505 11.432 33.649 3.027 10.144-8.405 11.608-23.419 3.28-33.625l-110.57-137.834zM517.266 297.68c47.02-38.076 110.783-48.175 167.268-26.492 56.485 21.682 97.112 71.852 106.577 131.611 9.465 59.759-13.67 120.028-60.69 158.104l-40.046 32.42-88.964-110.905 63.593-52.97-38.39-46.065-62.707 52.275-85.463-106.54 38.823-31.438z m-10.598 444.412c-47.02 38.077-110.783 48.176-167.268 26.493-56.485-21.683-97.112-71.853-106.577-131.612-9.465-59.758 13.67-120.027 60.69-158.104l83.162-67.334-37.72-46.592-83.161 67.334c-98.412 79.684-113.591 224.089-33.907 322.5 79.708 98.412 224.088 113.591 322.5 33.908l78.773-63.786-37.72-46.592-78.772 63.785z" fill="#000000" p-id="2667"></path><path d="M463.456 519.347l38.368 46.04-94.312 78.581-38.367-46.04z" fill="#000000" p-id="2668"></path></svg>