<?xml version="1.0" standalone="no"?><!DOCTYPE svg PUBLIC "-//W3C//DTD SVG 1.1//EN" "http://www.w3.org/Graphics/SVG/1.1/DTD/svg11.dtd"><svg t="1560409145872" class="icon" style="" viewBox="0 0 1024 1024" version="1.1" xmlns="http://www.w3.org/2000/svg" p-id="1727" xmlns:xlink="http://www.w3.org/1999/xlink"  ><defs><style type="text/css"></style></defs><path d="M886.234 45.087c68.9 0 124.757 57.95 124.756 129.421v485.298c0 71.47-57.112 137.356-127.593 137.356H688.828c-65.43 63.444-165.847 177.301-165.847 177.301-6.09 6.335-15.96 6.335-22.05 0 0 0-137.16-141.996-170.3-177.301H140.51c-70.483 0-127.594-65.88-127.594-137.356V174.51c0-71.472 55.863-129.423 124.757-129.423h748.56zM262.436 368.62c-34.452 0-62.38 28.964-62.38 64.708 0 35.748 27.928 64.714 62.38 64.714 34.448 0 62.376-28.966 62.376-64.714 0-35.743-27.928-64.708-62.376-64.708z m249.52 0c-34.452 0-62.382 28.964-62.382 64.708 0 35.748 27.934 64.714 62.382 64.714 34.447 0 62.377-28.966 62.377-64.714 0-35.743-27.93-64.708-62.377-64.708z m249.52 0c-34.453 0-62.381 28.964-62.381 64.708 0 35.748 27.928 64.714 62.382 64.714 34.447 0 62.375-28.966 62.375-64.714 0-35.743-27.928-64.708-62.375-64.708z" fill="#000000" p-id="1728"></path></svg>