<?xml version="1.0" standalone="no"?><!DOCTYPE svg PUBLIC "-//W3C//DTD SVG 1.1//EN" "http://www.w3.org/Graphics/SVG/1.1/DTD/svg11.dtd"><svg t="1560409142352" class="icon" style="" viewBox="0 0 1024 1024" version="1.1" xmlns="http://www.w3.org/2000/svg" p-id="1617" xmlns:xlink="http://www.w3.org/1999/xlink"  ><defs><style type="text/css"></style></defs><path d="M969.94 157.567H53.496C30.6 157.567 12 175.933 12 198.6s18.599 41.033 41.498 41.033h60.329v615.61c0 78.347 64.28 142.047 143.325 142.047h509.134c79.043 0 143.325-63.7 143.325-142.046v-615.61h60.328c22.9 0 41.498-18.367 41.498-41.034 0-22.667-18.598-41.033-41.498-41.033zM417.447 740.282c0 18.25-14.88 33.012-33.013 33.012-18.133 0-33.012-14.762-33.012-33.012V394c0-18.134 14.762-33.013 33.012-33.013 18.134 0 33.013 14.763 33.013 33.013v346.28z m254.567 0c-0.117 18.25-14.88 33.012-33.013 33.012-18.133 0-33.012-14.762-33.012-33.012V394c0-18.134 14.762-33.013 33.012-33.013 18.134 0 33.013 14.763 33.013 33.013v346.28zM328.884 27h366c50.81 0 92 41.19 92 92v38.565h-550V119c0-50.81 41.19-92 92-92z" fill="#000000" p-id="1618"></path></svg>