<?xml version="1.0" standalone="no"?><!DOCTYPE svg PUBLIC "-//W3C//DTD SVG 1.1//EN" "http://www.w3.org/Graphics/SVG/1.1/DTD/svg11.dtd"><svg t="1559789948375" class="icon" style="" viewBox="0 0 1024 1024" version="1.1" xmlns="http://www.w3.org/2000/svg" p-id="1081" xmlns:xlink="http://www.w3.org/1999/xlink"  ><defs><style type="text/css"></style></defs><path d="M512 445.709l294.98-294.98c18.305-18.305 47.985-18.305 66.29 0 18.306 18.306 18.306 47.986 0 66.292L578.292 512l294.98 294.98c18.305 18.305 18.305 47.985 0 66.29-18.306 18.306-47.986 18.306-66.292 0L512 578.292l-294.98 294.98c-18.305 18.305-47.985 18.305-66.29 0-18.306-18.306-18.306-47.986 0-66.292L445.708 512l-294.98-294.98c-18.305-18.305-18.305-47.985 0-66.29 18.306-18.306 47.986-18.306 66.292 0L512 445.708z" fill="#000000" p-id="1082"></path></svg>