<?xml version="1.0" standalone="no"?><!DOCTYPE svg PUBLIC "-//W3C//DTD SVG 1.1//EN" "http://www.w3.org/Graphics/SVG/1.1/DTD/svg11.dtd"><svg t="1559045388673" class="icon" style="" viewBox="0 0 1024 1024" version="1.1" xmlns="http://www.w3.org/2000/svg" p-id="4427" xmlns:xlink="http://www.w3.org/1999/xlink"  ><defs><style type="text/css"></style></defs><path d="M512 170.667c188.514 0 341.333 152.82 341.333 341.333 0 188.514-152.82 341.333-341.333 341.333-188.514 0-341.333-152.82-341.333-341.333 0-188.514 152.82-341.333 341.333-341.333z m0 614.4c150.801 0 273.067-122.266 273.067-273.067S662.8 238.933 512 238.933 238.933 361.2 238.933 512 361.2 785.067 512 785.067zM336.457 424.229c0-24.238 19.648-43.886 43.886-43.886 24.237 0 43.886 19.648 43.886 43.886 0 24.237-19.649 43.885-43.886 43.885-24.238 0-43.886-19.648-43.886-43.885z m263.314 0c0-24.238 19.649-43.886 43.886-43.886 24.238 0 43.886 19.648 43.886 43.886 0 24.237-19.648 43.885-43.886 43.885-24.237 0-43.886-19.648-43.886-43.885z m-258.438 114.59h341.334c0 94.265-76.402 170.667-170.667 170.667s-170.667-76.402-170.667-170.667z" fill="#000000" p-id="4428"></path></svg>