<?xml version="1.0" standalone="no"?><!DOCTYPE svg PUBLIC "-//W3C//DTD SVG 1.1//EN" "http://www.w3.org/Graphics/SVG/1.1/DTD/svg11.dtd"><svg t="1560409138859" class="icon" style="" viewBox="0 0 1024 1024" version="1.1" xmlns="http://www.w3.org/2000/svg" p-id="1507" xmlns:xlink="http://www.w3.org/1999/xlink"  ><defs><style type="text/css"></style></defs><path d="M661.862 484.289H362.058c-13.801 0-24.97 11.199-24.97 25.037 0 13.839 11.169 25.037 24.97 25.037h299.884c13.801 0 24.97-11.198 24.97-25.037-0.08-13.838-11.249-25.037-25.05-25.037z m0 135.585H362.058c-13.801 0-24.97 11.199-24.97 25.037s11.169 25.037 24.97 25.037h299.884c13.801 0 24.97-11.199 24.97-25.037-0.08-13.838-11.249-25.037-25.05-25.037z m58.796-370.279v-19.758c0-13.838-11.169-25.037-24.97-25.037-13.802 0-24.97 11.199-24.97 25.037v19.758H353.202v-19.758c0-13.838-11.169-25.037-24.97-25.037-13.802 0-24.97 11.199-24.97 25.037v19.758H211.04c-31.752 0-57.44 25.757-57.44 57.594v454.349c0 31.836 25.688 57.594 57.44 57.594h601.92c31.752 0 57.44-25.758 57.44-57.594v-454.35c-0.08-31.756-25.768-57.593-57.52-57.593h-92.222zM211.04 307.189h92.302v12.958c0 13.839 11.169 25.037 24.97 25.037 13.802 0 24.97-11.198 24.97-25.037V307.19h317.515v12.958c0 13.839 11.169 25.037 24.97 25.037 13.802 0 24.97-11.198 24.97-25.037V307.19h92.303v78.47h-602v-78.47z m601.84 454.349H211.04V435.494h601.92v326.044h-0.08z" fill="#000000" p-id="1508"></path></svg>