<?xml version="1.0" standalone="no"?><!DOCTYPE svg PUBLIC "-//W3C//DTD SVG 1.1//EN" "http://www.w3.org/Graphics/SVG/1.1/DTD/svg11.dtd"><svg t="1559045358604" class="icon" style="" viewBox="0 0 1024 1024" version="1.1" xmlns="http://www.w3.org/2000/svg" p-id="3327" xmlns:xlink="http://www.w3.org/1999/xlink"  ><defs><style type="text/css"></style></defs><path d="M755.946 766.121c12.26 0 22.2 9.94 22.2 22.2 0 12.262-9.94 22.201-22.2 22.201H267.534c-12.261 0-22.2-9.94-22.2-22.2 0-12.261 9.939-22.2 22.2-22.2h488.412zM511.74 714.438c-119.545 0-216.455-96.91-216.455-216.455V213.75h77.701v284.233c0 76.632 62.122 138.754 138.754 138.754 76.631 0 138.753-62.122 138.753-138.754V213.75h77.702v284.233c0 119.545-96.91 216.455-216.455 216.455z" fill="#000000" p-id="3328"></path></svg>