<?xml version="1.0" standalone="no"?><!DOCTYPE svg PUBLIC "-//W3C//DTD SVG 1.1//EN" "http://www.w3.org/Graphics/SVG/1.1/DTD/svg11.dtd"><svg t="1559045370571" class="icon" style="" viewBox="0 0 1024 1024" version="1.1" xmlns="http://www.w3.org/2000/svg" p-id="3767" xmlns:xlink="http://www.w3.org/1999/xlink"  ><defs><style type="text/css"></style></defs><path d="M749.977 342.62h54.805c27.218 0 48.551 18.3 48.551 41.656v254.988c0 23.357-21.425 41.564-48.643 41.564h-54.713v41.839c0 25.103-20.414 45.517-45.517 45.517H216.184c-25.104 0-45.517-20.414-45.517-45.517V301.7c0-25.103 20.413-45.517 45.517-45.517H704.46c25.103 0 45.517 20.414 45.517 45.517v40.92z m-533.793-40.919v420.966H704.46V301.7H216.184zM403.31 644.966a11.369 11.369 0 0 1-15.908-2.667 11.348 11.348 0 0 1-2.115-6.62V387.77c0-6.253 5.058-11.402 11.403-11.402 2.39 0 4.69 0.735 6.62 2.115l173.61 123.954a11.369 11.369 0 0 1 2.666 15.908 12.225 12.225 0 0 1-2.666 2.666L403.31 644.966z" fill="#000000" p-id="3768"></path></svg>