<?xml version="1.0" standalone="no"?><!DOCTYPE svg PUBLIC "-//W3C//DTD SVG 1.1//EN" "http://www.w3.org/Graphics/SVG/1.1/DTD/svg11.dtd"><svg t="1559045404823" class="icon" style="" viewBox="0 0 1024 1024" version="1.1" xmlns="http://www.w3.org/2000/svg" p-id="4978" xmlns:xlink="http://www.w3.org/1999/xlink"  ><defs><style type="text/css"></style></defs><path d="M622.995 176.484L90.745 708.735c-6.527 6.526-6.527 17.207 0 23.734l103.518 103.519c6.528 6.527 19.42 11.867 28.65 11.867H554.54c9.23 0 22.123-5.34 28.65-11.867l349.654-349.653c6.527-6.526 6.527-17.206 0-23.734L646.73 176.484c-6.528-6.528-17.207-6.528-23.735 0z m-72.728 596.358c-6.527 6.526-19.42 11.867-28.649 11.867H264.865c-9.23 0-22.123-5.34-28.649-11.867l-48.799-48.799c-6.527-6.527-6.527-17.206 0-23.734l195.12-195.12c6.527-6.526 17.207-6.526 23.735 0l193.957 193.958c6.527 6.526 6.527 17.207 0 23.733l-49.962 49.962z" fill="#000000" p-id="4979"></path></svg>