<?xml version="1.0" standalone="no"?><!DOCTYPE svg PUBLIC "-//W3C//DTD SVG 1.1//EN" "http://www.w3.org/Graphics/SVG/1.1/DTD/svg11.dtd"><svg t="1559045395178" class="icon" style="" viewBox="0 0 1024 1024" version="1.1" xmlns="http://www.w3.org/2000/svg" p-id="4647" xmlns:xlink="http://www.w3.org/1999/xlink"  ><defs><style type="text/css"></style></defs><path d="M708.892 554.506c-16.639-25.63-41.187-42.677-73.622-51.117v-1.635c17.191-8.174 31.641-17.311 43.35-27.41 11.734-9.545 20.726-19.643 27.002-30.27 12.262-22.36 18.128-45.803 17.575-70.352 0-47.99-14.858-86.58-44.576-115.77-29.454-28.9-73.502-43.615-132.12-44.168h-253.66v596.378h273.712c46.91 0 86.028-15.677 117.405-47.054 31.642-30.006 47.727-70.76 48.256-122.285 0-31.089-7.766-59.869-23.322-86.317z m-319.06-260.152h146.45c32.988 0.553 57.272 8.584 72.805 24.14 15.82 16.638 23.73 36.955 23.73 60.95 0 23.996-7.91 43.904-23.73 59.725-15.533 17.167-39.817 25.775-72.805 25.775h-146.45v-170.59z m228.68 402.923c-15.533 17.72-40.081 26.857-73.622 27.41H389.833v-179.15h155.033c33.54 0.53 58.09 9.402 73.622 26.593 15.532 17.456 23.322 38.446 23.322 62.994 0 23.972-7.766 44.697-23.298 62.153z" fill="#000000" p-id="4648"></path></svg>