<?xml version="1.0" standalone="no"?><!DOCTYPE svg PUBLIC "-//W3C//DTD SVG 1.1//EN" "http://www.w3.org/Graphics/SVG/1.1/DTD/svg11.dtd"><svg t="1560409136073" class="icon" style="" viewBox="0 0 1024 1024" version="1.1" xmlns="http://www.w3.org/2000/svg" p-id="1397" xmlns:xlink="http://www.w3.org/1999/xlink"  ><defs><style type="text/css"></style></defs><path d="M956.889 815.175C953.62 732.635 911.137 659.619 845.778 612V386.603c0-130.159-94.771-238.095-222.222-263.492v-3.174C623.556 59.619 574.536 12 512.444 12c-62.091 0-111.11 47.619-111.11 107.937v6.349C273.881 151.683 179.11 259.619 179.11 389.778v225.397C113.751 662.794 71.268 735.81 68 818.349h888.889v-3.174zM489.569 1012h26.143c71.896 0 130.72-53.968 140.523-120.635H368.654C378.458 958.032 437.28 1012 509.176 1012H489.57z" fill="#000000" p-id="1398"></path></svg>