<?xml version="1.0" standalone="no"?><!DOCTYPE svg PUBLIC "-//W3C//DTD SVG 1.1//EN" "http://www.w3.org/Graphics/SVG/1.1/DTD/svg11.dtd"><svg t="1559045342136" class="icon" style="" viewBox="0 0 1024 1024" version="1.1" xmlns="http://www.w3.org/2000/svg" p-id="2777" xmlns:xlink="http://www.w3.org/1999/xlink"  ><defs><style type="text/css"></style></defs><path d="M321.98 571.679c-7.355 7.14-11.03 17.131-11.03 29.984 0 11.282 3.997 20.488 11.995 27.629 7.993 7.14 18.558 10.707 31.698 10.707 18.276 0 33.336-6.424 45.19-19.275 11.852-12.85 17.778-28.984 17.778-48.4v-22.708l-55.473 7.496c-19.421 2.572-32.804 7.427-40.159 14.567z m433.724-400.31h-487.37c-53.835 0-97.473 43.638-97.473 97.474v438.632c0 53.836 43.639 97.474 97.474 97.474h487.37c53.835 0 97.473-43.638 97.473-97.474V268.842c0-53.836-43.64-97.474-97.474-97.474zM459.16 668.485h-41.549V631.86h-1.072c-16.42 28.13-40.622 42.196-72.605 42.196-22.994 0-41.265-6.213-54.829-18.636-13.569-12.419-20.348-29.199-20.348-50.33 0-44.259 26.2-70.035 78.603-77.317l70.25-9.855c0-38.692-15.996-58.04-47.978-58.04-28.413 0-54.332 9.567-77.744 28.7v-40.48c23.559-14.704 50.759-22.06 81.6-22.06 57.11 0 85.669 29.984 85.669 89.955v152.494h0.003z m262.687-29.877c-19.63 23.633-45.799 35.447-78.495 35.447-30.841 0-54.328-12.994-70.465-38.98h-0.858v33.409h-41.977V317.882h41.977v154.633h0.858c18.559-30.983 45.69-46.475 81.386-46.475 29.7 0 53.294 10.459 70.786 31.376 17.492 20.918 26.24 49.512 26.24 85.778 0 39.977-9.82 71.783-29.452 95.416z m-79.139-177.875c-20.556 0-37.518 7.355-50.867 22.06-13.348 14.708-20.021 33.413-20.021 56.115v32.128c0 19.133 6.209 35.304 18.633 48.508 12.423 13.212 27.984 19.81 46.69 19.81 22.272 0 39.69-8.563 52.26-25.698 12.56-17.136 18.847-40.833 18.847-71.108 0-24.982-5.858-44.867-17.566-59.649-11.706-14.777-27.702-22.166-47.976-22.166z" fill="#000000" p-id="2778"></path></svg>