<?xml version="1.0" standalone="no"?><!DOCTYPE svg PUBLIC "-//W3C//DTD SVG 1.1//EN" "http://www.w3.org/Graphics/SVG/1.1/DTD/svg11.dtd"><svg t="1559045316135" class="icon" style="" viewBox="0 0 1024 1024" version="1.1" xmlns="http://www.w3.org/2000/svg" p-id="2555" xmlns:xlink="http://www.w3.org/1999/xlink"  ><defs><style type="text/css"></style></defs><path d="M802 255.746c-79.685-98.412-224.065-113.591-322.501-33.883l-75.512 61.148 37.72 46.592 75.512-61.148C564.239 230.38 628 220.28 684.486 241.963c56.485 21.682 97.112 71.852 106.577 131.611 9.465 59.759-13.67 120.028-60.69 158.104l-80.907 65.512 37.72 46.592 80.906-65.512A229.292 229.292 0 0 0 802 255.746zM506.643 712.867c-47.02 38.077-110.783 48.176-167.268 26.493-56.485-21.683-97.112-71.853-106.577-131.612-9.465-59.759 13.67-120.027 60.69-158.104l83.162-67.334-37.72-46.592-83.161 67.334c-98.412 79.684-113.591 224.089-33.907 322.5 79.684 98.412 224.088 113.591 322.5 33.908l78.773-63.786-37.72-46.592-78.772 63.785z" fill="#000000" p-id="2556"></path><path d="M626.397 360.464l38.391 46.041L407.344 621.05l-38.367-46.04z" fill="#000000" p-id="2557"></path></svg>