<?xml version="1.0" standalone="no"?><!DOCTYPE svg PUBLIC "-//W3C//DTD SVG 1.1//EN" "http://www.w3.org/Graphics/SVG/1.1/DTD/svg11.dtd"><svg t="1603790420731" class="icon" viewBox="0 0 1024 1024" version="1.1" xmlns="http://www.w3.org/2000/svg" p-id="1117" xmlns:xlink="http://www.w3.org/1999/xlink"  ><defs><style type="text/css"></style></defs><path d="M832 128c70.692 0 128 57.308 128 128l0.002 474.988c0.638 3.661 0.63 7.394-0.001 11.023L960 768c0 70.692-57.308 128-128 128H192c-70.692 0-128-57.308-128-128V256c0-70.692 57.308-128 128-128h640zM300.929 480c-56.762 0-113.826 55.525-168.27 173.416a32.016 32.016 0 0 1-4.659 7.31V768c0 34.993 28.084 63.426 62.942 63.991L192 832h640c34.993 0 63.426-28.084 63.991-62.942L896 768v-21.132l-0.035-0.045c-0.476-0.609-0.95-1.215-1.425-1.82l-2.837-3.61-2.822-3.572-1.406-1.772-2.8-3.514-1.394-1.743-2.778-3.457c-1.386-1.72-2.765-3.424-4.14-5.114l-2.74-3.361-2.726-3.323c-0.906-1.102-1.81-2.197-2.71-3.285l-2.696-3.246-1.343-1.609-2.673-3.189c-1.777-2.113-3.544-4.2-5.302-6.262l-2.628-3.074-1.308-1.522-2.606-3.016c-1.3-1.498-2.593-2.982-3.88-4.452l-2.568-2.92a1075.206 1075.206 0 0 0-5.09-5.725l-2.523-2.804a944.805 944.805 0 0 0-5-5.494l-2.477-2.69a859.81 859.81 0 0 0-6.125-6.554l-2.424-2.555a790.628 790.628 0 0 0-3.607-3.76l-2.385-2.458c-7.925-8.13-15.595-15.618-23.005-22.463l-2.216-2.034a450.416 450.416 0 0 0-10.844-9.591c-7.718-6.602-15.033-12.357-21.918-17.291l-1.712-1.217c-21.006-14.794-37.897-21.81-49.857-21.81-9.226 0-18.457 3.614-29.287 11.683l-0.901 0.678-0.987 0.758-0.984 0.772-0.982 0.786-0.983 0.802-0.986 0.82-0.99 0.84-0.662 0.573-0.666 0.582-1.007 0.892-1.016 0.919-1.028 0.945-1.042 0.974-1.058 1.004-0.714 0.687-1.454 1.419-0.741 0.733-1.13 1.13-1.154 1.167-1.578 1.62-1.216 1.263-1.247 1.307-1.277 1.353-1.757 1.877-1.358 1.465-2.832 3.084-2.997 3.301-3.176 3.532-8.703 9.757-3.508 3.906-2.237 2.475-3.215 3.53-2.058 2.236-2.484 2.674-1.922 2.047-1.87 1.97-1.371 1.428-1.347 1.39-1.324 1.352-0.87 0.881-1.292 1.294-1.274 1.262-1.259 1.23-1.246 1.203-1.235 1.176-1.226 1.15-0.814 0.754-1.216 1.113-0.809 0.731-0.808 0.723-0.807 0.714-1.213 1.059-1.215 1.044-0.812 0.69-0.816 0.683-0.868 0.72-0.873 0.716-0.878 0.713a224.643 224.643 0 0 1-4.955 3.88c-22.513 17.128-46.052 26.533-72.265 26.533-25.3 0-46.709-12.221-65.525-33.5l-1.026-1.173-0.91-1.057-0.904-1.07-0.9-1.082-0.897-1.094-0.892-1.108-0.889-1.121-0.443-0.566-0.885-1.143-0.441-0.577-0.881-1.165-0.88-1.18-0.439-0.597-0.877-1.205-0.877-1.222-0.876-1.239-0.438-0.626-0.876-1.265-0.877-1.284-0.878-1.303-0.879-1.323-0.88-1.342-0.883-1.362-0.442-0.69-0.887-1.393-0.89-1.415-0.892-1.437-0.897-1.46-0.9-1.482-0.453-0.75-0.908-1.517-0.913-1.542-1.38-2.359-0.928-1.604-0.935-1.63-1.414-2.493-0.952-1.696-0.96-1.723-1.456-2.638-1.476-2.701-1.497-2.768-1.52-2.835-2.417-4.563-5.66-10.865-11.031-21.315-1.083-2.075-1.599-3.049-1.57-2.972-2.049-3.847-1.007-1.875-1.489-2.753-0.979-1.797-1.449-2.638-1.426-2.571-0.939-1.678-0.93-1.649-1.378-2.42-0.908-1.58-0.9-1.553-1.336-2.28-0.882-1.486-0.875-1.462-0.868-1.437-0.863-1.413-1.282-2.074-0.85-1.354-0.843-1.331-0.839-1.31-0.835-1.287-0.416-0.635-0.83-1.256-0.825-1.234-0.823-1.215-0.82-1.195-0.818-1.176-0.816-1.157-0.408-0.572-0.813-1.13-0.813-1.113-0.812-1.095-0.81-1.08-0.812-1.062-0.811-1.047-0.812-1.032-0.813-1.018-0.815-1.003-0.816-0.99-0.817-0.976-0.82-0.963-0.823-0.952-0.413-0.47-0.413-0.469C329.748 487.557 315.99 480 300.929 480zM832 192H192c-34.993 0-63.426 28.084-63.991 62.942L128 256v274.076c15.126-22.25 30.761-41.252 46.956-57.01C213.476 435.583 255.768 416 300.929 416c35.513 0 65.533 16.491 91.558 45.856l1.092 1.24 1.083 1.25 1.075 1.257 0.535 0.632 1.064 1.272 0.529 0.64 1.053 1.286 0.525 0.648 1.044 1.303 1.039 1.316 1.033 1.328c0.172 0.222 0.344 0.445 0.515 0.669l1.027 1.348 1.023 1.362 1.019 1.377c0.34 0.461 0.678 0.925 1.016 1.391l1.014 1.408 0.506 0.71 1.011 1.433c0.169 0.24 0.337 0.48 0.505 0.722l1.01 1.46 1.008 1.476 1.008 1.496 1.008 1.515 1.01 1.535 0.505 0.776 1.01 1.566c0.17 0.263 0.338 0.527 0.507 0.791l1.014 1.6c0.17 0.267 0.339 0.537 0.509 0.807l1.018 1.633 0.51 0.825 1.024 1.668c0.17 0.28 0.342 0.56 0.513 0.843l1.03 1.704 1.035 1.73 1.04 1.755 1.045 1.782 1.051 1.808 1.059 1.836 0.531 0.929 1.07 1.878 1.076 1.908 1.085 1.937 1.644 2.963 1.665 3.032 1.123 2.062 1.133 2.094 1.721 3.204 1.162 2.178 1.174 2.213 1.785 3.386 1.815 3.468 16.036 30.932 1.94 3.697 1.317 2.478 1.293 2.414 1.27 2.351 0.834 1.533 1.233 2.247 1.212 2.187 1.192 2.128 0.784 1.386 1.16 2.031 0.763 1.323 0.755 1.298 1.119 1.901 1.102 1.847 0.726 1.202 1.077 1.76 0.71 1.144 0.703 1.122 0.698 1.1 0.692 1.079 0.686 1.056 0.682 1.036 1.013 1.515 0.67 0.984 0.664 0.964 0.99 1.41 0.655 0.916 0.651 0.897 0.648 0.878 0.645 0.86 0.642 0.842 0.64 0.824 0.637 0.807 0.634 0.79 0.633 0.774 0.63 0.757 0.63 0.742 0.628 0.725 0.733 0.83 0.362 0.401 0.713 0.78 0.352 0.377 0.695 0.73 0.682 0.699a59.978 59.978 0 0 0 1.972 1.907l0.634 0.576 0.622 0.545a39.7 39.7 0 0 0 1.799 1.463l0.578 0.431c0.19 0.14 0.38 0.274 0.567 0.404l0.557 0.377c2.942 1.94 5.448 2.753 7.647 2.753 10.805 0 21.35-4.213 33.512-13.467l0.987-0.758 0.98-0.766 0.65-0.516c4.33-3.456 8.55-7.248 13.407-12.082l1.12-1.12 1.573-1.599 1.213-1.248 1.243-1.293 1.275-1.34 1.756-1.863 1.822-1.955 1.894-2.05 1.971-2.154 2.58-2.84 2.163-2.399 3.422-3.818 6.52-7.315 2.523-2.817 2.434-2.7 2.35-2.59 2.272-2.485 1.657-1.797 1.618-1.742 2.102-2.242 1.538-1.623 1.508-1.576 1.48-1.531 1.454-1.487 1.432-1.446 1.41-1.408 1.392-1.37 1.376-1.335 0.91-0.872 0.904-0.858 0.45-0.424 0.899-0.838 0.894-0.826 1.336-1.217 1.332-1.193 0.887-0.783 0.887-0.774 1.332-1.144 0.89-0.753 1.34-1.117 0.897-0.737 0.902-0.732 0.906-0.726 0.913-0.722 0.918-0.72 0.926-0.715 0.933-0.713 0.47-0.356c21.39-16.161 43.698-25.048 68.44-25.048 52.389 0 114.674 44.662 192 133.527V256c0-34.993-28.084-63.426-62.942-63.991L832 192zM676 296c35.346 0 64 28.654 64 64 0 35.346-28.654 64-64 64-35.346 0-64-28.654-64-64 0-35.346 28.654-64 64-64z" p-id="1118"></path></svg>