<?xml version="1.0" standalone="no"?><!DOCTYPE svg PUBLIC "-//W3C//DTD SVG 1.1//EN" "http://www.w3.org/Graphics/SVG/1.1/DTD/svg11.dtd"><svg t="1603791352106" class="icon" viewBox="0 0 1025 1024" version="1.1" xmlns="http://www.w3.org/2000/svg" p-id="999" xmlns:xlink="http://www.w3.org/1999/xlink"  ><defs><style type="text/css"></style></defs><path d="M470.627 553.373c12.372 12.371 12.496 32.353 0.372 44.877l-0.372 0.377L205.254 864H448c17.496 0 31.713 14.042 31.996 31.47l0.004 0.53c0 17.496-14.042 31.713-31.47 31.996L448 928H128l-0.29-0.001a29.565 29.565 0 0 1-0.728-0.015l-0.287-0.01-0.169-0.008-0.092-0.004-0.288-0.015-0.136-0.009a31.83 31.83 0 0 1-9.572-2.09l-0.068-0.028-0.357-0.14-0.182-0.075-0.24-0.1c-0.097-0.04-0.193-0.082-0.29-0.123l-0.145-0.064c-0.118-0.05-0.235-0.103-0.353-0.156l-0.072-0.034a31.867 31.867 0 0 1-8.759-5.916l-0.135-0.13-0.177-0.17-0.225-0.222-0.062-0.063-0.053-0.052c-0.18-0.182-0.36-0.366-0.536-0.552l-0.217-0.23-0.146-0.159c-0.075-0.08-0.149-0.162-0.222-0.243l-0.032-0.037 0.032 0.037a31.824 31.824 0 0 1-5.694-8.958l-0.078-0.187-0.062-0.152a31.87 31.87 0 0 1-2.355-11.277l-0.004-0.187-0.002-0.1v-0.076l-0.003-0.208L96 576c0-17.673 14.327-32 32-32 17.496 0 31.713 14.042 31.996 31.47l0.004 0.53v242.744l265.373-265.371c12.496-12.497 32.758-12.497 45.254 0zM897.566 96.038l0.288 0.015 0.136 0.009a31.83 31.83 0 0 1 9.572 2.09l0.068 0.028 0.357 0.14 0.182 0.075 0.24 0.1c0.097 0.04 0.193 0.082 0.29 0.123l0.145 0.064c0.118 0.05 0.235 0.103 0.353 0.156 0.017 0.01 0.035 0.017 0.052 0.025a31.876 31.876 0 0 1 8.779 5.925l0.135 0.13 0.177 0.17 0.225 0.222 0.062 0.063 0.053 0.052c0.18 0.182 0.36 0.366 0.536 0.552l0.217 0.23 0.146 0.159 0.197 0.215 0.057 0.065a31.814 31.814 0 0 1 5.662 8.92l0.078 0.188 0.062 0.152a31.849 31.849 0 0 1 2.355 11.277l0.004 0.187 0.002 0.1v0.076l0.003 0.208L928 448c0 17.673-14.327 32-32 32-17.496 0-31.713-14.042-31.996-31.47L864 448l-0.001-242.745-265.372 265.372c-12.496 12.497-32.758 12.497-45.254 0C541 458.256 540.877 438.274 553 425.75l0.372-0.377L818.744 160H576c-17.496 0-31.713-14.042-31.996-31.47L544 128c0-17.496 14.042-31.713 31.47-31.996L576 96h320c0.34 0 0.679 0.005 1.018 0.016l0.287 0.01 0.169 0.008 0.092 0.004z" p-id="1000"></path></svg>