<svg xmlns="http://www.w3.org/2000/svg"   viewBox="0 0 1024 1024">
    <path d="M512 42.667c259.206 0 469.333 210.127 469.333 469.333S771.206 981.333 512 981.333 42.667 771.206 42.667 512 252.794 42.667 512 42.667zm0 64c-223.86 0-405.333 181.474-405.333 405.333 0 223.86 181.474 405.333 405.333 405.333 223.86 0 405.333-181.474 405.333-405.333 0-223.86-181.474-405.333-405.333-405.333zm0 298.666c58.91 0 106.667 47.757 106.667 106.667 0 58.91-47.757 106.667-106.667 106.667-58.91 0-106.667-47.757-106.667-106.667 0-58.91 47.757-106.667 106.667-106.667zm0 64c-23.564 0-42.667 19.103-42.667 42.667s19.103 42.667 42.667 42.667 42.667-19.103 42.667-42.667-19.103-42.667-42.667-42.667z"/>
</svg>
