<?xml version="1.0" standalone="no"?><!DOCTYPE svg PUBLIC "-//W3C//DTD SVG 1.1//EN" "http://www.w3.org/Graphics/SVG/1.1/DTD/svg11.dtd"><svg t="1559046593815" class="icon" style="" viewBox="0 0 1024 1024" version="1.1" xmlns="http://www.w3.org/2000/svg" p-id="6802" xmlns:xlink="http://www.w3.org/1999/xlink"  ><defs><style type="text/css"></style></defs><path d="M333.807 192v320H159.84c-5.879 0-10.644 4.776-10.644 10.667 0 2.867 1.152 5.614 3.197 7.62l322.373 316.381c20.69 20.305 53.78 20.305 74.47 0l322.373-316.38c4.2-4.122 4.27-10.876 0.158-15.084A10.632 10.632 0 0 0 864.16 512H695.69V192H333.807z m-63.861 256V181.333c0-29.455 23.826-53.333 53.218-53.333h383.17c29.391 0 53.218 23.878 53.218 53.333V448h104.61a74.426 74.426 0 0 1 53.23 22.425c28.791 29.462 28.297 76.736-1.102 105.589l-322.373 316.38c-45.516 44.67-118.318 44.67-163.834 0L107.71 576.014a74.747 74.747 0 0 1-22.377-53.347c0-41.238 33.357-74.667 74.506-74.667h110.107z" fill="#000000" p-id="6803"></path></svg>