<svg xmlns="http://www.w3.org/2000/svg"   viewBox="0 0 1024 1024">
    <path d="M501.333 128c229.75 0 416 186.25 416 416s-186.25 416-416 416-416-186.25-416-416 186.25-416 416-416zm0 65.684c-193.474 0-350.315 156.842-350.315 350.316 0 193.474 156.841 350.316 350.315 350.316S851.65 737.474 851.65 544c0-193.474-156.842-350.316-350.316-350.316zm-43.79 208c17.072 0 31.101 13.025 32.693 29.68l.15 3.162v43.79c0 54.414 44.112 98.526 98.526 98.526 18.138 0 32.842 14.704 32.842 32.842 0 18.138-14.704 32.842-32.842 32.842-88.912 0-161.32-70.664-164.126-158.896l-.084-5.314v-43.79c0-18.138 14.704-32.842 32.842-32.842zm364.358-332.06c30.35 20.592 58.652 44.162 84.48 70.338 25.83 26.177 49.085 54.86 69.404 85.62 10.08 15.26 6.045 35.912-9.012 46.128-15.057 10.216-35.434 6.127-45.514-9.133-17.936-27.153-38.47-52.477-61.275-75.591-22.807-23.114-47.794-43.924-74.586-62.101-15.056-10.216-19.091-30.868-9.011-46.128 10.08-15.26 30.457-19.35 45.514-9.134zm-574.288 9.133c10.08 15.26 6.045 35.912-9.011 46.128-26.792 18.177-51.78 38.987-74.586 62.1-22.806 23.115-43.34 48.439-61.275 75.592-10.08 15.26-30.457 19.349-45.514 9.133-15.057-10.216-19.092-30.868-9.012-46.128 20.319-30.76 43.575-59.443 69.404-85.62 25.828-26.176 54.13-49.746 84.48-70.339 15.057-10.215 35.434-6.126 45.514 9.134z"/>
</svg>
