<svg xmlns="http://www.w3.org/2000/svg"   viewBox="0 0 1024 1024">
    <path d="M862.833 619.056c33.88-3.726 64.486 19.712 70.094 52.893l.52 3.726 1.88 19.006c2.23 25.34 3.345 50.681 3.345 76.022 0 31.268-1.697 62.536-5.092 93.803-1.13 10.417-4.802 20.397-10.691 29.063-19.13 28.153-56.75 36.238-85.616 19.059l-3.29-2.095-17.205-11.89c-11.429-8.03-22.776-16.27-34.041-24.72-23.281-17.46-46.179-35.898-68.693-55.313-2.26-1.95-4.38-4.054-6.347-6.299-22.393-25.566-20.781-63.933 3.014-87.55l2.961-2.762 16.884-14.509c17.012-14.34 34.405-28.177 52.18-41.508 16.827-12.62 33.995-24.787 51.506-36.503 8.553-5.722 18.361-9.298 28.591-10.423zm6.975 63.626l-16.426 11.209c-10.893 7.574-21.64 15.337-32.245 23.29-11.203 8.403-22.246 17.017-33.128 25.844l-16.204 13.4-15.964 13.718 16.129 13.676c10.796 9 21.679 17.763 32.648 26.29l16.519 12.615 16.162 11.928 8.123 5.851 8.152 5.776 16.362 11.293 1.717-17.358c1.51-17.383 2.453-34.76 2.83-52.136l.19-17.375-.194-17.6c-.259-11.734-.775-23.47-1.55-35.206l-1.355-17.607-1.766-17.608zm-347.141 63.985c17.673 0 32 14.327 32 32 0 17.673-14.327 32-32 32H117.333c-17.673 0-32-14.327-32-32 0-17.673 14.327-32 32-32h405.334zm384-298.667c17.673 0 32 14.327 32 32 0 17.673-14.327 32-32 32H117.333c-17.673 0-32-14.327-32-32 0-17.673 14.327-32 32-32h789.334zm0-320c17.673 0 32 14.327 32 32 0 17.673-14.327 32-32 32H117.333c-17.673 0-32-14.327-32-32 0-17.673 14.327-32 32-32h789.334z"/>
</svg>
