<?xml version="1.0" standalone="no"?><!DOCTYPE svg PUBLIC "-//W3C//DTD SVG 1.1//EN" "http://www.w3.org/Graphics/SVG/1.1/DTD/svg11.dtd"><svg t="1559046599813" class="icon" style="" viewBox="0 0 1024 1024" version="1.1" xmlns="http://www.w3.org/2000/svg" p-id="7022" xmlns:xlink="http://www.w3.org/1999/xlink"  ><defs><style type="text/css"></style></defs><path d="M333.807 832.03v-320H159.84c-5.879 0-10.644-4.775-10.644-10.666 0-2.868 1.152-5.615 3.197-7.621l322.373-316.381c20.69-20.305 53.78-20.305 74.47 0l322.373 316.38c4.2 4.122 4.27 10.876 0.158 15.085a10.632 10.632 0 0 1-7.605 3.203H695.69v320H333.807z m-63.861-256v266.667c0 29.455 23.826 53.333 53.218 53.333h383.17c29.391 0 53.218-23.878 53.218-53.333V576.03h104.61a74.426 74.426 0 0 0 53.23-22.424c28.791-29.463 28.297-76.737-1.102-105.59l-322.373-316.38c-45.516-44.67-118.318-44.67-163.834 0L107.71 448.016a74.747 74.747 0 0 0-22.377 53.348c0 41.237 33.357 74.666 74.506 74.666h110.107z" p-id="7023"></path></svg>