<svg xmlns="http://www.w3.org/2000/svg"   viewBox="0 0 1024 1024">
    <path d="M886.142 110.046c14.209 3.654 23.769 13.623 27.54 27.032l.128.468c8.527 32.184 13.163 64.075 13.688 95.662.029 1.372.086 2.84.186 4.912l.092 1.864c.099 1.966.099 1.966.223 5.733-.604 70.554-16.215 139.111-46.128 205.943-26.23 58.532-62.072 112.783-107.257 163.705-19.943 22.522-41.424 44.009-64.53 64.594-.49 47.71-11.282 92.208-33.039 133.193-16.485 30.91-38.047 59.379-65.1 87.193-1.869 1.928-3.436 3.495-6.483 6.508l-.403.4c-4.34 4.292-6.287 6.27-8.427 8.615-6.521 7.115-14.208 11.997-26.119 11.962-13.331-.04-21.26-5.99-27.256-14.119-.846-1.148-1.644-2.368-1.791-2.623-8.182-12.273-14.739-22.103-29.5-44.23-14.766-22.132-21.325-31.966-29.541-44.291-4.66-6.988-20.688-31.007-22.984-34.45-4.129-6.19-7.84-11.758-11.298-16.954-23.772 5.815-48.472 4.303-72.998-3.985-65.68-22.125-108.562-68.143-124.35-134.995-4.747-20.18-4.703-40.213.277-59.391-12.116-8.121-25.831-17.32-47.657-31.96-32.615-21.877-47.11-31.597-65.167-43.692-3.65-2.433-6.558-4.382-13.087-8.766-6.47-4.344-9.34-6.267-12.6-8.444-.354-.223-.354-.223-1.86-1.242-7.328-5.153-12.68-11.265-14.363-22.96-1.836-12.758 2.887-21.978 9.932-29.022 35.344-35.958 67.067-61.424 103.233-80.329 33.62-17.464 69.048-28.097 106.208-31.684 8.938-.854 17.449-1.378 25.841-1.543 43.282-48.774 90.318-90.165 141.936-124.154 60.502-39.796 124.306-67.344 191.955-82.035 25.284-5.493 51.131-8.908 77.781-10.344 45.926-2.36 90.271 2.026 132.918 13.429zm-670.8 640.918c14.223-5.542 28.447-6.373 42.21 1.385 13.3 7.482 20.782 22.352 19.673 38.147-1.755 20.412-11.268 36.391-27.524 48.491-15.24 11.361-32.79 17.919-50.616 23.83-14.87 4.896-30.11 8.59-45.443 11.73-2.771.555-5.08 1.017-4.064-3.232 6.465-27.525 13.947-54.772 26.139-80.45 8.59-18.01 20.597-32.42 39.624-39.901zm541.246-590.435c-23.21 1.25-45.668 4.218-67.56 8.974-59.742 12.974-116.277 37.383-170.356 72.955-49.428 32.546-94.453 72.79-136.07 120.96-7.811 8.983-18.652 14.112-30.79 13.72-9.338-.205-19.156.227-29.982 1.262-28.889 2.789-56.4 11.046-82.752 24.734-20.82 10.884-40.39 24.907-61.192 43.526 16.36 10.96 31.033 20.8 61.181 41.022 32.616 21.878 47.11 31.598 65.692 44.05-.198-.136-.198-.136.799.533 14.072 9.61 20.742 27.315 11.694 45.411-6.194 12.388-7.544 25.456-4.163 39.823 10.636 45.042 37.505 73.875 82.516 89.038 17.468 5.902 33.335 5.481 48.73-1.568 17.348-7.71 35.175-2.193 45.443 13.209 6.806 10.265 13.845 20.84 22.907 34.427 2.288 3.431 18.322 27.458 23.05 34.55 8.152 12.228 14.709 22.058 29.47 44.185l9.885 14.818c18.815-20.582 33.835-41.28 45.456-63.07 18.085-34.066 26.392-71.378 25.495-112.313-.36-12.22 4.11-23.609 13.834-31.89 24.054-20.846 46.35-42.827 66.847-65.973 41.023-46.233 73.274-95.047 96.74-147.411 26.378-58.936 40.013-118.812 40.567-178.697-.078-1.737-.078-1.737-.172-3.616l-.098-1.975c-.126-2.6-.203-4.588-.25-6.793-.36-21.725-3.057-43.688-8.03-65.996-31.868-7.071-64.762-9.649-98.891-7.895zM618.667 309.333c53.019 0 96 42.981 96 96 0 53.02-42.981 96-96 96-53.02 0-96-42.98-96-96 0-53.019 42.98-96 96-96zm0 64c-17.673 0-32 14.327-32 32 0 17.673 14.327 32 32 32 17.673 0 32-14.327 32-32 0-17.673-14.327-32-32-32z"/>
</svg>
