<svg xmlns="http://www.w3.org/2000/svg"   viewBox="0 0 1024 1024">
    <path d="M250.681 10.491c15.566 5.865 23.883 22.56 19.613 38.292l-.95 2.936-24.245 64.313 4.636-2.7c65.09-37.271 139.117-58.276 216.426-59.897l9.68-.102c252.364 0 456.891 205.382 456.891 458.667 0 253.285-204.527 458.667-456.89 458.667-122.825 0-238.007-48.922-323.118-134.388-12.47-12.523-12.428-32.784.095-45.255 12.523-12.47 32.784-12.428 45.255.095C271.3 864.65 370.222 906.667 475.842 906.667c216.957 0 392.89-176.669 392.89-394.667 0-217.998-175.933-394.667-392.89-394.667-105.62 0-204.542 42.016-277.768 115.548-23.654 23.752-62.542-.191-53.513-31.189l.893-2.673 64-169.865c6.231-16.538 24.69-24.894 41.227-18.663zm413.426 346.202v43.947H518.613l-8.533 83.627h1.28c9.387-9.387 20.053-16.214 32.427-20.48 11.093-4.267 23.466-6.4 37.12-6.4 28.586 0 52.053 9.386 69.973 28.16 17.92 18.773 27.307 44.8 27.307 77.653 0 31.573-11.947 57.173-35.84 77.227-22.187 17.92-48.214 26.88-78.507 26.88-27.733 0-51.627-7.68-71.253-22.614-22.187-16.64-34.134-39.253-36.267-67.413h49.067c2.133 16.64 8.533 29.013 19.626 37.12 9.387 6.827 22.614 10.667 39.254 10.667 17.92 0 33.28-5.547 45.653-16.64 11.947-11.094 18.347-26.027 18.347-44.8 0-20.48-5.547-36.694-15.787-48.214-10.24-11.946-25.6-17.493-45.227-17.493-13.226 0-24.746 2.133-34.133 6.827-10.667 5.12-18.773 12.8-24.747 23.466h-46.506l16.64-171.52h185.6zm-263.254 0v304.64h-49.92v-244.48c-18.346 16.64-41.386 29.014-69.546 37.12V404.48c13.653-3.413 28.16-9.387 43.52-17.92 15.36-9.387 28.16-19.2 38.4-29.867h37.546z"/>
</svg>
