<?xml version="1.0" standalone="no"?><!DOCTYPE svg PUBLIC "-//W3C//DTD SVG 1.1//EN" "http://www.w3.org/Graphics/SVG/1.1/DTD/svg11.dtd"><svg t="1559046606878" class="icon" style="" viewBox="0 0 1024 1024" version="1.1" xmlns="http://www.w3.org/2000/svg" p-id="7242" xmlns:xlink="http://www.w3.org/1999/xlink"  ><defs><style type="text/css"></style></defs><path d="M578.183 307.2H819.2c70.692 0 128 57.308 128 128V576c0 148.454-120.346 268.8-268.8 268.8H384c-56.554 0-102.4-45.846-102.4-102.4V366.707a128 128 0 0 1 25.295-76.392l160.05-215.179A122.861 122.861 0 0 1 565.528 25.6c5.118 0 10.217 0.614 15.188 1.83 34.317 8.387 55.337 43.006 46.95 77.323L578.182 307.2zM332.8 366.707V742.4c0 28.277 22.923 51.2 51.2 51.2h294.4C798.577 793.6 896 696.177 896 576V435.2c0-42.415-34.385-76.8-76.8-76.8H545.572c-16.6 0-28.81-15.554-24.868-31.678l57.224-234.125c1.674-6.849-2.52-13.758-9.37-15.432a12.766 12.766 0 0 0-3.03-0.365 71.661 71.661 0 0 0-57.5 28.893l-160.05 215.179a76.8 76.8 0 0 0-15.178 45.835zM128 358.4c0-14.138 11.462-25.6 25.6-25.6 14.138 0 25.6 11.462 25.6 25.6v460.8c0 14.138-11.462 25.6-25.6 25.6-14.138 0-25.6-11.462-25.6-25.6V358.4z" fill="#000000" p-id="7243"></path></svg>