<?xml version="1.0" standalone="no"?><!DOCTYPE svg PUBLIC "-//W3C//DTD SVG 1.1//EN" "http://www.w3.org/Graphics/SVG/1.1/DTD/svg11.dtd"><svg t="1596183672878" class="icon" viewBox="0 0 1025 1024" version="1.1" xmlns="http://www.w3.org/2000/svg" p-id="848" xmlns:xlink="http://www.w3.org/1999/xlink"  ><defs><style type="text/css"></style></defs><path d="M369.042 1003c-65.731-133.9-74.98-222.045-35.785-287.561 13.171-19.031 21.162-42.262 23.972-69.694 45.309 5.248 69.623 22.919 72.945 53.01 76.127-83.74 89.988-217.641 79.592-267.908 173.15 117.217 249.277 375.007 148.895 562.511 532.992-294.71 131.463-733.331 62.161-780.262 24.255 50.16 27.72 133.901-20.686 174.049C620.544 92.545 374.478 21 374.478 21c24.255 150.692-34.29 329.334-138.139 453.44-3.464-60.277-6.93-100.424-41.37-160.702-7.141 110.328-93.873 197.407-117.813 307.949C45.969 772.272 157.88 885.783 369.042 1003z" p-id="849"></path></svg>