<svg xmlns="http://www.w3.org/2000/svg"   viewBox="0 0 1024 1024">
    <path d="M777.879 10.491c16.538-6.231 34.996 2.125 41.227 18.663l64 169.865.893 2.673c9.029 30.998-29.86 54.941-53.512 31.19-73.227-73.533-172.15-115.549-277.769-115.549-216.957 0-392.89 176.669-392.89 394.667 0 217.998 175.933 394.667 392.89 394.667 105.62 0 204.542-42.016 277.769-115.548 12.47-12.523 32.731-12.565 45.254-.095 12.523 12.471 12.565 32.732.095 45.255-85.11 85.466-200.293 134.388-323.118 134.388-252.363 0-456.89-205.382-456.89-458.667 0-253.285 204.527-458.667 456.89-458.667l9.68.102c77.31 1.62 151.336 22.626 216.427 59.897l4.64 2.7-24.249-64.313-.95-2.936c-4.27-15.732 4.047-32.427 19.613-38.292zm-49.772 346.202v43.947H582.613l-8.533 83.627h1.28c9.387-9.387 20.053-16.214 32.427-20.48 11.093-4.267 23.466-6.4 37.12-6.4 28.586 0 52.053 9.386 69.973 28.16 17.92 18.773 27.307 44.8 27.307 77.653 0 31.573-11.947 57.173-35.84 77.227-22.187 17.92-48.214 26.88-78.507 26.88-27.733 0-51.627-7.68-71.253-22.614-22.187-16.64-34.134-39.253-36.267-67.413h49.067c2.133 16.64 8.533 29.013 19.626 37.12 9.387 6.827 22.614 10.667 39.254 10.667 17.92 0 33.28-5.547 45.653-16.64 11.947-11.094 18.347-26.027 18.347-44.8 0-20.48-5.547-36.694-15.787-48.214-10.24-11.946-25.6-17.493-45.227-17.493-13.226 0-24.746 2.133-34.133 6.827-10.667 5.12-18.773 12.8-24.747 23.466h-46.506l16.64-171.52h185.6zm-263.254 0v304.64h-49.92v-244.48c-18.346 16.64-41.386 29.014-69.546 37.12V404.48c13.653-3.413 28.16-9.387 43.52-17.92 15.36-9.387 28.16-19.2 38.4-29.867h37.546z"/>
</svg>
