<?xml version="1.0" standalone="no"?><!DOCTYPE svg PUBLIC "-//W3C//DTD SVG 1.1//EN" "http://www.w3.org/Graphics/SVG/1.1/DTD/svg11.dtd"><svg t="1559046578348" class="icon" style="" viewBox="0 0 1024 1024" version="1.1" xmlns="http://www.w3.org/2000/svg" p-id="6582" xmlns:xlink="http://www.w3.org/1999/xlink"  ><defs><style type="text/css"></style></defs><path d="M819.2 717.002h89.6c21.208 0 38.4 17.192 38.4 38.4s-17.192 38.4-38.4 38.4h-89.6v89.6c0 21.208-17.192 38.4-38.4 38.4s-38.4-17.192-38.4-38.4v-89.6h-89.6c-21.208 0-38.4-17.192-38.4-38.4s17.192-38.4 38.4-38.4h89.6v-89.6c0-21.208 17.192-38.4 38.4-38.4s38.4 17.192 38.4 38.4v89.6zM521.962 182.589c19.876-12.501 41.823-23.913 65.401-33.136 69.435-27.162 139.255-30.478 203.684 1.347 124.8 61.664 177.719 181.932 148.071 331.388-4.127 20.803-24.335 34.321-45.138 30.195-20.802-4.127-34.32-24.336-30.194-45.138 23.141-116.657-14.39-201.951-106.755-247.59-42.403-20.944-90.63-18.654-141.69 1.32-18.75 7.335-36.475 16.551-52.488 26.623-9.45 5.945-17.29 11.613-19.412 13.4-25.735 20.936-62.71 20.936-88.2 0.197-2.013-1.61-5.917-4.505-11.764-8.44-9.914-6.672-21.153-13.372-33.421-19.62-34.671-17.66-70.319-28.119-104.324-28.119-22.726 0-44.116 4.68-64.322 14.637-92.417 45.664-129.978 130.98-106.76 247.59 15.631 78.78 79.24 167.267 177.2 257.68 67.89 62.66 142.318 117.659 208.075 159.765 17.86 11.436 23.068 35.185 11.632 53.045-11.437 17.86-35.186 23.068-53.046 11.631-69.237-44.334-147.075-101.851-218.75-168.004C150.91 680.894 78.856 580.658 59.324 482.215c-29.75-149.414 23.22-269.728 148.102-331.434 31.14-15.344 64.141-22.565 98.306-22.565 47.66 0 94.575 13.766 139.179 36.483 23.391 11.914 41.688 23.822 54.302 33.41 5.474-4.11 13.67-9.809 22.75-15.52z" fill="#000000" p-id="6583"></path></svg>