<svg xmlns="http://www.w3.org/2000/svg"   viewBox="0 0 1024 1024">
    <path d="M617.265 562.792l.43.384c88.486 83.318 198.482 125.586 320.972 125.586 28.656 0 42.421 34.412 23.048 54.216l-2.123 1.994-116.364 100.572c-13.371 11.556-33.58 10.085-45.136-3.286-10.834-12.535-10.218-31.08.919-42.87l2.367-2.265 58.078-50.2-1.304-.188c-105.99-15.963-205.438-63.191-285.16-136.408l-2.74-2.598c-12.21-11.58-12.722-30.866-1.142-43.076.35-.369.709-.729 1.077-1.08 13.091-12.489 33.58-12.828 47.078-.78zm180.827-381.05c11.557-13.37 31.765-14.842 45.136-3.285l116.364 100.571 2.123 1.995c19.373 19.804 5.608 54.216-23.048 54.216-122.49 0-240.278 47.159-328.924 131.691l-164.69 157.05-7.33 6.856c-96.06 88.137-221.78 137.165-352.39 137.165-17.673 0-32-14.327-32-32 0-17.674 14.327-32 32-32 117.51 0 230.51-45.242 315.552-126.338l164.69-157.05 7.416-6.94c79.723-73.216 179.17-120.445 285.161-136.407l1.304-.188-58.078-50.2-2.367-2.265c-11.137-11.791-11.753-30.335-.919-42.87zM85.333 256c130.61 0 256.33 49.028 352.39 137.165l7.33 6.856 16.943 16.159c12.212 11.646 12.671 30.987 1.025 43.2-.334.35-.676.692-1.026 1.025-12.981 12.378-33.396 12.375-46.373-.006l-14.737-14.061C315.843 365.242 202.844 320 85.333 320c-17.673 0-32-14.327-32-32 0-17.673 14.327-32 32-32z"/>
</svg>
