<?xml version="1.0" standalone="no"?><!DOCTYPE svg PUBLIC "-//W3C//DTD SVG 1.1//EN" "http://www.w3.org/Graphics/SVG/1.1/DTD/svg11.dtd"><svg t="1582856581826" class="icon" viewBox="0 0 1024 1024" version="1.1" xmlns="http://www.w3.org/2000/svg" p-id="1090" xmlns:xlink="http://www.w3.org/1999/xlink"  ><defs><style type="text/css"></style></defs><path d="M510.654 19c269.876 0 488.654 220.947 488.654 493.5 0 98.476-28.56 190.216-77.773 267.23l73.04 135.258c16.19 29.974 5.024 67.401-24.937 83.596a61.633 61.633 0 0 1-29.312 7.416H510.654C240.778 1006 22 785.053 22 512.5S240.778 19 510.654 19z m4.846 296C406.424 315 318 403.424 318 512.5S406.424 710 515.5 710 713 621.576 713 512.5 624.576 315 515.5 315z" p-id="1091"></path></svg>