<?xml version="1.0" standalone="no"?><!DOCTYPE svg PUBLIC "-//W3C//DTD SVG 1.1//EN" "http://www.w3.org/Graphics/SVG/1.1/DTD/svg11.dtd"><svg t="1582856572281" class="icon" viewBox="0 0 1024 1024" version="1.1" xmlns="http://www.w3.org/2000/svg" p-id="966" xmlns:xlink="http://www.w3.org/1999/xlink"  ><defs><style type="text/css"></style></defs><path d="M884.823914 125.635309c55.429869 0 100.363988 44.890162 100.363988 100.266084v445.974478c0 55.375922-44.934119 100.267083-100.363988 100.267083H289.97682l-189.172262 132.29081c-25.425171 17.780636-60.361054-0.391618-60.361054-31.397339V225.901393c0-55.375922 44.93312-100.266084 100.36299-100.266084h744.01742z m0 76.650147H140.806494c-13.055251 0-23.638915 10.573674-23.638915 23.615937v573.525916l138.716534-97.007266a38.391508 38.391508 0 0 1 21.999516-6.927235h606.940285c13.05625 0 23.638915-10.573674 23.638915-23.616937v-445.974478c0-13.042263-10.582665-23.615938-23.638915-23.615937zM516.686423 405.754755c31.163567 0 56.426896 25.238353 56.426896 56.371949 0 31.133596-25.263329 56.371949-56.426896 56.37195s-56.426896-25.238353-56.426895-56.37195c0-31.133596 25.263329-56.371949 56.426895-56.371949z m-253.922029 0c31.164566 0 56.427895 25.238353 56.427895 56.371949 0 31.133596-25.263329 56.371949-56.426896 56.37195-31.164566 0-56.426896-25.238353-56.426895-56.37195 0-31.133596 25.26233-56.371949 56.426895-56.371949z m507.844059 0c31.163567 0 56.426896 25.238353 56.426895 56.371949 0 31.133596-25.263329 56.371949-56.426895 56.37195s-56.426896-25.238353-56.426896-56.37195c0-31.133596 25.263329-56.371949 56.426896-56.371949z" p-id="967"></path></svg>