<?xml version="1.0" standalone="no"?><!DOCTYPE svg PUBLIC "-//W3C//DTD SVG 1.1//EN" "http://www.w3.org/Graphics/SVG/1.1/DTD/svg11.dtd"><svg t="1582793605678" class="icon" viewBox="0 0 1025 1024" version="1.1" xmlns="http://www.w3.org/2000/svg" p-id="3276" xmlns:xlink="http://www.w3.org/1999/xlink"  ><defs><style type="text/css"></style></defs><path d="M510.5 33C774.216 33 988 246.784 988 510.5S774.216 988 510.5 988 33 774.216 33 510.5 246.784 33 510.5 33z m0 59.688c-230.751 0-417.813 187.06-417.813 417.812 0 230.751 187.062 417.813 417.813 417.813 230.751 0 417.813-187.062 417.813-417.813 0-230.751-187.062-417.813-417.813-417.813z m-42.205 628.84c23.309-23.31 61.101-23.31 84.41 0 23.31 23.309 23.31 61.1 0 84.41-23.309 23.31-61.101 23.31-84.41 0-23.31-23.31-23.31-61.101 0-84.41z m42.205-530.13c24.723 0 44.766 20.042 44.766 44.766v353.453c0 24.723-20.043 44.766-44.766 44.766s-44.766-20.043-44.766-44.766V236.165c0-24.724 20.043-44.766 44.766-44.766z" p-id="3277"></path></svg>