<?xml version="1.0" standalone="no"?><!DOCTYPE svg PUBLIC "-//W3C//DTD SVG 1.1//EN" "http://www.w3.org/Graphics/SVG/1.1/DTD/svg11.dtd"><svg t="1560238121889" class="icon" style="" viewBox="0 0 1024 1024" version="1.1" xmlns="http://www.w3.org/2000/svg" p-id="1481" xmlns:xlink="http://www.w3.org/1999/xlink"  ><defs><style type="text/css"></style></defs><path d="M512 467.288663l233.145319-233.14432c12.483809-12.484808 32.726041-12.484808 45.20985 0 12.484808 12.483809 12.484808 32.726041 0 45.20985L557.210849 512.499512l233.14432 233.145319c12.484808 12.483809 12.484808 32.726041 0 45.20985-12.483809 12.484808-32.726041 12.484808-45.20985 0L512 557.710361 278.854681 790.854681c-12.483809 12.484808-32.726041 12.484808-45.20985 0-12.484808-12.483809-12.484808-32.726041 0-45.20985L466.789151 512.499512 233.644831 279.354193c-12.484808-12.483809-12.484808-32.726041 0-45.20985 12.483809-12.484808 32.726041-12.484808 45.20985 0L512 467.288663z" fill="#000000" p-id="1482"></path></svg>