<?xml version="1.0" standalone="no"?><!DOCTYPE svg PUBLIC "-//W3C//DTD SVG 1.1//EN" "http://www.w3.org/Graphics/SVG/1.1/DTD/svg11.dtd"><svg t="1582793689524" class="icon" viewBox="0 0 1024 1024" version="1.1" xmlns="http://www.w3.org/2000/svg" p-id="5532" xmlns:xlink="http://www.w3.org/1999/xlink"  ><defs><style type="text/css"></style></defs><path d="M511 32c264.544 0 479 214.456 479 479S775.544 990 511 990 32 775.544 32 511 246.456 32 511 32z m0 59.875C279.524 91.875 91.875 279.524 91.875 511S279.524 930.125 511 930.125 930.125 742.476 930.125 511 742.476 91.875 511 91.875z m0 294.852c24.801 0 44.906 20.105 44.906 44.906v354.564c0 24.801-20.105 44.906-44.906 44.906s-44.906-20.105-44.906-44.906V431.633c0-24.8 20.105-44.906 44.906-44.906z m-42.338-172.093c23.383-23.383 61.293-23.383 84.676 0 23.383 23.383 23.383 61.293 0 84.676-23.383 23.383-61.293 23.383-84.676 0-23.383-23.383-23.383-61.293 0-84.676z" p-id="5533"></path></svg>