<?xml version="1.0" standalone="no"?><!DOCTYPE svg PUBLIC "-//W3C//DTD SVG 1.1//EN" "http://www.w3.org/Graphics/SVG/1.1/DTD/svg11.dtd"><svg t="1560238154249" class="icon" style="" viewBox="0 0 1024 1024" version="1.1" xmlns="http://www.w3.org/2000/svg" p-id="2361" xmlns:xlink="http://www.w3.org/1999/xlink"  ><defs><style type="text/css"></style></defs><path d="M511.501462 1.996101C229.252729 1.996101 0.499512 230.749318 0.499512 512.998051s228.753216 511.001949 511.00195 511.001949 511.001949-228.753216 511.001949-511.001949S793.750194 1.996101 511.501462 1.996101z m0 191.625731c17.665497 0 31.937622 14.272125 31.937621 31.937622s-14.272125 31.937622-31.937621 31.937622-31.937622-14.272125-31.937622-31.937622 14.272125-31.937622 31.937622-31.937622z m95.31384 638.752437h-190.627681c-17.665497 0-31.937622-14.272125-31.937621-31.937622s14.272125-31.937622 31.937621-31.937622h61.879143V446.62768h-62.877193c-17.665497 0-31.937622-14.272125-31.937622-31.937622s14.272125-31.937622 31.937622-31.937621h94.814814c17.665497 0 31.937622 14.272125 31.937622 31.937621V768.499025h64.873295c17.665497 0 32.935673 14.272125 32.935672 31.937622s-15.270175 31.937622-32.935672 31.937622z" fill="#000000" p-id="2362"></path></svg>