<?xml version="1.0" standalone="no"?><!DOCTYPE svg PUBLIC "-//W3C//DTD SVG 1.1//EN" "http://www.w3.org/Graphics/SVG/1.1/DTD/svg11.dtd"><svg t="1582793594010" class="icon" viewBox="0 0 1024 1024" version="1.1" xmlns="http://www.w3.org/2000/svg" p-id="2776" xmlns:xlink="http://www.w3.org/1999/xlink"  ><defs><style type="text/css"></style></defs><path d="M640.911 16c26.51 0 48 21.49 48 48s-21.49 48-48 48H192c-44.183 0-80 35.817-80 80v640c0 44.183 35.817 80 80 80h640c44.183 0 80-35.817 80-80V384.93c0-26.51 21.49-48 48-48s48 21.49 48 48V832c0 97.202-78.798 176-176 176H192c-97.202 0-176-78.798-176-176V192C16 94.798 94.798 16 192 16zM901.24 42.38c17.596-19.828 47.934-21.638 67.762-4.042 19.828 17.596 21.638 47.934 4.042 67.762L485.738 655.227c-17.596 19.828-47.934 21.638-67.762 4.042-19.828-17.596-21.638-47.934-4.042-67.762z" p-id="2777"></path></svg>