<?xml version="1.0" standalone="no"?><!DOCTYPE svg PUBLIC "-//W3C//DTD SVG 1.1//EN" "http://www.w3.org/Graphics/SVG/1.1/DTD/svg11.dtd"><svg t="1582793686471" class="icon" viewBox="0 0 1025 1024" version="1.1" xmlns="http://www.w3.org/2000/svg" p-id="5410" xmlns:xlink="http://www.w3.org/1999/xlink"  ><defs><style type="text/css"></style></defs><path d="M798.059 158.059c18.745-18.745 49.137-18.745 67.882 0 18.745 18.745 18.745 49.137 0 67.882L579.883 512l286.058 286.059c18.558 18.558 18.743 48.53 0.557 67.316l-0.557 0.566c-18.745 18.745-49.137 18.745-67.882 0L512 579.883 225.941 865.941c-18.558 18.558-48.53 18.743-67.316 0.557l-0.566-0.557c-18.745-18.745-18.745-49.137 0-67.882L444.117 512 158.059 225.941c-18.558-18.558-18.743-48.53-0.557-67.316l0.557-0.566c18.745-18.745 49.137-18.745 67.882 0L512 444.117z" p-id="5411"></path></svg>