<?xml version="1.0" standalone="no"?><!DOCTYPE svg PUBLIC "-//W3C//DTD SVG 1.1//EN" "http://www.w3.org/Graphics/SVG/1.1/DTD/svg11.dtd"><svg t="1582793666813" class="icon" viewBox="0 0 1025 1024" version="1.1" xmlns="http://www.w3.org/2000/svg" p-id="4530" xmlns:xlink="http://www.w3.org/1999/xlink"  ><defs><style type="text/css"></style></defs><path d="M448 138.667c170.84 0 309.333 138.493 309.333 309.333 0 74.095-26.05 142.105-69.493 195.37l156.346 156.348c12.497 12.497 12.497 32.758 0 45.255s-32.758 12.497-45.255 0L642.503 688.545c-53.136 43.02-120.81 68.788-194.503 68.788-170.84 0-309.333-138.493-309.333-309.333 0-170.84 138.493-309.333 309.333-309.333z m0 64c-135.494 0-245.333 109.84-245.333 245.333 0 135.494 109.84 245.333 245.333 245.333 135.494 0 245.333-109.84 245.333-245.333 0-135.494-109.84-245.333-245.333-245.333z" p-id="4531"></path></svg>