<?xml version="1.0" standalone="no"?><!DOCTYPE svg PUBLIC "-//W3C//DTD SVG 1.1//EN" "http://www.w3.org/Graphics/SVG/1.1/DTD/svg11.dtd"><svg t="1582793646998" class="icon" viewBox="0 0 1025 1024" version="1.1" xmlns="http://www.w3.org/2000/svg" p-id="3652" xmlns:xlink="http://www.w3.org/1999/xlink"  ><defs><style type="text/css"></style></defs><path d="M167.594 501.66c0-0.35-0.104-0.678-0.104-1.028h0.075c6.683-183.092 156.797-329.593 341.523-329.593 74.78 0 143.513 24.533 199.735 65.29l-52.832 51.4 0.3 0.328c-5.578 6.552-9.088 14.943-9.088 24.259 0 20.795 16.875 37.642 37.665 37.642h31.668l0.026 0.023 0.023-0.023h144.07c20.788 0 37.665-16.849 37.665-37.642V136.509c0-20.793-16.875-37.642-37.664-37.642-15.874 0-29.383 9.845-34.935 23.704l-46.506 45.23c-74.48-58.59-167.946-94.073-270.127-94.073-229.772 0-417.434 176.638-436.843 401.39-1.507 4.067-2.613 8.362-2.613 12.98 0 1.605 0.528 3.039 0.905 4.548-0.528 2.937-0.905 5.927-0.905 9.014 0 27.072 21.922 48.992 48.992 48.992 27.048 0 48.97-21.92 48.97-48.992z m780.952 6.277c0-1.833-0.353-3.568-0.53-5.352-0.03-0.624-0.077-1.278-0.103-1.933h-0.099c-3.54-23.554-23.68-41.685-48.242-41.685-24.582 0-44.725 18.158-48.263 41.685h-0.7c0.046 1.559 0.124 3.113 0.247 4.698-0.047 0.879-0.274 1.706-0.274 2.611 0 2.108 0.376 4.092 0.602 6.128-0.506 188.561-153.408 341.268-342.098 341.268-74.937 0-143.713-24.662-199.942-65.617l48.996-48.614c7.657-6.682 12.83-15.999 12.83-27.046 0-20.791-16.877-37.67-37.666-37.67h-31.388l-0.954-0.955-0.953 0.954H157.522c-20.793 0-37.665 16.878-37.665 37.671v175.782c0 20.791 16.872 37.665 37.665 37.665 2.736 0 5.15-1.002 7.737-1.552l0.099 1.552 1.933-1.983c9.742-2.664 17.604-8.94 22.4-17.4l50.048-49.622c74.307 58.486 167.348 94.12 269.35 94.12 242.679 0 439.428-196.727 439.457-439.41v-0.046c0-1.182-0.125-2.341-0.179-3.494 0.027-0.602 0.179-1.151 0.179-1.755z" p-id="3653"></path></svg>