<?xml version="1.0" standalone="no"?><!DOCTYPE svg PUBLIC "-//W3C//DTD SVG 1.1//EN" "http://www.w3.org/Graphics/SVG/1.1/DTD/svg11.dtd"><svg t="1582793655471" class="icon" viewBox="0 0 1025 1024" version="1.1" xmlns="http://www.w3.org/2000/svg" p-id="4026" xmlns:xlink="http://www.w3.org/1999/xlink"  ><defs><style type="text/css"></style></defs><path d="M244.713 633.106v255.428c0 33.137 26.863 60 60 60H725.05c33.137 0 60-26.863 60-60V633.106c0-11.046 8.954-20 20-20h76.091a91.646 91.646 0 0 0 65.549-27.598c35.336-36.162 34.731-94.115-1.355-129.53L607.418 124.343c-52.999-52.013-137.837-52.013-190.836 0L78.666 455.978A91.694 91.694 0 0 0 51.2 521.422c0 50.597 40.998 91.684 91.66 91.684h81.853c11.046 0 20 8.954 20 20zM704.546 868.03h-379.33V572.603c0-22.092-17.909-40-40-40H142.86l-2.966-0.4a11.18 11.18 0 0 1-8.191-10.781c0-3.006 1.208-5.885 3.35-7.988L472.97 181.799l5.223-4.534c21.723-16.624 52.819-15.113 72.837 4.534l337.916 331.635 2.122 2.88c2.135 4.165 1.492 9.401-1.956 12.93a11.144 11.144 0 0 1-7.972 3.359H744.546c-22.091 0-40 17.908-40 40V868.03z" p-id="4027"></path></svg>