<?xml version="1.0" standalone="no"?><!DOCTYPE svg PUBLIC "-//W3C//DTD SVG 1.1//EN" "http://www.w3.org/Graphics/SVG/1.1/DTD/svg11.dtd"><svg t="1582793697780" class="icon" viewBox="0 0 1025 1024" version="1.1" xmlns="http://www.w3.org/2000/svg" p-id="5906" xmlns:xlink="http://www.w3.org/1999/xlink"  ><defs><style type="text/css"></style></defs><path d="M844.8 44.669c77.762 0 140.8 63.038 140.8 140.8V838.53c0 77.762-63.038 140.8-140.8 140.8H179.2c-77.762 0-140.8-63.038-140.8-140.8V185.47c0-77.762 63.038-140.8 140.8-140.8h665.6z m0 76.8H179.2c-35.346 0-64 28.654-64 64V838.53c0 35.346 28.654 64 64 64h665.6c35.346 0 64-28.654 64-64V185.47c0-35.346-28.654-64-64-64zM621.784 704c22.246 0 40.28 17.192 40.28 38.4 0 20.996-17.675 38.056-39.614 38.395l-0.666 0.005H299.543c-22.246 0-40.28-17.192-40.28-38.4 0-20.996 17.675-38.056 39.614-38.395l0.666-0.005h322.24z m107.413-230.4c22.246 0 40.28 17.192 40.28 38.4 0 20.996-17.675 38.056-39.614 38.395l-0.666 0.005H299.543c-22.246 0-40.28-17.192-40.28-38.4 0-20.996 17.675-38.056 39.614-38.395l0.666-0.005h429.654z m0-230.4c22.246 0 40.28 17.192 40.28 38.4 0 20.996-17.675 38.056-39.614 38.395l-0.666 0.005H299.543c-22.246 0-40.28-17.192-40.28-38.4 0-20.996 17.675-38.056 39.614-38.395l0.666-0.005h429.654z" p-id="5907"></path></svg>