<?xml version="1.0" standalone="no"?><!DOCTYPE svg PUBLIC "-//W3C//DTD SVG 1.1//EN" "http://www.w3.org/Graphics/SVG/1.1/DTD/svg11.dtd"><svg t="1582793599907" class="icon" viewBox="0 0 1025 1024" version="1.1" xmlns="http://www.w3.org/2000/svg" p-id="3024" xmlns:xlink="http://www.w3.org/1999/xlink"  ><defs><style type="text/css"></style></defs><path d="M374.73 181.763c19.088 0 34.56 15.473 34.56 34.56 0 19.087-15.472 34.56-34.56 34.56H239.727c-20.045 0-37.12 18.08-37.12 41.336v493.327c0 23.258 17.075 41.337 37.12 41.337h501.76c20.046 0 37.12-18.08 37.12-41.337V608.883c0-19.087 15.473-34.56 34.56-34.56 19.087 0 34.56 15.473 34.56 34.56v176.663c0 60.576-47.11 110.457-106.24 110.457h-501.76c-59.13 0-106.24-49.88-106.24-110.457V292.22c0-60.575 47.11-110.456 106.24-110.456h135.005z m365.476-49.13l133.022 76.8c16.53 9.544 22.193 30.68 12.65 47.21l-86.4 149.65c-9.544 16.529-30.68 22.192-47.21 12.649-16.53-9.544-22.193-30.68-12.65-47.21l44.714-77.458C575.579 309.411 405.506 472.13 382.887 681.592c-2.05 18.976-19.094 32.699-38.071 30.65-18.977-2.05-32.7-19.095-30.65-38.071 25.69-237.905 215.387-423.694 450.574-447.57l-59.094-34.108c-16.53-9.544-22.193-30.68-12.65-47.21 9.544-16.53 30.68-22.193 47.21-12.65z" p-id="3025"></path></svg>