<?xml version="1.0" standalone="no"?><!DOCTYPE svg PUBLIC "-//W3C//DTD SVG 1.1//EN" "http://www.w3.org/Graphics/SVG/1.1/DTD/svg11.dtd"><svg t="1563420361518" class="icon" viewBox="0 0 1024 1024" version="1.1" xmlns="http://www.w3.org/2000/svg" p-id="975" xmlns:xlink="http://www.w3.org/1999/xlink"  ><defs><style type="text/css"></style></defs><path d="M47.873 463.816c19.233-24.363 41.499-50.124 66.493-76.048 32.507-33.714 67.122-65.067 103.586-92.82 43.616-33.195 88.488-60.167 134.405-79.598C405.272 192.957 458.619 181 512 181c53.38 0 106.728 11.957 159.643 34.35 45.917 19.43 90.789 46.403 134.405 79.599 36.464 27.752 71.08 59.105 103.586 92.82 24.994 25.923 47.26 51.684 66.493 76.047 22.497 28.188 22.497 68.18 0 96.368-19.233 24.363-41.499 50.124-66.493 76.048-32.507 33.714-67.122 65.067-103.586 92.82-43.616 33.195-88.488 60.167-134.405 79.598C618.728 831.043 565.381 843 512 843c-53.38 0-106.728-11.957-159.643-34.35-45.917-19.43-90.789-46.403-134.405-79.599-36.464-27.752-71.08-59.105-103.586-92.82-24.994-25.923-47.26-51.684-66.493-76.047-22.497-28.188-22.497-68.18 0-96.368zM512 245c-84.498 0-170.643 36.454-255.288 100.876-33.696 25.647-65.92 54.833-96.273 86.314-23.475 24.348-44.393 48.552-62.39 71.355l-0.07 0.089-0.07 0.088a13.234 13.234 0 0 0 0 16.556l0.07 0.088 0.07 0.09c17.997 22.802 38.915 47.006 62.39 71.354 30.353 31.481 62.577 60.667 96.273 86.314C341.357 742.546 427.502 779 512 779c84.498 0 170.643-36.454 255.288-100.876 33.696-25.647 65.92-54.833 96.273-86.314 23.475-24.348 44.393-48.552 62.39-71.355l0.07-0.089 0.07-0.088a13.234 13.234 0 0 0 0-16.556l-0.07-0.088-0.07-0.09c-17.997-22.802-38.915-47.006-62.39-71.354-30.353-31.481-62.577-60.667-96.273-86.314C682.643 281.454 596.498 245 512 245z m0 459c-106.039 0-192-85.961-192-192s85.961-192 192-192 192 85.961 192 192-85.961 192-192 192z m0-64c70.692 0 128-57.308 128-128 0-70.692-57.308-128-128-128-70.692 0-128 57.308-128 128 0 70.692 57.308 128 128 128z" p-id="976"></path></svg>