<?xml version="1.0" standalone="no"?><!DOCTYPE svg PUBLIC "-//W3C//DTD SVG 1.1//EN" "http://www.w3.org/Graphics/SVG/1.1/DTD/svg11.dtd"><svg t="1582793574053" class="icon" viewBox="0 0 1025 1024" version="1.1" xmlns="http://www.w3.org/2000/svg" p-id="2402" xmlns:xlink="http://www.w3.org/1999/xlink"  ><defs><style type="text/css"></style></defs><path d="M689 385.8c140.6 0 264.8 101.3 264.8 227.2 0 70.3-47.4 132.4-109.5 179.8l22.9 78.5-85-47.4c-31.1 8.1-62.1 16.3-93.2 16.3-148.8 0-266.5-101.3-266.5-227.2 0-124.2 117.7-227.2 266.5-227.2zM383.2 152c153.7 0 287.8 93.2 315.5 219-9.8-1.6-19.6-1.6-29.4-1.6-148.7 0-264.8 111.2-264.9 246.9 0 22.9 3.3 44.1 9.8 65.4-11.5 1.6-21.3 1.6-31.1 1.6-39.2 0-70.3-8.1-109.5-16.3l-109.5 53.9 31.1-93.2C116.8 573.7 71 501.8 71 416.8 71 269.7 211.6 152 383.2 152z m219.1 359.6c-14.8 0-31.1 16.4-31.1 31.1 0 16.4 16.4 31.1 31.1 31.1 24.5 0 39.2-14.7 39.2-31.1 0-14.8-16.3-31.1-39.2-31.1z m178-6.8c-14.8 0-31.3 16.1-31.3 30.7 0 16.1 16.5 30.7 31.3 30.7 23.1 0 39.5-14.5 39.5-30.7 0-14.5-16.4-30.7-39.5-30.7zM500.9 284.4l-0.685 0.004c-22.605 0.291-46.715 14.941-46.715 39.196 0 22.8 22.9 39.2 47.4 39.2 22.9 0 39.2-16.3 39.2-39.2 0-22.9-14.7-39.2-39.2-39.2z m-216.3-4.5c-23.1 0-47.8 14.5-47.8 38.8 0 22.6 23.1 38.8 47.8 38.8 23.1 0 39.6-16.1 39.5-38.8 0-22.6-16.4-38.8-39.5-38.8z" p-id="2403"></path></svg>