<?xml version="1.0" standalone="no"?><!DOCTYPE svg PUBLIC "-//W3C//DTD SVG 1.1//EN" "http://www.w3.org/Graphics/SVG/1.1/DTD/svg11.dtd"><svg t="1582793661273" class="icon" viewBox="0 0 1025 1024" version="1.1" xmlns="http://www.w3.org/2000/svg" p-id="4278" xmlns:xlink="http://www.w3.org/1999/xlink"  ><defs><style type="text/css"></style></defs><path d="M511.5 26C779.634 26 997 243.366 997 511.5S779.634 997 511.5 997 26 779.634 26 511.5 243.366 26 511.5 26z m0 60.688c-234.617 0-424.813 190.195-424.813 424.812 0 234.617 190.196 424.813 424.813 424.813S936.313 746.116 936.313 511.5 746.116 86.687 511.5 86.687z m208.066 213.55c16.18-19.242 44.913-21.74 64.178-5.578 19.264 16.161 21.764 44.862 5.584 64.104L483.252 722.76c-15.005 17.845-41.084 21.481-60.407 8.422L243.03 609.667c-20.837-14.081-26.3-42.368-12.203-63.181 14.098-20.813 42.418-26.27 63.255-12.189l145.81 98.538z" p-id="4279"></path></svg>