<?xml version="1.0" standalone="no"?><!DOCTYPE svg PUBLIC "-//W3C//DTD SVG 1.1//EN" "http://www.w3.org/Graphics/SVG/1.1/DTD/svg11.dtd"><svg t="1560238142968" class="icon" style="" viewBox="0 0 1024 1024" version="1.1" xmlns="http://www.w3.org/2000/svg" p-id="2141" xmlns:xlink="http://www.w3.org/1999/xlink"  ><defs><style type="text/css"></style></defs><path d="M640 959.7v0.3H384v-0.3H128c-35.346 0-64-28.654-64-64V416.835a64 64 0 0 1 26.809-52.085l384-274.194c22.25-15.887 52.133-15.887 74.382 0l384 274.194A64 64 0 0 1 960 416.835V895.7c0 35.346-28.654 64-64 64H640z m0-64h256V416.835L512 142.64 128 416.835V895.7h256V576c0-70.692 57.308-128 128-128 70.692 0 128 57.308 128 128v319.7z m-64 0V576c0-35.346-28.654-64-64-64-35.346 0-64 28.654-64 64v319.7h128z" fill="#000000" p-id="2142"></path></svg>