<?xml version="1.0" standalone="no"?><!DOCTYPE svg PUBLIC "-//W3C//DTD SVG 1.1//EN" "http://www.w3.org/Graphics/SVG/1.1/DTD/svg11.dtd"><svg t="1582793683491" class="icon" viewBox="0 0 1025 1024" version="1.1" xmlns="http://www.w3.org/2000/svg" p-id="5286" xmlns:xlink="http://www.w3.org/1999/xlink"  ><defs><style type="text/css"></style></defs><path d="M858.78 318c26.079 0 47.22 21.155 47.22 47.252V841.65c0 91.553-72.49 166.35-162.647 166.35H281.647C191.49 1008 119 933.203 119 841.649V365.252C119 339.155 140.141 318 166.22 318s47.22 21.155 47.22 47.252V841.65c0 39.998 30.866 71.847 68.207 71.847h461.706c37.34 0 68.207-31.849 68.207-71.847V365.252c0-26.097 21.141-47.252 47.22-47.252zM376 473c25.957 0 47 21.124 47 47.182v251.636C423 797.876 401.957 819 376 819s-47-21.124-47-47.182V520.182C329 494.124 350.043 473 376 473z m262 0c25.957 0 47 21.124 47 47.182v251.636C685 797.876 663.957 819 638 819s-47-21.124-47-47.182V520.182C591 494.124 612.043 473 638 473zM513 17c84.612 0 155.036 60.742 170.046 140.999l238.73 0.001C947.857 158 969 179.043 969 205s-21.143 47-47.224 47H103.224C77.143 252 56 230.957 56 205s21.143-47 47.224-47l239.73-0.001C357.964 77.742 428.388 17 513 17z m0 94.364c-32.034 0-59.595 19.155-71.852 46.636h143.704c-12.257-27.481-39.818-46.636-71.852-46.636z" p-id="5287"></path></svg>