<?xml version="1.0" standalone="no"?><!DOCTYPE svg PUBLIC "-//W3C//DTD SVG 1.1//EN" "http://www.w3.org/Graphics/SVG/1.1/DTD/svg11.dtd"><svg t="1564378770033" class="icon" viewBox="0 0 1024 1024" version="1.1" xmlns="http://www.w3.org/2000/svg" p-id="1299" xmlns:xlink="http://www.w3.org/1999/xlink"  ><defs><style type="text/css"></style></defs><path d="M832 256v608c0 53.02-42.98 96-96 96H288c-53.02 0-96-42.98-96-96V256H96c-17.673 0-32-14.327-32-32 0-17.673 14.327-32 32-32h832c17.673 0 32 14.327 32 32 0 17.673-14.327 32-32 32h-96z m-64 0H256v608c0 17.673 14.327 32 32 32h448c17.673 0 32-14.327 32-32V256zM416 64h192c17.673 0 32 14.327 32 32 0 17.673-14.327 32-32 32H416c-17.673 0-32-14.327-32-32 0-17.673 14.327-32 32-32z m0 320c17.673 0 32 14.327 32 32v320c0 17.673-14.327 32-32 32-17.673 0-32-14.327-32-32V416c0-17.673 14.327-32 32-32z m192 0c17.673 0 32 14.327 32 32v320c0 17.673-14.327 32-32 32-17.673 0-32-14.327-32-32V416c0-17.673 14.327-32 32-32z" p-id="1300"></path></svg>