<?xml version="1.0" standalone="no"?><!DOCTYPE svg PUBLIC "-//W3C//DTD SVG 1.1//EN" "http://www.w3.org/Graphics/SVG/1.1/DTD/svg11.dtd"><svg t="1582793643686" class="icon" viewBox="0 0 1025 1024" version="1.1" xmlns="http://www.w3.org/2000/svg" p-id="3526" xmlns:xlink="http://www.w3.org/1999/xlink"  ><defs><style type="text/css"></style></defs><path d="M516.5 31C779.664 31 993 244.336 993 507.5S779.664 984 516.5 984 40 770.664 40 507.5 253.336 31 516.5 31z m0 44.672c-238.492 0-431.828 193.336-431.828 431.828 0 238.492 193.336 431.828 431.828 431.828 238.492 0 431.828-193.336 431.828-431.828 0-238.492-193.336-431.828-431.828-431.828z m-89.938 235.871c8.75-8.724 22.935-8.724 31.684 0l180.192 179.685c8.733 8.708 8.752 22.822 0.042 31.553L458.288 703.415c-8.727 8.747-22.912 8.785-31.684 0.083-8.773-8.702-8.81-22.847-0.084-31.594l164.434-164.837-164.392-163.929c-8.75-8.725-8.75-22.87 0-31.595z" p-id="3527"></path></svg>