<?xml version="1.0" standalone="no"?><!DOCTYPE svg PUBLIC "-//W3C//DTD SVG 1.1//EN" "http://www.w3.org/Graphics/SVG/1.1/DTD/svg11.dtd"><svg t="1563174800720" class="icon" viewBox="0 0 1024 1024" version="1.1" xmlns="http://www.w3.org/2000/svg" p-id="1220" xmlns:xlink="http://www.w3.org/1999/xlink"  ><defs><style type="text/css"></style></defs><path d="M512 0C229.12 0 0 229.12 0 512s229.12 512 512 512 512-229.12 512-512S794.88 0 512 0z m270.08 670.72c-11.52 6.4-30.72-7.68-48.64-34.56-6.4 28.16-24.32 53.76-48.64 74.24 25.6 8.96 42.24 25.6 42.24 42.24 0 29.44-46.08 52.48-102.4 52.48-51.2 0-93.44-19.2-101.12-43.52h-12.8c-7.68 24.32-49.92 43.52-101.12 43.52-56.32 0-102.4-23.04-102.4-52.48 0-17.92 16.64-33.28 42.24-42.24-24.32-20.48-42.24-46.08-48.64-74.24-17.92 25.6-37.12 39.68-48.64 34.56-17.92-8.96-14.08-57.6 7.68-107.52 16.64-39.68 39.68-69.12 57.6-75.52V480c0-15.36 3.84-29.44 11.52-40.96v-2.56c0-7.68 1.28-14.08 5.12-19.2 6.4-104.96 74.24-186.88 184.32-186.88S696.32 312.32 701.44 416c2.56 5.12 5.12 12.8 5.12 19.2v2.56c7.68 11.52 11.52 25.6 11.52 40.96v7.68c17.92 6.4 40.96 35.84 57.6 75.52 20.48 51.2 24.32 99.84 6.4 108.8z" p-id="1221"></path></svg>