<?xml version="1.0" standalone="no"?><!DOCTYPE svg PUBLIC "-//W3C//DTD SVG 1.1//EN" "http://www.w3.org/Graphics/SVG/1.1/DTD/svg11.dtd"><svg t="1582793649680" class="icon" viewBox="0 0 1025 1024" version="1.1" xmlns="http://www.w3.org/2000/svg" p-id="3778" xmlns:xlink="http://www.w3.org/1999/xlink"  ><defs><style type="text/css"></style></defs><path d="M734.64 488.042c-35.904-7.127-18.48-26.4-18.48-26.4s35.112-58.08-7.127-100.319c-52.272-52.272-179.256 6.6-179.256 6.6-48.575 15.048-35.639-6.864-28.775-44.088 0-44.088-15.048-118.535-144.408-74.448-129.096 44.088-240.24 199.056-240.24 199.056-77.087 102.96-66.79 182.423-66.79 182.423 19.27 175.559 205.918 223.871 351.117 235.224 152.592 12.144 358.775-52.537 421.08-185.328 62.567-133.055-50.953-185.591-87.122-192.719zM411.77 816.721c-151.536 6.864-274.031-69.168-274.031-170.28s122.495-182.422 274.03-189.287c151.8-7.128 274.56 55.439 274.56 156.552 0 101.112-122.76 196.151-274.56 203.015z m-30.097-293.04C229.08 541.635 246.768 684.458 246.768 684.458s-1.585 45.143 40.92 68.111c89.232 48.312 181.104 19.272 227.567-40.655 46.2-59.928 19.008-205.92-133.583-188.232z m-38.543 200.64c-28.512 3.168-51.48-13.2-51.48-36.959 0-23.76 20.592-48.575 49.105-51.479 32.472-3.167 53.855 15.577 53.855 39.6 0 23.496-23.232 45.408-51.479 48.84l-0.001-0.001z m89.758-76.56c-9.503 7.127-21.384 6.07-26.4-2.642-5.28-8.448-3.432-21.912 6.337-29.04 11.351-8.45 22.967-5.808 28.247 2.64 5.017 8.449 1.32 21.385-8.184 29.041zM808.824 426c12.408 0 22.968-8.974 24.553-20.855 0.264-0.793 0.264-1.584 0.264-2.64 18.744-167.376-137.017-138.601-137.017-138.601-13.991 0-25.08 11.088-25.08 25.08 0 13.728 11.089 25.08 25.08 25.08 111.672-24.816 87.121 87.12 87.121 87.12 0 13.73 11.352 24.817 25.08 24.817zM790.61 134.019c-53.857-12.672-109.032-1.848-124.608 1.057-1.32 0-2.375 1.32-3.432 1.585-0.528 0-0.793 0.527-0.793 0.527-15.577 4.49-26.663 18.48-26.663 35.377 0 19.8 16.104 36.432 36.432 36.432 0 0 19.536-2.903 33-7.92 12.936-5.544 124.609-3.96 180.048 88.968 30.36 68.112 13.2 113.52 11.089 120.648 0 0-7.128 17.688-7.128 35.111 0 20.064 16.105 32.737 36.168 32.737 16.896 0 30.889-2.375 35.112-30.624h0.264c59.4-198.264-72.864-291.455-169.488-313.895l-0.001-0.003z" p-id="3779"></path></svg>