<?xml version="1.0" standalone="no"?><!DOCTYPE svg PUBLIC "-//W3C//DTD SVG 1.1//EN" "http://www.w3.org/Graphics/SVG/1.1/DTD/svg11.dtd"><svg t="1564378765589" class="icon" viewBox="0 0 1024 1024" version="1.1" xmlns="http://www.w3.org/2000/svg" p-id="1187" xmlns:xlink="http://www.w3.org/1999/xlink"  ><defs><style type="text/css"></style></defs><path d="M192 192h689.982C848.72 287.376 832 376.82 832 460.34c0 70.809 12.054 130.843 36.572 179.66H200.464c-2.93 0-5.768 0.394-8.464 1.131V192z m8.464 512H928c27.423 0 42.142-32.237 24.18-52.96C915.1 608.26 896 545.097 896 460.34c0-87.6 20.501-183.808 61.774-288.615C966.043 150.73 950.566 128 928 128H160c-17.673 0-32 14.327-32 32v768c0 17.673 14.327 32 32 32 17.673 0 32-14.327 32-32V702.869a32.036 32.036 0 0 0 8.464 1.131z" p-id="1188"></path></svg>