<?xml version="1.0" standalone="no"?><!DOCTYPE svg PUBLIC "-//W3C//DTD SVG 1.1//EN" "http://www.w3.org/Graphics/SVG/1.1/DTD/svg11.dtd"><svg t="1563174804185" class="icon" viewBox="0 0 1024 1024" version="1.1" xmlns="http://www.w3.org/2000/svg" p-id="1332" xmlns:xlink="http://www.w3.org/1999/xlink"  ><defs><style type="text/css"></style></defs><path d="M656.41 448.822H376.615l188.886 32.487-197.915 166.08h297.85L493.228 599.6l163.182-150.78zM511.995 0C229.231 0 0 229.233 0 512.004 0 794.77 229.23 1024 511.996 1024 794.766 1024 1024 794.771 1024 512.004 1024 229.233 794.765 0 511.996 0z m198.57 755.7c0 18.046 0 18.046-18.054 18.046l-173.67-110.439-169.305 110.439c-18.05 0-16.678 0-16.678-11.84l16.678-204.781-134.104-123.847v-2.98h205.532L512 250.252h17.042l91.268 180.048h181.683c6.574 0 6.574-1.826 6.574 4.747l-134.1 122.079 36.099 198.574z" p-id="1333"></path></svg>