<?xml version="1.0" standalone="no"?><!DOCTYPE svg PUBLIC "-//W3C//DTD SVG 1.1//EN" "http://www.w3.org/Graphics/SVG/1.1/DTD/svg11.dtd"><svg t="1584585238357" class="icon" viewBox="0 0 1024 1024" version="1.1" xmlns="http://www.w3.org/2000/svg" p-id="1219" xmlns:xlink="http://www.w3.org/1999/xlink"  ><defs><style type="text/css"></style></defs><path d="M388.237 80c105.9 0 191.95 89.356 193.66 200.266l0.025 3.368v159.058l-38.783 58.402L683.24 569.7c21.976 10.76 36.185 33.691 36.746 59.083l0.013 0.77V705.5h122.92l0.06-0.705c4.84-60.228-4.182-109.816-26.467-149.656a94.797 94.797 0 0 1-21.083 2.361c-52.19 0-94.5-42.31-94.5-94.5s42.31-94.5 94.5-94.5c52.191 0 94.5 42.31 94.5 94.5 0 16.446-4.2 31.91-11.588 45.379l-0.354-0.578c33.722 54.72 47.536 121.144 42.112 198.278 31.208 4.191 55.344 30.7 55.83 62.942V864c0 35.266-28.303 63.922-63.433 64.491l-1.067 0.009-247.252 0.003c-2.216 0.284-4.466 0.45-6.745 0.488l-1.052 0.009H112.619c-17.427 0-33.218-7.367-44.708-19.301-11.58-11.536-18.8-27.444-18.98-45.038V770c0-1.002 0.022-2 0.068-2.99L49 633.11c0-26.048 14.38-49.7 36.806-60.657l0.682-0.328 150.026-71.059-41.962-60.168V283.634C194.552 171.17 281.268 80 388.237 80zM898.93 782.5h-773v77h773v-77zM387.739 156c-66.239 0-120.06 55.844-121.13 125.158l-0.017 2.105v132.214l53.05 76.004a40.4 40.4 0 0 1 3.362 5.786l0.354 0.763 0.305 0.694c8.575 19.995 0.267 43.472-18.556 52.768l-0.574 0.277L121 638.625V705.5h526v-69.734L474.894 551.56a37.701 37.701 0 0 1-4.513-2.61l-0.616-0.425-0.608-0.437c-17.118-12.555-21.435-37.187-9.807-55.302l0.358-0.547 49.176-73.994V283.263c0-68.887-52.101-124.99-117.167-127.196l-1.975-0.05-2.003-0.017zM795.43 445.5c-9.665 0-17.5 7.835-17.5 17.5s7.835 17.5 17.5 17.5 17.5-7.835 17.5-17.5-7.835-17.5-17.5-17.5z" p-id="1220"></path></svg>