<?xml version="1.0" standalone="no"?><!DOCTYPE svg PUBLIC "-//W3C//DTD SVG 1.1//EN" "http://www.w3.org/Graphics/SVG/1.1/DTD/svg11.dtd"><svg t="1582793657973" class="icon" viewBox="0 0 1025 1024" version="1.1" xmlns="http://www.w3.org/2000/svg" p-id="4152" xmlns:xlink="http://www.w3.org/1999/xlink"  ><defs><style type="text/css"></style></defs><path d="M512 160.144c177.056 0 335.632 92.624 444 239.12 47.856 64.688 47.856 160.816 0 225.488-108.368 146.496-266.944 239.12-444 239.12-177.04 0-335.616-92.624-444-239.12-47.856-64.672-47.856-160.8 0-225.488 108.384-146.496 266.96-239.12 444-239.12z m0 96c-140.387 0-272.514 72.742-366.824 200.215-22.756 30.76-22.756 80.545-0.001 111.296C239.486 695.13 371.613 767.872 512 767.872c140.402 0 272.527-72.74 366.83-200.224 22.75-30.744 22.75-80.529-0.009-111.292C784.527 328.885 652.401 256.144 512 256.144z m0.32 95.68c88.368 0 160 71.632 160 160s-71.632 160-160 160-160-71.632-160-160 71.632-160 160-160z m0 96c-35.349 0-64 28.651-64 64 0 35.349 28.651 64 64 64 35.349 0 64-28.651 64-64 0-35.349-28.651-64-64-64z" p-id="4153"></path></svg>