<?xml version="1.0" standalone="no"?><!DOCTYPE svg PUBLIC "-//W3C//DTD SVG 1.1//EN" "http://www.w3.org/Graphics/SVG/1.1/DTD/svg11.dtd"><svg t="1563174796991" class="icon" viewBox="0 0 1024 1024" version="1.1" xmlns="http://www.w3.org/2000/svg" p-id="1108" xmlns:xlink="http://www.w3.org/1999/xlink"  ><defs><style type="text/css"></style></defs><path d="M512.002 0C229.232 0 0 229.23 0 512.003 0 794.77 229.232 1024 512.002 1024S1024 794.77 1024 512.003C1024 229.231 794.772 0 512.002 0z m-47.474 767.197c-130.858 0-264.618-63.417-264.618-167.725 0-54.531 34.55-117.592 94.049-177.103 79.446-79.426 172.094-115.606 206.938-80.74 15.374 15.351 16.863 41.955 6.981 73.707-5.15 15.996 15.013 7.14 15.013 7.174 64.216-26.886 120.24-28.47 140.716 0.789 10.927 15.591 9.882 37.454-0.19 62.79-4.657 11.672 1.434 13.481 10.317 16.148 36.183 11.217 76.454 38.349 76.454 86.159-0.001 79.13-114.113 178.8-285.66 178.8z m236.902-331.66c4.232-13.075 1.58-27.978-8.286-38.915-9.857-10.915-24.424-15.057-37.859-12.217v-0.023c-11.205 2.438-22.252-4.755-24.654-15.95-2.41-11.243 4.75-22.298 15.982-24.692 27.483-5.843 57.257 2.653 77.418 25.022 20.205 22.365 25.608 52.832 16.972 79.559-3.526 10.943-15.248 16.9-26.175 13.402-10.924-3.537-16.899-15.273-13.377-26.186h-0.02z m121.15 39.123c-0.006 0.022-0.006 0.07-0.006 0.094-4.111 12.676-17.734 19.618-30.406 15.515-12.722-4.107-19.673-17.7-15.567-30.407l-0.007-0.008c12.602-39.01 4.61-83.51-24.813-116.133-29.449-32.627-72.871-45.09-112.996-36.57-13.051 2.783-25.885-5.548-28.668-18.586-2.794-13.027 5.525-25.866 18.577-28.66h0.023c56.4-11.99 117.506 5.518 158.934 51.449 41.44 45.882 52.61 108.435 34.93 163.306zM640.669 578.43c-6.77-68.529-96.91-115.73-201.34-105.404C334.92 483.35 255.742 547.279 262.524 615.82c6.784 68.56 96.92 115.76 201.34 105.455C568.296 710.945 647.44 647.01 640.668 578.43z m-109.724 56.269c-21.31 48.2-82.603 73.897-134.602 57.127-50.204-16.203-71.457-65.77-49.477-110.424 21.582-43.78 77.744-68.544 127.432-55.617 51.424 13.29 77.665 61.8 56.647 108.914z m-106.252-36.719c-16.168-6.778-37.07 0.192-47.047 15.837-10.101 15.714-5.362 34.427 10.693 41.738 16.29 7.438 37.917 0.377 48.018-15.737 9.918-16.273 4.695-34.865-11.664-41.838z m39.852-16.521c-6.205-2.463-13.962 0.518-17.6 6.621-3.535 6.134-1.585 13.12 4.633 15.679 6.326 2.603 14.399-0.403 18.05-6.643 3.486-6.289 1.22-13.352-5.083-15.657z" p-id="1109"></path></svg>