<?xml version="1.0" standalone="no"?><!DOCTYPE svg PUBLIC "-//W3C//DTD SVG 1.1//EN" "http://www.w3.org/Graphics/SVG/1.1/DTD/svg11.dtd"><svg t="1582793596846" class="icon" viewBox="0 0 1025 1024" version="1.1" xmlns="http://www.w3.org/2000/svg" p-id="2900" xmlns:xlink="http://www.w3.org/1999/xlink"  ><defs><style type="text/css"></style></defs><path d="M928 863.734c26.51 0 48 21.49 48 48s-21.49 48-48 48H96c-26.51 0-48-21.49-48-48s21.49-48 48-48zM779.75 82.717l118.207 151.298c16.32 20.89 12.617 51.055-8.273 67.376l-570.508 445.73a48.013 48.013 0 0 1-22.18 9.606L102.343 786.98c-37.129 5.77-66.192-31.429-51.61-66.058l76.446-181.552a47.995 47.995 0 0 1 14.686-19.197l570.509-445.73c20.89-16.321 51.055-12.617 67.376 8.273zM211.315 587.739l-0.506 0.396-38.223 90.776 97.327-15.127 0.506-0.397-59.104-75.648z m374.52-292.608l-298.87 233.504 59.103 75.65L644.939 370.78l-59.103-75.649z m147.818-115.486l-72.168 56.382 59.103 75.65 72.168-56.383-59.103-75.65z" p-id="2901"></path></svg>