<?xml version="1.0" standalone="no"?><!DOCTYPE svg PUBLIC "-//W3C//DTD SVG 1.1//EN" "http://www.w3.org/Graphics/SVG/1.1/DTD/svg11.dtd"><svg t="1563174778445" class="icon" viewBox="0 0 1024 1024" version="1.1" xmlns="http://www.w3.org/2000/svg" p-id="996" xmlns:xlink="http://www.w3.org/1999/xlink"  ><defs><style type="text/css"></style></defs><path d="M579.568 511.585c-11.675 0-23.353 10.842-23.353 24.188 0 10.844 11.673 21.687 23.353 21.687 17.521 0 30.033-10.844 30.033-21.687 0-13.345-12.51-24.188-30.033-24.188z m-76.744-112.619c18.352 0 30.033-11.675 30.033-29.197 0-18.352-11.68-29.195-30.033-29.195-17.518 0-34.202 10.844-34.202 29.195-0.001 17.525 16.685 29.197 34.202 29.197zM512.001 0C229.228 0 0 229.228 0 512c0 282.77 229.228 512 512 512 282.77 0 512-229.228 512-512 0.001-282.772-229.227-512-512-512z m-96.766 641.716c-30.868 0-53.39-5.002-82.587-13.346l-84.252 42.548 24.196-71.746c-59.229-41.705-94.268-94.26-94.268-158.493 0-113.45 106.777-200.206 236.913-200.206 115.117 0 217.723 68.405 237.743 165.175-8.341-1.672-15.851-2.503-22.524-2.503-113.45 0-201.037 85.084-201.037 187.69 0 17.516 2.503 33.366 6.674 50.052-6.674 0.829-14.184 0.829-20.858 0.829z m347.858 81.749l16.681 60.066-63.397-35.869c-24.19 5.001-47.548 12.51-71.738 12.51-111.783 0-200.206-76.744-200.206-171.84 0-95.098 88.425-171.842 200.206-171.842 105.94 0 201.037 76.744 201.037 171.842 0 53.384-35.869 100.932-82.583 135.134v-0.001z m-425.438-382.89c-17.518 0-35.87 10.843-35.87 29.194 0 17.524 18.352 29.203 35.87 29.203 16.686 0 30.032-11.68 30.032-29.203 0-18.35-13.346-29.195-30.032-29.195z m372.885 171.01c-12.515 0-23.359 10.842-23.359 24.188 0 10.844 10.844 21.687 23.36 21.687 16.68 0 29.194-10.844 29.194-21.687 0-13.345-12.514-24.188-29.195-24.188z" p-id="997"></path></svg>