<?xml version="1.0" standalone="no"?><!DOCTYPE svg PUBLIC "-//W3C//DTD SVG 1.1//EN" "http://www.w3.org/Graphics/SVG/1.1/DTD/svg11.dtd"><svg t="1559045373494" class="icon" style="" viewBox="0 0 1024 1024" version="1.1" xmlns="http://www.w3.org/2000/svg" p-id="3877" xmlns:xlink="http://www.w3.org/1999/xlink"  ><defs><style type="text/css"></style></defs><path d="M729.43 595.502c2.754 1.853 4.436 5.158 4.437 8.722V714.91H290.133V545.807c-0.003-2.88 1.099-5.626 3.033-7.558L401.418 429.32c3.653-3.66 9.262-3.517 12.757 0.327l146.081 160.892c3.615 3.98 9.467 3.972 13.072-0.02l0.591-0.736 43.911-59.112c2.923-3.94 8.026-4.898 11.963-2.246l99.636 67.077z m-75.268-182.815c0-22.562 18.29-40.852 40.85-40.852 22.562 0 40.852 18.29 40.852 40.852 0 22.56-18.29 40.85-40.851 40.85-22.562 0-40.851-18.29-40.851-40.85zM170.667 257a1 1 0 0 1 1-1h680.666a1 1 0 0 1 1 1v544.133a1 1 0 0 1-1 1H171.667a1 1 0 0 1-1-1V257z m621.117 482.495V323.431H237.83v416.064h553.954z" fill="#000000" p-id="3878"></path></svg>