<?xml version="1.0" standalone="no"?><!DOCTYPE svg PUBLIC "-//W3C//DTD SVG 1.1//EN" "http://www.w3.org/Graphics/SVG/1.1/DTD/svg11.dtd"><svg t="1582793680806" class="icon" viewBox="0 0 1025 1024" version="1.1" xmlns="http://www.w3.org/2000/svg" p-id="5160" xmlns:xlink="http://www.w3.org/1999/xlink"  ><defs><style type="text/css"></style></defs><path d="M513.5 34C776.664 34 990 247.336 990 510.5S776.664 987 513.5 987 37 773.664 37 510.5 250.336 34 513.5 34z m0 44.672c-238.492 0-431.828 193.336-431.828 431.828 0 238.492 193.336 431.828 431.828 431.828 238.492 0 431.828-193.336 431.828-431.828 0-238.492-193.336-431.828-431.828-431.828z m59.383 235.913c8.687-8.747 22.81-8.785 31.543-0.083s8.77 22.847 0.083 31.594L440.806 510.933l163.661 163.929c8.71 8.725 8.71 22.87 0 31.595-8.71 8.724-22.832 8.724-31.543 0L393.533 526.772c-8.694-8.708-8.713-22.822-0.042-31.553z" p-id="5161"></path></svg>