<?xml version="1.0" standalone="no"?><!DOCTYPE svg PUBLIC "-//W3C//DTD SVG 1.1//EN" "http://www.w3.org/Graphics/SVG/1.1/DTD/svg11.dtd"><svg t="1582793591180" class="icon" viewBox="0 0 1025 1024" version="1.1" xmlns="http://www.w3.org/2000/svg" p-id="2650" xmlns:xlink="http://www.w3.org/1999/xlink"  ><defs><style type="text/css"></style></defs><path d="M512.038 23.538c269.791 0 488.5 218.71 488.5 488.5 0 269.791-218.709 488.5-488.5 488.5-269.79 0-488.5-218.709-488.5-488.5 0-269.79 218.71-488.5 488.5-488.5z m-9.59 611.832c-113.826 0-214.218 68.678-257.442 170.204 70.497 64.17 164.196 103.288 267.032 103.288 96.05 0 184.13-34.125 252.777-90.913-39.057-105.406-138.442-178.53-252.778-182.417-2.616 0.006-5.22-0.044-7.813-0.145z m9.59-520.155c-219.16 0-396.823 177.664-396.823 396.823 0 80.492 23.965 155.387 65.15 217.938l0.001-0.01c41.757-72.612 106.934-128.99 184.305-159.947-31.782-35.19-51.133-81.826-51.133-132.98 0-109.63 88.872-198.5 198.5-198.5 109.629 0 198.5 88.87 198.5 198.5 0 54.024-21.582 103.007-56.595 138.799 76.652 34.295 140.192 93.99 179.02 169.64 47.735-65.501 75.899-146.182 75.899-233.44 0-219.16-177.664-396.823-396.824-396.823z m0 214.939c-59.03 0-106.884 47.854-106.884 106.884 0 55.978 43.031 101.905 97.82 106.506 4.626 0.001 9.235 0.093 13.825 0.269 56.822-2.485 102.124-49.34 102.124-106.775 0-59.03-47.854-106.884-106.885-106.884z" p-id="2651"></path></svg>