<?xml version="1.0" standalone="no"?><!DOCTYPE svg PUBLIC "-//W3C//DTD SVG 1.1//EN" "http://www.w3.org/Graphics/SVG/1.1/DTD/svg11.dtd"><svg t="1563420366758" class="icon" viewBox="0 0 1024 1024" version="1.1" xmlns="http://www.w3.org/2000/svg" p-id="1087" xmlns:xlink="http://www.w3.org/1999/xlink"  ><defs><style type="text/css"></style></defs><path d="M320.222 64h384c70.693 0 128 57.308 128 128v640c0 70.692-57.307 128-128 128h-384c-70.692 0-128-57.308-128-128V192c0-70.692 57.308-128 128-128z m0 64c-35.346 0-64 28.654-64 64v640c0 35.346 28.654 64 64 64h384c35.346 0 64-28.654 64-64V192c0-35.346-28.654-64-64-64h-384zM512 832c-35.346 0-64-28.654-64-64 0-35.346 28.654-64 64-64 35.346 0 64 28.654 64 64 0 35.346-28.654 64-64 64z m-95.778-640h192c17.673 0 32 14.327 32 32 0 17.673-14.327 32-32 32h-192c-17.673 0-32-14.327-32-32 0-17.673 14.327-32 32-32z" p-id="1088"></path></svg>