<?xml version="1.0" standalone="no"?><!DOCTYPE svg PUBLIC "-//W3C//DTD SVG 1.1//EN" "http://www.w3.org/Graphics/SVG/1.1/DTD/svg11.dtd"><svg t="1582793672939" class="icon" viewBox="0 0 1025 1024" version="1.1" xmlns="http://www.w3.org/2000/svg" p-id="4782" xmlns:xlink="http://www.w3.org/1999/xlink"  ><defs><style type="text/css"></style></defs><path d="M442.815 477.365l-62.335 64.551c-22.857 1.826-45.167 11.675-62.347 29.466l-101.619 105.23c-37.415 38.744-36.337 100.483 2.407 137.898 38.744 37.415 100.484 36.337 137.899-2.407l101.618-105.23c17.18-17.79 26.245-40.43 27.273-63.337l62.336-64.55c22.448 59.757 10.299 129.724-36.994 178.697l-101.619 105.23c-65.476 67.802-173.52 69.688-241.322 4.212-67.803-65.477-69.689-173.52-4.212-241.323l101.618-105.229c47.293-48.973 116.793-63.557 177.297-43.208zM654.82 363.124c14.53 14.03 14.933 37.182 0.903 51.711L401.676 677.908c-14.03 14.53-37.183 14.934-51.712 0.903-14.529-14.03-14.933-37.183-0.902-51.712l254.046-263.073c14.03-14.529 37.183-14.933 51.712-0.902z m-41.208-203.012c65.476-67.803 173.52-69.689 241.322-4.212 67.124 64.82 69.644 171.363 6.156 239.276l-1.944 2.046L757.528 502.45c-46.82 48.483-115.406 63.262-175.48 43.808l-1.818-0.6 62.336-64.55c22.608-1.807 44.681-11.463 61.785-28.89l0.562-0.577 101.619-105.23c37.415-38.744 36.337-100.483-2.407-137.898-38.357-37.04-99.251-36.355-136.77 1.256l-1.129 1.151-101.618 105.23c-16.992 17.595-26.045 39.933-27.236 62.582l-0.037 0.755-62.336 64.55c-22.224-59.16-10.538-128.326 35.586-177.222l1.408-1.475 101.619-105.23z" p-id="4783"></path></svg>