<?xml version="1.0" standalone="no"?><!DOCTYPE svg PUBLIC "-//W3C//DTD SVG 1.1//EN" "http://www.w3.org/Graphics/SVG/1.1/DTD/svg11.dtd"><svg t="1582793700525" class="icon" viewBox="0 0 1025 1024" version="1.1" xmlns="http://www.w3.org/2000/svg" p-id="6030" xmlns:xlink="http://www.w3.org/1999/xlink"  ><defs><style type="text/css"></style></defs><path d="M218.217 435.2c42.416 0 76.8 34.385 76.8 76.8s-34.384 76.8-76.8 76.8c-42.415 0-76.8-34.385-76.8-76.8s34.385-76.8 76.8-76.8z m293.783 0c42.415 0 76.8 34.385 76.8 76.8s-34.385 76.8-76.8 76.8-76.8-34.385-76.8-76.8 34.385-76.8 76.8-76.8z m293.783 0c42.415 0 76.8 34.385 76.8 76.8s-34.385 76.8-76.8 76.8c-42.416 0-76.8-34.385-76.8-76.8s34.384-76.8 76.8-76.8z" p-id="6031"></path></svg>