<?xml version="1.0" standalone="no"?><!DOCTYPE svg PUBLIC "-//W3C//DTD SVG 1.1//EN" "http://www.w3.org/Graphics/SVG/1.1/DTD/svg11.dtd"><svg t="1564378749001" class="icon" viewBox="0 0 1024 1024" version="1.1" xmlns="http://www.w3.org/2000/svg" p-id="1075" xmlns:xlink="http://www.w3.org/1999/xlink"  ><defs><style type="text/css"></style></defs><path d="M107.395122 788.816671l202.021713-193.511024c12.812488-12.272016 33.16761-11.764511 45.351711 1.131894l50.578607 53.535719c12.125159 12.833467 11.549721 33.067707-1.283746 45.191868-12.834466 12.125159-33.067707 11.55072-45.192867-1.282748l-28.472195-30.137568L154.549073 832.187317h741.409967c11.770505 0 21.313186-9.541682 21.313186-21.312187V691.818396L742.588816 515.826263 489.857623 783.334025c-12.125159 12.833467-32.3584 13.408905-45.192866 1.283747-12.833467-12.125159-13.408905-32.3584-1.283746-45.192867l275.403051-291.505326c12.40089-13.126181 33.205573-13.382931 45.92715-0.565448l152.560015 153.702899v-386.932136c0-11.771504-9.542681-21.313186-21.313186-21.313187h-767.250732C116.936804 192.811707 107.395122 202.353389 107.395122 214.123895v574.692776zM128.707309 128.874146h767.250732c47.08302 0 85.250747 38.167727 85.250747 85.249749v596.751235c0 47.082021-38.167727 85.249748-85.250747 85.249748h-767.250732C81.625288 896.124878 43.457561 857.957151 43.457561 810.87513V214.123895C43.457561 167.041873 81.625288 128.874146 128.707309 128.874146z m223.781464 404.937554c-76.508285 0-138.530716-62.022431-138.530716-138.530717C213.958057 318.7717 275.980488 256.749268 352.488773 256.749268 428.998057 256.749268 491.020488 318.7717 491.020488 395.280983c0 76.508285-62.022431 138.530716-138.531715 138.530717z m0-63.937561c41.197768 0 74.594154-33.397385 74.594154-74.593156C427.082927 354.083216 393.685541 320.686829 352.488773 320.686829s-74.593155 33.397385-74.593155 74.594154 33.397385 74.593155 74.593155 74.593156z" p-id="1076"></path></svg>