<?xml version="1.0" standalone="no"?><!DOCTYPE svg PUBLIC "-//W3C//DTD SVG 1.1//EN" "http://www.w3.org/Graphics/SVG/1.1/DTD/svg11.dtd"><svg t="1575015296355" class="icon" viewBox="0 0 1024 1024" version="1.1" xmlns="http://www.w3.org/2000/svg" p-id="4591" xmlns:xlink="http://www.w3.org/1999/xlink"  ><defs><style type="text/css"></style></defs><path d="M707.584 45.184c166.721 0 300.416 146.24 300.416 323.968 0 16.882-1.212 33.398-3.58 49.603-3.832 26.231-28.204 44.388-54.435 40.556-26.231-3.833-44.389-28.205-40.556-54.436 1.7-11.63 2.571-23.508 2.571-35.723 0-126.535-92.732-227.968-204.416-227.968-60.79 0-118.703 30.614-158.097 83.564l-38.72 52.042-38.45-52.242c-38.728-52.62-96.996-83.364-157.949-83.364-111.684 0-204.416 101.433-204.416 227.968 0 63.002 17.72 105.066 65.723 180.072 38.71 60.89 107.955 135.063 195.14 213.891 33.32 30.125 67.794 59.484 95.39 82.134l21.783 17.632 20.475 15.925c0.895 0.707 1.574 0.938 2.513 0.938 0.94 0 1.618-0.231 3.456-1.664l26.082-20.662c20.62-16.66 50.843-13.448 67.502 7.173 16.66 20.621 13.448 50.843-7.173 67.502-12.92 10.437-24.61 19.636-27.868 22.061l-7.924 5.666c-16.264 10.493-34.92 15.924-54.075 15.924-22.348 0-44.016-7.393-61.056-20.864-26.851-20.139-86.728-69.237-143.488-120.555l-19.655-17.963c-83.89-77.516-150.842-150.71-192.038-215.511-57.073-89.176-80.787-145.471-80.787-231.699 0-177.728 133.695-323.968 300.416-323.968 73.124 0 142.827 28.823 196.708 79.09l11.816-10.452c52.183-43.84 116.864-68.638 184.692-68.638z m3.714 479.181l0.566 0.557 79.196 79.196 79.196-79.196c18.557-18.558 48.53-18.744 67.316-0.557l0.566 0.557c18.558 18.558 18.743 48.53 0.557 67.316l-0.557 0.566L858.942 672l79.196 79.196c18.558 18.558 18.743 48.53 0.557 67.316l-0.557 0.566c-18.558 18.558-48.53 18.744-67.317 0.557l-0.565-0.557-79.196-79.196-79.196 79.196c-18.558 18.558-48.53 18.744-67.317 0.557l-0.566-0.557c-18.557-18.558-18.743-48.53-0.556-67.316l0.556-0.566L723.177 672l-79.196-79.196c-18.557-18.558-18.743-48.53-0.556-67.316l0.556-0.566c18.558-18.558 48.53-18.744 67.317-0.557z" p-id="4592"></path><path d="M707.584 45.184c166.721 0 300.416 146.24 300.416 323.968 0 16.882-1.212 33.398-3.58 49.603-3.832 26.231-28.204 44.388-54.435 40.556-26.231-3.833-44.389-28.205-40.556-54.436 1.7-11.63 2.571-23.508 2.571-35.723 0-126.535-92.732-227.968-204.416-227.968-60.79 0-118.703 30.614-158.097 83.564l-38.72 52.042-38.45-52.242c-38.728-52.62-96.996-83.364-157.949-83.364-111.684 0-204.416 101.433-204.416 227.968 0 63.002 17.72 105.066 65.723 180.072 38.71 60.89 107.955 135.063 195.14 213.891 33.32 30.125 67.794 59.484 95.39 82.134l21.783 17.632 20.475 15.925c0.895 0.707 1.574 0.938 2.513 0.938 0.94 0 1.618-0.231 3.456-1.664l26.082-20.662c20.62-16.66 50.843-13.448 67.502 7.173 16.66 20.621 13.448 50.843-7.173 67.502-12.92 10.437-24.61 19.636-27.868 22.061l-7.924 5.666c-16.264 10.493-34.92 15.924-54.075 15.924-22.348 0-44.016-7.393-61.056-20.864-26.851-20.139-86.728-69.237-143.488-120.555l-19.655-17.963c-83.89-77.516-150.842-150.71-192.038-215.511-57.073-89.176-80.787-145.471-80.787-231.699 0-177.728 133.695-323.968 300.416-323.968 73.124 0 142.827 28.823 196.708 79.09l11.816-10.452c52.183-43.84 116.864-68.638 184.692-68.638z m3.714 479.181l0.566 0.557 79.196 79.196 79.196-79.196c18.557-18.558 48.53-18.744 67.316-0.557l0.566 0.557c18.558 18.558 18.743 48.53 0.557 67.316l-0.557 0.566L858.942 672l79.196 79.196c18.558 18.558 18.743 48.53 0.557 67.316l-0.557 0.566c-18.558 18.558-48.53 18.744-67.317 0.557l-0.565-0.557-79.196-79.196-79.196 79.196c-18.558 18.558-48.53 18.744-67.317 0.557l-0.566-0.557c-18.557-18.558-18.743-48.53-0.556-67.316l0.556-0.566L723.177 672l-79.196-79.196c-18.557-18.558-18.743-48.53-0.556-67.316l0.556-0.566c18.558-18.558 48.53-18.744 67.317-0.557z" p-id="4593"></path></svg>