<?xml version="1.0" standalone="no"?><!DOCTYPE svg PUBLIC "-//W3C//DTD SVG 1.1//EN" "http://www.w3.org/Graphics/SVG/1.1/DTD/svg11.dtd"><svg t="1561454137015" class="icon" viewBox="0 0 1024 1024" version="1.1" xmlns="http://www.w3.org/2000/svg" p-id="951" xmlns:xlink="http://www.w3.org/1999/xlink"  ><defs><style type="text/css"></style></defs><path d="M192 64h640c70.692 0 128 57.308 128 128v640c0 70.692-57.308 128-128 128H192c-70.692 0-128-57.308-128-128V192c0-70.692 57.308-128 128-128z m0 128v640h640V192H192z m128 256.5c-35.346 0-64-28.654-64-64 0-35.346 28.654-64 64-64h320c35.346 0 64 28.654 64 64 0 35.346-28.654 64-64 64H320z m0 192.5c-35.346 0-64-28.654-64-64 0-35.346 28.654-64 64-64h192c35.346 0 64 28.654 64 64 0 35.346-28.654 64-64 64H320z" fill="#000000" p-id="952"></path></svg>