<?xml version="1.0" standalone="no"?><!DOCTYPE svg PUBLIC "-//W3C//DTD SVG 1.1//EN" "http://www.w3.org/Graphics/SVG/1.1/DTD/svg11.dtd"><svg t="1582793669732" class="icon" viewBox="0 0 1025 1024" version="1.1" xmlns="http://www.w3.org/2000/svg" p-id="4656" xmlns:xlink="http://www.w3.org/1999/xlink"  ><defs><style type="text/css"></style></defs><path d="M511.977 116.56l10.933-6.431c87.946-50.094 187.435-67.286 285.134-18.613 140.08 69.726 202.022 208.407 169.197 374.561-22.368 113.624-106.237 226.398-230.397 335.86-43.183 38.071-88.554 73.228-133.65 104.827l-29.413 20.138a1253.895 1253.895 0 0 1-16.732 10.985l-20.295 12.717c-10.522 6.364-22.56 9.658-34.754 9.658-12.194 0-24.232-3.294-34.754-9.658l-20.295-12.717a1244.113 1244.113 0 0 1-16.732-10.985l-29.413-20.138c-45.096-31.599-90.467-66.756-133.65-104.827C152.996 692.475 69.126 579.7 46.764 466.102 13.929 299.897 75.897 161.128 215.933 91.528c97.767-48.746 196.904-31.589 285.08 18.59l10.964 6.441z m11.552 758.096c47.377-30.003 109.502-74.764 172.526-130.328C808.66 645.053 883.56 544.34 901.893 451.218c26.333-133.296-20.071-237.19-128.083-290.954-79.09-39.402-165.253-17.405-240.181 33.672l-21.596 14.721-21.617-14.69c-75.348-51.207-161.112-73.148-240.258-33.687C142.195 213.94 95.77 317.901 122.112 451.243c18.328 93.096 93.228 193.81 205.833 293.085 63.024 55.564 125.15 100.325 172.526 130.328l11.529 7.19 11.529-7.19z" p-id="4657"></path></svg>