<?xml version="1.0" standalone="no"?><!DOCTYPE svg PUBLIC "-//W3C//DTD SVG 1.1//EN" "http://www.w3.org/Graphics/SVG/1.1/DTD/svg11.dtd"><svg t="1582793675721" class="icon" viewBox="0 0 1025 1024" version="1.1" xmlns="http://www.w3.org/2000/svg" p-id="4908" xmlns:xlink="http://www.w3.org/1999/xlink"  ><defs><style type="text/css"></style></defs><path d="M779.287 400.762V145.333c0-33.137-26.863-60-60-60H298.95c-33.137 0-60 26.863-60 60v255.429c0 11.045-8.954 20-20 20h-76.09a91.65 91.65 0 0 0-65.549 27.597c-35.336 36.162-34.731 94.115 1.355 129.53l337.916 331.635c52.999 52.013 137.837 52.013 190.836 0L945.334 577.89a91.694 91.694 0 0 0 27.466-65.444c0-50.596-40.998-91.683-91.66-91.683h-81.853c-11.046 0-20-8.955-20-20zM339.454 165.836h339.33c11.046 0 20 8.954 20 20v275.429c0 22.09 17.909 40 40 40H881.14l2.966 0.399a11.183 11.183 0 0 1 8.191 10.781c0 3.006-1.208 5.886-3.35 7.989L551.03 852.069l-5.223 4.533c-21.723 16.624-52.819 15.113-72.837-4.533L135.054 520.434l-2.122-2.88c-2.135-4.166-1.492-9.402 1.956-12.932a11.15 11.15 0 0 1 7.972-3.357h136.594c22.091 0 40-17.91 40-40V185.836c0-11.046 8.954-20 20-20z" p-id="4909"></path></svg>