<svg xmlns="http://www.w3.org/2000/svg"   viewBox="0 0 1024 1025">
    <path fill-rule="evenodd" d="M761 138.7c28.167 0 51 22.833 51 51v646c0 28.167-22.833 51-51 51H263c-28.167 0-51-22.833-51-51v-646c0-28.167 22.833-51 51-51h498zm-249 602c-24.853 0-45 20.147-45 45s20.147 45 45 45 45-20.147 45-45-20.147-45-45-45zm216-548H296c-16.403 0-29.731 13.164-30 29.504V684.7h492v-462c0-16.569-13.431-30-30-30zM401.957 602.072v11.36c0 1.2-.931 2.183-2.109 2.263l-.155.005h-4.502c-1.199 0-2.18-.933-2.26-2.113l-.004-.156v-11.359h9.03zM654.83 261.7c1.69 0 3.072 1.322 3.165 2.988l.005.18v12.809c0 14.848-11.921 26.912-26.717 27.152l-.45.004H512.952c-2.429 0-4.412 1.912-4.523 4.313l-.005.213v258.728c0 2.429 1.914 4.41 4.315 4.522l.213.004h117.871c14.854 0 26.909 11.892 27.148 26.682l.004.449v12.717c0 1.69-1.315 3.12-2.982 3.217l-.18.005H485.927c-19.803 0-35.896-15.888-36.216-35.608l-.005-.6V279.805c0-9.888 7.93-17.924 17.779-18.104H654.83zm-255.047 81.753c1.199 0 2.18.932 2.26 2.113l.005.155v11.316h17.143c1.69 0 3.071 1.325 3.165 2.996l.005.18v238.668c0 1.693-1.324 3.077-2.99 3.17l-.18.006h-43.39c-1.69 0-3.07-1.326-3.163-2.996l-.005-.18V360.213c0-1.694 1.322-3.077 2.989-3.17l.18-.006h17.11v-11.316c0-1.2.932-2.183 2.11-2.263l.155-.005h4.606zm26.425-64.518c1.685 0 3.062 1.326 3.155 2.996l.005.18v39.948c0 1.693-1.319 3.077-2.981 3.17l-.18.005h-57.046c-1.686 0-3.063-1.325-3.156-2.995l-.005-.18V282.11c0-1.693 1.319-3.077 2.981-3.17l.18-.006h57.047z"/>
</svg>
