<?xml version="1.0" standalone="no"?><!DOCTYPE svg PUBLIC "-//W3C//DTD SVG 1.1//EN" "http://www.w3.org/Graphics/SVG/1.1/DTD/svg11.dtd"><svg t="1582793652842" class="icon" viewBox="0 0 1025 1024" version="1.1" xmlns="http://www.w3.org/2000/svg" p-id="3902" xmlns:xlink="http://www.w3.org/1999/xlink"  ><defs><style type="text/css"></style></defs><path d="M101.666 634.492c1.54 0 3.05-0.116 4.544-0.298l55.722 0.126c16.403 0.037 29.761-13.097 30.063-29.436l0.005-0.564V158.466c0.012-16.403-13.152-29.731-29.492-29.996l-0.496-0.004c-0.004 0-0.008 0-0.012 0.012l-54.747 0.022c-1.937-0.301-3.907-0.5-5.933-0.5C80.706 128 64 144.19 64 164.163l0.339 434.165c0 19.975 16.712 36.164 37.327 36.164zM545.62 960c51.528 0 94.575-34.82 105.695-81.475l0.549 0.069c6.112-26.636 9.444-54.286 9.444-82.7 0-43.811-7.719-85.862-21.842-124.995l208.309-0.218c1.917 0 3.79-0.185 5.632-0.46 35.568-1.354 69.824-19.1 90.003-50.618 12.837-20.043 17.957-42.563 16.284-64.404 0.331-3.997 0.024-8.106-1.094-12.201l-80.643-344.932c-1.133-4.133-2.999-7.884-5.365-11.22-8.637-16.71-21.77-31.49-39.231-42.253-18.396-11.329-38.939-16.62-59.233-16.59v0.224L318 128.413c-16.564 0.019-29.988 13.448-30 30.012v459.356c0.046 16.195 1.135 26.915 28.096 40.707l0.86 0.437C386.9 694.162 435.2 764.135 437.541 845.274c-0.288 3.142-0.493 6.3-0.493 9.516 0 58.104 48.604 105.21 108.57 105.21z" p-id="3903"></path></svg>