<?xml version="1.0" standalone="no"?><!DOCTYPE svg PUBLIC "-//W3C//DTD SVG 1.1//EN" "http://www.w3.org/Graphics/SVG/1.1/DTD/svg11.dtd"><svg t="1560238136656" class="icon" style="" viewBox="0 0 1024 1024" version="1.1" xmlns="http://www.w3.org/2000/svg" p-id="1921" xmlns:xlink="http://www.w3.org/1999/xlink"  ><defs><style type="text/css"></style></defs><path d="M697.044 742.299C629.994 799.481 543.03 834 448 834 235.923 834 64 662.077 64 450S235.923 66 448 66s384 171.923 384 384c0 94.008-33.781 180.127-89.867 246.878l208.494 208.495c12.497 12.496 12.497 32.758 0 45.254-12.496 12.497-32.758 12.497-45.254 0L697.044 742.3zM448 770c176.731 0 320-143.269 320-320S624.731 130 448 130 128 273.269 128 450s143.269 320 320 320z" fill="#000000" p-id="1922"></path></svg>