<?xml version="1.0" standalone="no"?><!DOCTYPE svg PUBLIC "-//W3C//DTD SVG 1.1//EN" "http://www.w3.org/Graphics/SVG/1.1/DTD/svg11.dtd"><svg t="1582793692418" class="icon" viewBox="0 0 1025 1024" version="1.1" xmlns="http://www.w3.org/2000/svg" p-id="5658" xmlns:xlink="http://www.w3.org/1999/xlink"  ><defs><style type="text/css"></style></defs><path d="M660.544 149.451c11.999-23.638 40.889-33.074 64.528-21.075 157.11 79.747 258.255 241.124 258.255 420.517 0 260.307-211.02 471.327-471.327 471.327S40.673 809.2 40.673 548.893c0-173.26 94.329-330.003 243.11-412.479 23.185-12.853 52.4-4.476 65.253 18.71 12.852 23.185 4.476 52.4-18.71 65.252C211.767 286.1 136.673 410.881 136.673 548.893c0 207.288 168.04 375.327 375.327 375.327s375.327-168.04 375.327-375.327c0-142.89-80.531-271.376-205.707-334.914-23.639-11.999-33.075-40.889-21.076-64.528zM512 0c26.51 0 48 21.49 48 48v448c0 26.51-21.49 48-48 48s-48-21.49-48-48V48c0-26.51 21.49-48 48-48z" p-id="5659"></path></svg>