<?xml version="1.0" standalone="no"?><!DOCTYPE svg PUBLIC "-//W3C//DTD SVG 1.1//EN" "http://www.w3.org/Graphics/SVG/1.1/DTD/svg11.dtd"><svg t="1560238126476" class="icon" style="" viewBox="0 0 1024 1024" version="1.1" xmlns="http://www.w3.org/2000/svg" p-id="1591" xmlns:xlink="http://www.w3.org/1999/xlink"  ><defs><style type="text/css"></style></defs><path d="M448.062439 128.874146c35.311516 0 63.937561 28.626045 63.937561 63.937561 0 35.311516-28.626045 63.937561-63.937561 63.937561H256.249756c-35.311516 0-63.937561 28.626045-63.937561 63.937561v447.562927c0 35.311516 28.626045 63.937561 63.937561 63.937561h447.562927c35.311516 0 63.937561-28.626045 63.937561-63.937561V576.437073c0-35.311516 28.626045-63.937561 63.937561-63.937561 35.311516 0 63.937561 28.626045 63.937561 63.937561v191.812683c0 105.935547-85.877136 191.812683-191.812683 191.812683H256.249756c-105.935547 0-191.812683-85.877136-191.812683-191.812683V320.686829c0-105.935547 85.877136-191.812683 191.812683-191.812683h191.812683z m357.998392-11.943336l102.126268 102.126267-445.540902 445.541901a17.75666 17.75666 0 0 1-8.543657 4.74037L354.177124 692.523707c-9.557666 2.217834-19.10734-3.734353-21.329171-13.293018a17.767649 17.767649 0 0 1-0.012987-7.991196l22.950587-100.195153a17.75666 17.75666 0 0 1 4.753358-8.59161l445.52192-445.52192z m132.748363 71.504171L836.682927 86.308714c28.187473-28.187473 73.899832-28.176484 102.101292 0.024976 28.202459 28.20146 28.212449 73.913819 0.024975 102.100292z" fill="#000000" p-id="1592"></path></svg>