<?xml version="1.0" standalone="no"?><!DOCTYPE svg PUBLIC "-//W3C//DTD SVG 1.1//EN" "http://www.w3.org/Graphics/SVG/1.1/DTD/svg11.dtd"><svg t="1582795871919" class="icon" viewBox="0 0 1024 1024" version="1.1" xmlns="http://www.w3.org/2000/svg" p-id="6742" xmlns:xlink="http://www.w3.org/1999/xlink"  ><defs><style type="text/css"></style></defs><path d="M244.713 633.106v255.428c0 33.137 26.863 60 60 60H725.05c33.137 0 60-26.863 60-60V633.106c0-11.046 8.954-20 20-20h76.091a91.646 91.646 0 0 0 65.549-27.598c35.336-36.162 34.731-94.115-1.355-129.53L607.418 124.343c-52.999-52.013-137.837-52.013-190.836 0L78.666 455.978A91.694 91.694 0 0 0 51.2 521.422c0 50.597 40.998 91.684 91.66 91.684h81.853c11.046 0 20 8.954 20 20z" p-id="6743"></path></svg>