<?xml version="1.0" standalone="no"?><!DOCTYPE svg PUBLIC "-//W3C//DTD SVG 1.1//EN" "http://www.w3.org/Graphics/SVG/1.1/DTD/svg11.dtd"><svg t="1557278335010" class="icon" style="" viewBox="0 0 1024 1024" version="1.1" xmlns="http://www.w3.org/2000/svg" p-id="4062" xmlns:xlink="http://www.w3.org/1999/xlink"  ><defs><style type="text/css"></style></defs><path d="M938.435 873.788a47.426 47.426 0 0 1 14.315 33.951 47.428 47.428 0 0 1-14.315 33.951c-19.27 18.747-49.963 18.747-69.232 0l-86.562-84.892a47.423 47.423 0 0 1-14.315-33.95 47.426 47.426 0 0 1 14.315-33.95c19.27-18.747 49.963-18.747 69.238 0l86.556 84.89z m-468.246-3.565c-222.294 0-402.5-180.206-402.5-402.5 0-222.295 180.206-402.5 402.5-402.5 222.295 0 402.5 180.205 402.5 402.5 0 222.294-180.205 402.5-402.5 402.5z m0-40.25c200.065 0 362.25-162.185 362.25-362.25s-162.185-362.25-362.25-362.25-362.25 162.185-362.25 362.25 162.185 362.25 362.25 362.25z" fill="#000000" p-id="4063"></path></svg>