<?xml version="1.0" standalone="no"?><!DOCTYPE svg PUBLIC "-//W3C//DTD SVG 1.1//EN" "http://www.w3.org/Graphics/SVG/1.1/DTD/svg11.dtd"><svg t="1557278326644" class="icon" style="" viewBox="0 0 1024 1024" version="1.1" xmlns="http://www.w3.org/2000/svg" p-id="3842" xmlns:xlink="http://www.w3.org/1999/xlink"  ><defs><style type="text/css"></style></defs><path d="M512 992C246.903 992 32 777.097 32 512S246.903 32 512 32s480 214.903 480 480-214.903 480-480 480z m0-64c229.75 0 416-186.25 416-416S741.75 96 512 96 96 282.25 96 512s186.25 416 416 416z m7.346-713.868c17.673 0 32 14.327 32 32v384c0 17.674-14.327 32-32 32-17.673 0-32-14.326-32-32v-384c0-17.673 14.327-32 32-32z m0 509.517c26.51 0 48 21.49 48 48s-21.49 48-48 48-48-21.49-48-48 21.49-48 48-48z" fill="#000000" p-id="3843"></path></svg>