<?xml version="1.0" standalone="no"?><!DOCTYPE svg PUBLIC "-//W3C//DTD SVG 1.1//EN" "http://www.w3.org/Graphics/SVG/1.1/DTD/svg11.dtd"><svg t="1557278384337" class="icon" style="" viewBox="0 0 1024 1024" version="1.1" xmlns="http://www.w3.org/2000/svg" p-id="5602" xmlns:xlink="http://www.w3.org/1999/xlink"  ><defs><style type="text/css"></style></defs><path d="M512 992C246.903 992 32 777.097 32 512S246.903 32 512 32s480 214.903 480 480-214.903 480-480 480z m0-64c229.75 0 416-186.25 416-416S741.75 96 512 96 96 282.25 96 512s186.25 416 416 416z m-62.162-275.204l298.43-353.44c11.403-13.504 31.592-15.208 45.095-3.806 13.504 11.402 15.208 31.591 3.806 45.095L479.902 716.394c-10.67 12.637-29.214 15.06-42.774 5.59L237.677 582.677c-14.49-10.12-18.031-30.069-7.912-44.558 10.12-14.489 30.07-18.03 44.558-7.91l175.515 122.587z" fill="#000000" p-id="5603"></path></svg>