<?xml version="1.0" standalone="no"?><!DOCTYPE svg PUBLIC "-//W3C//DTD SVG 1.1//EN" "http://www.w3.org/Graphics/SVG/1.1/DTD/svg11.dtd"><svg t="1557278387435" class="icon" style="" viewBox="0 0 1024 1024" version="1.1" xmlns="http://www.w3.org/2000/svg" p-id="5712" xmlns:xlink="http://www.w3.org/1999/xlink"  ><defs><style type="text/css"></style></defs><path d="M544 390.305v337.778c0 17.673-14.327 32-32 32-17.673 0-32-14.327-32-32V390.305h-60.074c-8.837 0-16-7.164-16-16a16 16 0 0 1 4.107-10.704l92.074-102.304c5.912-6.568 16.028-7.1 22.596-1.19a16 16 0 0 1 1.19 1.19L615.967 363.6c5.911 6.569 5.379 16.685-1.19 22.597a16 16 0 0 1-10.703 4.107H544z" fill="#000000" p-id="5713"></path></svg>