<?xml version="1.0" standalone="no"?><!DOCTYPE svg PUBLIC "-//W3C//DTD SVG 1.1//EN" "http://www.w3.org/Graphics/SVG/1.1/DTD/svg11.dtd"><svg t="1557278376457" class="icon" style="" viewBox="0 0 1024 1024" version="1.1" xmlns="http://www.w3.org/2000/svg" p-id="5382" xmlns:xlink="http://www.w3.org/1999/xlink"  ><defs><style type="text/css"></style></defs><path d="M544 625.778h60.074c8.837 0 16 7.163 16 16a16 16 0 0 1-4.107 10.703l-92.074 102.305c-5.912 6.568-16.028 7.1-22.596 1.19a16 16 0 0 1-1.19-1.19L408.033 652.48c-5.911-6.568-5.379-16.685 1.19-22.596a16 16 0 0 1 10.703-4.107H480V288c0-17.673 14.327-32 32-32 17.673 0 32 14.327 32 32v337.778z m-32 0V288v337.778z" fill="#000000" p-id="5383"></path></svg>