<?xml version="1.0" standalone="no"?><!DOCTYPE svg PUBLIC "-//W3C//DTD SVG 1.1//EN" "http://www.w3.org/Graphics/SVG/1.1/DTD/svg11.dtd"><svg t="1557278307841" class="icon" style="" viewBox="0 0 1024 1024" version="1.1" xmlns="http://www.w3.org/2000/svg" p-id="3292" xmlns:xlink="http://www.w3.org/1999/xlink"  ><defs><style type="text/css"></style></defs><path d="M639.606 414.044c21.353 27.586 34.06 62.203 34.06 99.788 0 90.114-73.052 163.167-163.166 163.167-37.585 0-72.201-12.708-99.788-34.061l-82.191 82.191c54.211 22.333 114.712 33.453 181.628 33.453 180.585 0 314.444-80.983 404.065-244.783-47.704-87.76-108.288-151.741-182.139-192.225l-92.47 92.47z m-31.071-30.656l81.674-81.675c-53.763-21.784-113.748-32.631-180.078-32.631-181.218 0-315.059 80.964-404.047 244.716C153.718 600.86 213.85 664.525 286.853 705.07l93.203-93.203c-20.545-27.294-32.723-61.242-32.723-98.035 0-90.115 73.053-163.167 163.167-163.167 36.793 0 70.741 12.178 98.035 32.723zM439.87 613.78c19.954 14.126 44.322 22.427 70.63 22.427 67.586 0 122.375-54.79 122.375-122.375 0-26.308-8.301-50.677-22.427-70.63L439.87 613.78z m-30.585-31.143l170.02-170.02c-19.606-13.354-43.294-21.16-68.805-21.16-67.586 0-122.375 54.79-122.375 122.375 0 25.511 7.806 49.199 21.16 68.805zM721.28 270.644l91.151-91.152c7.965-7.965 20.88-7.965 28.844 0l2.02 2.02c7.965 7.965 7.965 20.879 0 28.844l-81.29 81.29c78.759 46.017 143.356 117.02 193.413 212.734a20.396 20.396 0 0 1-0.027 18.956c-96.577 183.378-245.868 276.038-445.24 276.038-78.744 0-149.675-14.454-212.632-43.243L208.57 845.08c-7.965 7.965-20.88 7.965-28.844 0l-2.02-2.02c-7.965-7.965-7.965-20.879 0-28.844l79.26-79.26C179.057 688.92 114.916 618.29 64.91 523.336a20.396 20.396 0 0 1-0.029-18.954c95.9-183.417 245.207-276.092 445.25-276.092 78.185 0 148.62 14.156 211.149 42.354z" fill="#000000" p-id="3293"></path></svg>