<?xml version="1.0" standalone="no"?><!DOCTYPE svg PUBLIC "-//W3C//DTD SVG 1.1//EN" "http://www.w3.org/Graphics/SVG/1.1/DTD/svg11.dtd"><svg t="1557278298052" class="icon" style="" viewBox="0 0 1024 1024" version="1.1" xmlns="http://www.w3.org/2000/svg" p-id="2962" xmlns:xlink="http://www.w3.org/1999/xlink"  ><defs><style type="text/css"></style></defs><path d="M403.531 47.009c-10.826-7.57-25.863-4.97-33.57 5.674-7.699 10.65-5.048 25.434 5.779 33.004l69.427 48.266 3.85 2.6C364.551 148.027 286.461 186 225.1 246.333c-74.48 73.22-115.387 170.458-115.387 273.963 0 52.638 10.585 103.624 31.406 151.767 20.091 46.37 48.848 88.01 85.422 123.619 4.693 4.609 10.832 6.859 16.966 6.859 6.258 0 12.391-2.37 17.085-6.978 9.386-9.228 9.265-24.254-0.12-33.477-66.174-64.353-102.508-150.232-102.508-241.672 0-90.847 35.973-176.256 101.308-240.487 54.625-53.703 124.407-87.3 199.725-96.763l-3.487 3.548-61.602 61.154c-9.386 9.229-9.264 24.255 0.12 33.478 4.693 4.613 10.827 6.865 16.966 6.865 6.254 0 12.392-2.37 17.086-6.984l127.766-126.79a1 1 0 0 0-0.134-1.531L403.531 47.009z m510.755 456.695c0-52.639-10.593-103.623-31.413-151.766-20.098-46.371-48.866-88.01-85.45-123.613-4.695-4.615-10.829-6.865-16.97-6.865-6.255 0-12.396 2.368-17.09 6.983-9.39 9.222-9.269 24.25 0.12 33.477 66.198 64.348 102.54 150.225 102.54 241.666 0 90.853-35.987 176.256-101.335 240.487-54.638 53.709-124.445 87.299-199.782 96.763l3.489-3.548 61.622-61.154c9.389-9.229 9.269-24.25-0.12-33.478-4.694-4.614-10.835-6.865-16.969-6.865-6.261 0-12.396 2.37-17.09 6.983L468.152 869.801a1 1 0 0 0 0.134 1.53l151.982 105.657c10.835 7.576 25.875 4.97 33.577-5.673 7.7-10.65 5.056-25.434-5.774-33.004l-69.444-48.267-3.85-2.599c84.486-11.474 162.59-49.447 223.971-109.778 74.495-73.22 115.538-170.459 115.538-273.963z" fill="#000000" p-id="2963"></path></svg>