<?xml version="1.0" standalone="no"?><!DOCTYPE svg PUBLIC "-//W3C//DTD SVG 1.1//EN" "http://www.w3.org/Graphics/SVG/1.1/DTD/svg11.dtd"><svg t="1557278348600" class="icon" style="" viewBox="0 0 1024 1024" version="1.1" xmlns="http://www.w3.org/2000/svg" p-id="4502" xmlns:xlink="http://www.w3.org/1999/xlink"  ><defs><style type="text/css"></style></defs><path d="M117.449 491.875h787.806c11.45 0 20.732 9.552 20.732 21.334s-9.282 21.333-20.732 21.333H117.45c-11.45 0-20.732-9.551-20.732-21.333 0-11.782 9.282-21.334 20.732-21.334z m0-394.846h787.806c11.45 0 20.732 9.551 20.732 21.333 0 11.782-9.282 21.334-20.732 21.334H117.45c-11.45 0-20.732-9.552-20.732-21.334s9.282-21.333 20.732-21.333z m0 789.693h787.806c11.45 0 20.732 9.551 20.732 21.333 0 11.782-9.282 21.333-20.732 21.333H117.45c-11.45 0-20.732-9.55-20.732-21.333 0-11.782 9.282-21.333 20.732-21.333z" fill="#000000" p-id="4503"></path></svg>