<?xml version="1.0" standalone="no"?><!DOCTYPE svg PUBLIC "-//W3C//DTD SVG 1.1//EN" "http://www.w3.org/Graphics/SVG/1.1/DTD/svg11.dtd"><svg t="1557309755740" class="icon" style="" viewBox="0 0 1024 1024" version="1.1" xmlns="http://www.w3.org/2000/svg" p-id="6146" xmlns:xlink="http://www.w3.org/1999/xlink"  ><defs><style type="text/css"></style></defs><path d="M192 64H128v896h768V64H192z m640 832H192V128h640v768z" fill="#181818" p-id="6147"></path><path d="M320 224h384v64H320zM320 416h64v64h-64zM480 416h64v64h-64zM640 416h64v64h-64zM320 576h64v64h-64zM480 576h64v64h-64zM640 576h64v64h-64zM320 736h64v64h-64zM480 736h64v64h-64zM640 736h64v64h-64z" fill="#181818" p-id="6148"></path></svg>