<?xml version="1.0" standalone="no"?><!DOCTYPE svg PUBLIC "-//W3C//DTD SVG 1.1//EN" "http://www.w3.org/Graphics/SVG/1.1/DTD/svg11.dtd"><svg t="1557278230678" class="icon" style="" viewBox="0 0 1024 1024" version="1.1" xmlns="http://www.w3.org/2000/svg" p-id="2192" xmlns:xlink="http://www.w3.org/1999/xlink"  ><defs><style type="text/css"></style></defs><path d="M715.208 226.708h182.438c11.195 0 20.27 9.076 20.27 20.271s-9.075 20.271-20.27 20.271h-82.197v563.582c0 44.781-36.302 81.084-81.083 81.084H288.407c-44.78 0-81.083-36.303-81.083-81.084V267.25h-79.97c-11.195 0-20.27-9.076-20.27-20.27 0-11.196 9.075-20.272 20.27-20.272h182.438v-36.136c0-44.781 36.302-81.083 81.083-81.083h243.25c44.781 0 81.083 36.302 81.083 81.083v36.136z m-40.541 0v-36.136c0-22.39-18.151-40.542-40.542-40.542h-243.25c-22.39 0-40.542 18.151-40.542 40.542v36.136h324.334zM247.866 830.832c0 22.39 18.15 40.542 40.541 40.542h445.959c22.39 0 40.541-18.151 40.541-40.542V267.587H247.866v563.245z m143.009-137.894v-243.25c0-11.196 9.076-20.271 20.27-20.271 11.196 0 20.272 9.075 20.272 20.27v243.25c0 11.196-9.076 20.271-20.271 20.271s-20.271-9.075-20.271-20.27z m202.708 0v-243.25c0-11.196 9.076-20.271 20.271-20.271s20.271 9.075 20.271 20.27v243.25c0 11.196-9.076 20.271-20.27 20.271-11.196 0-20.272-9.075-20.272-20.27z" fill="#000000" p-id="2193"></path></svg>