<?xml version="1.0" standalone="no"?><!DOCTYPE svg PUBLIC "-//W3C//DTD SVG 1.1//EN" "http://www.w3.org/Graphics/SVG/1.1/DTD/svg11.dtd"><svg t="1557278301333" class="icon" style="" viewBox="0 0 1024 1024" version="1.1" xmlns="http://www.w3.org/2000/svg" p-id="3072" xmlns:xlink="http://www.w3.org/1999/xlink"  ><defs><style type="text/css"></style></defs><path d="M548.625 961.292h-73.523c-25.58 0-46.38-20.801-46.38-46.367l-4.948-73.958c-28.204-7.61-55.069-18.915-80.298-33.753L285.891 857.6c-14.706 14.95-46.682 16.221-64.173-1.247l-52.04-52.022c-18.04-18.122-18.04-47.517-0.026-65.565l50.918-58.489a326.333 326.333 0 0 1-30.339-77.95l-81.5-5.426c-23.778 0.015-44.523-20.772-44.523-46.299v-73.547c0-25.566 20.8-46.368 46.38-46.368l84.699-5.874a327.471 327.471 0 0 1 31.35-70.517l-58.543-66.876c-16.807-16.73-16.807-46.148 1.284-64.231l51.983-51.992c17.545-17.522 48.05-17.522 65.596 0l68.901 59.958a326.81 326.81 0 0 1 66.66-26.524l6.258-94.412c-0.054-23.709 20.745-44.51 46.326-44.51h73.518c25.586 0 46.384 20.796 46.384 46.368l6.477 93.61c22.738 6.515 44.601 15.455 65.43 26.7l71.852-62.643c14.762-14.892 46.682-16.177 64.175 1.286l52.01 52.022c8.773 8.764 13.585 20.405 13.585 32.8 0 12.395-4.84 24.051-13.614 32.81l-59.524 68.107a326.822 326.822 0 0 1 29.762 67.78l90.166 6.207c23.724 0 44.469 20.771 44.469 46.3V550.6c0 25.567-20.8 46.368-46.385 46.368l-83.164 5.572c-6.508 26.196-16.154 51.343-28.863 75.12l54.58 62.62c16.753 16.68 16.753 46.088-1.285 64.157l-52.041 52.022c-17.545 17.522-48.074 17.493-65.566 0.03l-57.858-50.606c-24.818 14.843-51.244 26.252-78.99 34.095l-5.274 76.856c0.058 23.656-20.74 44.457-46.32 44.457z m0-40.709c3.035 0 5.616-2.509 5.708-6.535l7.237-105.446 27.576-7.796c24.292-6.867 47.417-16.85 69.169-29.859l25.41-15.196 22.285 19.492 59.82 52.439c1.613 1.61 6.4 1.61 8.024-0.012l52.012-51.993c2.127-2.13 2.177-5.747-0.594-8.649L752.24 683.24l13.24-24.768c11.1-20.767 19.547-42.76 25.256-65.744l7.159-28.819 29.628-1.984 85.885-5.663c3.102 0 5.676-2.574 5.676-5.66v-73.547c0-3.015-2.504-5.59-6.556-5.687l-118.004-8.123-8.253-26.656a286.113 286.113 0 0 0-26.055-59.337l-14.708-25.261 19.236-22.01 61.416-70.13c1.129-1.126 1.666-2.42 1.666-3.998 0-1.608-0.528-2.883-1.665-4.019l-51.983-51.994c-0.932-0.93-7.005-0.93-8.663 0.588l-93.119 81.185-24.826-13.405c-18.303-9.883-37.445-17.698-57.3-23.387l-27.43-7.86-1.97-28.464-6.574-96.42c0-3.088-2.571-5.66-5.675-5.66h-73.518c-3.038 0-5.62 2.513-5.707 6.495l-8.17 123.285-27.899 7.682a286.102 286.102 0 0 0-58.358 23.22l-24.716 13.141-21.117-18.376L258.191 200c-1.652-1.65-6.412-1.65-8.042-0.022l-51.992 52.001c-2.145 2.144-2.194 5.743 0.567 8.627l78 89.102-15.097 25.391a286.763 286.763 0 0 0-27.453 61.752l-8.248 26.642-27.823 1.93-87.515 5.972c-3.097 0-5.671 2.574-5.671 5.66V550.6c0 3.019 2.503 5.592 6.518 5.681l111.169 7.4 7.143 28.864a285.624 285.624 0 0 0 26.555 68.227l13.572 24.866-18.6 21.367-52.81 60.517c-2.16 2.164-2.158 5.855-0.007 8.017l52.026 52.008c0.92 0.919 6.964 0.917 8.602-0.586l79.7-69.734 25.328 14.897c22.121 13.01 45.615 22.888 70.266 29.539l28.072 7.574 1.94 29.011 5.04 76.676c0 3.084 2.574 5.658 5.671 5.658h73.523zM512 712.971c-110.165 0-199.47-89.306-199.47-199.471S401.834 314.03 512 314.03c110.165 0 199.47 89.305 199.47 199.47 0 110.165-89.305 199.47-199.47 199.47z m0-40.708c87.682 0 158.763-71.08 158.763-158.763 0-87.682-71.08-158.762-158.763-158.762-87.682 0-158.762 71.08-158.762 158.762S424.317 672.263 512 672.263z" fill="#000000" p-id="3073"></path></svg>