<?xml version="1.0" standalone="no"?><!DOCTYPE svg PUBLIC "-//W3C//DTD SVG 1.1//EN" "http://www.w3.org/Graphics/SVG/1.1/DTD/svg11.dtd"><svg t="1557730200488" class="icon" style="" viewBox="0 0 1024 1024" version="1.1" xmlns="http://www.w3.org/2000/svg" p-id="4592" xmlns:xlink="http://www.w3.org/1999/xlink"  ><defs><style type="text/css"></style></defs><path d="M161.155 258.463h441.463c183.135 0 332.021 141.54 332.021 316.695 0 175.154-148.886 316.695-332.021 316.695H111.609c-11.782 0-21.333-9.551-21.333-21.333 0-11.782 9.55-21.333 21.333-21.333h491.009c160.04 0 289.354-122.935 289.354-274.029S762.66 301.129 602.618 301.129h-439.6l132.449 132.355c8.334 8.328 8.339 21.836 0.01 30.17-8.328 8.334-21.835 8.339-30.17 0.01L96.53 295.008a21.275 21.275 0 0 1-6.253-15.21c0-6.342 2.766-12.036 7.158-15.944l157.89-167.47c8.082-8.572 21.583-8.97 30.156-0.888 8.573 8.083 8.97 21.584 0.888 30.157l-125.213 132.81z" fill="#000000" p-id="4593"></path></svg>