<?xml version="1.0" standalone="no"?><!DOCTYPE svg PUBLIC "-//W3C//DTD SVG 1.1//EN" "http://www.w3.org/Graphics/SVG/1.1/DTD/svg11.dtd"><svg t="1557730238554" class="icon" style="" viewBox="0 0 1024 1024" version="1.1" xmlns="http://www.w3.org/2000/svg" p-id="5582" xmlns:xlink="http://www.w3.org/1999/xlink"  ><defs><style type="text/css"></style></defs><path d="M512 795.914l-239.003 119.95c-10.53 5.285-23.351 1.033-28.636-9.497a21.333 21.333 0 0 1-2.024-12.779l38.613-253.787a21.333 21.333 0 0 0-5.914-18.202L94.625 438.977c-8.28-8.382-8.198-21.889 0.183-30.17a21.333 21.333 0 0 1 11.528-5.873l263.863-43.44L493.05 121.969c5.413-10.465 18.285-14.56 28.75-9.148a21.333 21.333 0 0 1 9.148 9.148L653.8 359.494l263.863 43.44c11.626 1.914 19.499 12.89 17.585 24.516a21.333 21.333 0 0 1-5.874 11.527L741.44 629.217l40.223 264.371c1.772 11.649-6.234 22.528-17.882 24.3a21.333 21.333 0 0 1-12.778-2.024L512 795.914z m-221.278 63.315l202.14-101.449a42.667 42.667 0 0 1 38.276 0l202.14 101.45-34.02-223.596a42.667 42.667 0 0 1 11.828-36.403l158.949-160.897-223.165-36.74a42.667 42.667 0 0 1-30.966-22.499L512 178.206l-103.904 200.89a42.667 42.667 0 0 1-30.966 22.498l-223.165 36.74 151.424 153.28a64 64 0 0 1 17.742 54.605l-32.409 213.01z" fill="#000000" p-id="5583"></path></svg>