<?xml version="1.0" standalone="no"?><!DOCTYPE svg PUBLIC "-//W3C//DTD SVG 1.1//EN" "http://www.w3.org/Graphics/SVG/1.1/DTD/svg11.dtd"><svg t="1557730170560" class="icon" style="" viewBox="0 0 1024 1024" version="1.1" xmlns="http://www.w3.org/2000/svg" p-id="3602" xmlns:xlink="http://www.w3.org/1999/xlink"  ><defs><style type="text/css"></style></defs><path d="M392.375 434.083v158.834h19.854c10.965 0 19.854 8.889 19.854 19.854s-8.889 19.854-19.854 19.854h-79.416c-10.966 0-19.855-8.889-19.855-19.854s8.89-19.854 19.854-19.854h19.855V434.083h-19.854c-10.966 0-19.855-8.889-19.855-19.854s8.89-19.854 19.854-19.854h79.417c10.965 0 19.854 8.889 19.854 19.854s-8.889 19.854-19.854 19.854h-19.854zM193.833 116.417h635.334c43.86 0 79.416 35.556 79.416 79.416v635.334c0 43.86-35.556 79.416-79.416 79.416H193.833c-43.86 0-79.416-35.556-79.416-79.416V195.833c0-43.86 35.556-79.416 79.416-79.416z m0 39.708c-21.93 0-39.708 17.778-39.708 39.708v635.334c0 21.93 17.778 39.708 39.708 39.708h635.334c21.93 0 39.708-17.778 39.708-39.708V195.833c0-21.93-17.778-39.708-39.708-39.708H193.833zM511.5 612.769c0-10.964 8.888-19.852 19.852-19.852 10.968 0 19.856 8.888 19.856 19.852 0 10.967-8.888 19.856-19.856 19.856-10.964 0-19.852-8.889-19.852-19.856z m79.417 0c0-10.964 8.888-19.852 19.856-19.852 10.963 0 19.852 8.888 19.852 19.852 0 10.967-8.889 19.856-19.852 19.856-10.968 0-19.856-8.889-19.856-19.856z m79.416 0c0-10.964 8.891-19.852 19.855-19.852 10.963 0 19.854 8.888 19.854 19.852 0 10.967-8.891 19.856-19.855 19.856-10.963 0-19.854-8.889-19.854-19.856z" fill="#000000" p-id="3603"></path></svg>