<?xml version="1.0" standalone="no"?><!DOCTYPE svg PUBLIC "-//W3C//DTD SVG 1.1//EN" "http://www.w3.org/Graphics/SVG/1.1/DTD/svg11.dtd"><svg t="1557730197622" class="icon" style="" viewBox="0 0 1024 1024" version="1.1" xmlns="http://www.w3.org/2000/svg" p-id="4482" xmlns:xlink="http://www.w3.org/1999/xlink"  ><defs><style type="text/css"></style></defs><path d="M842.492 712.764c0.016 1.044 0.023 2.086 0.021 3.126-0.063 57.512-28.837 107.549-76.487 150.338-13.47 12.096-27.782 22.969-42.62 32.817-10.01 6.644-17.021 10.836-27.97 17.06-77.704 44.192-300.349 44.192-378.06 0-10.971-6.238-17.962-10.419-27.971-17.063-14.839-9.85-29.15-20.723-42.622-32.821-47.645-42.788-76.418-92.822-76.486-150.333a81.25 81.25 0 0 1 0.09-3.85c-43.467 7.028-75.332-21.216-93.487-73.263-2.32-6.654-4.406-13.663-6.254-20.983-12.637-50.05 2.565-109.925 39.517-139.184 24.03-19.024 45.789-22.765 64.31-16.18a343.345 343.345 0 0 1 7.344-40.284c21.94-89.808 61.93-140.908 126.252-187.588 45.428-32.972 83.162-45.567 140.852-53.478a81.792 81.792 0 0 0 3.578-7.52c8.407-20.27 8.313-42.004 2.96-63.833-0.938-3.823-1.593-6.06-3.104-10.906-3.024-9.704 6.794-18.45 16.085-14.328 13.09 5.808 86.445 68.853 106.156 96.664 53.34 8.636 90.532 21.998 133.803 53.401 60.838 44.161 100.45 96.937 122.602 187.587 3.894 15.933 6.567 31.593 8.156 46.968 21.355-10.96 45.777-10.102 71.626 9.313 38.919 29.236 54.995 89.302 41.631 139.516-17.333 65.108-56.63 103.904-109.922 94.824z m-643.625-26.432c-3.255 11.558-4.927 21.716-4.92 29.53 0.059 49.763 25.522 94.042 68.638 132.763 12.556 11.276 25.967 21.465 39.9 30.713 9.45 6.274 16.046 10.218 26.581 16.209 70.463 40.069 284.224 40.069 354.68-0.001 10.514-5.977 17.13-9.932 26.582-16.206 13.931-9.246 27.34-19.434 39.897-30.709 43.12-38.72 68.583-83.002 68.638-132.771 0.037-25.792-5.896-53.356-22.293-83.296a11.825 11.825 0 0 1-0.77-9.643c20.806-58.495 29.574-124.189 12.227-195.164-20.704-84.725-56.92-132.976-113.52-174.06-41.144-29.86-75.915-41.88-128.616-49.972a11.825 11.825 0 0 1-9.964-10.433c-0.516-4.834-45.137-44.89-73.874-69.034 2.178 19.627 0.219 39.247-7.708 58.36a105.648 105.648 0 0 1-8.116 15.704 11.825 11.825 0 0 1-8.502 5.443c-57.412 7.41-92.604 18.603-135.767 49.931-60.16 43.66-96.728 90.387-117.168 174.061a317.646 317.646 0 0 0-8.672 58.908c0.465 3.847 0.808 8.722 1.182 15.219 3.156 54.732 6.911 80.346 21.866 115.817 1.575 1.479 2.007 2.576 2.947 5.22 1.13 3.178 0.85 6.687-0.77 9.645-0.262 0.478-0.523 0.956-0.781 1.435-1.802 7.897-6.609 18.962-15.304 38.031l-0.4 0.877c-2.452 5.382-4.404 9.737-5.993 13.423z m-26.494-198.814c-0.89-0.535-1.737-1.024-2.298-1.303-11.662-5.807-25.755-4.485-45.232 10.935-29.02 22.979-41.777 73.225-31.267 114.852 1.682 6.661 3.57 13.005 5.655 18.984 15.657 44.889 39.765 64.93 73.703 56.36 1.018-2.739 2.206-5.684 3.676-9.127 4.372-15.087 10.953-31.742 19.553-48.617-1.96-1.854-3.16-3.698-4.123-6.6-13.994-42.21-21.895-87.731-19.667-135.484z m675.502 3.764c-1.106 0.634-2.776 1.752-4.453 2.91-1.588 27.45-4.453 54.382-8.236 80.192-2.103 14.348-4.359 27.441-6.617 39.022a556.6 556.6 0 0 1-2.317 11.328c0.514 1.57 1.136 3.49 1.843 5.701a859.27 859.27 0 0 1 6.325 20.624c0.846 2.893 1.65 5.715 2.408 8.452 3.438 12.415 5.729 22.025 6.66 29.338 40.799 8.323 71.228-21.234 86.072-76.993 11.036-41.467-2.36-91.52-32.98-114.522-19.019-14.284-34.384-14.265-48.705-6.052z m-185.046 23.294c-26.127 0-47.303-21.178-47.303-47.3 0-26.122 21.176-47.3 47.303-47.3 26.12 0 47.297 21.178 47.297 47.3 0 26.122-21.177 47.3-47.297 47.3z m-264.361-47.3c0 26.122-21.177 47.3-47.297 47.3-26.127 0-47.303-21.178-47.303-47.3 0-26.122 21.176-47.3 47.303-47.3 26.12 0 47.297 21.178 47.297 47.3z" fill="#000000" p-id="4483"></path></svg>