<?xml version="1.0" standalone="no"?><!DOCTYPE svg PUBLIC "-//W3C//DTD SVG 1.1//EN" "http://www.w3.org/Graphics/SVG/1.1/DTD/svg11.dtd"><svg t="1557730183476" class="icon" style="" viewBox="0 0 1024 1024" version="1.1" xmlns="http://www.w3.org/2000/svg" p-id="4042" xmlns:xlink="http://www.w3.org/1999/xlink"  ><defs><style type="text/css"></style></defs><path d="M490.646 436.452c4.974 6.099 4.062 15.075-2.037 20.05-6.098 4.973-15.075 4.062-20.049-2.037-28.25-34.638-27.096-86.46 2.933-123.544l99.563-122.95c34.517-42.624 95.12-51.292 135.473-18.615l82.646 66.925c40.352 32.677 44.474 93.759 9.957 136.383l-99.563 122.95c-28.216 34.845-74.65 47.64-113.452 31.685-7.279-2.993-10.753-11.32-7.76-18.599 2.993-7.278 11.32-10.753 18.599-7.76 26.944 11.08 60.04 1.96 80.465-23.262l99.563-122.95c24.898-30.746 21.99-73.839-5.745-96.298l-82.646-66.926c-27.734-22.458-70.49-16.343-95.388 14.403l-99.563 122.95c-21.711 26.811-22.532 63.642-2.996 87.595zM433.7 506.774c-27.49-14.129-63.346-5.669-85.058 21.142l-99.562 122.95c-24.898 30.747-21.99 73.84 5.744 96.298l82.646 66.926c27.735 22.46 70.49 16.344 95.388-14.403l99.563-122.95c20.425-25.221 22.464-59.49 6.025-83.543-4.441-6.497-2.774-15.364 3.723-19.805 6.497-4.441 15.365-2.774 19.806 3.723 23.673 34.636 20.812 82.716-7.405 117.561l-99.563 122.95c-34.516 42.624-95.12 51.292-135.472 18.616l-82.647-66.926c-40.352-32.676-44.474-93.758-9.957-136.382l99.563-122.95c30.029-37.083 80.48-48.987 120.234-28.555 7 3.597 9.758 12.188 6.16 19.187-3.597 7-12.188 9.758-19.188 6.16z m269.877 62.514l102.904-12.635c7.811-0.959 14.921 4.596 15.88 12.407 0.96 7.812-4.595 14.922-12.407 15.88L707.05 597.577c-7.812 0.959-14.921-4.596-15.88-12.407-0.96-7.812 4.595-14.922 12.407-15.88zM598.15 699.48c-0.686-7.84 5.113-14.752 12.953-15.438 7.84-0.686 14.752 5.114 15.438 12.954l9.036 103.283c0.686 7.84-5.114 14.751-12.954 15.437-7.84 0.686-14.751-5.113-15.437-12.953L598.15 699.48z m92.597-51.135l81.084 65.66c6.116 4.953 7.06 13.926 2.106 20.043-4.953 6.116-13.926 7.059-20.042 2.106l-81.083-65.66c-6.117-4.953-7.06-13.926-2.107-20.042 4.953-6.116 13.926-7.06 20.042-2.107zM418.601 338.52c0.686 7.84-5.113 14.752-12.953 15.438-7.84 0.686-14.752-5.114-15.438-12.954l-9.036-103.283c-0.686-7.84 5.113-14.752 12.954-15.438 7.84-0.686 14.751 5.114 15.437 12.954l9.036 103.283z m-110.69 125.93l-102.904 12.635c-7.811 0.96-14.921-4.596-15.88-12.407-0.96-7.811 4.596-14.921 12.407-15.88l102.905-12.636c7.81-0.959 14.92 4.596 15.88 12.408 0.96 7.81-4.596 14.92-12.407 15.88z m35.805-97.125c6.116 4.953 7.059 13.926 2.106 20.042-4.953 6.116-13.926 7.06-20.042 2.106l-81.083-65.66c-6.117-4.953-7.06-13.926-2.107-20.042 4.953-6.116 13.926-7.06 20.042-2.106l81.084 65.66z" fill="#000000" p-id="4043"></path></svg>