<?xml version="1.0" standalone="no"?><!DOCTYPE svg PUBLIC "-//W3C//DTD SVG 1.1//EN" "http://www.w3.org/Graphics/SVG/1.1/DTD/svg11.dtd"><svg t="1557730206515" class="icon" style="" viewBox="0 0 1024 1024" version="1.1" xmlns="http://www.w3.org/2000/svg" p-id="4812" xmlns:xlink="http://www.w3.org/1999/xlink"  ><defs><style type="text/css"></style></defs><path d="M314.699 569.51c1.057-3.803 2.407-6.079 4.506-8.801a619.51 619.51 0 0 1 2.471-3.548L716.28 162.135c15.541-15.495 36.61-23.97 59.208-23.97 25.089 0 49.87 10.552 68.164 28.89l37.24 37.33c18.326 18.29 28.854 43.058 28.854 68.169 0 22.622-8.473 43.706-23.985 59.25L491.284 726.537c-4.684 4.793-10.874 7.491-17.333 7.863l-144.523 39.448a45.622 45.622 0 0 1-11.769 1.521c-11.927 0-23.245-4.61-32.114-13.289-11.296-11.603-15.648-28.21-11.413-43.721l40.567-148.848z m1.316-2.073c0.311-2.069 0.393-2.603 2.57-5.821-2.312 4.488-2.322 4.512-2.57 5.821z m36.393 15.356L312.6 728.853c-0.503 1.844 0.033 3.89 1.167 5.063 1.068 1.044 2.38 1.578 3.891 1.578 0.579 0 1.074-0.062 1.387-0.145l147.22-40.185 391.28-391.536c7.937-7.954 12.325-18.872 12.325-31.074 0-14.394-6.23-29.05-17.178-39.977l-37.27-37.36c-10.905-10.931-25.574-17.177-39.935-17.177-12.176 0-23.086 4.389-31.025 12.304l-392.055 392.45z m477.641-142.56c0-11.011 8.926-19.938 19.938-19.938 11.01 0 19.937 8.927 19.937 19.938v387.662c0 36.97-29.97 66.94-66.94 66.94h-622.79c-36.97 0-66.94-29.97-66.94-66.94v-622.79c0-36.97 29.97-66.94 66.94-66.94h419.19c11.01 0 19.937 8.926 19.937 19.938 0 11.01-8.927 19.937-19.938 19.937H180.194c-14.947 0-27.065 12.118-27.065 27.065v622.79c0 14.947 12.118 27.065 27.065 27.065h622.79c14.947 0 27.065-12.118 27.065-27.065V440.233z" fill="#000000" p-id="4813"></path></svg>