<?xml version="1.0" standalone="no"?><!DOCTYPE svg PUBLIC "-//W3C//DTD SVG 1.1//EN" "http://www.w3.org/Graphics/SVG/1.1/DTD/svg11.dtd"><svg t="1557730162888" class="icon" style="" viewBox="0 0 1024 1024" version="1.1" xmlns="http://www.w3.org/2000/svg" p-id="3382" xmlns:xlink="http://www.w3.org/1999/xlink"  ><defs><style type="text/css"></style></defs><path d="M543.277 512l179.845 179.845c8.637 8.637 8.637 22.64 0 31.277s-22.64 8.637-31.277 0L512 543.277 332.155 723.122c-8.637 8.637-22.64 8.637-31.277 0s-8.637-22.64 0-31.277L480.723 512 300.878 332.155c-8.637-8.637-8.637-22.64 0-31.277s22.64-8.637 31.277 0L512 480.723l179.845-179.845c8.637-8.637 22.64-8.637 31.277 0s8.637 22.64 0 31.277L543.277 512zM168.063 855.937c-189.95-189.951-189.95-497.923 0-687.874 189.951-189.95 497.923-189.95 687.874 0 189.95 189.951 189.95 497.923 0 687.874-189.951 189.95-497.923 189.95-687.874 0z m18.102-18.102c179.954 179.953 471.716 179.953 651.67 0 179.953-179.954 179.953-471.716 0-651.67-179.954-179.953-471.716-179.953-651.67 0-179.953 179.954-179.953 471.716 0 651.67z" fill="#000000" p-id="3383"></path></svg>