<?xml version="1.0" standalone="no"?><!DOCTYPE svg PUBLIC "-//W3C//DTD SVG 1.1//EN" "http://www.w3.org/Graphics/SVG/1.1/DTD/svg11.dtd"><svg t="1557730174009" class="icon" style="" viewBox="0 0 1024 1024" version="1.1" xmlns="http://www.w3.org/2000/svg" p-id="3712" xmlns:xlink="http://www.w3.org/1999/xlink"  ><defs><style type="text/css"></style></defs><path d="M534.329 134.496v216.138c34.48 4.444 67.81 19.907 94.294 46.391 26.802 26.802 42.317 60.616 46.547 95.537l217.545 0.32-87.959-87.959c-7.981-7.981-7.981-20.921 0-28.903 7.982-7.981 20.922-7.981 28.903 0l121.798 121.798c7.981 7.981 7.981 20.921 0 28.903L828.36 653.816c-7.981 7.982-20.922 7.982-28.903 0-7.981-7.981-7.981-20.921 0-28.903l91.16-91.159-215.632-0.317c-4.48 34.402-19.935 67.648-46.363 94.076-26.488 26.488-59.825 41.952-94.31 46.394l-0.446 216.597 93.599-93.598c7.981-7.982 20.921-7.982 28.903 0 7.981 7.98 7.981 20.921 0 28.903L527.83 954.347c-7.981 7.981-20.921 7.981-28.903 0l-133.479-133.48c-7.981-7.98-7.981-20.92 0-28.902 7.982-7.981 20.922-7.981 28.903 0l98.64 98.64 0.447-216.573c-34.838-4.27-68.561-19.777-95.303-46.519-26.964-26.964-42.505-61.026-46.623-96.171l-216.559 1.225 91.164 91.164c7.981 7.98 7.981 20.921 0 28.903-7.981 7.98-20.922 7.98-28.903 0L71.3 526.72c-7.981-7.982-7.981-20.922 0-28.903l128.683-128.683c7.981-7.981 20.921-7.981 28.903 0 7.981 7.981 7.981 20.922 0 28.903l-93.652 93.651 216.62-1.225c4.589-34.175 20.015-67.174 46.28-93.439 26.746-26.746 60.475-42.253 95.319-46.52V133.47l-89.867 89.867c-7.981 7.981-20.922 7.981-28.903 0-7.981-7.982-7.981-20.922 0-28.903L498.927 70.19c7.982-7.981 20.922-7.981 28.903 0l125.27 125.27c7.98 7.98 7.98 20.92 0 28.902-7.982 7.982-20.923 7.982-28.904 0l-89.867-89.867zM427.038 425.928c-47.685 47.685-47.685 124.997 0 172.682 47.685 47.685 124.997 47.685 172.682 0 47.685-47.685 47.685-124.997 0-172.682-47.685-47.685-124.997-47.685-172.682 0z" fill="#000000" p-id="3713"></path></svg>