<?xml version="1.0" standalone="no"?><!DOCTYPE svg PUBLIC "-//W3C//DTD SVG 1.1//EN" "http://www.w3.org/Graphics/SVG/1.1/DTD/svg11.dtd"><svg class="icon"   viewBox="0 0 1024 1024" version="1.1" xmlns="http://www.w3.org/2000/svg"><path fill="#333333" d="M524.8 102.4C743.936 102.4 921.6 280.064 921.6 499.2v25.6C921.6 743.936 743.936 921.6 524.8 921.6h-230.4a38.4 38.4 0 0 1 0-76.8h230.4C701.5424 844.8 844.8 701.5424 844.8 524.8v-25.6C844.8 322.4576 701.5424 179.2 524.8 179.2h-25.6C322.4576 179.2 179.2 322.4576 179.2 499.2v384a38.4 38.4 0 0 1-76.8 0v-384C102.4 280.064 280.064 102.4 499.2 102.4zM512 435.2a38.4 38.4 0 0 1 38.4 38.4v204.8a38.4 38.4 0 0 1-76.8 0v-204.8A38.4 38.4 0 0 1 512 435.2z m0-128a51.2 51.2 0 1 1 0 102.4 51.2 51.2 0 0 1 0-102.4z" /></svg>