<?xml version="1.0" standalone="no"?><!DOCTYPE svg PUBLIC "-//W3C//DTD SVG 1.1//EN" "http://www.w3.org/Graphics/SVG/1.1/DTD/svg11.dtd"><svg class="icon"   viewBox="0 0 1024 1024" version="1.1" xmlns="http://www.w3.org/2000/svg"><path fill="#333333" d="M497.7408 105.1392a38.4 38.4 0 0 1 28.5184 0l320 128c14.592 5.8368 24.1408 19.968 24.1408 35.6608v25.6a39.0912 39.0912 0 0 1-3.9424 16.9472 39.8592 39.8592 0 0 1-6.272 9.1392l-320 345.6a38.4 38.4 0 0 1-55.3472 1.0752l-140.8-140.8a38.4 38.4 0 0 1 54.3232-54.3232l112.5632 112.5888 272.2304-294.016L512 182.1696l-281.6 112.64v263.9616c0.2304 1.9456 0.3072 3.9424 0.2304 5.9392A287.232 287.232 0 0 0 230.4 576c0 96.0768 91.2896 189.8752 281.6 277.8112 190.3104-87.936 281.6-181.76 281.6-277.8112 0-3.7632-0.0768-7.5264-0.2304-11.264-0.0768-2.048 0-4.0192 0.2304-5.9648V499.2a38.4 38.4 0 0 1 76.8 0V563.2c0 1.0496-0.0512 2.0992-0.128 3.1488 0.0768 3.2256 0.128 6.4256 0.128 9.6512 0 136.96-117.0432 254.0032-342.7072 355.072a38.4 38.4 0 0 1-31.3856 0C270.6432 829.9776 153.6 712.96 153.6 576c0-3.2256 0.0512-6.4256 0.128-9.6512A38.8864 38.8864 0 0 1 153.6 563.2V268.8a38.4 38.4 0 0 1 24.1408-35.6608z" /></svg>