<?xml version="1.0" standalone="no"?><!DOCTYPE svg PUBLIC "-//W3C//DTD SVG 1.1//EN" "http://www.w3.org/Graphics/SVG/1.1/DTD/svg11.dtd"><svg t="1578018174559" class="icon" viewBox="0 0 1024 1024" version="1.1" xmlns="http://www.w3.org/2000/svg" p-id="982" xmlns:xlink="http://www.w3.org/1999/xlink"  ><defs><style type="text/css"></style></defs><path d="M624.576 218.88c27.36-33.952 41.056-68 41.12-107.712V96c-19.52 1.92-39.104 7.584-62.624 17.024a235.968 235.968 0 0 0-54.816 39.68c-27.456 32.128-43.04 66.176-43.04 103.936v15.2c46.912 3.776 84.096-13.248 119.36-52.96z m156.544 408.64c-35.264-32.096-52.864-73.728-52.864-121.024-2.016-62.368 27.36-111.52 84.096-145.568-33.248-45.344-80.256-69.952-144.8-75.616-23.52-1.92-50.88 3.712-86.144 15.104-37.184 13.216-58.656 20.8-64.544 20.8-9.824 0-29.376-5.632-56.736-17.024-27.456-13.216-52.896-18.88-72.448-18.88-33.248 0-64.544 9.44-93.952 26.496-29.376 17.024-52.864 39.68-68.48 69.952C203.744 417.664 192 463.104 192 514.08c0 45.344 7.904 92.64 23.52 137.984 15.584 43.52 35.168 83.2 58.656 115.296 21.568 30.272 39.2 52.96 54.816 66.176 23.52 20.8 44.992 32.128 68.48 30.272 15.712 0 35.296-5.664 60.704-17.024 23.52-9.44 47.04-15.104 68.512-15.104 21.568 0 43.072 5.664 66.56 15.104 25.44 9.44 47.04 15.072 62.624 15.072 23.52-1.92 47.04-11.36 68.512-30.24 7.904-5.664 15.68-15.104 23.52-24.544 7.872-11.296 17.6-22.656 29.376-37.76 7.808-11.392 13.664-22.656 21.472-34.048 7.808-11.392 13.696-24.64 19.552-39.68 1.92-5.664 5.888-11.392 7.808-17.056 1.92-5.632 3.968-11.296 5.888-18.88-17.6-5.632-35.264-18.88-50.88-32.096z" p-id="983"></path></svg>