<?xml version="1.0" standalone="no"?><!DOCTYPE svg PUBLIC "-//W3C//DTD SVG 1.1//EN" "http://www.w3.org/Graphics/SVG/1.1/DTD/svg11.dtd"><svg t="1569717813496" class="icon" viewBox="0 0 1024 1024" version="1.1" xmlns="http://www.w3.org/2000/svg" p-id="1531" xmlns:xlink="http://www.w3.org/1999/xlink"  ><defs><style type="text/css"></style></defs><path d="M746.666667 533.333333a170.666667 170.666667 0 0 1 0 341.333334H458.666667a32 32 0 0 1 0-64H746.666667a106.666667 106.666667 0 0 0 0-213.333334H260.544a191.616 191.616 0 0 1 32.32 106.666667 191.616 191.616 0 0 1-32.32 106.666667H309.333333a32 32 0 0 1 0 64H180.693333c-32.725333 0-44.330667-43.328-15.978666-59.690667A127.914667 127.914667 0 0 0 228.864 704c0-46.293333-24.746667-88.213333-64.106667-110.933333-28.373333-16.384-16.746667-59.733333 16-59.733334z m117.909333-405.333333c32.746667 0 44.373333 43.349333 16 59.733333a127.914667 127.914667 0 0 0-64.106667 110.933334c0 46.293333 24.746667 88.234667 64.149334 110.976 28.373333 16.362667 16.746667 59.712-16 59.712L298.666667 469.333333a170.666667 170.666667 0 1 1 0-341.333333h565.909333zM298.666667 192a106.666667 106.666667 0 1 0 0 213.333333h486.122666a191.616 191.616 0 0 1-32.32-106.666666c0-38.890667 11.669333-75.776 32.32-106.666667H298.666667z" p-id="1532"></path></svg>