<?xml version="1.0" standalone="no"?><!DOCTYPE svg PUBLIC "-//W3C//DTD SVG 1.1//EN" "http://www.w3.org/Graphics/SVG/1.1/DTD/svg11.dtd"><svg class="icon"   viewBox="0 0 1024 1024" version="1.1" xmlns="http://www.w3.org/2000/svg"><path fill="#333333" d="M512 224c91.392 0 178.944 27.136 253.3888 78.1824 72.6528 49.92 127.616 119.0144 158.72 199.9104l3.8912 9.9072-3.8656 9.9072c-31.1296 80.7936-85.9648 149.888-158.72 199.9104-74.496 51.1744-161.9968 78.1824-253.4144 78.1824-91.392 0-178.944-27.136-253.3888-78.1824-72.6528-49.92-127.616-119.0144-158.72-199.9104L96 512l3.8656-9.9072c31.1296-80.7936 85.9648-149.888 158.72-199.9104C333.1072 251.008 420.608 224 512 224z m0 56.7296c-154.7264 0-295.5264 92.4672-353.792 231.3984 58.368 138.8032 199.0656 231.3728 353.792 231.3728 154.624 0 295.424-92.5696 353.792-231.3728-58.368-138.8288-199.0656-231.424-353.792-231.424z m0 71.2704A160.2304 160.2304 0 0 1 672 512 160.2304 160.2304 0 0 1 512 672 160.2304 160.2304 0 0 1 352 512 160.2304 160.2304 0 0 1 512 352z m0 64c-52.992 0-96 43.008-96 96 0 52.992 43.008 96 96 96 52.864 0 96-43.008 96-96 0-52.992-43.008-96-96-96z" /></svg>