<?xml version="1.0" standalone="no"?><!DOCTYPE svg PUBLIC "-//W3C//DTD SVG 1.1//EN" "http://www.w3.org/Graphics/SVG/1.1/DTD/svg11.dtd"><svg class="icon"   viewBox="0 0 1024 1024" version="1.1" xmlns="http://www.w3.org/2000/svg"><path fill="#333333" d="M938.666667 517.269333C938.666667 276.352 747.648 85.333333 506.730667 85.333333 276.352 85.333333 85.333333 276.352 85.333333 517.269333 85.333333 747.648 276.352 938.666667 506.730667 938.666667 747.648 938.666667 938.666667 747.648 938.666667 517.269333z m-85.333334 0C853.333333 701.802667 699.2 853.333333 506.730667 853.333333 323.477333 853.333333 170.666667 700.522667 170.666667 517.269333 170.666667 324.8 322.197333 170.666667 506.730667 170.666667 700.522667 170.666667 853.333333 323.477333 853.333333 517.269333zM484.949333 567.381333l-90.496-90.496a42.666667 42.666667 0 1 0-60.352 60.330667l120.682667 120.682667a42.666667 42.666667 0 0 0 60.330667 0l196.117333-196.117334a42.666667 42.666667 0 1 0-60.352-60.330666l-165.930667 165.930666z" /></svg>