<?xml version="1.0" standalone="no"?><!DOCTYPE svg PUBLIC "-//W3C//DTD SVG 1.1//EN" "http://www.w3.org/Graphics/SVG/1.1/DTD/svg11.dtd"><svg class="icon"   viewBox="0 0 1024 1024" version="1.1" xmlns="http://www.w3.org/2000/svg"><path fill="#333333" d="M345.6 921.6a38.4 38.4 0 0 1-3.6864-76.6208L345.6 844.8h12.8v-166.4a38.4 38.4 0 0 1 34.7136-38.2208L396.8 640a38.4 38.4 0 0 1 38.2208 34.7136L435.2 678.4V844.8h153.6v-115.2a38.4 38.4 0 0 1 34.7136-38.2208L627.2 691.2a38.4 38.4 0 0 1 38.4 38.4V844.8h128V537.6H230.4v345.6a38.4 38.4 0 0 1-76.6208 3.6864L153.6 883.2V537.6h-12.8A38.4 38.4 0 0 1 102.4 499.2v-179.2A38.4 38.4 0 0 1 140.8 281.6H384V166.4A89.6 89.6 0 0 1 473.6 76.8h76.8A89.6 89.6 0 0 1 640 166.4V281.6h243.2a38.4 38.4 0 0 1 38.4 38.4v179.2a38.4 38.4 0 0 1-38.4 38.4H870.4v345.6a38.4 38.4 0 0 1-34.7136 38.2208L832 921.6h-486.4z m204.8-768h-76.8a12.8 12.8 0 0 0-12.8 12.8v153.6a38.4 38.4 0 0 1-38.4 38.4H179.2v102.4h665.6v-102.4h-243.2a38.4 38.4 0 0 1-38.4-38.4v-153.6a12.8 12.8 0 0 0-12.8-12.8z" /></svg>