<?xml version="1.0" standalone="no"?><!DOCTYPE svg PUBLIC "-//W3C//DTD SVG 1.1//EN" "http://www.w3.org/Graphics/SVG/1.1/DTD/svg11.dtd"><svg class="icon"   viewBox="0 0 1024 1024" version="1.1" xmlns="http://www.w3.org/2000/svg"><path fill="#333333" d="M183.168 183.168a42.666667 42.666667 0 0 1 60.330667 0L512 451.626667 780.501333 183.168a42.666667 42.666667 0 0 1 60.330667 60.330667L572.373333 512l268.48 268.501333a42.666667 42.666667 0 0 1 2.496 57.621334l-2.496 2.709333a42.666667 42.666667 0 0 1-60.330666 0L512 572.373333 243.498667 840.832a42.666667 42.666667 0 0 1-60.330667-60.330667L451.626667 512 183.168 243.498667a42.666667 42.666667 0 0 1-2.496-57.621334z" /></svg>