<?xml version="1.0" standalone="no"?><!DOCTYPE svg PUBLIC "-//W3C//DTD SVG 1.1//EN" "http://www.w3.org/Graphics/SVG/1.1/DTD/svg11.dtd"><svg class="icon"   viewBox="0 0 1024 1024" version="1.1" xmlns="http://www.w3.org/2000/svg"><path fill="#333333" d="M370.56 350.634667l112.554667-236.373334c11.584-24.341333 46.186667-24.341333 57.770666 0l112.576 236.373334 246.869334 33.664c25.770667 3.52 36.8 34.688 18.986666 53.632l-181.056 192.341333 45.269334 260.245333c4.586667 26.410667-23.36 46.421333-46.869334 33.557334L512 801.28l-224.64 122.794667c-23.530667 12.864-51.477333-7.146667-46.890667-33.557334l45.269334-260.245333-181.034667-192.341333c-17.834667-18.944-6.826667-50.133333 18.986667-53.632l246.848-33.664zM512 202.432l-91.093333 191.317333a32 32 0 0 1-24.576 17.962667l-202.453334 27.605333 149.418667 158.741334a32 32 0 0 1 8.234667 27.434666L314.88 836.053333l181.76-99.328a32 32 0 0 1 30.677333 0l181.76 99.328-36.629333-210.581333a32 32 0 0 1 8.234667-27.434667l149.418666-158.741333-202.453333-27.605333a32 32 0 0 1-24.554667-17.962667L512 202.453333z" /></svg>