<?xml version="1.0" standalone="no"?><!DOCTYPE svg PUBLIC "-//W3C//DTD SVG 1.1//EN" "http://www.w3.org/Graphics/SVG/1.1/DTD/svg11.dtd"><svg class="icon"   viewBox="0 0 1024 1024" version="1.1" xmlns="http://www.w3.org/2000/svg"><path fill="#333333" d="M140.8 153.6A38.4 38.4 0 0 0 102.4 192v588.8a38.4 38.4 0 0 0 76.8 0V230.4h193.1776l143.9232 95.9488A38.4 38.4 0 0 0 537.6 332.8h307.2v409.6H294.4a38.4 38.4 0 0 0 0 76.8h588.8a38.4 38.4 0 0 0 38.4-38.4v-486.4a38.4 38.4 0 0 0-38.4-38.4H549.2224l-143.9232-95.9488A38.4 38.4 0 0 0 384 153.6z m435.2 435.2a38.4 38.4 0 0 0 0 76.8h179.2a38.4 38.4 0 0 0 0-76.8z" /></svg>