<?xml version="1.0" standalone="no"?><!DOCTYPE svg PUBLIC "-//W3C//DTD SVG 1.1//EN" "http://www.w3.org/Graphics/SVG/1.1/DTD/svg11.dtd"><svg class="icon"   viewBox="0 0 1024 1024" version="1.1" xmlns="http://www.w3.org/2000/svg"><path fill="#333333" d="M832 153.6a89.6 89.6 0 0 1 89.472 84.6848L921.6 243.2v435.2a89.6 89.6 0 0 1-84.6848 89.472L832 768h-214.7072l-186.7264 121.7536c-24.576 16.0512-56.8832-0.3584-59.2384-28.8256l-0.128-3.328V768h-76.8a38.4 38.4 0 0 1-3.6864-76.6208L294.4 691.2H409.6a38.4 38.4 0 0 1 38.2208 34.7136l0.1792 3.6864v57.1136l136.9088-89.2672a38.4 38.4 0 0 1 16.512-5.9904l4.4544-0.256H832a12.8 12.8 0 0 0 12.5952-10.496L844.8 678.4v-435.2a12.8 12.8 0 0 0-10.496-12.5952L832 230.4h-640a12.8 12.8 0 0 0-12.5952 10.496L179.2 243.2v460.8a38.4 38.4 0 0 1-76.6208 3.6864L102.4 704v-460.8a89.6 89.6 0 0 1 84.6848-89.472L192 153.6h640zM332.8 409.6a51.2 51.2 0 1 1 0 102.4 51.2 51.2 0 0 1 0-102.4z m179.2 0a51.2 51.2 0 1 1 0 102.4 51.2 51.2 0 0 1 0-102.4z m179.2 0a51.2 51.2 0 1 1 0 102.4 51.2 51.2 0 0 1 0-102.4z" /></svg>