<?xml version="1.0" standalone="no"?><!DOCTYPE svg PUBLIC "-//W3C//DTD SVG 1.1//EN" "http://www.w3.org/Graphics/SVG/1.1/DTD/svg11.dtd"><svg class="icon"   viewBox="0 0 1024 1024" version="1.1" xmlns="http://www.w3.org/2000/svg"><path fill="#333333" d="M864 149.333333a53.333333 53.333333 0 0 1 53.226667 49.834667L917.333333 202.666667v490.666666a53.333333 53.333333 0 0 1-49.834666 53.226667L864 746.666667H607.850667l-177.216 130.56a42.666667 42.666667 0 0 1-67.84-31.146667L362.666667 842.88V746.666667H160a53.333333 53.333333 0 0 1-53.226667-49.834667L106.666667 693.333333v-490.666666a53.333333 53.333333 0 0 1 49.834666-53.226667L160 149.333333h704z m-10.666667 64H170.666667v469.333334h202.666666a53.333333 53.333333 0 0 1 53.226667 49.834666L426.666667 736v64.682667l146.048-107.626667a53.333333 53.333333 0 0 1 27.370666-10.218667l4.266667-0.170666H853.333333V213.333333z m-480 192a10.666667 10.666667 0 0 1 10.666667 10.666667v64a10.666667 10.666667 0 0 1-10.666667 10.666667h-64a10.666667 10.666667 0 0 1-10.666666-10.666667v-64a10.666667 10.666667 0 0 1 10.666666-10.666667h64z m170.666667 0a10.666667 10.666667 0 0 1 10.666667 10.666667v64a10.666667 10.666667 0 0 1-10.666667 10.666667h-64a10.666667 10.666667 0 0 1-10.666667-10.666667v-64a10.666667 10.666667 0 0 1 10.666667-10.666667h64z m170.666667 0a10.666667 10.666667 0 0 1 10.666666 10.666667v64a10.666667 10.666667 0 0 1-10.666666 10.666667h-64a10.666667 10.666667 0 0 1-10.666667-10.666667v-64a10.666667 10.666667 0 0 1 10.666667-10.666667h64z" /></svg>