<?xml version="1.0" standalone="no"?><!DOCTYPE svg PUBLIC "-//W3C//DTD SVG 1.1//EN" "http://www.w3.org/Graphics/SVG/1.1/DTD/svg11.dtd"><svg class="icon"   viewBox="0 0 1024 1024" version="1.1" xmlns="http://www.w3.org/2000/svg"><path fill="#333333" d="M192 102.4h640a38.4 38.4 0 0 1 38.2208 34.7136L870.4 140.8V716.8a38.4 38.4 0 0 1-8.704 24.32l-2.56 2.816-166.4 166.4a38.4 38.4 0 0 1-23.3472 11.0848L665.6 921.6H345.6a38.4 38.4 0 0 1-3.6864-76.6208L345.6 844.8h304.1024L793.6 700.9024V179.2H230.4v704a38.4 38.4 0 0 1-76.6208 3.6864L153.6 883.2v-742.4a38.4 38.4 0 0 1 34.7136-38.2208L192 102.4h640z m281.6 435.2a38.4 38.4 0 0 1 0 76.8h-128a38.4 38.4 0 0 1 0-76.8z m-128-204.8h332.8a38.4 38.4 0 0 1 3.6864 76.6208L678.4 409.6h-332.8a38.4 38.4 0 0 1-3.6864-76.6208L345.6 332.8h332.8z" /></svg>