<?xml version="1.0" standalone="no"?><!DOCTYPE svg PUBLIC "-//W3C//DTD SVG 1.1//EN" "http://www.w3.org/Graphics/SVG/1.1/DTD/svg11.dtd"><svg class="icon"   viewBox="0 0 1024 1024" version="1.1" xmlns="http://www.w3.org/2000/svg"><path fill="#333333" d="M512 870.4a38.4 38.4 0 0 1 38.4 38.4v51.2a38.4 38.4 0 0 1-76.8 0v-51.2A38.4 38.4 0 0 1 512 870.4z m307.712-104.96l36.224 36.1984a38.4 38.4 0 1 1-54.2976 54.2976l-36.224-36.1984a38.4 38.4 0 0 1 54.3232-54.3232z m-561.152 0a38.4 38.4 0 0 1 2.6368 51.3792l-2.6112 2.9184-36.224 36.1984a38.4 38.4 0 0 1-56.9344-51.3792l2.6368-2.9184 36.1984-36.224a38.4 38.4 0 0 1 54.3232 0zM512 204.8c169.6512 0 307.2 137.5488 307.2 307.2s-137.5488 307.2-307.2 307.2c-31.0272 0-61.44-4.608-90.5728-13.568a306.816 306.816 0 0 1-114.304-64.7424A306.4576 306.4576 0 0 1 204.8 512c0-169.6512 137.5488-307.2 307.2-307.2z m0 76.8a230.4 230.4 0 0 0-230.4 230.4 229.6832 229.6832 0 0 0 76.7488 171.6992 230.016 230.016 0 0 0 85.7088 48.5376A230.3488 230.3488 0 0 0 512 742.4a230.4 230.4 0 0 0 0-460.8zM115.2 473.6a38.4 38.4 0 0 1 0 76.8h-51.2a38.4 38.4 0 0 1 0-76.8h51.2z m844.8 0a38.4 38.4 0 0 1 0 76.8h-51.2a38.4 38.4 0 0 1 0-76.8h51.2zM222.3616 168.064l36.224 36.1984a38.4 38.4 0 0 1-54.3232 54.3232L168.064 222.3616a38.4 38.4 0 1 1 54.2976-54.2976z m633.5744 0a38.4 38.4 0 0 1 2.6368 51.3792l-2.6368 2.9184-36.1984 36.224a38.4 38.4 0 0 1-56.9344-51.4048l2.6112-2.9184 36.224-36.1984a38.4 38.4 0 0 1 54.2976 0zM512 25.6a38.4 38.4 0 0 1 38.4 38.4v51.2a38.4 38.4 0 0 1-76.8 0v-51.2A38.4 38.4 0 0 1 512 25.6z" /></svg>