<?xml version="1.0" standalone="no"?><!DOCTYPE svg PUBLIC "-//W3C//DTD SVG 1.1//EN" "http://www.w3.org/Graphics/SVG/1.1/DTD/svg11.dtd"><svg class="icon"   viewBox="0 0 1024 1024" version="1.1" xmlns="http://www.w3.org/2000/svg"><path fill="#333333" d="M512 874.666667a32 32 0 0 1 32 32v42.666666a32 32 0 0 1-64 0v-42.666666A32 32 0 0 1 512 874.666667z m301.696-106.24l30.165333 30.186666a32 32 0 0 1-45.248 45.248l-30.165333-30.165333a32 32 0 1 1 45.248-45.248z m-603.392 0a32 32 0 1 1 45.248 45.269333l-30.165333 30.165333a32 32 0 0 1-45.248-45.248zM512 192c176.725333 0 320 143.274667 320 320 0 172.288-136.426667 313.493333-308.096 319.786667-3.968 0.149333-7.936 0.213333-11.904 0.213333a32 32 0 0 1 0-64c3.2 0 6.4-0.064 9.557333-0.170667C658.858667 762.794667 768 649.813333 768 512c0-141.376-114.624-256-256-256s-256 114.624-256 256c0 64.426667 23.850667 125.056 66.218667 171.818667a32 32 0 0 1-47.424 42.965333A318.890667 318.890667 0 0 1 192 512c0-176.725333 143.274667-320 320-320zM117.333333 480a32 32 0 0 1 0 64h-42.666666a32 32 0 0 1 0-64h42.666666z m832 0a32 32 0 0 1 0 64h-42.666666a32 32 0 0 1 0-64h42.666666zM225.386667 180.138667l30.165333 30.165333a32 32 0 1 1-45.248 45.248l-30.165333-30.165333a32 32 0 0 1 45.248-45.248z m573.226666 0a32 32 0 0 1 45.248 45.248l-30.165333 30.165333a32 32 0 1 1-45.248-45.248zM512 42.666667a32 32 0 0 1 32 32v42.666666a32 32 0 0 1-64 0v-42.666666A32 32 0 0 1 512 42.666667z" /></svg>