<?xml version="1.0" standalone="no"?><!DOCTYPE svg PUBLIC "-//W3C//DTD SVG 1.1//EN" "http://www.w3.org/Graphics/SVG/1.1/DTD/svg11.dtd"><svg class="icon"   viewBox="0 0 1024 1024" version="1.1" xmlns="http://www.w3.org/2000/svg"><path fill="#333333" d="M213.333333 106.666667c-83.776 0-149.333333 77.482667-149.333333 170.666666 0 90.773333 62.293333 166.997333 144.234667 170.56L213.333333 448h672a32 32 0 0 0 32-32.021333v-9.450667a32 32 0 0 0-18.602666-29.034667C865.877333 362.304 842.666667 322.901333 842.666667 277.333333s23.189333-84.970667 56.064-100.16A32 32 0 0 0 917.333333 148.16V138.666667A32 32 0 0 0 885.333333 106.666667H213.333333z m0.704 277.333333l-3.712-0.064C165.717333 381.994667 128 335.850667 128 277.333333c0-59.989333 39.509333-106.666667 85.333333-106.666666h597.973334c-20.693333 29.632-32.64 66.986667-32.64 106.666666 0 39.68 11.946667 77.034667 32.64 106.666667H214.037333zM768 533.333333c83.776 0 149.333333 77.482667 149.333333 170.666667 0 90.773333-62.293333 166.997333-144.234666 170.56L768 874.666667h-74.688a32 32 0 0 1 0-64h73.984l3.712-0.064C815.616 808.661333 853.333333 762.517333 853.333333 704c0-59.989333-39.509333-106.666667-85.333333-106.666667H170.026667c20.693333 29.632 32.64 66.986667 32.64 106.666667 0 39.68-11.946667 77.034667-32.64 106.666667h139.285333a32 32 0 0 1 0 64H96A32 32 0 0 1 64 842.645333v-9.450666a32 32 0 0 1 18.602667-29.034667C115.456 788.970667 138.666667 749.568 138.666667 704s-23.189333-84.970667-56.064-100.16A32 32 0 0 1 64 574.826667V565.333333A32 32 0 0 1 96 533.333333H768zM416 874.666667h170.666667a32 32 0 0 0 0-64h-170.666667a32 32 0 0 0 0 64zM469.333333 757.333333v170.666667a32 32 0 0 0 64 0v-170.666667a32 32 0 0 0-64 0z" /></svg>