<?xml version="1.0" standalone="no"?><!DOCTYPE svg PUBLIC "-//W3C//DTD SVG 1.1//EN" "http://www.w3.org/Graphics/SVG/1.1/DTD/svg11.dtd"><svg class="icon"   viewBox="0 0 1024 1024" version="1.1" xmlns="http://www.w3.org/2000/svg"><path fill="#333333" d="M512 277.013333l-65.237333-64.512c-85.12-84.224-222.997333-84.224-308.117334 0C53.333333 296.896 53.333333 433.898667 138.666667 518.293333L474.496 850.56a53.333333 53.333333 0 0 0 75.008 0l335.850667-332.266667c85.312-84.394667 85.312-221.397333 0-305.792-85.12-84.224-222.997333-84.224-308.117334 0L512 277.013333z m0 520.64L183.68 472.810667a150.698667 150.698667 0 0 1 0-214.826667c60.16-59.52 157.888-59.52 218.090667 0l72.746666 71.957333a53.333333 53.333333 0 0 0 75.008 0l72.704-71.957333c60.202667-59.52 157.930667-59.52 218.112 0a150.698667 150.698667 0 0 1 0 214.826667L512 797.653333z" /></svg>