<?xml version="1.0" standalone="no"?><!DOCTYPE svg PUBLIC "-//W3C//DTD SVG 1.1//EN" "http://www.w3.org/Graphics/SVG/1.1/DTD/svg11.dtd"><svg class="icon"   viewBox="0 0 1024 1024" version="1.1" xmlns="http://www.w3.org/2000/svg"><path fill="#333333" d="M736 384a32 32 0 0 1 31.850667 28.928L768 416v384a74.666667 74.666667 0 0 1-70.570667 74.56L693.333333 874.666667h-362.666666a74.666667 74.666667 0 0 1-74.56-70.570667L256 800v-384a32 32 0 0 1 63.850667-3.072L320 416v384a10.666667 10.666667 0 0 0 8.746667 10.496l1.92 0.170667h362.666666a10.666667 10.666667 0 0 0 10.496-8.746667L704 800v-384a32 32 0 0 1 32-32z m-298.666667 0a32 32 0 0 1 32 32v298.666667a32 32 0 0 1-64 0v-298.666667a32 32 0 0 1 32-32z m149.333334 0a32 32 0 0 1 32 32v298.666667a32 32 0 0 1-64 0v-298.666667a32 32 0 0 1 32-32z m-234.666667-42.666667h-149.333333a32 32 0 0 1 0-64H320v-53.333333a74.666667 74.666667 0 0 1 70.570667-74.56L394.666667 149.333333h234.666666a74.666667 74.666667 0 0 1 74.666667 74.666667V277.333333h117.333333a32 32 0 0 1 0 64h-469.333333z m277.333333-128h-234.666666a10.666667 10.666667 0 0 0-10.666667 10.666667V277.333333h256v-53.333333a10.666667 10.666667 0 0 0-8.746667-10.496L629.333333 213.333333z" /></svg>