<?xml version="1.0" standalone="no"?><!DOCTYPE svg PUBLIC "-//W3C//DTD SVG 1.1//EN" "http://www.w3.org/Graphics/SVG/1.1/DTD/svg11.dtd"><svg class="icon"   viewBox="0 0 1024 1024" version="1.1" xmlns="http://www.w3.org/2000/svg"><path fill="#333333" d="M256 656A48 48 0 0 0 304 704h81.504a64 64 0 0 0 45.28-18.752L768 348.032a64 64 0 0 0 0-90.528L702.496 192a64 64 0 0 0-90.528 0L274.752 529.216A64 64 0 0 0 256 574.496V656z m64-81.504L657.216 237.248l65.536 65.536L385.504 640H320v-65.504zM224 832h576a32 32 0 0 0 0-64H224a32 32 0 0 0 0 64z" /></svg>