<?xml version="1.0" standalone="no"?><!DOCTYPE svg PUBLIC "-//W3C//DTD SVG 1.1//EN" "http://www.w3.org/Graphics/SVG/1.1/DTD/svg11.dtd"><svg class="icon"   viewBox="0 0 1024 1024" version="1.1" xmlns="http://www.w3.org/2000/svg"><path fill="#333333" d="M512 0c282.768 0 512 229.232 512 512 0 282.768-229.232 512-512 512C229.232 1024 0 794.768 0 512 0 229.232 229.232 0 512 0z m0 192c-123.712 0-224 100.288-224 224 0 112.848 83.44 206.208 192 221.728V672h-80a32 32 0 1 0 0 64h80v64a32 32 0 1 0 64 0v-64h80a32 32 0 1 0 0-64h-80v-34.272c108.56-15.52 192-108.88 192-221.728 0-123.712-100.288-224-224-224z m0 64c88.368 0 160 71.632 160 160s-71.632 160-160 160-160-71.632-160-160 71.632-160 160-160z" /></svg>