<?xml version="1.0" standalone="no"?><!DOCTYPE svg PUBLIC "-//W3C//DTD SVG 1.1//EN" "http://www.w3.org/Graphics/SVG/1.1/DTD/svg11.dtd"><svg class="icon"   viewBox="0 0 1024 1024" version="1.1" xmlns="http://www.w3.org/2000/svg"><path fill="#333333" d="M512 1024c282.774588 0 512-229.225412 512-512S794.774588 0 512 0 0 229.225412 0 512s229.225412 512 512 512z m0-15.058824C237.552941 1008.941176 15.058824 786.447059 15.058824 512S237.552941 15.058824 512 15.058824s496.941176 222.494118 496.941176 496.941176-222.494118 496.941176-496.941176 496.941176zM512 240.941176c174.652235 0 316.235294 117.714824 316.235294 262.927059 0 78.607059-41.532235 149.112471-107.294118 197.285647-3.809882 2.800941-7.725176 5.496471-11.685647 8.131765-0.843294 0.602353-1.656471 1.28-2.409411 2.048a14.863059 14.863059 0 0 0-4.246589 8.884706l-1.746823 16.549647-7.318588 69.315765-0.075294 0.451764a7.439059 7.439059 0 0 1-11.745883 5.270589 4.623059 4.623059 0 0 1-0.135529-0.075294l-58.518588-42.420706-13.342118-9.667765a15.239529 15.239529 0 0 0-12.318118-2.56l-15.751529 3.312941A378.398118 378.398118 0 0 1 512 766.795294c-174.652235 0-316.235294-117.714824-316.235294-262.927059C195.764706 358.656 337.347765 240.941176 512 240.941176z m104.116706 123.557648a15.721412 15.721412 0 0 0-20.178824 1.234823 14.305882 14.305882 0 0 0-2.349176 17.814588l50.281412 84.088471 1.716706 3.102118a57.223529 57.223529 0 0 1-0.39153 53.308235 60.807529 60.807529 0 0 1-2.258823 3.734588l-49.362824 82.567529-0.903529 1.746824a14.305882 14.305882 0 0 0 3.252706 16.052706c5.526588 5.315765 14.200471 5.722353 20.193882 1.234823l1.445647-1.234823 109.116235-105.155765 1.867294-1.927529a35.870118 35.870118 0 0 0-1.867294-50.176l-109.116235-105.155765z m-137.637647 0a15.721412 15.721412 0 0 0-20.178824 1.234823 14.305882 14.305882 0 0 0-2.349176 17.814588l50.29647 84.088471 1.716706 3.102118a57.223529 57.223529 0 0 1-0.406588 53.308235 60.807529 60.807529 0 0 1-2.228706 3.734588l-49.392941 82.567529-0.813176 1.581177a14.290824 14.290824 0 0 0 3.177411 16.218353c5.978353 5.767529 15.661176 5.767529 21.63953 0h0.015059l109.101176-105.155765 1.867294-1.927529a35.870118 35.870118 0 0 0-1.867294-50.176l-109.131294-105.155765z m-137.622588 0a15.721412 15.721412 0 0 0-20.178824 1.234823 14.305882 14.305882 0 0 0-2.349176 17.814588l50.29647 84.088471 1.716706 3.102118a57.223529 57.223529 0 0 1-0.406588 53.308235 60.807529 60.807529 0 0 1-2.243765 3.734588l-49.377882 82.567529-0.813177 1.581177a14.305882 14.305882 0 0 0 3.162353 16.218353c5.978353 5.767529 15.661176 5.767529 21.654588 0l109.116236-105.155765 1.852235-1.927529a35.885176 35.885176 0 0 0-1.852235-50.176l-109.131294-105.155765z" /></svg>