<?xml version="1.0" standalone="no"?><!DOCTYPE svg PUBLIC "-//W3C//DTD SVG 1.1//EN" "http://www.w3.org/Graphics/SVG/1.1/DTD/svg11.dtd"><svg t="1583738502774" class="icon" viewBox="0 0 1024 1024" version="1.1" xmlns="http://www.w3.org/2000/svg" p-id="927" xmlns:xlink="http://www.w3.org/1999/xlink"  ><defs><style type="text/css"></style></defs><path d="M857.6 819.2a38.4 38.4 0 0 1 0 76.8h-691.2a38.4 38.4 0 0 1 0-76.8h691.2zM661.1968 122.7008l117.4016 117.4016a64 64 0 0 1 0 90.496l-422.4 422.4a64 64 0 0 1-45.2608 18.7392H193.5616a64 64 0 0 1-64-64v-117.376a64 64 0 0 1 18.7392-45.2608l422.4-422.4a64 64 0 0 1 90.496 0z m-172.1344 190.2848L206.336 595.6608v99.2768h99.2768l282.7008-282.6752-99.2768-99.2768z m126.8992-126.9248l-72.576 72.6016 99.2768 99.2768 72.576-72.6016-99.2768-99.2768z" p-id="928"></path></svg>