<?xml version="1.0" standalone="no"?><!DOCTYPE svg PUBLIC "-//W3C//DTD SVG 1.1//EN" "http://www.w3.org/Graphics/SVG/1.1/DTD/svg11.dtd"><svg class="icon"   viewBox="0 0 1024 1024" version="1.1" xmlns="http://www.w3.org/2000/svg"><path fill="#333333" d="M512 89.6a422.4512 422.4512 0 0 1 387.584 254.2592 38.4 38.4 0 0 1-70.4256 30.592 345.9584 345.9584 0 0 0-202.1632-188.416c36.0192 70.8608 59.1872 174.208 63.488 287.5648H896a38.4 38.4 0 0 1 38.4 38.4c0 233.2928-189.1072 422.4-422.4 422.4a422.4512 422.4512 0 0 1-387.0976-253.1328 38.4 38.4 0 0 1 70.3488-30.7968 345.9584 345.9584 0 0 0 201.728 187.4944c-35.9936-70.8608-59.136-174.208-63.4624-287.5392L128 550.4A38.4 38.4 0 0 1 89.6 512c0-233.2928 189.1072-422.4 422.4-422.4z m-101.6064 460.8c3.4816 82.8416 18.0992 160.1792 40.6016 219.52 21.76 57.344 47.5392 87.68 61.0048 87.68s39.2448-30.3104 61.0048-87.68c22.528-59.3408 37.12-136.6784 40.6016-219.4944z m280.064 0c-4.2752 113.408-27.4432 216.7552-63.488 287.616 122.7776-43.3152 213.76-153.984 228.5312-287.616zM513.6896 166.5792L512 166.4l-1.664 0.1536c-13.8752 2.304-38.4512 32.4608-59.3408 87.552-22.528 59.3408-37.12 136.6528-40.6016 219.4944h203.2128c-3.4816-82.8416-18.0736-160.1536-40.6016-219.52C551.2448 196.736 525.4656 166.4 512 166.4zM333.5168 473.6c4.3008-113.3824 27.4688-216.7552 63.488-287.616C274.2784 229.2992 183.296 339.968 168.5248 473.6z" /></svg>