<?xml version="1.0" standalone="no"?><!DOCTYPE svg PUBLIC "-//W3C//DTD SVG 1.1//EN" "http://www.w3.org/Graphics/SVG/1.1/DTD/svg11.dtd"><svg class="icon"   viewBox="0 0 1024 1024" version="1.1" xmlns="http://www.w3.org/2000/svg"><path fill="#333333" d="M512 0c282.768 0 512 229.232 512 512 0 282.768-229.232 512-512 512C229.232 1024 0 794.768 0 512 0 229.232 229.232 0 512 0z m224 240h-128a32 32 0 1 0 0 64h50.736l-63.712 63.744A222.96 222.96 0 0 0 480 336c-123.712 0-224 100.288-224 224s100.288 224 224 224 224-100.288 224-224c0-58.48-22.4-111.728-59.12-151.616L704 349.232V400a32 32 0 1 0 64 0v-128a32 32 0 0 0-32-32zM480 400c88.368 0 160 71.632 160 160s-71.632 160-160 160-160-71.632-160-160 71.632-160 160-160z" /></svg>