<?xml version="1.0" standalone="no"?><!DOCTYPE svg PUBLIC "-//W3C//DTD SVG 1.1//EN" "http://www.w3.org/Graphics/SVG/1.1/DTD/svg11.dtd"><svg class="icon"   viewBox="0 0 1024 1024" version="1.1" xmlns="http://www.w3.org/2000/svg"><path fill="#333333" d="M184.7808 630.3232c37.9904 14.08 78.592 21.4528 120.2432 21.4528 191.488 0 346.752-155.2384 346.752-346.752 0-41.6512-7.3984-82.2528-21.4528-120.2688C763.7504 233.728 857.6 362.0352 857.6 510.592c0 191.6416-155.3664 347.008-347.008 347.008-60.8256 0-119.2704-15.616-170.9568-44.9536a38.4 38.4 0 0 0-37.888 66.816 422.016 422.016 0 0 0 208.8448 54.9376c234.0608 0 423.808-189.7472 423.808-423.808 0-214.8864-160.768-395.0592-372.3264-420.7104-33.536-4.0704-55.6032 34.048-35.3536 61.1328l0.6656 0.8704a267.6736 267.6736 0 0 1 47.5904 153.1392c0 149.0944-120.8576 269.952-269.952 269.952-56.32 0-109.9264-17.2544-154.9312-48.896-27.2128-19.1744-64.2048 2.9952-60.2112 35.9936 9.0112 74.24 37.376 144 81.8688 203.1104a38.4 38.4 0 0 0 61.3632-46.1824 345.984 345.984 0 0 1-48.3328-88.6784z" /></svg>