<?xml version="1.0" standalone="no"?><!DOCTYPE svg PUBLIC "-//W3C//DTD SVG 1.1//EN" "http://www.w3.org/Graphics/SVG/1.1/DTD/svg11.dtd"><svg class="icon"   viewBox="0 0 1024 1024" version="1.1" xmlns="http://www.w3.org/2000/svg"><path fill="#333333" d="M614.4 870.4a38.4 38.4 0 0 1 0 76.8h-204.8a38.4 38.4 0 0 1 0-76.8zM512 51.2c49.8688 0 102.4 39.0656 102.4 89.6v1.5616c117.5296 40.96 204.8 172.288 204.8 305.6384v179.3536a191.5392 191.5392 0 0 1 76.8 153.4464 38.4 38.4 0 0 1-38.4 38.4h-537.6a38.4 38.4 0 1 1 0-76.8h492.6208a115.328 115.328 0 0 0-51.0464-61.2352A38.4 38.4 0 0 1 742.4 647.936V448c0-110.0032-79.104-219.5456-174.0544-238.8224A38.4 38.4 0 0 1 537.6 171.5456V140.8c0-2.3552-14.0544-12.8-25.6-12.8-11.5456 0-25.6 10.4448-25.6 12.8v30.72a38.4 38.4 0 0 1-30.7456 37.632C360.704 228.48 281.6 338.0224 281.6 448v199.936a38.4 38.4 0 0 1-19.1744 33.2288A114.944 114.944 0 0 0 204.8 780.8a38.4 38.4 0 0 1-76.8 0 191.5392 191.5392 0 0 1 76.8-153.4464V448c0-133.376 87.2704-264.704 204.8-305.6384V140.8C409.6 90.24 462.1312 51.2 512 51.2z" /></svg>