<?xml version="1.0" standalone="no"?><!DOCTYPE svg PUBLIC "-//W3C//DTD SVG 1.1//EN" "http://www.w3.org/Graphics/SVG/1.1/DTD/svg11.dtd"><svg class="icon"   viewBox="0 0 1024 1024" version="1.1" xmlns="http://www.w3.org/2000/svg"><path fill="#333333" d="M384 170.666667a21.333333 21.333333 0 0 1 21.333333 21.333333v640a21.333333 21.333333 0 0 1-21.333333 21.333333h-85.333333a21.333333 21.333333 0 0 1-21.333334-21.333333V192a21.333333 21.333333 0 0 1 21.333334-21.333333h85.333333z m341.333333 0a21.333333 21.333333 0 0 1 21.333334 21.333333v640a21.333333 21.333333 0 0 1-21.333334 21.333333h-85.333333a21.333333 21.333333 0 0 1-21.333333-21.333333V192a21.333333 21.333333 0 0 1 21.333333-21.333333h85.333333z" /></svg>