<?xml version="1.0" standalone="no"?><!DOCTYPE svg PUBLIC "-//W3C//DTD SVG 1.1//EN" "http://www.w3.org/Graphics/SVG/1.1/DTD/svg11.dtd"><svg class="icon"   viewBox="0 0 1024 1024" version="1.1" xmlns="http://www.w3.org/2000/svg"><path fill="#333333" d="M716.8 102.4a102.4 102.4 0 0 1 102.4 102.4v640a102.4 102.4 0 0 1-102.4 102.4H332.8a102.4 102.4 0 0 1-102.4-102.4V204.8a102.4 102.4 0 0 1 102.4-102.4h384z m-192 691.2a38.4 38.4 0 1 0 0 76.8 38.4 38.4 0 0 0 0-76.8z m230.4-537.6h-460.8a12.8 12.8 0 0 0-12.5952 10.496L281.6 268.8v460.8a12.8 12.8 0 0 0 10.496 12.5952l2.304 0.2048h460.8a12.8 12.8 0 0 0 12.5952-10.496L768 729.6v-460.8a12.8 12.8 0 0 0-12.8-12.8zM614.4 153.6h-179.2a25.6 25.6 0 0 0 0 51.2h179.2a25.6 25.6 0 0 0 0-51.2z" /></svg>