<?xml version="1.0" standalone="no"?><!DOCTYPE svg PUBLIC "-//W3C//DTD SVG 1.1//EN" "http://www.w3.org/Graphics/SVG/1.1/DTD/svg11.dtd"><svg class="icon"   viewBox="0 0 1024 1024" version="1.1" xmlns="http://www.w3.org/2000/svg"><path fill="#333333" d="M605.76 192h-187.52a64 64 0 0 0-53.248 28.501333l-32.682667 56.789334A42.666667 42.666667 0 0 1 295.338667 298.666667H213.333333a85.333333 85.333333 0 0 0-85.333333 85.333333v362.666667a85.333333 85.333333 0 0 0 85.333333 85.333333h597.333334a85.333333 85.333333 0 0 0 85.333333-85.333333V384a85.333333 85.333333 0 0 0-85.333333-85.333333h-82.005334a42.666667 42.666667 0 0 1-36.970666-21.376l-32.682667-56.789334A64 64 0 0 0 605.76 192z m-24.832 64a42.666667 42.666667 0 0 1 36.970667 21.376l18.346666 31.850667A106.666667 106.666667 0 0 0 728.64 362.666667H810.666667a21.333333 21.333333 0 0 1 21.333333 21.333333v362.666667a21.333333 21.333333 0 0 1-21.333333 21.333333H213.333333a21.333333 21.333333 0 0 1-21.333333-21.333333V384a21.333333 21.333333 0 0 1 21.333333-21.333333h82.005334a106.666667 106.666667 0 0 0 92.437333-53.44l18.346667-31.850667A42.666667 42.666667 0 0 1 443.050667 256h137.856zM512 405.333333a149.333333 149.333333 0 1 0 0 298.666667 149.333333 149.333333 0 0 0 0-298.666667z m0 64c47.061333 0 85.333333 38.272 85.333333 85.333334s-38.293333 85.333333-85.333333 85.333333c-47.061333 0-85.333333-38.272-85.333333-85.333333s38.272-85.333333 85.333333-85.333334z" /></svg>