<?xml version="1.0" standalone="no"?><!DOCTYPE svg PUBLIC "-//W3C//DTD SVG 1.1//EN" "http://www.w3.org/Graphics/SVG/1.1/DTD/svg11.dtd"><svg t="1578121697305" class="icon" viewBox="0 0 1331 1024" version="1.1" xmlns="http://www.w3.org/2000/svg" p-id="1007" xmlns:xlink="http://www.w3.org/1999/xlink"  ><defs><style type="text/css"></style></defs><path d="M208.516661 100.681711c11.304935 34.867123 5.652468 68.31089 5.652468 68.31089 4.63871 21.206993-0.409599 38.952874-0.409599 38.952874-4.024311 17.950681-19.558357 29.562815-19.558357 29.562815-22.333391 12.349413-49.356691-4.311031-52.223885-6.143986l-0.23552-0.17408c-18.472919-18.503639-30.576573 3.491832-30.576573 3.491832-5.652468 15.482846-39.546793 34.232245-39.546793 34.232245-16.701403 5.867507-12.492773 19.660757-11.479014 22.364111l0.184319 0.460799c19.363797 13.035491 26.623941 39.116714 26.623942 39.116714 20.991954 27.709379 16.148444 132.02403 17.756121 140.185292 1.617916 8.140782 6.451186 31.77465 6.451185 31.77465 3.235833 39.935912 12.922852 43.202465 12.922852 43.202465 11.294695 1.617916 41.953188-67.645291 41.953188-67.645292 6.461426-11.417575 65.372016-139.366093 65.372016-139.366093 2.426875-66.017135 79.001426-135.096023 79.001426-135.096023 8.069102-28.098498 52.428685-51.302287 52.428685-51.302287 13.70109-21.186513 54.835079-8.560621 54.835079-8.560621 6.451186-17.100762 69.355367-35.020723 69.355368-35.020723 58.87987-4.075511 50.00181 56.606595 50.00181 56.606595-7.659503 41.12375-75.806553 46.428058-75.806554 46.428058-5.642228 3.665912-19.988436 7.956462-19.988436 7.956463-31.477691 8.151022-49.233812 75.796313-49.233811 75.796313-16.138204 20.377555-25.538504 206.192186-25.538504 206.192186 1.208317 15.462366 93.951793-14.663648 93.951793-14.663647 93.552434-52.531084 109.04552 16.701403 109.04552 16.701403 3.645432 27.525059-62.934902 55.459718-62.934901 55.459718-13.117411 17.950681-48.230294 35.286962-48.230294 35.286962 5.703667-32.982967-2.887674-30.975932-3.327993-30.853052h-0.02048l-105.707287 34.232245c-42.772386 18.749399-56.493956-45.63958-56.493956-45.63958-22.364111-36.30072 28.016578-283.442576 29.040576-288.429445l0.01024-0.08192 7.260144-46.448538c-27.44314-10.598377-54.886279 49.715091-54.886279 49.715091-38.266796 88.575805-40.294311 216.155684-40.345511 219.176478v2.693114c-0.819198 50.646929-45.957019 132.873948-50.472849 140.96353l-0.3584 0.645118c-10.495977 45.64982-56.452996 33.320887-56.452995 33.320887-26.623941 0-56.524676-21.913552-56.524676-21.913552-25.026505-17.100762-40.85751-194.815571-40.85751-194.815571-6.246386-11.007976-12.308453-60.979066-12.308453-60.979066s-6.860785-14.684128-5.242869-34.467764c1.617916-19.773396-7.249904-44.564382-7.249904-44.564382-14.172129-32.112569 10.588137-49.151892 13.107172-50.769809l0.204799-0.133119c30.648253-25.251784 68.18801-69.713767 68.18801-69.713767 35.706801-45.2607 1.413117-88.084286 1.413117-88.084286-14.540768-10.813416-13.51677-25.907143-13.51677-25.907143 2.222075-23.244749 51.445647-21.401553 51.445647-21.401553 63.149941-3.071993 83.322697 49.356691 83.322696 49.356691zM1022.390071 2.326728c10.137578-4.044791 30.914492-1.587197 30.914492-1.587197 25.159625 7.270384 14.602208 38.799275 14.602208 38.799275-11.366375 6.461426-21.104594 40.406951-21.104594 40.406951-4.874229 37.171118-54.230921 139.202254-54.230921 139.202254l8.120302 3.225593 26.777542-19.384278s29.624255-13.73181 43.007905-28.272578c13.383651-14.540768 65.730415-33.925045 65.730415-33.925045s16.230364-1.617916 35.706802 9.697259c19.476437 11.304935 21.913552 35.532722 21.913552 35.532722s-5.273588 30.300093-3.246073 58.96179c2.027516 28.671937-10.547177 82.790218-10.547177 82.790218 5.683187-4.034551 32.870328 0 32.870328 0s25.558984 0 49.090452 18.17596c23.531468 18.16572 28.405698 41.983908 28.405697 41.983907 4.055031 22.63035-8.468461 24.186827-8.468461 24.186827s-8.171502 7.321584-9.39006 9.33886c-1.208317 2.027516-13.383651 6.062067-32.460728 2.027515-19.066838-4.044791-22.312911-21.811152-22.312911-21.811152-8.110062 1.218557-13.80349-3.235833-13.80349-3.235833-7.700463-10.086378-11.775974-8.468461-11.775974-8.468461-14.591968 7.669743-20.275155 25.036745-20.684754 27.453379-0.409599 2.426875 3.655672 10.905576 4.46463 12.922852 0.819198 2.017276 12.185573 10.096618 12.185573 10.096618s23.121869 5.652468 46.253978 33.925045c23.121869 28.262338 51.937166 13.73181 51.937166 13.73181 19.066838-9.697259 19.466197 8.87806 19.466197 8.87806 16.639963-2.017276 22.73275 16.568284 22.73275 16.568284 9.318379 14.131169-8.92926 29.880254-8.92926 29.880254-1.628156 14.131169-27.996098 23.019469-27.996099 23.01947-118.07718 88.442685-231.68973 54.108041-231.68973 54.108041-81.561421-37.959596-28.405698-165.580436-28.405697-165.580436-4.874229-4.843509-10.547177 3.645432-10.547177 3.645432l-14.213089 21.811152-92.589876 145.36672c-12.789732 25.077705-46.694297 20.223956-46.694297 20.223956-19.281878-2.631674-5.478388-16.988123-5.478388-16.988123 7.311344-1.812476 11.571175-9.707499 8.120302-13.342691-3.450872-3.645432-7.516143-11.735014-3.276793-9.727978 4.249591 1.986556 13.74205-13.67037 13.74205-13.67037s-1.218557-5.652468-1.218558-18.585559c0-12.922852 33.679286-69.447527 24.340427-40.785831-9.328619 28.671937 1.617916 31.90777 1.617916 31.90777 10.547177 2.017276 20.295635-27.46362 20.295636-27.463619 16.629723-13.72157 40.171432-66.232174 40.171431-66.232175-7.301104 2.017276-21.094354-1.607676-21.094353-1.607676-25.866183-8.458221-16.486364-40.652711-15.503326-43.775904l0.07168-0.245759c3.655672-16.957403 35.307442-21.401553 46.663577-29.491135 11.366375-8.069102 5.683187-20.172756 4.874229-22.609871-0.819198-2.416635-10.547177-12.513252-23.132109-18.16572-12.574692-5.662708-19.476437-26.664901-19.476437-26.664901-12.574692-11.704294-17.684441-21.227473-17.684441-21.227473-15.667166 5.017589-28.159938-28.026818-28.159938-28.026819s-6.092787 7.270384-17.459162 12.922852c-11.345895 5.642228-26.357702 32.706488-26.357702 32.706488-15.022047 20.991954 3.246073 32.706488 3.246073 32.706488 11.345895 4.853749 23.930827-11.704294 23.930827-11.704294-1.617916-21.002194 12.175333-33.525686 12.175334-33.525687-4.055031 14.950367 9.318379 33.925045 9.318379 33.925046 25.978823 21.401553 21.114834 69.468007 21.114834 69.468007-3.010553 49.725331-37.068718 52.326285-42.086308 52.438925h-0.624638c-29.040576-2.426875-34.723764-34.774963-34.723764-34.774964-12.994531-8.499181-36.54648 27.699139-36.54648 27.699139-15.216607 45.701019-34.938803 72.55024-34.938803 72.550241-19.875796 21.401553-47.062936 2.426875-47.062936 2.426874-10.137578-5.253108-16.639963-22.220751-16.639964-22.220751-7.301104-16.148444 6.492146-44.410782 6.492146-44.410782-1.617916-23.429068 43.417504-91.268919 43.417505-91.268919 0.819198-8.8883-4.055031-8.8883-10.547177-7.270384-6.492146 1.607676-31.252411 28.262338-31.252411 28.262337-6.082547 10.506217-30.023614 19.793876-30.023614 19.793877-18.595799 3.020793-19.435477-22.57915-19.466198-25.896903v-0.348159c-12.984291-23.429068 2.836474-54.52788 2.836474-54.52788 11.366375-10.905576 20.285395-29.081536 20.285396-29.081536 17.039323-19.783636 30.822332 4.77183 30.822332 4.771829 19.077078 4.52607 37.744557-16.076765 40.591271-20.510675 2.836474-4.44415 21.094354-19.384277 21.094353-19.384277 2.037756-10.506217 23.142349-15.349726 23.142349-15.349726 2.426875-18.17596 21.053394-24.534986 21.053394-24.534986s8.622061-5.560308 12.584932-7.372784c3.952631-1.822716 10.250217 2.621434 11.059176 3.123193 0.808958 0.511999 9.850858 5.365748 21.524433 6.983665 11.673574 1.617916 10.813416 10.444777 10.813416 10.444777l9.390059 9.338859s6.481906-3.635192 6.481906-6.461426 14.612448-24.227787 14.612448-24.227786 15.831005-8.079342 23.132109-7.679984c7.301104 0.409599 14.591968-24.227787 14.591968-24.227786 10.158058-16.558044 26.736581-80.947022 26.736581-80.947022s0.419839-13.055971-2.017276-7.280624c-2.437115 5.754867-7.720943 12.728292-9.646058 11.827174-1.925116-0.921598 0.747518-16.117725 0.747518-16.117725l4.833269-19.578837 6.502386-26.286022s3.655672-16.588764 4.60799-17.694681c0.983038-1.116158 5.529588-10.219498 5.529588-10.219497l8.335341-15.359967c6.696945-12.748772 28.426177-10.117098 28.426178-10.117097z m152.463024 348.845312c-2.846714-2.426875-5.683187 0.614399-9.13406 2.027516-3.450872 1.413117-8.325102 14.950367-8.325101 14.950367s-5.273588 12.943332-5.683188 16.383964c-0.409599 3.440632-3.860472 11.130856-14.213088 13.35293-10.352617 2.222075-17.049562-7.475184-20.305876-8.488941-3.246073-1.023998-7.710703-13.352931-11.161575-20.223955-3.461112-6.881265-9.943018-1.822716-10.362857 2.621434-0.399359 4.45439-7.700463 11.335655-7.700464 11.335655s-5.283828 13.53725 1.013758 13.53725c6.287346 0 9.12382 1.822716 11.161576 19.414997 2.027516 17.602521-30.484413 68.38257-30.484413 68.38257-24.760266 70.809444 13.311971 85.155653 15.718365 85.974851l0.11264 0.04096c59.647869 25.845703 130.989792-22.138831 130.989792-22.138832s12.779492-6.266866 14.817247-10.711016c2.027516-4.45439-4.50559-19.640277-4.50559-19.640277l-3.215353-5.437428-5.478388-9.308139s-10.342377-12.134373-10.342377-19.619797c0-7.475184-17.264602-20.418515-17.264602-20.418515s-9.953258-11.724774-16.035805-16.383964c-6.103027-4.64895-10.014698-0.2048-10.465257 0.511999-0.460799 0.706558-1.310717 5.150709 4.77183 11.622374 6.092787 6.471666 3.461112 11.530215 3.655672 20.223956 0.2048 8.703981-11.775974 18.00188-21.923792 20.623314-9.420779 2.447355-30.054334-17.428442-32.952248-20.275155l-0.348159-0.348159c-14.049249-7.464944-17.029083-24.238027-17.407962-26.777541l-0.040959-0.31744c-4.874229-21.841872 28.415937-24.678346 28.415937-24.678345 8.9395 0.614399 30.853052-24.473546 34.508724-26.081223 3.665912-1.628156 21.114834-28.723137 20.510675-37.017519-0.614399-8.294382-5.488628-10.711016-8.325102-13.137891z m-133.191387-18.708439l-1.105917 0.1024c-3.041273 0.614399-6.799345 1.105918-6.799345 1.105918s-3.665912 0.921598-3.860472 4.157431c-0.2048 3.235833-1.617916 11.120616-0.1024 12.226533 1.525757 1.116158 3.358713 4.249591 6.399986 3.338232 3.041273-0.911358 10.137578-4.54655 11.673575-9.400299 1.515517-4.853749 1.822716-6.369266-0.1024-8.089582-1.935356-1.720316-4.167671-3.942391-7.208944-3.338233z m-55.172998-97.177386s-16.639963 13.73181-13.393891 29.491135c3.246073 15.749085 4.863989 31.89753 4.863989 31.89753s4.47487 20.326355 12.984292 23.429069c8.529901 3.092473 12.984291 10.495977 15.820765 5.652467 2.846714-4.843509-2.017276-8.8883 4.874229-8.478701 6.901745 0.409599 7.710703 6.860785 14.202849 2.017275 6.492146-4.853749 8.120302-4.44415 5.683188-9.697258-2.426875-5.242868 5.273588-5.652468 0-10.096618-5.273588-4.44415-8.92926-2.017276-11.366375-1.208317-2.426875 0.808958-12.349413-1.617916-13.271011 0-0.921598 1.617916-9.451499 0-9.0419-4.84351 0.409599-4.853749-2.764794-14.540768 1.218557-14.540768s11.755494-6.604785 11.755494-6.604785 7.813103-5.734387 9.39006-9.3491c1.566717-3.583992 5.631988-5.416948 2.580474-10.475497-3.041273-5.048309-3.850232-6.871025-9.943018-7.884782-6.092787-1.003518-11.161575-1.208317-14.622688-3.635192-3.440632-2.426875-4.874229-5.662708-11.735014-5.662708z m137.604817 22.056912s-21.913552 12.328933-23.142349 18.19644c-1.208317 5.857267-8.314862 11.325415-6.696945 21.841872 1.638396 10.516457-3.246073 20.418515 6.297586 22.44603 9.533419 2.017276 16.230364 3.839992 19.077078 0.409599 2.846714-3.440632 4.055031-6.676465 5.079029-11.735014 1.023998-5.058549 3.655672-18.810839 3.850231-24.473546 0.2048-5.662708 5.693427-27.49434-4.46463-26.685381zM815.614206 108.802013s77.41423 0.808958 92.978995 69.703527c0 0 4.40319 43.519904-27.535299 47.144856 0 0-15.165407 1.617916-35.123123-23.367628 0 0-25.538504-11.284455-43.100065 13.291491 0 0-39.505833 43.110305-48.691093 46.335898 0 0-19.148758 37.887917-31.518651 31.84633l-0.1024-0.12288c-1.474557-1.505277-16.588764-18.29884 9.27742-40.581031l36.720559-41.502629s22.74299-22.968269 33.515447-26.593221l0.460799-0.286719c2.498555-1.607676 14.397408-9.727979 15.103966-19.455958l0.16384-0.307199c0.727038-1.535997 3.522552-8.181742-1.751036-11.376615 0 0-22.353871-12.492773-23.142349-19.752917 0 0-14.776287-19.732437 22.73275-24.975305z m319.446337 92.927796c-1.013758-9.707499-1.423357-17.397722-13.199331-11.325415 0 0-12.380133 6.461426-13.393891 7.270384-1.023998 0.819198-14.612448 5.263348-18.472919 13.148131 0 0-3.860472 12.748772 2.641914 15.175647 6.492146 2.416635 10.751976 3.225593 15.421406 1.413116 4.66943-1.822716 3.246073-3.839992 9.13406 1.607677 5.887987 5.468148 3.655672 7.280624 9.748459 9.707499 6.092787 2.437115 7.710703-6.655985 8.120302-7.884783 0.409599-1.208317 1.013758-19.414997 0-29.112256z" p-id="1008"></path><path d="M153.599662 1016.995855V870.400338h19.404757v60.200827h76.185433V870.400338h19.404757v146.595517h-19.394517v-69.099368h-76.195673v69.099368H153.599662zM448.306214 870.400338h19.394517v84.694854c0 14.745568-1.669116 26.439622-4.997109 35.102642-3.338233 8.673261-9.359339 15.718365-18.05308 21.155794-8.703981 5.427188-20.121556 8.151022-34.252725 8.151022-13.73181 0-24.965065-2.375675-33.689526-7.106544a40.529831 40.529831 0 0 1-18.708439-20.551635c-3.737592-8.95998-5.601268-21.217233-5.601267-36.751279V870.400338h19.404757v84.602694c0 12.728292 1.177597 22.118351 3.543032 28.149698 2.365435 6.031347 6.440946 10.680297 12.206053 13.946849 5.765107 3.276793 12.810212 4.904949 21.145554 4.904949 14.264289 0 24.432586-3.235833 30.504893-9.707498 6.062067-6.461426 9.0931-18.892758 9.0931-37.293998V870.400338z m106.188566 146.595517V870.400338h19.404757v146.595517H554.49478z m105.400088 0V870.400338h19.404758v60.200827h76.195672V870.400338h19.404757v146.595517h-19.404757v-69.099368h-76.195672v69.099368h-19.404758zM954.60142 870.400338h19.394517v84.694854c0 14.745568-1.669116 26.439622-4.997109 35.102642-3.338233 8.673261-9.349099 15.718365-18.05308 21.155794-8.703981 5.427188-20.111316 8.151022-34.252725 8.151022-13.72157 0-24.965065-2.375675-33.689526-7.106544a40.529831 40.529831 0 0 1-18.708438-20.551635c-3.727352-8.95998-5.601268-21.217233-5.601268-36.751279V870.400338h19.404757v84.602694c0 12.728292 1.187837 22.118351 3.553272 28.149698 2.355195 6.031347 6.430706 10.680297 12.195814 13.946849 5.765107 3.276793 12.820452 4.904949 21.145553 4.904949 14.274529 0 24.442826-3.235833 30.504893-9.707498 6.062067-6.461426 9.10334-18.892758 9.10334-37.293998V870.400338z m102.696734 146.595517V870.400338h19.896276l77.004631 115.097347V870.400338h18.595799v146.595517h-19.896276l-77.004631-115.199746v115.199746h-18.595799z" p-id="1009"></path></svg>