<?xml version="1.0" standalone="no"?><!DOCTYPE svg PUBLIC "-//W3C//DTD SVG 1.1//EN" "http://www.w3.org/Graphics/SVG/1.1/DTD/svg11.dtd"><svg class="icon"   viewBox="0 0 1024 1024" version="1.1" xmlns="http://www.w3.org/2000/svg"><path fill="#333333" d="M779.946667 414.762667l85.333333 85.333333a32 32 0 0 1-45.226667 45.269333L789.333333 514.645333v242.752a32 32 0 1 1-64 0v-320c0-28.501333 34.474667-42.794667 54.613334-22.613333zM586.666667 703.893333a32 32 0 0 1 0 64h-362.666667a32 32 0 0 1 0-64h362.666667zM586.666667 469.333333a32 32 0 0 1 0 64h-362.666667a32 32 0 0 1 0-64h362.666667z m213.333333-234.666666a32 32 0 0 1 0 64h-576a32 32 0 0 1 0-64h576z" /></svg>