<?xml version="1.0" standalone="no"?><!DOCTYPE svg PUBLIC "-//W3C//DTD SVG 1.1//EN" "http://www.w3.org/Graphics/SVG/1.1/DTD/svg11.dtd"><svg class="icon"   viewBox="0 0 1024 1024" version="1.1" xmlns="http://www.w3.org/2000/svg"><path fill="#333333" d="M512 0c282.768 0 512 229.232 512 512 0 282.768-229.232 512-512 512C229.232 1024 0 794.768 0 512 0 229.232 229.232 0 512 0z m-8 225.376c-123.024 0-173.04 107.76-173.04 215.024 0 6.368 0.32 18.72 0.32 19.44l-24.816 62.72a909.488 909.488 0 0 0-18.432 52.64c-23.472 76.432-15.872 108.064-10.08 108.768 12.416 1.52 48.336-57.536 48.336-57.536 0 34.192 17.392 78.832 55.056 111.024-14.08 4.4-31.36 11.152-42.432 19.44-9.968 7.456-8.736 15.04-6.928 18.112 7.712 13.168 129.888 8.8 169.552 4.672l2.48-0.272c36.768 4.192 164.144 9.056 172.016-4.4 1.808-3.072 3.04-10.656-6.912-18.112-11.648-8.704-30.096-15.712-44.528-20.08l2.08 0.656c37.648-32.208 55.024-76.848 55.024-111.04 0 0 35.92 59.04 48.336 57.536 5.792-0.704 13.392-32.336-10.08-108.752a909.552 909.552 0 0 0-18.416-52.656l-24.848-62.72c0.032-0.736 0.336-13.072 0.336-19.44 0-107.264-50.016-215.024-173.024-215.04z" /></svg>