<?xml version="1.0" standalone="no"?><!DOCTYPE svg PUBLIC "-//W3C//DTD SVG 1.1//EN" "http://www.w3.org/Graphics/SVG/1.1/DTD/svg11.dtd"><svg class="icon"   viewBox="0 0 1024 1024" version="1.1" xmlns="http://www.w3.org/2000/svg"><path fill="#333333" d="M512 1024c282.774588 0 512-229.225412 512-512S794.774588 0 512 0 0 229.225412 0 512s229.225412 512 512 512z m0-15.058824C237.552941 1008.941176 15.058824 786.447059 15.058824 512S237.552941 15.058824 512 15.058824s496.941176 222.494118 496.941176 496.941176-222.494118 496.941176-496.941176 496.941176zM730.217412 560.880941a216.651294 216.651294 0 0 0-26.578824-47.646117c8.086588-6.324706 13.688471-19.666824 13.688471-35.087059 0-21.383529-10.691765-38.671059-23.838118-39.077647a176.188235 176.188235 0 0 0 1.686588-25.072942c0-99.102118-79.992471-179.471059-178.597647-179.471058-98.635294 0-178.477176 80.368941-178.477176 179.471058 0 9.502118 0.768 18.868706 2.213647 27.979295-8.734118 5.933176-14.863059 19.787294-14.863059 36.020705 0 9.381647 2.093176 18.085647 5.481412 24.816942a204.047059 204.047059 0 0 0-31.789177 46.983529c-25.268706 51.049412-21.504 102.791529-5.993411 111.239529 7.951059 4.367059 28.792471-9.246118 49.377882-34.439529 3.252706 29.560471 17.197176 56.621176 38.294588 78.381177-35.041882 10.556235-58.232471 31.277176-55.235764 52.254117 3.915294 26.533647 48.188235 43.670588 99.132235 38.008471 37.270588-4.096 67.614118-19.124706 79.73647-37.345883 3.132235 0.135529 6.249412 0.271059 9.502118 0.271059 5.481412 0 10.812235-0.271059 16.158118-0.662588 12.905412 17.287529 41.562353 31.804235 76.077176 36.141176 49.392941 6.339765 92.114824-10.014118 95.36753-36.547764 2.605176-20.841412-19.937882-41.833412-53.805177-52.916706 19.802353-20.705882 33.084235-46.049882 37.135059-73.758118 18.221176 25.208471 36.743529 41.306353 46.501647 39.183059 11.595294-2.364235 19.802353-56.606118-1.174588-108.724706z" /></svg>