<?xml version="1.0" standalone="no"?><!DOCTYPE svg PUBLIC "-//W3C//DTD SVG 1.1//EN" "http://www.w3.org/Graphics/SVG/1.1/DTD/svg11.dtd"><svg t="1569717806200" class="icon" viewBox="0 0 1024 1024" version="1.1" xmlns="http://www.w3.org/2000/svg" p-id="1418" xmlns:xlink="http://www.w3.org/1999/xlink"  ><defs><style type="text/css"></style></defs><path d="M394.666667 896h-234.666667A32 32 0 0 1 128 864v-448A32 32 0 0 1 160 384H362.666667V202.666667A32 32 0 0 1 394.666667 170.666667h234.666666A32 32 0 0 1 661.333333 202.666667V512h202.666667a32 32 0 0 1 32 32v320a32 32 0 0 1-32 32h-469.333333zM362.666667 448H192v384h170.666667V448z m469.333333 128h-170.666667v256h170.666667V576zM597.333333 234.666667h-170.666666v597.333333h170.666666V234.666667z" p-id="1419"></path></svg>