<?xml version="1.0" standalone="no"?><!DOCTYPE svg PUBLIC "-//W3C//DTD SVG 1.1//EN" "http://www.w3.org/Graphics/SVG/1.1/DTD/svg11.dtd"><svg class="icon"   viewBox="0 0 1024 1024" version="1.1" xmlns="http://www.w3.org/2000/svg"><path fill="#333333" d="M757.333333 405.333333a32 32 0 0 1 32 32v242.752l30.72-30.72a32 32 0 0 1 45.226667 45.269334l-85.333333 85.333333c-20.138667 20.16-54.613333 5.866667-54.613334-22.634667v-320a32 32 0 0 1 32-32z m-170.666666 298.56a32 32 0 0 1 0 64h-362.666667a32 32 0 0 1 0-64h362.666667zM586.666667 469.333333a32 32 0 0 1 0 64h-362.666667a32 32 0 0 1 0-64h362.666667z m213.333333-234.666666a32 32 0 0 1 0 64h-576a32 32 0 0 1 0-64h576z" /></svg>