<?xml version="1.0" standalone="no"?><!DOCTYPE svg PUBLIC "-//W3C//DTD SVG 1.1//EN" "http://www.w3.org/Graphics/SVG/1.1/DTD/svg11.dtd"><svg class="icon"   viewBox="0 0 1024 1024" version="1.1" xmlns="http://www.w3.org/2000/svg"><path fill="#333333" d="M842.666667 597.333333a32 32 0 0 1 31.850666 28.928L874.666667 629.333333v213.333334a32 32 0 0 1-28.928 31.850666L842.666667 874.666667h-661.333334a32 32 0 0 1-31.850666-28.928L149.333333 842.666667v-213.333334a32 32 0 0 1 63.850667-3.072L213.333333 629.333333V810.666667h597.333334v-181.333334a32 32 0 0 1 32-32z m-320-458.666666A32 32 0 0 1 554.666667 170.666667v381.376l116.053333-116.010667a32 32 0 0 1 47.445333 42.837333l-2.197333 2.432-170.666667 170.666667a32 32 0 0 1-42.837333 2.197333l-2.432-2.197333-170.666667-170.666667a32 32 0 0 1 42.837334-47.466666l2.432 2.197333L490.666667 552.106667V170.666667a32 32 0 0 1 28.928-31.850667z" /></svg>