<?xml version="1.0" standalone="no"?><!DOCTYPE svg PUBLIC "-//W3C//DTD SVG 1.1//EN" "http://www.w3.org/Graphics/SVG/1.1/DTD/svg11.dtd"><svg t="1569717832810" class="icon" viewBox="0 0 1024 1024" version="1.1" xmlns="http://www.w3.org/2000/svg" p-id="2209" xmlns:xlink="http://www.w3.org/1999/xlink"  ><defs><style type="text/css"></style></defs><path d="M492.416 69.376a38.4 38.4 0 0 1 39.168 0l345.6 204.8c11.6736 6.912 18.816 19.456 18.816 33.024v409.6a38.4 38.4 0 0 1-18.816 33.024l-345.6 204.8A38.4 38.4 0 0 1 473.6 921.6V660.7616a153.6 153.6 0 1 1 76.8 0v193.4592L819.2 694.912v-365.824L512 147.0464l-307.2 182.016v365.7728l198.656 116.864a38.4 38.4 0 1 1-38.912 66.2016l-217.6-128A38.4 38.4 0 0 1 128 716.8V307.2c0-13.568 7.168-26.112 18.816-33.024zM512 435.2a76.8 76.8 0 1 0 0 153.6 76.8 76.8 0 0 0 0-153.6z" p-id="2210"></path></svg>