<?xml version="1.0" standalone="no"?><!DOCTYPE svg PUBLIC "-//W3C//DTD SVG 1.1//EN" "http://www.w3.org/Graphics/SVG/1.1/DTD/svg11.dtd"><svg class="icon"   viewBox="0 0 1024 1024" version="1.1" xmlns="http://www.w3.org/2000/svg"><path fill="#333333" d="M180.992 148.992h311.04a32 32 0 0 1 3.093333 63.850667l-3.072 0.149333H212.992v598.016h598.016v-279.04a32 32 0 0 1 63.850667-3.093333l0.149333 3.072v311.061333a32 32 0 0 1-28.906667 31.850667l-3.093333 0.149333H180.992a32 32 0 0 1-31.850667-28.906667l-0.149333-3.093333V180.992A32 32 0 0 1 177.898667 149.12l3.093333-0.149333h311.04z m662.016 0a32.149333 32.149333 0 0 1 22.613333 9.386667l-1.877333-1.770667 1.472 1.322667 0.426667 0.426666a32.618667 32.618667 0 0 1 5.76 7.850667c1.856 3.562667 3.072 7.509333 3.456 11.690667l0.149333 3.093333v185.813333a32 32 0 0 1-63.850667 3.072l-0.149333-3.072v-108.586666L555.946667 513.28a32 32 0 0 1-42.837334 2.197333l-2.432-2.197333a32 32 0 0 1 0-45.269333L765.76 212.970667h-108.565333a32 32 0 0 1-3.072-63.829334l3.072-0.149333z" /></svg>