<?xml version="1.0" standalone="no"?><!DOCTYPE svg PUBLIC "-//W3C//DTD SVG 1.1//EN" "http://www.w3.org/Graphics/SVG/1.1/DTD/svg11.dtd"><svg t="1569717789900" class="icon" viewBox="0 0 1024 1024" version="1.1" xmlns="http://www.w3.org/2000/svg" p-id="1305" xmlns:xlink="http://www.w3.org/1999/xlink"  ><defs><style type="text/css"></style></defs><path d="M768 91.428571v128h54.857143a73.142857 73.142857 0 0 1 73.051428 69.485715L896 292.571429v566.857142a73.142857 73.142857 0 0 1-69.485714 73.051429L822.857143 932.571429H201.142857a73.142857 73.142857 0 0 1-73.051428-69.485715L128 859.428571V201.142857h0.402286A100.571429 100.571429 0 0 1 228.571429 91.428571H768zM201.142857 288.786286V841.142857a18.285714 18.285714 0 0 0 16.146286 18.157714L219.428571 859.428571h585.142858a18.285714 18.285714 0 0 0 18.157714-16.146285L822.857143 841.142857V310.857143a18.285714 18.285714 0 0 0-16.146286-18.157714L804.571429 292.571429h-64v-0.018286L228.571429 292.571429c-9.508571 0-18.706286-1.316571-27.428572-3.785143zM530.285714 585.142857a36.571429 36.571429 0 1 1 0 73.142857H310.857143a36.571429 36.571429 0 1 1 0-73.142857h219.428571z m182.857143-182.857143a36.571429 36.571429 0 1 1 0 73.142857H310.857143a36.571429 36.571429 0 1 1 0-73.142857h402.285714zM694.857143 164.571429H228.571429a27.428571 27.428571 0 0 0 0 54.857142H694.857143V164.571429z" p-id="1306"></path></svg>