<?xml version="1.0" standalone="no"?><!DOCTYPE svg PUBLIC "-//W3C//DTD SVG 1.1//EN" "http://www.w3.org/Graphics/SVG/1.1/DTD/svg11.dtd"><svg t="1569717823900" class="icon" viewBox="0 0 1024 1024" version="1.1" xmlns="http://www.w3.org/2000/svg" p-id="1870" xmlns:xlink="http://www.w3.org/1999/xlink"  ><defs><style type="text/css"></style></defs><path d="M822.857143 128a73.142857 73.142857 0 0 1 73.142857 73.142857v621.714286a73.142857 73.142857 0 0 1-73.142857 73.142857H201.142857a73.142857 73.142857 0 0 1-73.142857-73.142857V201.142857a73.142857 73.142857 0 0 1 73.142857-73.142857h621.714286zM589.019429 623.396571l-17.353143 17.371429a73.142857 73.142857 0 0 1-103.424 0l-16.64-16.64L252.854857 822.857143h520.832L589.019429 623.396571zM804.571429 201.142857H219.428571a18.285714 18.285714 0 0 0-18.285714 18.285714v551.68l198.729143-198.710857-73.874286-73.874285a73.142857 73.142857 0 0 1 0-103.424l142.244572-142.244572a73.142857 73.142857 0 0 1 103.424 0l142.244571 142.244572a73.142857 73.142857 0 0 1 0 103.424l-73.142857 73.124571L822.857143 768.292571V219.428571a18.285714 18.285714 0 0 0-18.285714-18.285714z m-297.545143 116.370286l-116.370286 116.370286a18.285714 18.285714 0 0 0 0 25.856l116.370286 116.370285a18.285714 18.285714 0 0 0 25.856 0l116.370285-116.370285a18.285714 18.285714 0 0 0 0-25.856l-116.370285-116.370286a18.285714 18.285714 0 0 0-25.856 0z" p-id="1871"></path></svg>