<?xml version="1.0" standalone="no"?><!DOCTYPE svg PUBLIC "-//W3C//DTD SVG 1.1//EN" "http://www.w3.org/Graphics/SVG/1.1/DTD/svg11.dtd"><svg t="1569717829802" class="icon" viewBox="0 0 1024 1024" version="1.1" xmlns="http://www.w3.org/2000/svg" p-id="2096" xmlns:xlink="http://www.w3.org/1999/xlink"  ><defs><style type="text/css"></style></defs><path d="M402.285714 548.571429a73.142857 73.142857 0 0 1 73.142857 73.142857v201.142857a73.142857 73.142857 0 0 1-73.142857 73.142857H201.142857a73.142857 73.142857 0 0 1-73.142857-73.142857V621.714286a73.142857 73.142857 0 0 1 73.142857-73.142857h201.142857z m420.571429 0a73.142857 73.142857 0 0 1 73.142857 73.142857v201.142857a73.142857 73.142857 0 0 1-73.142857 73.142857H621.714286a73.142857 73.142857 0 0 1-73.142857-73.142857V621.714286a73.142857 73.142857 0 0 1 73.142857-73.142857h201.142857zM402.285714 128a73.142857 73.142857 0 0 1 73.142857 73.142857v201.142857a73.142857 73.142857 0 0 1-73.142857 73.142857H201.142857a73.142857 73.142857 0 0 1-73.142857-73.142857V201.142857a73.142857 73.142857 0 0 1 73.142857-73.142857h201.142857z m420.571429 0a73.142857 73.142857 0 0 1 73.142857 73.142857v201.142857a73.142857 73.142857 0 0 1-73.142857 73.142857H621.714286a73.142857 73.142857 0 0 1-73.142857-73.142857V201.142857a73.142857 73.142857 0 0 1 73.142857-73.142857h201.142857z" p-id="2097"></path></svg>