<?xml version="1.0" standalone="no"?><!DOCTYPE svg PUBLIC "-//W3C//DTD SVG 1.1//EN" "http://www.w3.org/Graphics/SVG/1.1/DTD/svg11.dtd"><svg t="1569717820831" class="icon" viewBox="0 0 1024 1024" version="1.1" xmlns="http://www.w3.org/2000/svg" p-id="1757" xmlns:xlink="http://www.w3.org/1999/xlink"  ><defs><style type="text/css"></style></defs><path d="M822.857143 548.571429a73.142857 73.142857 0 0 1 73.142857 73.142857v201.142857a73.142857 73.142857 0 0 1-73.142857 73.142857H621.714286a73.142857 73.142857 0 0 1-73.142857-73.142857V621.714286a73.142857 73.142857 0 0 1 73.142857-73.142857h201.142857z m-420.571429-18.285715a73.142857 73.142857 0 0 1 73.142857 73.142857v201.142858a73.142857 73.142857 0 0 1-73.142857 73.142857H201.142857a73.142857 73.142857 0 0 1-73.142857-73.142857V603.428571a73.142857 73.142857 0 0 1 73.142857-73.142857h201.142857z m402.285715 91.428572h-164.571429a18.285714 18.285714 0 0 0-18.285714 18.285714v164.571429a18.285714 18.285714 0 0 0 18.285714 18.285714h164.571429a18.285714 18.285714 0 0 0 18.285714-18.285714v-164.571429a18.285714 18.285714 0 0 0-18.285714-18.285714z m-420.571429-18.285715h-164.571429a18.285714 18.285714 0 0 0-18.285714 18.285715v164.571428a18.285714 18.285714 0 0 0 18.285714 18.285715h164.571429a18.285714 18.285714 0 0 0 18.285714-18.285715v-164.571428a18.285714 18.285714 0 0 0-18.285714-18.285715z m18.285714-493.714285a73.142857 73.142857 0 0 1 73.142857 73.142857v201.142857a73.142857 73.142857 0 0 1-73.142857 73.142857H201.142857a73.142857 73.142857 0 0 1-73.142857-73.142857V182.857143a73.142857 73.142857 0 0 1 73.142857-73.142857h201.142857z m420.571429 0a73.142857 73.142857 0 0 1 73.142857 73.142857v201.142857a73.142857 73.142857 0 0 1-73.142857 73.142857H621.714286a73.142857 73.142857 0 0 1-73.142857-73.142857V182.857143a73.142857 73.142857 0 0 1 73.142857-73.142857h201.142857z m-438.857143 73.142857h-164.571429a18.285714 18.285714 0 0 0-18.285714 18.285714v164.571429a18.285714 18.285714 0 0 0 18.285714 18.285714h164.571429a18.285714 18.285714 0 0 0 18.285714-18.285714v-164.571429a18.285714 18.285714 0 0 0-18.285714-18.285714z m420.571429 0h-164.571429a18.285714 18.285714 0 0 0-18.285714 18.285714v164.571429a18.285714 18.285714 0 0 0 18.285714 18.285714h164.571429a18.285714 18.285714 0 0 0 18.285714-18.285714v-164.571429a18.285714 18.285714 0 0 0-18.285714-18.285714z" p-id="1758"></path></svg>