<?xml version="1.0" standalone="no"?><!DOCTYPE svg PUBLIC "-//W3C//DTD SVG 1.1//EN" "http://www.w3.org/Graphics/SVG/1.1/DTD/svg11.dtd"><svg t="1569717817532" class="icon" viewBox="0 0 1024 1024" version="1.1" xmlns="http://www.w3.org/2000/svg" p-id="1644" xmlns:xlink="http://www.w3.org/1999/xlink"  ><defs><style type="text/css"></style></defs><path d="M589.165714 623.250286l255.597715 269.421714c-6.930286 2.157714-14.262857 3.328-21.906286 3.328H201.142857c-6.546286 0-12.891429-0.859429-18.925714-2.468571l269.385143-269.403429 16.64 16.64a73.142857 73.142857 0 0 0 103.424 0l17.499428-17.517714zM822.857143 128a73.142857 73.142857 0 0 1 73.142857 73.142857v621.714286c0 5.394286-0.585143 10.660571-1.700571 15.725714L640.914286 571.501714l72.996571-72.96a73.142857 73.142857 0 0 0 0-103.442285l-142.244571-142.244572a73.142857 73.142857 0 0 0-103.424 0l-142.244572 142.244572a73.142857 73.142857 0 0 0 0 103.424l73.874286 73.874285L130.468571 841.801143A73.234286 73.234286 0 0 1 128 822.857143V201.142857a73.142857 73.142857 0 0 1 73.142857-73.142857h621.714286zM507.026286 317.513143a18.285714 18.285714 0 0 1 25.856 0l116.370285 116.370286a18.285714 18.285714 0 0 1 0 25.856l-116.370285 116.370285a18.285714 18.285714 0 0 1-25.856 0l-116.370286-116.370285a18.285714 18.285714 0 0 1 0-25.856z" p-id="1645"></path></svg>