<?xml version="1.0" standalone="no"?><!DOCTYPE svg PUBLIC "-//W3C//DTD SVG 1.1//EN" "http://www.w3.org/Graphics/SVG/1.1/DTD/svg11.dtd"><svg class="icon"   viewBox="0 0 1024 1024" version="1.1" xmlns="http://www.w3.org/2000/svg"><path fill="#333333" d="M885.333333 853.333333a32 32 0 0 1 0 64h-789.333333a32 32 0 0 1 0-64z m0-405.333333a32 32 0 0 1 32 32v234.666667a32 32 0 0 1-63.018666 7.893333A130.773333 130.773333 0 0 1 778.666667 746.666667c-77.290667 0-138.666667-67.498667-138.666667-149.333334s61.376-149.333333 138.666667-149.333333c28.053333 0 54.016 8.896 75.690666 24.128A31.914667 31.914667 0 0 1 885.333333 448zM369.450667 123.349333l1.322666 2.773334 245.333334 576a32 32 0 0 1-57.536 27.861333l-1.344-2.773333-82.581334-193.898667H208L125.44 727.210667a32 32 0 0 1-59.946667-22.186667l1.066667-2.901333 245.333333-576c10.645333-24.981333 45.141333-25.898667 57.557334-2.773334zM778.666667 512c-40.533333 0-74.666667 37.546667-74.666667 85.333333s34.133333 85.333333 74.666667 85.333334 74.666667-37.546667 74.666666-85.333334-34.133333-85.333333-74.666666-85.333333zM341.333333 220.330667l-106.048 248.981333h212.096L341.333333 220.330667z" /></svg>