<?xml version="1.0" standalone="no"?><!DOCTYPE svg PUBLIC "-//W3C//DTD SVG 1.1//EN" "http://www.w3.org/Graphics/SVG/1.1/DTD/svg11.dtd"><svg t="1571984348433" class="icon" viewBox="0 0 1024 1024" version="1.1" xmlns="http://www.w3.org/2000/svg" p-id="1102" xmlns:xlink="http://www.w3.org/1999/xlink"  ><defs><style type="text/css"></style></defs><path d="M527.04 976a48 48 0 0 1-47.68-42.048A80 80 0 0 0 400 864h-256A80 80 0 0 1 64 784v-608A80 80 0 0 1 144 96h256c50.432 0 95.936 21.216 128 55.232A175.328 175.328 0 0 1 656 96h256A80 80 0 0 1 992 176v608a80 80 0 0 1-80 80h-256a80 80 0 0 0-79.36 69.952 48 48 0 0 1-47.68 42.048h-1.92zM400 192H160v576h240a175.36 175.36 0 0 1 80 19.2V272A80 80 0 0 0 400 192zM896 192h-240A80 80 0 0 0 576 272v515.2a175.36 175.36 0 0 1 80-19.2H896V192z" p-id="1103"></path></svg>