<?xml version="1.0" standalone="no"?><!DOCTYPE svg PUBLIC "-//W3C//DTD SVG 1.1//EN" "http://www.w3.org/Graphics/SVG/1.1/DTD/svg11.dtd"><svg class="icon"   viewBox="0 0 1024 1024" version="1.1" xmlns="http://www.w3.org/2000/svg"><path fill="#333333" d="M512 1024c282.774588 0 512-229.225412 512-512S794.774588 0 512 0 0 229.225412 0 512s229.225412 512 512 512z m0-15.058824C237.552941 1008.941176 15.058824 786.447059 15.058824 512S237.552941 15.058824 512 15.058824s496.941176 222.494118 496.941176 496.941176-222.494118 496.941176-496.941176 496.941176zM441.178353 718.787765c-102.550588 4.758588-185.449412-46.260706-185.449412-114.176 0-67.990588 82.898824-122.503529 185.449412-127.201883 102.610824-4.668235 185.675294 37.270588 185.675294 105.110589 0 67.915294-83.064471 131.644235-185.675294 136.282353m218.352941-220.611765c-24.350118-4.713412-12.498824-17.724235-12.498823-17.724235s23.838118-38.987294-4.728471-67.312942c-35.388235-35.117176-121.359059 4.457412-121.359059 4.457412-32.843294 10.089412-24.139294-4.623059-19.486117-29.680941 0-29.545412-10.194824-79.510588-97.686589-49.995294-87.401412 29.680941-162.439529 133.677176-162.439529 133.677176-52.163765 69.089882-45.266824 122.488471-45.266824 122.488471 13.040941 117.910588 139.294118 150.287059 237.477647 157.936941 103.303529 8.041412 242.718118-35.343059 285.003295-124.431059 42.255059-89.283765-34.56-124.596706-59.01553-129.430588M455.514353 605.364706c-6.520471 4.818824-14.546824 4.156235-18.010353-1.656471-3.584-5.647059-2.228706-14.712471 4.367059-19.486117 7.634824-5.647059 15.585882-4.005647 19.019294 1.65647 3.463529 5.782588 0.993882 14.486588-5.376 19.471059m-60.807529 51.410824c-19.260235 2.228706-34.785882-8.794353-34.785883-24.786824 0-15.917176 13.793882-32.572235 33.069177-34.575059 22.121412-2.093176 36.502588 10.556235 36.502588 26.548706 0 15.917176-15.600941 30.644706-34.785882 32.813177m26.021647-134.580706c-103.152941 11.986824-91.241412 107.851294-91.241412 107.851294s-1.054118 30.373647 27.663059 45.839059c60.355765 32.436706 122.488471 12.784941 153.901176-27.437177 31.412706-40.252235 12.980706-138.134588-90.322823-126.253176M709.767529 456.658824c8.327529 0 15.375059-6.113882 16.564706-14.049883a6.716235 6.716235 0 0 0 0.225883-1.807059c12.589176-112.384-92.792471-93.048471-92.792471-93.04847-9.351529 0-16.865882 7.529412-16.865882 16.896 0 9.216 7.514353 16.730353 16.865882 16.730353 75.700706-16.579765 58.985412 58.533647 58.985412 58.533647 0 9.306353 7.634824 16.745412 17.01647 16.745412M613.059765 261.300706c-0.798118 0.075294-1.566118 0.828235-2.319059 0.993882-0.361412 0.075294-0.602353 0.451765-0.602353 0.451765a24.545882 24.545882 0 0 0-17.92 23.642353c0 13.387294 10.947765 24.410353 24.591059 24.410353 0 0 13.266824-1.761882 22.287059-5.270588 8.899765-3.553882 84.374588-2.635294 121.886117 59.843764 20.449882 45.583059 8.990118 76.107294 7.544471 81.001412 0 0-4.864 11.866353-4.864 23.521882 0 13.462588 10.947765 21.925647 24.500706 21.925647 11.339294 0 20.841412-1.536 23.627294-20.555294 40.402824-133.12-49.091765-195.689412-114.296471-210.778353-36.442353-8.463059-73.938824-1.189647-84.434823 0.813177z" /></svg>