<?xml version="1.0" standalone="no"?><!DOCTYPE svg PUBLIC "-//W3C//DTD SVG 1.1//EN" "http://www.w3.org/Graphics/SVG/1.1/DTD/svg11.dtd"><svg class="icon"   viewBox="0 0 1024 1024" version="1.1" xmlns="http://www.w3.org/2000/svg"><path fill="#333333" d="M512 0c282.768 0 512 229.232 512 512 0 282.768-229.232 512-512 512C229.232 1024 0 794.768 0 512 0 229.232 229.232 0 512 0z m153.024 443.424c-111.456 0-199.248 78.752-199.248 175.36 0 96.752 87.792 175.328 199.248 175.328 23.328 0 46.848-6.064 70.288-12.112l64.256 36.288-17.632-60.384c47.04-36.384 82.064-84.64 82.064-139.136 0-96.592-93.728-175.344-198.976-175.344zM427.392 256C298 256 192 345.728 192 459.648c0 65.76 35.264 119.76 94.192 161.648l-23.552 72.032 82.288-41.968c29.44 5.92 53.072 12.016 82.464 12.016 7.376 0 14.704-0.368 21.968-0.96-4.592-16-7.264-32.768-7.264-50.16 0-104.608 88.32-189.52 200.128-189.52 7.632 0 15.184 0.576 22.672 1.424C644.528 327.68 543.136 256 427.392 256z m172.48 274.896c16.736 0 27.68 12.528 27.68 24.976 0 12.64-10.944 25.008-27.68 25.008-10.992 0-22.08-12.384-22.08-25.008 0-12.432 11.088-24.976 22.08-24.976z m124.368 0c16.624 0 27.76 12.528 27.76 24.976 0 12.64-11.136 25.008-27.76 25.008-10.96 0-22.016-12.384-22.016-25.008 0-12.432 11.056-24.976 22.016-24.976zM524.608 355.968c17.008 0 28.288 12.368 28.288 31.184 0 18.72-11.28 31.28-28.288 31.28-16.96 0-33.936-12.544-33.936-31.28 0-18.816 16.992-31.2 33.92-31.2z m-174.144 0c16.928 0 28.208 12.368 28.208 31.184 0 18.72-11.28 31.28-28.208 31.28-16.928 0-34.016-12.544-34.016-31.28 0-18.816 17.088-31.2 34.016-31.2z" /></svg>