<?xml version="1.0" standalone="no"?><!DOCTYPE svg PUBLIC "-//W3C//DTD SVG 1.1//EN" "http://www.w3.org/Graphics/SVG/1.1/DTD/svg11.dtd"><svg class="icon"   viewBox="0 0 1024 1024" version="1.1" xmlns="http://www.w3.org/2000/svg"><path fill="#333333" d="M697.4464 363.7248C671.3856 240.2304 541.5936 148.48 393.472 148.48 227.84 148.48 92.16 263.3216 92.16 409.1392c0 84.1728 45.1328 153.3184 120.576 206.9248l-30.1568 92.2112 105.344-53.76c37.6832 7.6032 67.9168 15.4112 105.5232 15.4112 9.472 0 18.8416-0.4864 28.1344-1.2288a231.9616 231.9616 0 0 1-9.2928-64.2048c0-133.888 113.024-242.5856 256.1536-242.5856 9.7792 0 19.4304 0.7424 29.0048 1.792z m-179.5584-87.296c21.76 0 36.1984 15.872 36.1984 39.936 0 23.9616-14.4128 40.0384-36.1984 40.0384-21.6832 0-43.4432-16.0768-43.4432-40.0384 0-24.064 21.76-39.936 43.4432-39.936z m-222.8992 79.9744c-21.6576 0-43.52-16.0768-43.52-40.0384 0-24.064 21.8624-39.936 43.52-39.936 21.6832 0 36.096 15.872 36.096 39.936 0 23.9616-14.4128 40.0384-36.096 40.0384z m402.6368 32c-142.6688 0-255.0272 100.7872-255.0272 224.4352 0 123.8528 112.384 224.4352 255.0272 224.4352 29.8496 0 59.9808-7.7568 89.9584-15.5136l82.2528 46.4384-22.528-77.2864c60.16-46.592 105.0112-108.3392 105.0112-178.0736 0-123.648-119.9616-224.4608-254.6944-224.4608z m-83.3792 175.9232c-14.08 0-28.288-15.8464-28.288-32 0-15.9232 14.208-32 28.288-32 21.4016 0 35.4304 16.0768 35.4304 32 0 16.1536-14.0288 32-35.4304 32z m159.1808 0c-14.0288 0-28.16-15.8464-28.16-32 0-15.9232 14.1312-32 28.16-32 21.2736 0 35.5328 16.0768 35.5328 32 0 16.1536-14.2592 32-35.5328 32z" /></svg>