<?xml version="1.0" standalone="no"?><!DOCTYPE svg PUBLIC "-//W3C//DTD SVG 1.1//EN" "http://www.w3.org/Graphics/SVG/1.1/DTD/svg11.dtd"><svg class="icon"   viewBox="0 0 1024 1024" version="1.1" xmlns="http://www.w3.org/2000/svg"><path fill="#333333" d="M512 0c282.768 0 512 229.232 512 512 0 282.768-229.232 512-512 512C229.232 1024 0 794.768 0 512 0 229.232 229.232 0 512 0z m-9.792 389.344c0-30.768-10.336-82.816-99.12-52.064-88.688 30.912-164.832 139.2-164.832 139.2-52.96 71.968-45.952 127.584-45.952 127.584 13.232 122.768 124.672 168.64 249.184 168.64 124.528 0 238.128-40.992 281.04-133.776 42.88-92.96-35.072-129.76-59.872-134.784-24.72-4.896-12.704-18.432-12.704-18.432s24.176-40.592-4.8-70.128c-35.904-36.544-123.152 4.672-123.152 4.672-33.328 10.512-24.496-4.832-19.792-30.912z m-59.248 92.96c104.848-4.784 189.728 37.952 189.728 107.04 0 69.152-84.88 134.064-189.728 138.768-104.768 4.848-189.472-47.12-189.472-116.288 0-69.232 84.704-124.752 189.472-129.52z m84.048 107.984c-13.184-49.2-68.432-77.12-123.408-62.4-54.976 14.72-88.848 66.56-75.68 115.728 13.184 49.2 68.432 77.12 123.408 62.4 54.976-14.72 88.864-66.56 75.68-115.728z m-136.96 15.136c22.832-2.16 37.664 10.864 37.664 27.328 0 16.368-16.08 31.52-35.872 33.76-19.856 2.304-35.872-9.04-35.872-25.504 0-16.384 14.224-33.536 34.08-35.584z m62.288-45.696a10.848 10.848 0 1 1 0 21.696 10.848 10.848 0 0 1 0-21.696zM699.68 260.192c-37.392-8.864-75.84-1.232-86.624 0.864-0.832 0.08-1.6 0.864-2.368 1.024-0.384 0.08-0.608 0.48-0.608 0.48-10.624 3.04-18.4 12.992-18.4 24.768 0 14.032 11.232 25.552 25.232 25.552 0 0 13.6-1.84 22.832-5.504 9.152-3.728 86.608-2.784 125.056 62.672 20.992 47.744 9.232 79.712 7.76 84.832 0 0-4.992 12.416-4.992 24.64 0 14.08 11.232 22.96 25.136 22.96 11.632 0 21.392-1.6 24.4-21.52l1.616-5.68c37.168-135.552-53.056-199.488-119.04-215.088z m34.416 184.96c12.832-115.248-94.496-95.424-94.496-95.424-9.536 0-17.168 7.712-17.168 17.328 0 9.44 7.632 17.152 17.168 17.152 77.088-17.008 60.08 60.048 60.08 60.048 0 9.52 7.776 17.152 17.328 17.152 8.464 0 15.664-6.272 16.864-14.416a6.992 6.992 0 0 0 0.224-1.84z" /></svg>